%TF.GenerationSoftware,KiCad,Pcbnew,5.1.10*%
%TF.CreationDate,2021-11-27T11:42:48+01:00*%
%TF.ProjectId,GrasPiB_AR488_Adapter,47726173-5069-4425-9f41-523438385f41,0*%
%TF.SameCoordinates,PX4ce8b88PY2455c20*%
%TF.FileFunction,Legend,Top*%
%TF.FilePolarity,Positive*%
%FSLAX46Y46*%
G04 Gerber Fmt 4.6, Leading zero omitted, Abs format (unit mm)*
G04 Created by KiCad (PCBNEW 5.1.10) date 2021-11-27 11:42:48*
%MOMM*%
%LPD*%
G01*
G04 APERTURE LIST*
%ADD10C,0.150000*%
%ADD11C,0.200000*%
%ADD12C,0.500000*%
%ADD13C,0.010000*%
%ADD14C,0.120000*%
G04 APERTURE END LIST*
D10*
X4579776Y-19216666D02*
X5055967Y-19216666D01*
X4448824Y-19502380D02*
X4907157Y-18502380D01*
X5115491Y-19502380D01*
X5460729Y-19407142D02*
X5502395Y-19454761D01*
X5448824Y-19502380D01*
X5407157Y-19454761D01*
X5460729Y-19407142D01*
X5448824Y-19502380D01*
X6669062Y-18502380D02*
X6877395Y-19502380D01*
X7335729Y-18502380D01*
X7930967Y-19454761D02*
X7829776Y-19502380D01*
X7639300Y-19502380D01*
X7550014Y-19454761D01*
X7514300Y-19359523D01*
X7561919Y-18978571D01*
X7621443Y-18883333D01*
X7722633Y-18835714D01*
X7913110Y-18835714D01*
X8002395Y-18883333D01*
X8038110Y-18978571D01*
X8026205Y-19073809D01*
X7538110Y-19169047D01*
X8484538Y-18835714D02*
X8401205Y-19502380D01*
X8472633Y-18930952D02*
X8526205Y-18883333D01*
X8627395Y-18835714D01*
X8770252Y-18835714D01*
X8859538Y-18883333D01*
X8895252Y-18978571D01*
X8829776Y-19502380D01*
X9692872Y-19454761D02*
X9591681Y-19502380D01*
X9401205Y-19502380D01*
X9311919Y-19454761D01*
X9276205Y-19359523D01*
X9323824Y-18978571D01*
X9383348Y-18883333D01*
X9484538Y-18835714D01*
X9675014Y-18835714D01*
X9764300Y-18883333D01*
X9800014Y-18978571D01*
X9788110Y-19073809D01*
X9300014Y-19169047D01*
X10990491Y-18597619D02*
X11044062Y-18550000D01*
X11145252Y-18502380D01*
X11383348Y-18502380D01*
X11472633Y-18550000D01*
X11514300Y-18597619D01*
X11550014Y-18692857D01*
X11538110Y-18788095D01*
X11472633Y-18930952D01*
X10829776Y-19502380D01*
X11448824Y-19502380D01*
X12192872Y-18502380D02*
X12288110Y-18502380D01*
X12377395Y-18550000D01*
X12419062Y-18597619D01*
X12454776Y-18692857D01*
X12478586Y-18883333D01*
X12448824Y-19121428D01*
X12377395Y-19311904D01*
X12317872Y-19407142D01*
X12264300Y-19454761D01*
X12163110Y-19502380D01*
X12067872Y-19502380D01*
X11978586Y-19454761D01*
X11936919Y-19407142D01*
X11901205Y-19311904D01*
X11877395Y-19121428D01*
X11907157Y-18883333D01*
X11978586Y-18692857D01*
X12038110Y-18597619D01*
X12091681Y-18550000D01*
X12192872Y-18502380D01*
X12895252Y-18597619D02*
X12948824Y-18550000D01*
X13050014Y-18502380D01*
X13288110Y-18502380D01*
X13377395Y-18550000D01*
X13419062Y-18597619D01*
X13454776Y-18692857D01*
X13442872Y-18788095D01*
X13377395Y-18930952D01*
X12734538Y-19502380D01*
X13353586Y-19502380D01*
X14305967Y-19502380D02*
X13734538Y-19502380D01*
X14020252Y-19502380D02*
X14145252Y-18502380D01*
X14032157Y-18645238D01*
X13925014Y-18740476D01*
X13823824Y-18788095D01*
X67620238Y-7577380D02*
X67620238Y-6577380D01*
X68001190Y-6577380D01*
X68096428Y-6625000D01*
X68144047Y-6672619D01*
X68191666Y-6767857D01*
X68191666Y-6910714D01*
X68144047Y-7005952D01*
X68096428Y-7053571D01*
X68001190Y-7101190D01*
X67620238Y-7101190D01*
X68620238Y-7577380D02*
X68620238Y-6910714D01*
X68620238Y-6577380D02*
X68572619Y-6625000D01*
X68620238Y-6672619D01*
X68667857Y-6625000D01*
X68620238Y-6577380D01*
X68620238Y-6672619D01*
X69096428Y-6910714D02*
X69096428Y-7577380D01*
X69096428Y-7005952D02*
X69144047Y-6958333D01*
X69239285Y-6910714D01*
X69382142Y-6910714D01*
X69477380Y-6958333D01*
X69525000Y-7053571D01*
X69525000Y-7577380D01*
X71191666Y-7577380D02*
X71191666Y-7053571D01*
X71144047Y-6958333D01*
X71048809Y-6910714D01*
X70858333Y-6910714D01*
X70763095Y-6958333D01*
X71191666Y-7529761D02*
X71096428Y-7577380D01*
X70858333Y-7577380D01*
X70763095Y-7529761D01*
X70715476Y-7434523D01*
X70715476Y-7339285D01*
X70763095Y-7244047D01*
X70858333Y-7196428D01*
X71096428Y-7196428D01*
X71191666Y-7148809D01*
X71620238Y-7529761D02*
X71715476Y-7577380D01*
X71905952Y-7577380D01*
X72001190Y-7529761D01*
X72048809Y-7434523D01*
X72048809Y-7386904D01*
X72001190Y-7291666D01*
X71905952Y-7244047D01*
X71763095Y-7244047D01*
X71667857Y-7196428D01*
X71620238Y-7101190D01*
X71620238Y-7053571D01*
X71667857Y-6958333D01*
X71763095Y-6910714D01*
X71905952Y-6910714D01*
X72001190Y-6958333D01*
X72477380Y-7577380D02*
X72477380Y-6910714D01*
X72477380Y-6577380D02*
X72429761Y-6625000D01*
X72477380Y-6672619D01*
X72525000Y-6625000D01*
X72477380Y-6577380D01*
X72477380Y-6672619D01*
X73382142Y-6910714D02*
X73382142Y-7720238D01*
X73334523Y-7815476D01*
X73286904Y-7863095D01*
X73191666Y-7910714D01*
X73048809Y-7910714D01*
X72953571Y-7863095D01*
X73382142Y-7529761D02*
X73286904Y-7577380D01*
X73096428Y-7577380D01*
X73001190Y-7529761D01*
X72953571Y-7482142D01*
X72905952Y-7386904D01*
X72905952Y-7101190D01*
X72953571Y-7005952D01*
X73001190Y-6958333D01*
X73096428Y-6910714D01*
X73286904Y-6910714D01*
X73382142Y-6958333D01*
X73858333Y-6910714D02*
X73858333Y-7577380D01*
X73858333Y-7005952D02*
X73905952Y-6958333D01*
X74001190Y-6910714D01*
X74144047Y-6910714D01*
X74239285Y-6958333D01*
X74286904Y-7053571D01*
X74286904Y-7577380D01*
X74763095Y-7577380D02*
X74763095Y-6910714D01*
X74763095Y-7005952D02*
X74810714Y-6958333D01*
X74905952Y-6910714D01*
X75048809Y-6910714D01*
X75144047Y-6958333D01*
X75191666Y-7053571D01*
X75191666Y-7577380D01*
X75191666Y-7053571D02*
X75239285Y-6958333D01*
X75334523Y-6910714D01*
X75477380Y-6910714D01*
X75572619Y-6958333D01*
X75620238Y-7053571D01*
X75620238Y-7577380D01*
X76477380Y-7529761D02*
X76382142Y-7577380D01*
X76191666Y-7577380D01*
X76096428Y-7529761D01*
X76048809Y-7434523D01*
X76048809Y-7053571D01*
X76096428Y-6958333D01*
X76191666Y-6910714D01*
X76382142Y-6910714D01*
X76477380Y-6958333D01*
X76525000Y-7053571D01*
X76525000Y-7148809D01*
X76048809Y-7244047D01*
X76953571Y-6910714D02*
X76953571Y-7577380D01*
X76953571Y-7005952D02*
X77001190Y-6958333D01*
X77096428Y-6910714D01*
X77239285Y-6910714D01*
X77334523Y-6958333D01*
X77382142Y-7053571D01*
X77382142Y-7577380D01*
X77715476Y-6910714D02*
X78096428Y-6910714D01*
X77858333Y-6577380D02*
X77858333Y-7434523D01*
X77905952Y-7529761D01*
X78001190Y-7577380D01*
X78096428Y-7577380D01*
X78429761Y-7482142D02*
X78477380Y-7529761D01*
X78429761Y-7577380D01*
X78382142Y-7529761D01*
X78429761Y-7482142D01*
X78429761Y-7577380D01*
X78429761Y-6958333D02*
X78477380Y-7005952D01*
X78429761Y-7053571D01*
X78382142Y-7005952D01*
X78429761Y-6958333D01*
X78429761Y-7053571D01*
X69167857Y-10877380D02*
X69167857Y-9877380D01*
X69405952Y-9877380D01*
X69548809Y-9925000D01*
X69644047Y-10020238D01*
X69691666Y-10115476D01*
X69739285Y-10305952D01*
X69739285Y-10448809D01*
X69691666Y-10639285D01*
X69644047Y-10734523D01*
X69548809Y-10829761D01*
X69405952Y-10877380D01*
X69167857Y-10877380D01*
X70167857Y-10877380D02*
X70167857Y-9877380D01*
X70834523Y-9877380D02*
X71025000Y-9877380D01*
X71120238Y-9925000D01*
X71215476Y-10020238D01*
X71263095Y-10210714D01*
X71263095Y-10544047D01*
X71215476Y-10734523D01*
X71120238Y-10829761D01*
X71025000Y-10877380D01*
X70834523Y-10877380D01*
X70739285Y-10829761D01*
X70644047Y-10734523D01*
X70596428Y-10544047D01*
X70596428Y-10210714D01*
X70644047Y-10020238D01*
X70739285Y-9925000D01*
X70834523Y-9877380D01*
X72215476Y-10877380D02*
X71644047Y-10877380D01*
X71929761Y-10877380D02*
X71929761Y-9877380D01*
X71834523Y-10020238D01*
X71739285Y-10115476D01*
X71644047Y-10163095D01*
X73405952Y-10496428D02*
X74167857Y-10496428D01*
X75405952Y-10877380D02*
X75405952Y-9877380D01*
X75644047Y-9877380D01*
X75786904Y-9925000D01*
X75882142Y-10020238D01*
X75929761Y-10115476D01*
X75977380Y-10305952D01*
X75977380Y-10448809D01*
X75929761Y-10639285D01*
X75882142Y-10734523D01*
X75786904Y-10829761D01*
X75644047Y-10877380D01*
X75405952Y-10877380D01*
X76310714Y-9877380D02*
X76929761Y-9877380D01*
X76596428Y-10258333D01*
X76739285Y-10258333D01*
X76834523Y-10305952D01*
X76882142Y-10353571D01*
X76929761Y-10448809D01*
X76929761Y-10686904D01*
X76882142Y-10782142D01*
X76834523Y-10829761D01*
X76739285Y-10877380D01*
X76453571Y-10877380D01*
X76358333Y-10829761D01*
X76310714Y-10782142D01*
X68691666Y-12527380D02*
X68691666Y-11527380D01*
X68929761Y-11527380D01*
X69072619Y-11575000D01*
X69167857Y-11670238D01*
X69215476Y-11765476D01*
X69263095Y-11955952D01*
X69263095Y-12098809D01*
X69215476Y-12289285D01*
X69167857Y-12384523D01*
X69072619Y-12479761D01*
X68929761Y-12527380D01*
X68691666Y-12527380D01*
X69691666Y-12527380D02*
X69691666Y-11527380D01*
X70358333Y-11527380D02*
X70548809Y-11527380D01*
X70644047Y-11575000D01*
X70739285Y-11670238D01*
X70786904Y-11860714D01*
X70786904Y-12194047D01*
X70739285Y-12384523D01*
X70644047Y-12479761D01*
X70548809Y-12527380D01*
X70358333Y-12527380D01*
X70263095Y-12479761D01*
X70167857Y-12384523D01*
X70120238Y-12194047D01*
X70120238Y-11860714D01*
X70167857Y-11670238D01*
X70263095Y-11575000D01*
X70358333Y-11527380D01*
X71167857Y-11622619D02*
X71215476Y-11575000D01*
X71310714Y-11527380D01*
X71548809Y-11527380D01*
X71644047Y-11575000D01*
X71691666Y-11622619D01*
X71739285Y-11717857D01*
X71739285Y-11813095D01*
X71691666Y-11955952D01*
X71120238Y-12527380D01*
X71739285Y-12527380D01*
X72929761Y-12146428D02*
X73691666Y-12146428D01*
X74929761Y-12527380D02*
X74929761Y-11527380D01*
X75167857Y-11527380D01*
X75310714Y-11575000D01*
X75405952Y-11670238D01*
X75453571Y-11765476D01*
X75501190Y-11955952D01*
X75501190Y-12098809D01*
X75453571Y-12289285D01*
X75405952Y-12384523D01*
X75310714Y-12479761D01*
X75167857Y-12527380D01*
X74929761Y-12527380D01*
X76453571Y-12527380D02*
X75882142Y-12527380D01*
X76167857Y-12527380D02*
X76167857Y-11527380D01*
X76072619Y-11670238D01*
X75977380Y-11765476D01*
X75882142Y-11813095D01*
X77358333Y-11527380D02*
X76882142Y-11527380D01*
X76834523Y-12003571D01*
X76882142Y-11955952D01*
X76977380Y-11908333D01*
X77215476Y-11908333D01*
X77310714Y-11955952D01*
X77358333Y-12003571D01*
X77405952Y-12098809D01*
X77405952Y-12336904D01*
X77358333Y-12432142D01*
X77310714Y-12479761D01*
X77215476Y-12527380D01*
X76977380Y-12527380D01*
X76882142Y-12479761D01*
X76834523Y-12432142D01*
X68691666Y-14177380D02*
X68691666Y-13177380D01*
X68929761Y-13177380D01*
X69072619Y-13225000D01*
X69167857Y-13320238D01*
X69215476Y-13415476D01*
X69263095Y-13605952D01*
X69263095Y-13748809D01*
X69215476Y-13939285D01*
X69167857Y-14034523D01*
X69072619Y-14129761D01*
X68929761Y-14177380D01*
X68691666Y-14177380D01*
X69691666Y-14177380D02*
X69691666Y-13177380D01*
X70358333Y-13177380D02*
X70548809Y-13177380D01*
X70644047Y-13225000D01*
X70739285Y-13320238D01*
X70786904Y-13510714D01*
X70786904Y-13844047D01*
X70739285Y-14034523D01*
X70644047Y-14129761D01*
X70548809Y-14177380D01*
X70358333Y-14177380D01*
X70263095Y-14129761D01*
X70167857Y-14034523D01*
X70120238Y-13844047D01*
X70120238Y-13510714D01*
X70167857Y-13320238D01*
X70263095Y-13225000D01*
X70358333Y-13177380D01*
X71120238Y-13177380D02*
X71739285Y-13177380D01*
X71405952Y-13558333D01*
X71548809Y-13558333D01*
X71644047Y-13605952D01*
X71691666Y-13653571D01*
X71739285Y-13748809D01*
X71739285Y-13986904D01*
X71691666Y-14082142D01*
X71644047Y-14129761D01*
X71548809Y-14177380D01*
X71263095Y-14177380D01*
X71167857Y-14129761D01*
X71120238Y-14082142D01*
X72929761Y-13796428D02*
X73691666Y-13796428D01*
X74929761Y-14177380D02*
X74929761Y-13177380D01*
X75167857Y-13177380D01*
X75310714Y-13225000D01*
X75405952Y-13320238D01*
X75453571Y-13415476D01*
X75501190Y-13605952D01*
X75501190Y-13748809D01*
X75453571Y-13939285D01*
X75405952Y-14034523D01*
X75310714Y-14129761D01*
X75167857Y-14177380D01*
X74929761Y-14177380D01*
X76453571Y-14177380D02*
X75882142Y-14177380D01*
X76167857Y-14177380D02*
X76167857Y-13177380D01*
X76072619Y-13320238D01*
X75977380Y-13415476D01*
X75882142Y-13463095D01*
X77310714Y-13177380D02*
X77120238Y-13177380D01*
X77025000Y-13225000D01*
X76977380Y-13272619D01*
X76882142Y-13415476D01*
X76834523Y-13605952D01*
X76834523Y-13986904D01*
X76882142Y-14082142D01*
X76929761Y-14129761D01*
X77025000Y-14177380D01*
X77215476Y-14177380D01*
X77310714Y-14129761D01*
X77358333Y-14082142D01*
X77405952Y-13986904D01*
X77405952Y-13748809D01*
X77358333Y-13653571D01*
X77310714Y-13605952D01*
X77215476Y-13558333D01*
X77025000Y-13558333D01*
X76929761Y-13605952D01*
X76882142Y-13653571D01*
X76834523Y-13748809D01*
X68691666Y-15827380D02*
X68691666Y-14827380D01*
X68929761Y-14827380D01*
X69072619Y-14875000D01*
X69167857Y-14970238D01*
X69215476Y-15065476D01*
X69263095Y-15255952D01*
X69263095Y-15398809D01*
X69215476Y-15589285D01*
X69167857Y-15684523D01*
X69072619Y-15779761D01*
X68929761Y-15827380D01*
X68691666Y-15827380D01*
X69691666Y-15827380D02*
X69691666Y-14827380D01*
X70358333Y-14827380D02*
X70548809Y-14827380D01*
X70644047Y-14875000D01*
X70739285Y-14970238D01*
X70786904Y-15160714D01*
X70786904Y-15494047D01*
X70739285Y-15684523D01*
X70644047Y-15779761D01*
X70548809Y-15827380D01*
X70358333Y-15827380D01*
X70263095Y-15779761D01*
X70167857Y-15684523D01*
X70120238Y-15494047D01*
X70120238Y-15160714D01*
X70167857Y-14970238D01*
X70263095Y-14875000D01*
X70358333Y-14827380D01*
X71644047Y-15160714D02*
X71644047Y-15827380D01*
X71405952Y-14779761D02*
X71167857Y-15494047D01*
X71786904Y-15494047D01*
X72929761Y-15446428D02*
X73691666Y-15446428D01*
X74929761Y-15827380D02*
X74929761Y-14827380D01*
X75167857Y-14827380D01*
X75310714Y-14875000D01*
X75405952Y-14970238D01*
X75453571Y-15065476D01*
X75501190Y-15255952D01*
X75501190Y-15398809D01*
X75453571Y-15589285D01*
X75405952Y-15684523D01*
X75310714Y-15779761D01*
X75167857Y-15827380D01*
X74929761Y-15827380D01*
X76453571Y-15827380D02*
X75882142Y-15827380D01*
X76167857Y-15827380D02*
X76167857Y-14827380D01*
X76072619Y-14970238D01*
X75977380Y-15065476D01*
X75882142Y-15113095D01*
X77310714Y-15160714D02*
X77310714Y-15827380D01*
X77072619Y-14779761D02*
X76834523Y-15494047D01*
X77453571Y-15494047D01*
X69167857Y-17477380D02*
X69167857Y-16477380D01*
X69405952Y-16477380D01*
X69548809Y-16525000D01*
X69644047Y-16620238D01*
X69691666Y-16715476D01*
X69739285Y-16905952D01*
X69739285Y-17048809D01*
X69691666Y-17239285D01*
X69644047Y-17334523D01*
X69548809Y-17429761D01*
X69405952Y-17477380D01*
X69167857Y-17477380D01*
X70167857Y-17477380D02*
X70167857Y-16477380D01*
X70834523Y-16477380D02*
X71025000Y-16477380D01*
X71120238Y-16525000D01*
X71215476Y-16620238D01*
X71263095Y-16810714D01*
X71263095Y-17144047D01*
X71215476Y-17334523D01*
X71120238Y-17429761D01*
X71025000Y-17477380D01*
X70834523Y-17477380D01*
X70739285Y-17429761D01*
X70644047Y-17334523D01*
X70596428Y-17144047D01*
X70596428Y-16810714D01*
X70644047Y-16620238D01*
X70739285Y-16525000D01*
X70834523Y-16477380D01*
X72167857Y-16477380D02*
X71691666Y-16477380D01*
X71644047Y-16953571D01*
X71691666Y-16905952D01*
X71786904Y-16858333D01*
X72025000Y-16858333D01*
X72120238Y-16905952D01*
X72167857Y-16953571D01*
X72215476Y-17048809D01*
X72215476Y-17286904D01*
X72167857Y-17382142D01*
X72120238Y-17429761D01*
X72025000Y-17477380D01*
X71786904Y-17477380D01*
X71691666Y-17429761D01*
X71644047Y-17382142D01*
X73405952Y-17096428D02*
X74167857Y-17096428D01*
X75405952Y-17477380D02*
X75405952Y-16477380D01*
X75644047Y-16477380D01*
X75786904Y-16525000D01*
X75882142Y-16620238D01*
X75929761Y-16715476D01*
X75977380Y-16905952D01*
X75977380Y-17048809D01*
X75929761Y-17239285D01*
X75882142Y-17334523D01*
X75786904Y-17429761D01*
X75644047Y-17477380D01*
X75405952Y-17477380D01*
X76548809Y-16905952D02*
X76453571Y-16858333D01*
X76405952Y-16810714D01*
X76358333Y-16715476D01*
X76358333Y-16667857D01*
X76405952Y-16572619D01*
X76453571Y-16525000D01*
X76548809Y-16477380D01*
X76739285Y-16477380D01*
X76834523Y-16525000D01*
X76882142Y-16572619D01*
X76929761Y-16667857D01*
X76929761Y-16715476D01*
X76882142Y-16810714D01*
X76834523Y-16858333D01*
X76739285Y-16905952D01*
X76548809Y-16905952D01*
X76453571Y-16953571D01*
X76405952Y-17001190D01*
X76358333Y-17096428D01*
X76358333Y-17286904D01*
X76405952Y-17382142D01*
X76453571Y-17429761D01*
X76548809Y-17477380D01*
X76739285Y-17477380D01*
X76834523Y-17429761D01*
X76882142Y-17382142D01*
X76929761Y-17286904D01*
X76929761Y-17096428D01*
X76882142Y-17001190D01*
X76834523Y-16953571D01*
X76739285Y-16905952D01*
X69167857Y-19127380D02*
X69167857Y-18127380D01*
X69405952Y-18127380D01*
X69548809Y-18175000D01*
X69644047Y-18270238D01*
X69691666Y-18365476D01*
X69739285Y-18555952D01*
X69739285Y-18698809D01*
X69691666Y-18889285D01*
X69644047Y-18984523D01*
X69548809Y-19079761D01*
X69405952Y-19127380D01*
X69167857Y-19127380D01*
X70167857Y-19127380D02*
X70167857Y-18127380D01*
X70834523Y-18127380D02*
X71025000Y-18127380D01*
X71120238Y-18175000D01*
X71215476Y-18270238D01*
X71263095Y-18460714D01*
X71263095Y-18794047D01*
X71215476Y-18984523D01*
X71120238Y-19079761D01*
X71025000Y-19127380D01*
X70834523Y-19127380D01*
X70739285Y-19079761D01*
X70644047Y-18984523D01*
X70596428Y-18794047D01*
X70596428Y-18460714D01*
X70644047Y-18270238D01*
X70739285Y-18175000D01*
X70834523Y-18127380D01*
X72120238Y-18127380D02*
X71929761Y-18127380D01*
X71834523Y-18175000D01*
X71786904Y-18222619D01*
X71691666Y-18365476D01*
X71644047Y-18555952D01*
X71644047Y-18936904D01*
X71691666Y-19032142D01*
X71739285Y-19079761D01*
X71834523Y-19127380D01*
X72025000Y-19127380D01*
X72120238Y-19079761D01*
X72167857Y-19032142D01*
X72215476Y-18936904D01*
X72215476Y-18698809D01*
X72167857Y-18603571D01*
X72120238Y-18555952D01*
X72025000Y-18508333D01*
X71834523Y-18508333D01*
X71739285Y-18555952D01*
X71691666Y-18603571D01*
X71644047Y-18698809D01*
X73405952Y-18746428D02*
X74167857Y-18746428D01*
X75405952Y-19127380D02*
X75405952Y-18127380D01*
X75644047Y-18127380D01*
X75786904Y-18175000D01*
X75882142Y-18270238D01*
X75929761Y-18365476D01*
X75977380Y-18555952D01*
X75977380Y-18698809D01*
X75929761Y-18889285D01*
X75882142Y-18984523D01*
X75786904Y-19079761D01*
X75644047Y-19127380D01*
X75405952Y-19127380D01*
X76453571Y-19127380D02*
X76644047Y-19127380D01*
X76739285Y-19079761D01*
X76786904Y-19032142D01*
X76882142Y-18889285D01*
X76929761Y-18698809D01*
X76929761Y-18317857D01*
X76882142Y-18222619D01*
X76834523Y-18175000D01*
X76739285Y-18127380D01*
X76548809Y-18127380D01*
X76453571Y-18175000D01*
X76405952Y-18222619D01*
X76358333Y-18317857D01*
X76358333Y-18555952D01*
X76405952Y-18651190D01*
X76453571Y-18698809D01*
X76548809Y-18746428D01*
X76739285Y-18746428D01*
X76834523Y-18698809D01*
X76882142Y-18651190D01*
X76929761Y-18555952D01*
X68691666Y-20777380D02*
X68691666Y-19777380D01*
X68929761Y-19777380D01*
X69072619Y-19825000D01*
X69167857Y-19920238D01*
X69215476Y-20015476D01*
X69263095Y-20205952D01*
X69263095Y-20348809D01*
X69215476Y-20539285D01*
X69167857Y-20634523D01*
X69072619Y-20729761D01*
X68929761Y-20777380D01*
X68691666Y-20777380D01*
X69691666Y-20777380D02*
X69691666Y-19777380D01*
X70358333Y-19777380D02*
X70548809Y-19777380D01*
X70644047Y-19825000D01*
X70739285Y-19920238D01*
X70786904Y-20110714D01*
X70786904Y-20444047D01*
X70739285Y-20634523D01*
X70644047Y-20729761D01*
X70548809Y-20777380D01*
X70358333Y-20777380D01*
X70263095Y-20729761D01*
X70167857Y-20634523D01*
X70120238Y-20444047D01*
X70120238Y-20110714D01*
X70167857Y-19920238D01*
X70263095Y-19825000D01*
X70358333Y-19777380D01*
X71120238Y-19777380D02*
X71786904Y-19777380D01*
X71358333Y-20777380D01*
X72929761Y-20396428D02*
X73691666Y-20396428D01*
X74929761Y-20777380D02*
X74929761Y-19777380D01*
X75167857Y-19777380D01*
X75310714Y-19825000D01*
X75405952Y-19920238D01*
X75453571Y-20015476D01*
X75501190Y-20205952D01*
X75501190Y-20348809D01*
X75453571Y-20539285D01*
X75405952Y-20634523D01*
X75310714Y-20729761D01*
X75167857Y-20777380D01*
X74929761Y-20777380D01*
X76453571Y-20777380D02*
X75882142Y-20777380D01*
X76167857Y-20777380D02*
X76167857Y-19777380D01*
X76072619Y-19920238D01*
X75977380Y-20015476D01*
X75882142Y-20063095D01*
X77072619Y-19777380D02*
X77167857Y-19777380D01*
X77263095Y-19825000D01*
X77310714Y-19872619D01*
X77358333Y-19967857D01*
X77405952Y-20158333D01*
X77405952Y-20396428D01*
X77358333Y-20586904D01*
X77310714Y-20682142D01*
X77263095Y-20729761D01*
X77167857Y-20777380D01*
X77072619Y-20777380D01*
X76977380Y-20729761D01*
X76929761Y-20682142D01*
X76882142Y-20586904D01*
X76834523Y-20396428D01*
X76834523Y-20158333D01*
X76882142Y-19967857D01*
X76929761Y-19872619D01*
X76977380Y-19825000D01*
X77072619Y-19777380D01*
X69167857Y-22427380D02*
X69167857Y-21427380D01*
X69405952Y-21427380D01*
X69548809Y-21475000D01*
X69644047Y-21570238D01*
X69691666Y-21665476D01*
X69739285Y-21855952D01*
X69739285Y-21998809D01*
X69691666Y-22189285D01*
X69644047Y-22284523D01*
X69548809Y-22379761D01*
X69405952Y-22427380D01*
X69167857Y-22427380D01*
X70167857Y-22427380D02*
X70167857Y-21427380D01*
X70834523Y-21427380D02*
X71025000Y-21427380D01*
X71120238Y-21475000D01*
X71215476Y-21570238D01*
X71263095Y-21760714D01*
X71263095Y-22094047D01*
X71215476Y-22284523D01*
X71120238Y-22379761D01*
X71025000Y-22427380D01*
X70834523Y-22427380D01*
X70739285Y-22379761D01*
X70644047Y-22284523D01*
X70596428Y-22094047D01*
X70596428Y-21760714D01*
X70644047Y-21570238D01*
X70739285Y-21475000D01*
X70834523Y-21427380D01*
X71834523Y-21855952D02*
X71739285Y-21808333D01*
X71691666Y-21760714D01*
X71644047Y-21665476D01*
X71644047Y-21617857D01*
X71691666Y-21522619D01*
X71739285Y-21475000D01*
X71834523Y-21427380D01*
X72025000Y-21427380D01*
X72120238Y-21475000D01*
X72167857Y-21522619D01*
X72215476Y-21617857D01*
X72215476Y-21665476D01*
X72167857Y-21760714D01*
X72120238Y-21808333D01*
X72025000Y-21855952D01*
X71834523Y-21855952D01*
X71739285Y-21903571D01*
X71691666Y-21951190D01*
X71644047Y-22046428D01*
X71644047Y-22236904D01*
X71691666Y-22332142D01*
X71739285Y-22379761D01*
X71834523Y-22427380D01*
X72025000Y-22427380D01*
X72120238Y-22379761D01*
X72167857Y-22332142D01*
X72215476Y-22236904D01*
X72215476Y-22046428D01*
X72167857Y-21951190D01*
X72120238Y-21903571D01*
X72025000Y-21855952D01*
X73405952Y-22046428D02*
X74167857Y-22046428D01*
X75405952Y-22427380D02*
X75405952Y-21427380D01*
X75644047Y-21427380D01*
X75786904Y-21475000D01*
X75882142Y-21570238D01*
X75929761Y-21665476D01*
X75977380Y-21855952D01*
X75977380Y-21998809D01*
X75929761Y-22189285D01*
X75882142Y-22284523D01*
X75786904Y-22379761D01*
X75644047Y-22427380D01*
X75405952Y-22427380D01*
X76834523Y-21427380D02*
X76644047Y-21427380D01*
X76548809Y-21475000D01*
X76501190Y-21522619D01*
X76405952Y-21665476D01*
X76358333Y-21855952D01*
X76358333Y-22236904D01*
X76405952Y-22332142D01*
X76453571Y-22379761D01*
X76548809Y-22427380D01*
X76739285Y-22427380D01*
X76834523Y-22379761D01*
X76882142Y-22332142D01*
X76929761Y-22236904D01*
X76929761Y-21998809D01*
X76882142Y-21903571D01*
X76834523Y-21855952D01*
X76739285Y-21808333D01*
X76548809Y-21808333D01*
X76453571Y-21855952D01*
X76405952Y-21903571D01*
X76358333Y-21998809D01*
X69620238Y-25727380D02*
X69620238Y-24727380D01*
X69858333Y-24727380D01*
X70001190Y-24775000D01*
X70096428Y-24870238D01*
X70144047Y-24965476D01*
X70191666Y-25155952D01*
X70191666Y-25298809D01*
X70144047Y-25489285D01*
X70096428Y-25584523D01*
X70001190Y-25679761D01*
X69858333Y-25727380D01*
X69620238Y-25727380D01*
X70572619Y-25441666D02*
X71048809Y-25441666D01*
X70477380Y-25727380D02*
X70810714Y-24727380D01*
X71144047Y-25727380D01*
X71334523Y-24727380D02*
X71667857Y-25727380D01*
X72001190Y-24727380D01*
X73096428Y-25346428D02*
X73858333Y-25346428D01*
X75048809Y-25441666D02*
X75525000Y-25441666D01*
X74953571Y-25727380D02*
X75286904Y-24727380D01*
X75620238Y-25727380D01*
X76477380Y-25727380D02*
X75905952Y-25727380D01*
X76191666Y-25727380D02*
X76191666Y-24727380D01*
X76096428Y-24870238D01*
X76001190Y-24965476D01*
X75905952Y-25013095D01*
X69025000Y-27377380D02*
X69025000Y-26377380D01*
X69596428Y-27377380D01*
X69596428Y-26377380D01*
X70644047Y-27377380D02*
X70310714Y-26901190D01*
X70072619Y-27377380D02*
X70072619Y-26377380D01*
X70453571Y-26377380D01*
X70548809Y-26425000D01*
X70596428Y-26472619D01*
X70644047Y-26567857D01*
X70644047Y-26710714D01*
X70596428Y-26805952D01*
X70548809Y-26853571D01*
X70453571Y-26901190D01*
X70072619Y-26901190D01*
X71405952Y-26853571D02*
X71072619Y-26853571D01*
X71072619Y-27377380D02*
X71072619Y-26377380D01*
X71548809Y-26377380D01*
X71929761Y-27377380D02*
X71929761Y-26377380D01*
X72167857Y-26377380D01*
X72310714Y-26425000D01*
X72405952Y-26520238D01*
X72453571Y-26615476D01*
X72501190Y-26805952D01*
X72501190Y-26948809D01*
X72453571Y-27139285D01*
X72405952Y-27234523D01*
X72310714Y-27329761D01*
X72167857Y-27377380D01*
X71929761Y-27377380D01*
X73691666Y-26996428D02*
X74453571Y-26996428D01*
X75644047Y-27091666D02*
X76120238Y-27091666D01*
X75548809Y-27377380D02*
X75882142Y-26377380D01*
X76215476Y-27377380D01*
X76501190Y-26472619D02*
X76548809Y-26425000D01*
X76644047Y-26377380D01*
X76882142Y-26377380D01*
X76977380Y-26425000D01*
X77025000Y-26472619D01*
X77072619Y-26567857D01*
X77072619Y-26663095D01*
X77025000Y-26805952D01*
X76453571Y-27377380D01*
X77072619Y-27377380D01*
X69025000Y-29027380D02*
X69025000Y-28027380D01*
X69596428Y-29027380D01*
X69596428Y-28027380D01*
X70072619Y-29027380D02*
X70072619Y-28027380D01*
X70310714Y-28027380D01*
X70453571Y-28075000D01*
X70548809Y-28170238D01*
X70596428Y-28265476D01*
X70644047Y-28455952D01*
X70644047Y-28598809D01*
X70596428Y-28789285D01*
X70548809Y-28884523D01*
X70453571Y-28979761D01*
X70310714Y-29027380D01*
X70072619Y-29027380D01*
X71025000Y-28741666D02*
X71501190Y-28741666D01*
X70929761Y-29027380D02*
X71263095Y-28027380D01*
X71596428Y-29027380D01*
X72501190Y-28932142D02*
X72453571Y-28979761D01*
X72310714Y-29027380D01*
X72215476Y-29027380D01*
X72072619Y-28979761D01*
X71977380Y-28884523D01*
X71929761Y-28789285D01*
X71882142Y-28598809D01*
X71882142Y-28455952D01*
X71929761Y-28265476D01*
X71977380Y-28170238D01*
X72072619Y-28075000D01*
X72215476Y-28027380D01*
X72310714Y-28027380D01*
X72453571Y-28075000D01*
X72501190Y-28122619D01*
X73691666Y-28646428D02*
X74453571Y-28646428D01*
X75644047Y-28741666D02*
X76120238Y-28741666D01*
X75548809Y-29027380D02*
X75882142Y-28027380D01*
X76215476Y-29027380D01*
X76453571Y-28027380D02*
X77072619Y-28027380D01*
X76739285Y-28408333D01*
X76882142Y-28408333D01*
X76977380Y-28455952D01*
X77025000Y-28503571D01*
X77072619Y-28598809D01*
X77072619Y-28836904D01*
X77025000Y-28932142D01*
X76977380Y-28979761D01*
X76882142Y-29027380D01*
X76596428Y-29027380D01*
X76501190Y-28979761D01*
X76453571Y-28932142D01*
X69763095Y-31803571D02*
X70096428Y-31803571D01*
X70239285Y-32327380D02*
X69763095Y-32327380D01*
X69763095Y-31327380D01*
X70239285Y-31327380D01*
X70858333Y-31327380D02*
X71048809Y-31327380D01*
X71144047Y-31375000D01*
X71239285Y-31470238D01*
X71286904Y-31660714D01*
X71286904Y-31994047D01*
X71239285Y-32184523D01*
X71144047Y-32279761D01*
X71048809Y-32327380D01*
X70858333Y-32327380D01*
X70763095Y-32279761D01*
X70667857Y-32184523D01*
X70620238Y-31994047D01*
X70620238Y-31660714D01*
X70667857Y-31470238D01*
X70763095Y-31375000D01*
X70858333Y-31327380D01*
X71715476Y-32327380D02*
X71715476Y-31327380D01*
X72953571Y-31946428D02*
X73715476Y-31946428D01*
X74905952Y-32041666D02*
X75382142Y-32041666D01*
X74810714Y-32327380D02*
X75144047Y-31327380D01*
X75477380Y-32327380D01*
X76001190Y-31327380D02*
X76096428Y-31327380D01*
X76191666Y-31375000D01*
X76239285Y-31422619D01*
X76286904Y-31517857D01*
X76334523Y-31708333D01*
X76334523Y-31946428D01*
X76286904Y-32136904D01*
X76239285Y-32232142D01*
X76191666Y-32279761D01*
X76096428Y-32327380D01*
X76001190Y-32327380D01*
X75905952Y-32279761D01*
X75858333Y-32232142D01*
X75810714Y-32136904D01*
X75763095Y-31946428D01*
X75763095Y-31708333D01*
X75810714Y-31517857D01*
X75858333Y-31422619D01*
X75905952Y-31375000D01*
X76001190Y-31327380D01*
X70001190Y-33977380D02*
X69667857Y-33501190D01*
X69429761Y-33977380D02*
X69429761Y-32977380D01*
X69810714Y-32977380D01*
X69905952Y-33025000D01*
X69953571Y-33072619D01*
X70001190Y-33167857D01*
X70001190Y-33310714D01*
X69953571Y-33405952D01*
X69905952Y-33453571D01*
X69810714Y-33501190D01*
X69429761Y-33501190D01*
X70429761Y-33453571D02*
X70763095Y-33453571D01*
X70905952Y-33977380D02*
X70429761Y-33977380D01*
X70429761Y-32977380D01*
X70905952Y-32977380D01*
X71334523Y-33977380D02*
X71334523Y-32977380D01*
X71905952Y-33977380D01*
X71905952Y-32977380D01*
X73144047Y-33596428D02*
X73905952Y-33596428D01*
X75144047Y-33977380D02*
X75144047Y-32977380D01*
X75382142Y-32977380D01*
X75525000Y-33025000D01*
X75620238Y-33120238D01*
X75667857Y-33215476D01*
X75715476Y-33405952D01*
X75715476Y-33548809D01*
X75667857Y-33739285D01*
X75620238Y-33834523D01*
X75525000Y-33929761D01*
X75382142Y-33977380D01*
X75144047Y-33977380D01*
X76620238Y-32977380D02*
X76144047Y-32977380D01*
X76096428Y-33453571D01*
X76144047Y-33405952D01*
X76239285Y-33358333D01*
X76477380Y-33358333D01*
X76572619Y-33405952D01*
X76620238Y-33453571D01*
X76667857Y-33548809D01*
X76667857Y-33786904D01*
X76620238Y-33882142D01*
X76572619Y-33929761D01*
X76477380Y-33977380D01*
X76239285Y-33977380D01*
X76144047Y-33929761D01*
X76096428Y-33882142D01*
X69358333Y-35579761D02*
X69501190Y-35627380D01*
X69739285Y-35627380D01*
X69834523Y-35579761D01*
X69882142Y-35532142D01*
X69929761Y-35436904D01*
X69929761Y-35341666D01*
X69882142Y-35246428D01*
X69834523Y-35198809D01*
X69739285Y-35151190D01*
X69548809Y-35103571D01*
X69453571Y-35055952D01*
X69405952Y-35008333D01*
X69358333Y-34913095D01*
X69358333Y-34817857D01*
X69405952Y-34722619D01*
X69453571Y-34675000D01*
X69548809Y-34627380D01*
X69786904Y-34627380D01*
X69929761Y-34675000D01*
X70929761Y-35627380D02*
X70596428Y-35151190D01*
X70358333Y-35627380D02*
X70358333Y-34627380D01*
X70739285Y-34627380D01*
X70834523Y-34675000D01*
X70882142Y-34722619D01*
X70929761Y-34817857D01*
X70929761Y-34960714D01*
X70882142Y-35055952D01*
X70834523Y-35103571D01*
X70739285Y-35151190D01*
X70358333Y-35151190D01*
X72025000Y-35722619D02*
X71929761Y-35675000D01*
X71834523Y-35579761D01*
X71691666Y-35436904D01*
X71596428Y-35389285D01*
X71501190Y-35389285D01*
X71548809Y-35627380D02*
X71453571Y-35579761D01*
X71358333Y-35484523D01*
X71310714Y-35294047D01*
X71310714Y-34960714D01*
X71358333Y-34770238D01*
X71453571Y-34675000D01*
X71548809Y-34627380D01*
X71739285Y-34627380D01*
X71834523Y-34675000D01*
X71929761Y-34770238D01*
X71977380Y-34960714D01*
X71977380Y-35294047D01*
X71929761Y-35484523D01*
X71834523Y-35579761D01*
X71739285Y-35627380D01*
X71548809Y-35627380D01*
X73167857Y-35246428D02*
X73929761Y-35246428D01*
X75167857Y-35627380D02*
X75167857Y-34627380D01*
X75405952Y-34627380D01*
X75548809Y-34675000D01*
X75644047Y-34770238D01*
X75691666Y-34865476D01*
X75739285Y-35055952D01*
X75739285Y-35198809D01*
X75691666Y-35389285D01*
X75644047Y-35484523D01*
X75548809Y-35579761D01*
X75405952Y-35627380D01*
X75167857Y-35627380D01*
X76072619Y-34627380D02*
X76739285Y-34627380D01*
X76310714Y-35627380D01*
X69525000Y-36991666D02*
X70001190Y-36991666D01*
X69429761Y-37277380D02*
X69763095Y-36277380D01*
X70096428Y-37277380D01*
X70286904Y-36277380D02*
X70858333Y-36277380D01*
X70572619Y-37277380D02*
X70572619Y-36277380D01*
X71191666Y-37277380D02*
X71191666Y-36277380D01*
X71763095Y-37277380D01*
X71763095Y-36277380D01*
X73001190Y-36896428D02*
X73763095Y-36896428D01*
X75001190Y-37277380D02*
X75001190Y-36277380D01*
X75239285Y-36277380D01*
X75382142Y-36325000D01*
X75477380Y-36420238D01*
X75525000Y-36515476D01*
X75572619Y-36705952D01*
X75572619Y-36848809D01*
X75525000Y-37039285D01*
X75477380Y-37134523D01*
X75382142Y-37229761D01*
X75239285Y-37277380D01*
X75001190Y-37277380D01*
X75953571Y-36372619D02*
X76001190Y-36325000D01*
X76096428Y-36277380D01*
X76334523Y-36277380D01*
X76429761Y-36325000D01*
X76477380Y-36372619D01*
X76525000Y-36467857D01*
X76525000Y-36563095D01*
X76477380Y-36705952D01*
X75905952Y-37277380D01*
X76525000Y-37277380D01*
X69739285Y-38927380D02*
X69739285Y-37927380D01*
X70548809Y-38403571D02*
X70215476Y-38403571D01*
X70215476Y-38927380D02*
X70215476Y-37927380D01*
X70691666Y-37927380D01*
X71644047Y-38832142D02*
X71596428Y-38879761D01*
X71453571Y-38927380D01*
X71358333Y-38927380D01*
X71215476Y-38879761D01*
X71120238Y-38784523D01*
X71072619Y-38689285D01*
X71025000Y-38498809D01*
X71025000Y-38355952D01*
X71072619Y-38165476D01*
X71120238Y-38070238D01*
X71215476Y-37975000D01*
X71358333Y-37927380D01*
X71453571Y-37927380D01*
X71596428Y-37975000D01*
X71644047Y-38022619D01*
X72834523Y-38546428D02*
X73596428Y-38546428D01*
X74834523Y-38927380D02*
X74834523Y-37927380D01*
X75072619Y-37927380D01*
X75215476Y-37975000D01*
X75310714Y-38070238D01*
X75358333Y-38165476D01*
X75405952Y-38355952D01*
X75405952Y-38498809D01*
X75358333Y-38689285D01*
X75310714Y-38784523D01*
X75215476Y-38879761D01*
X75072619Y-38927380D01*
X74834523Y-38927380D01*
X76263095Y-38260714D02*
X76263095Y-38927380D01*
X76025000Y-37879761D02*
X75786904Y-38594047D01*
X76405952Y-38594047D01*
X69453571Y-41227380D02*
X70025000Y-41227380D01*
X69739285Y-42227380D02*
X69739285Y-41227380D01*
X70358333Y-41703571D02*
X70691666Y-41703571D01*
X70834523Y-42227380D02*
X70358333Y-42227380D01*
X70358333Y-41227380D01*
X70834523Y-41227380D01*
X72025000Y-41846428D02*
X72786904Y-41846428D01*
X74025000Y-42227380D02*
X74025000Y-41227380D01*
X74263095Y-41227380D01*
X74405952Y-41275000D01*
X74501190Y-41370238D01*
X74548809Y-41465476D01*
X74596428Y-41655952D01*
X74596428Y-41798809D01*
X74548809Y-41989285D01*
X74501190Y-42084523D01*
X74405952Y-42179761D01*
X74263095Y-42227380D01*
X74025000Y-42227380D01*
X75548809Y-42227380D02*
X74977380Y-42227380D01*
X75263095Y-42227380D02*
X75263095Y-41227380D01*
X75167857Y-41370238D01*
X75072619Y-41465476D01*
X74977380Y-41513095D01*
X75929761Y-41322619D02*
X75977380Y-41275000D01*
X76072619Y-41227380D01*
X76310714Y-41227380D01*
X76405952Y-41275000D01*
X76453571Y-41322619D01*
X76501190Y-41417857D01*
X76501190Y-41513095D01*
X76453571Y-41655952D01*
X75882142Y-42227380D01*
X76501190Y-42227380D01*
X69429761Y-43877380D02*
X69429761Y-42877380D01*
X69667857Y-42877380D01*
X69810714Y-42925000D01*
X69905952Y-43020238D01*
X69953571Y-43115476D01*
X70001190Y-43305952D01*
X70001190Y-43448809D01*
X69953571Y-43639285D01*
X69905952Y-43734523D01*
X69810714Y-43829761D01*
X69667857Y-43877380D01*
X69429761Y-43877380D01*
X71001190Y-43782142D02*
X70953571Y-43829761D01*
X70810714Y-43877380D01*
X70715476Y-43877380D01*
X70572619Y-43829761D01*
X70477380Y-43734523D01*
X70429761Y-43639285D01*
X70382142Y-43448809D01*
X70382142Y-43305952D01*
X70429761Y-43115476D01*
X70477380Y-43020238D01*
X70572619Y-42925000D01*
X70715476Y-42877380D01*
X70810714Y-42877380D01*
X70953571Y-42925000D01*
X71001190Y-42972619D01*
X72191666Y-43496428D02*
X72953571Y-43496428D01*
X74191666Y-43877380D02*
X74191666Y-42877380D01*
X74429761Y-42877380D01*
X74572619Y-42925000D01*
X74667857Y-43020238D01*
X74715476Y-43115476D01*
X74763095Y-43305952D01*
X74763095Y-43448809D01*
X74715476Y-43639285D01*
X74667857Y-43734523D01*
X74572619Y-43829761D01*
X74429761Y-43877380D01*
X74191666Y-43877380D01*
X75715476Y-43877380D02*
X75144047Y-43877380D01*
X75429761Y-43877380D02*
X75429761Y-42877380D01*
X75334523Y-43020238D01*
X75239285Y-43115476D01*
X75144047Y-43163095D01*
X76667857Y-43877380D02*
X76096428Y-43877380D01*
X76382142Y-43877380D02*
X76382142Y-42877380D01*
X76286904Y-43020238D01*
X76191666Y-43115476D01*
X76096428Y-43163095D01*
X69548809Y-47177380D02*
X69072619Y-47177380D01*
X69072619Y-46177380D01*
X69882142Y-46653571D02*
X70215476Y-46653571D01*
X70358333Y-47177380D02*
X69882142Y-47177380D01*
X69882142Y-46177380D01*
X70358333Y-46177380D01*
X70786904Y-47177380D02*
X70786904Y-46177380D01*
X71025000Y-46177380D01*
X71167857Y-46225000D01*
X71263095Y-46320238D01*
X71310714Y-46415476D01*
X71358333Y-46605952D01*
X71358333Y-46748809D01*
X71310714Y-46939285D01*
X71263095Y-47034523D01*
X71167857Y-47129761D01*
X71025000Y-47177380D01*
X70786904Y-47177380D01*
X72548809Y-46796428D02*
X73310714Y-46796428D01*
X74548809Y-47177380D02*
X74548809Y-46177380D01*
X74786904Y-46177380D01*
X74929761Y-46225000D01*
X75025000Y-46320238D01*
X75072619Y-46415476D01*
X75120238Y-46605952D01*
X75120238Y-46748809D01*
X75072619Y-46939285D01*
X75025000Y-47034523D01*
X74929761Y-47129761D01*
X74786904Y-47177380D01*
X74548809Y-47177380D01*
X76072619Y-47177380D02*
X75501190Y-47177380D01*
X75786904Y-47177380D02*
X75786904Y-46177380D01*
X75691666Y-46320238D01*
X75596428Y-46415476D01*
X75501190Y-46463095D01*
X76405952Y-46177380D02*
X77025000Y-46177380D01*
X76691666Y-46558333D01*
X76834523Y-46558333D01*
X76929761Y-46605952D01*
X76977380Y-46653571D01*
X77025000Y-46748809D01*
X77025000Y-46986904D01*
X76977380Y-47082142D01*
X76929761Y-47129761D01*
X76834523Y-47177380D01*
X76548809Y-47177380D01*
X76453571Y-47129761D01*
X76405952Y-47082142D01*
X70501190Y-48827380D02*
X70167857Y-48351190D01*
X69929761Y-48827380D02*
X69929761Y-47827380D01*
X70310714Y-47827380D01*
X70405952Y-47875000D01*
X70453571Y-47922619D01*
X70501190Y-48017857D01*
X70501190Y-48160714D01*
X70453571Y-48255952D01*
X70405952Y-48303571D01*
X70310714Y-48351190D01*
X69929761Y-48351190D01*
X70834523Y-47827380D02*
X71501190Y-48827380D01*
X71501190Y-47827380D02*
X70834523Y-48827380D01*
X72644047Y-48446428D02*
X73405952Y-48446428D01*
X74644047Y-48827380D02*
X74644047Y-47827380D01*
X74882142Y-47827380D01*
X75025000Y-47875000D01*
X75120238Y-47970238D01*
X75167857Y-48065476D01*
X75215476Y-48255952D01*
X75215476Y-48398809D01*
X75167857Y-48589285D01*
X75120238Y-48684523D01*
X75025000Y-48779761D01*
X74882142Y-48827380D01*
X74644047Y-48827380D01*
X75834523Y-47827380D02*
X75929761Y-47827380D01*
X76025000Y-47875000D01*
X76072619Y-47922619D01*
X76120238Y-48017857D01*
X76167857Y-48208333D01*
X76167857Y-48446428D01*
X76120238Y-48636904D01*
X76072619Y-48732142D01*
X76025000Y-48779761D01*
X75929761Y-48827380D01*
X75834523Y-48827380D01*
X75739285Y-48779761D01*
X75691666Y-48732142D01*
X75644047Y-48636904D01*
X75596428Y-48446428D01*
X75596428Y-48208333D01*
X75644047Y-48017857D01*
X75691666Y-47922619D01*
X75739285Y-47875000D01*
X75834523Y-47827380D01*
X69905952Y-49477380D02*
X70477380Y-49477380D01*
X70191666Y-50477380D02*
X70191666Y-49477380D01*
X70715476Y-49477380D02*
X71382142Y-50477380D01*
X71382142Y-49477380D02*
X70715476Y-50477380D01*
X72525000Y-50096428D02*
X73286904Y-50096428D01*
X74525000Y-50477380D02*
X74525000Y-49477380D01*
X74763095Y-49477380D01*
X74905952Y-49525000D01*
X75001190Y-49620238D01*
X75048809Y-49715476D01*
X75096428Y-49905952D01*
X75096428Y-50048809D01*
X75048809Y-50239285D01*
X75001190Y-50334523D01*
X74905952Y-50429761D01*
X74763095Y-50477380D01*
X74525000Y-50477380D01*
X76048809Y-50477380D02*
X75477380Y-50477380D01*
X75763095Y-50477380D02*
X75763095Y-49477380D01*
X75667857Y-49620238D01*
X75572619Y-49715476D01*
X75477380Y-49763095D01*
D11*
X5514196Y-15125000D02*
X5380267Y-15053571D01*
X5165982Y-15053571D01*
X4942767Y-15125000D01*
X4782053Y-15267857D01*
X4692767Y-15410714D01*
X4585624Y-15696428D01*
X4558839Y-15910714D01*
X4594553Y-16196428D01*
X4648124Y-16339285D01*
X4773124Y-16482142D01*
X4978482Y-16553571D01*
X5121339Y-16553571D01*
X5344553Y-16482142D01*
X5424910Y-16410714D01*
X5487410Y-15910714D01*
X5201696Y-15910714D01*
X6049910Y-16553571D02*
X6174910Y-15553571D01*
X6139196Y-15839285D02*
X6228482Y-15696428D01*
X6308839Y-15625000D01*
X6460624Y-15553571D01*
X6603482Y-15553571D01*
X7621339Y-16553571D02*
X7719553Y-15767857D01*
X7665982Y-15625000D01*
X7532053Y-15553571D01*
X7246339Y-15553571D01*
X7094553Y-15625000D01*
X7630267Y-16482142D02*
X7478482Y-16553571D01*
X7121339Y-16553571D01*
X6987410Y-16482142D01*
X6933839Y-16339285D01*
X6951696Y-16196428D01*
X7040982Y-16053571D01*
X7192767Y-15982142D01*
X7549910Y-15982142D01*
X7701696Y-15910714D01*
X8273124Y-16482142D02*
X8407053Y-16553571D01*
X8692767Y-16553571D01*
X8844553Y-16482142D01*
X8933839Y-16339285D01*
X8942767Y-16267857D01*
X8889196Y-16125000D01*
X8755267Y-16053571D01*
X8540982Y-16053571D01*
X8407053Y-15982142D01*
X8353482Y-15839285D01*
X8362410Y-15767857D01*
X8451696Y-15625000D01*
X8603482Y-15553571D01*
X8817767Y-15553571D01*
X8951696Y-15625000D01*
X9549910Y-16553571D02*
X9737410Y-15053571D01*
X10308839Y-15053571D01*
X10442767Y-15125000D01*
X10505267Y-15196428D01*
X10558839Y-15339285D01*
X10532053Y-15553571D01*
X10442767Y-15696428D01*
X10362410Y-15767857D01*
X10210624Y-15839285D01*
X9639196Y-15839285D01*
X11049910Y-16553571D02*
X11174910Y-15553571D01*
X11237410Y-15053571D02*
X11157053Y-15125000D01*
X11219553Y-15196428D01*
X11299910Y-15125000D01*
X11237410Y-15053571D01*
X11219553Y-15196428D01*
X12362410Y-15767857D02*
X12567767Y-15839285D01*
X12630267Y-15910714D01*
X12683839Y-16053571D01*
X12657053Y-16267857D01*
X12567767Y-16410714D01*
X12487410Y-16482142D01*
X12335624Y-16553571D01*
X11764196Y-16553571D01*
X11951696Y-15053571D01*
X12451696Y-15053571D01*
X12585624Y-15125000D01*
X12648124Y-15196428D01*
X12701696Y-15339285D01*
X12683839Y-15482142D01*
X12594553Y-15625000D01*
X12514196Y-15696428D01*
X12362410Y-15767857D01*
X11862410Y-15767857D01*
X14317767Y-15553571D02*
X14889196Y-15553571D01*
X14594553Y-15053571D02*
X14433839Y-16339285D01*
X14487410Y-16482142D01*
X14621339Y-16553571D01*
X14764196Y-16553571D01*
X15478482Y-16553571D02*
X15344553Y-16482142D01*
X15282053Y-16410714D01*
X15228482Y-16267857D01*
X15282053Y-15839285D01*
X15371339Y-15696428D01*
X15451696Y-15625000D01*
X15603482Y-15553571D01*
X15817767Y-15553571D01*
X15951696Y-15625000D01*
X16014196Y-15696428D01*
X16067767Y-15839285D01*
X16014196Y-16267857D01*
X15924910Y-16410714D01*
X15844553Y-16482142D01*
X15692767Y-16553571D01*
X15478482Y-16553571D01*
X17746339Y-16125000D02*
X18460624Y-16125000D01*
X17549910Y-16553571D02*
X18237410Y-15053571D01*
X18549910Y-16553571D01*
X19049910Y-16553571D02*
X19174910Y-15553571D01*
X19139196Y-15839285D02*
X19228482Y-15696428D01*
X19308839Y-15625000D01*
X19460624Y-15553571D01*
X19603482Y-15553571D01*
X20621339Y-16553571D02*
X20808839Y-15053571D01*
X20630267Y-16482142D02*
X20478482Y-16553571D01*
X20192767Y-16553571D01*
X20058839Y-16482142D01*
X19996339Y-16410714D01*
X19942767Y-16267857D01*
X19996339Y-15839285D01*
X20085624Y-15696428D01*
X20165982Y-15625000D01*
X20317767Y-15553571D01*
X20603482Y-15553571D01*
X20737410Y-15625000D01*
X22103482Y-15553571D02*
X21978482Y-16553571D01*
X21460624Y-15553571D02*
X21362410Y-16339285D01*
X21415982Y-16482142D01*
X21549910Y-16553571D01*
X21764196Y-16553571D01*
X21915982Y-16482142D01*
X21996339Y-16410714D01*
X22692767Y-16553571D02*
X22817767Y-15553571D01*
X22880267Y-15053571D02*
X22799910Y-15125000D01*
X22862410Y-15196428D01*
X22942767Y-15125000D01*
X22880267Y-15053571D01*
X22862410Y-15196428D01*
X23532053Y-15553571D02*
X23407053Y-16553571D01*
X23514196Y-15696428D02*
X23594553Y-15625000D01*
X23746339Y-15553571D01*
X23960624Y-15553571D01*
X24094553Y-15625000D01*
X24148124Y-15767857D01*
X24049910Y-16553571D01*
X24978482Y-16553571D02*
X24844553Y-16482142D01*
X24782053Y-16410714D01*
X24728482Y-16267857D01*
X24782053Y-15839285D01*
X24871339Y-15696428D01*
X24951696Y-15625000D01*
X25103482Y-15553571D01*
X25317767Y-15553571D01*
X25451696Y-15625000D01*
X25514196Y-15696428D01*
X25567767Y-15839285D01*
X25514196Y-16267857D01*
X25424910Y-16410714D01*
X25344553Y-16482142D01*
X25192767Y-16553571D01*
X24978482Y-16553571D01*
X27264196Y-16553571D02*
X27451696Y-15053571D01*
X27817767Y-16125000D01*
X28451696Y-15053571D01*
X28264196Y-16553571D01*
X28978482Y-16553571D02*
X29103482Y-15553571D01*
X29165982Y-15053571D02*
X29085624Y-15125000D01*
X29148124Y-15196428D01*
X29228482Y-15125000D01*
X29165982Y-15053571D01*
X29148124Y-15196428D01*
X30344553Y-16482142D02*
X30192767Y-16553571D01*
X29907053Y-16553571D01*
X29773124Y-16482142D01*
X29710624Y-16410714D01*
X29657053Y-16267857D01*
X29710624Y-15839285D01*
X29799910Y-15696428D01*
X29880267Y-15625000D01*
X30032053Y-15553571D01*
X30317767Y-15553571D01*
X30451696Y-15625000D01*
X30978482Y-16553571D02*
X31103482Y-15553571D01*
X31067767Y-15839285D02*
X31157053Y-15696428D01*
X31237410Y-15625000D01*
X31389196Y-15553571D01*
X31532053Y-15553571D01*
X32121339Y-16553571D02*
X31987410Y-16482142D01*
X31924910Y-16410714D01*
X31871339Y-16267857D01*
X31924910Y-15839285D01*
X32014196Y-15696428D01*
X32094553Y-15625000D01*
X32246339Y-15553571D01*
X32460624Y-15553571D01*
X32594553Y-15625000D01*
X32657053Y-15696428D01*
X32710624Y-15839285D01*
X32657053Y-16267857D01*
X32567767Y-16410714D01*
X32487410Y-16482142D01*
X32335624Y-16553571D01*
X32121339Y-16553571D01*
X34389196Y-16125000D02*
X35103482Y-16125000D01*
X34192767Y-16553571D02*
X34880267Y-15053571D01*
X35192767Y-16553571D01*
X36335624Y-16553571D02*
X36523124Y-15053571D01*
X36344553Y-16482142D02*
X36192767Y-16553571D01*
X35907053Y-16553571D01*
X35773124Y-16482142D01*
X35710624Y-16410714D01*
X35657053Y-16267857D01*
X35710624Y-15839285D01*
X35799910Y-15696428D01*
X35880267Y-15625000D01*
X36032053Y-15553571D01*
X36317767Y-15553571D01*
X36451696Y-15625000D01*
X37692767Y-16553571D02*
X37790982Y-15767857D01*
X37737410Y-15625000D01*
X37603482Y-15553571D01*
X37317767Y-15553571D01*
X37165982Y-15625000D01*
X37701696Y-16482142D02*
X37549910Y-16553571D01*
X37192767Y-16553571D01*
X37058839Y-16482142D01*
X37005267Y-16339285D01*
X37023124Y-16196428D01*
X37112410Y-16053571D01*
X37264196Y-15982142D01*
X37621339Y-15982142D01*
X37773124Y-15910714D01*
X38532053Y-15553571D02*
X38344553Y-17053571D01*
X38523124Y-15625000D02*
X38674910Y-15553571D01*
X38960624Y-15553571D01*
X39094553Y-15625000D01*
X39157053Y-15696428D01*
X39210624Y-15839285D01*
X39157053Y-16267857D01*
X39067767Y-16410714D01*
X38987410Y-16482142D01*
X38835624Y-16553571D01*
X38549910Y-16553571D01*
X38415982Y-16482142D01*
X39674910Y-15553571D02*
X40246339Y-15553571D01*
X39951696Y-15053571D02*
X39790982Y-16339285D01*
X39844553Y-16482142D01*
X39978482Y-16553571D01*
X40121339Y-16553571D01*
X41201696Y-16482142D02*
X41049910Y-16553571D01*
X40764196Y-16553571D01*
X40630267Y-16482142D01*
X40576696Y-16339285D01*
X40648124Y-15767857D01*
X40737410Y-15625000D01*
X40889196Y-15553571D01*
X41174910Y-15553571D01*
X41308839Y-15625000D01*
X41362410Y-15767857D01*
X41344553Y-15910714D01*
X40612410Y-16053571D01*
X41907053Y-16553571D02*
X42032053Y-15553571D01*
X41996339Y-15839285D02*
X42085624Y-15696428D01*
X42165982Y-15625000D01*
X42317767Y-15553571D01*
X42460624Y-15553571D01*
X44576696Y-15767857D02*
X44782053Y-15839285D01*
X44844553Y-15910714D01*
X44898124Y-16053571D01*
X44871339Y-16267857D01*
X44782053Y-16410714D01*
X44701696Y-16482142D01*
X44549910Y-16553571D01*
X43978482Y-16553571D01*
X44165982Y-15053571D01*
X44665982Y-15053571D01*
X44799910Y-15125000D01*
X44862410Y-15196428D01*
X44915982Y-15339285D01*
X44898124Y-15482142D01*
X44808839Y-15625000D01*
X44728482Y-15696428D01*
X44576696Y-15767857D01*
X44076696Y-15767857D01*
X45692767Y-16553571D02*
X45558839Y-16482142D01*
X45496339Y-16410714D01*
X45442767Y-16267857D01*
X45496339Y-15839285D01*
X45585624Y-15696428D01*
X45665982Y-15625000D01*
X45817767Y-15553571D01*
X46032053Y-15553571D01*
X46165982Y-15625000D01*
X46228482Y-15696428D01*
X46282053Y-15839285D01*
X46228482Y-16267857D01*
X46139196Y-16410714D01*
X46058839Y-16482142D01*
X45907053Y-16553571D01*
X45692767Y-16553571D01*
X47478482Y-16553571D02*
X47576696Y-15767857D01*
X47523124Y-15625000D01*
X47389196Y-15553571D01*
X47103482Y-15553571D01*
X46951696Y-15625000D01*
X47487410Y-16482142D02*
X47335624Y-16553571D01*
X46978482Y-16553571D01*
X46844553Y-16482142D01*
X46790982Y-16339285D01*
X46808839Y-16196428D01*
X46898124Y-16053571D01*
X47049910Y-15982142D01*
X47407053Y-15982142D01*
X47558839Y-15910714D01*
X48192767Y-16553571D02*
X48317767Y-15553571D01*
X48282053Y-15839285D02*
X48371339Y-15696428D01*
X48451696Y-15625000D01*
X48603482Y-15553571D01*
X48746339Y-15553571D01*
X49764196Y-16553571D02*
X49951696Y-15053571D01*
X49773124Y-16482142D02*
X49621339Y-16553571D01*
X49335624Y-16553571D01*
X49201696Y-16482142D01*
X49139196Y-16410714D01*
X49085624Y-16267857D01*
X49139196Y-15839285D01*
X49228482Y-15696428D01*
X49308839Y-15625000D01*
X49460624Y-15553571D01*
X49746339Y-15553571D01*
X49880267Y-15625000D01*
D12*
X5933690Y-11450000D02*
X5710476Y-11330952D01*
X5353333Y-11330952D01*
X4981309Y-11450000D01*
X4713452Y-11688095D01*
X4564642Y-11926190D01*
X4386071Y-12402380D01*
X4341428Y-12759523D01*
X4400952Y-13235714D01*
X4490238Y-13473809D01*
X4698571Y-13711904D01*
X5040833Y-13830952D01*
X5278928Y-13830952D01*
X5650952Y-13711904D01*
X5784880Y-13592857D01*
X5889047Y-12759523D01*
X5412857Y-12759523D01*
X6826547Y-13830952D02*
X7034880Y-12164285D01*
X6975357Y-12640476D02*
X7124166Y-12402380D01*
X7258095Y-12283333D01*
X7511071Y-12164285D01*
X7749166Y-12164285D01*
X9445595Y-13830952D02*
X9609285Y-12521428D01*
X9520000Y-12283333D01*
X9296785Y-12164285D01*
X8820595Y-12164285D01*
X8567619Y-12283333D01*
X9460476Y-13711904D02*
X9207500Y-13830952D01*
X8612261Y-13830952D01*
X8389047Y-13711904D01*
X8299761Y-13473809D01*
X8329523Y-13235714D01*
X8478333Y-12997619D01*
X8731309Y-12878571D01*
X9326547Y-12878571D01*
X9579523Y-12759523D01*
X10531904Y-13711904D02*
X10755119Y-13830952D01*
X11231309Y-13830952D01*
X11484285Y-13711904D01*
X11633095Y-13473809D01*
X11647976Y-13354761D01*
X11558690Y-13116666D01*
X11335476Y-12997619D01*
X10978333Y-12997619D01*
X10755119Y-12878571D01*
X10665833Y-12640476D01*
X10680714Y-12521428D01*
X10829523Y-12283333D01*
X11082500Y-12164285D01*
X11439642Y-12164285D01*
X11662857Y-12283333D01*
X12659880Y-13830952D02*
X12972380Y-11330952D01*
X13924761Y-11330952D01*
X14147976Y-11450000D01*
X14252142Y-11569047D01*
X14341428Y-11807142D01*
X14296785Y-12164285D01*
X14147976Y-12402380D01*
X14014047Y-12521428D01*
X13761071Y-12640476D01*
X12808690Y-12640476D01*
X15159880Y-13830952D02*
X15368214Y-12164285D01*
X15472380Y-11330952D02*
X15338452Y-11450000D01*
X15442619Y-11569047D01*
X15576547Y-11450000D01*
X15472380Y-11330952D01*
X15442619Y-11569047D01*
X17347380Y-12521428D02*
X17689642Y-12640476D01*
X17793809Y-12759523D01*
X17883095Y-12997619D01*
X17838452Y-13354761D01*
X17689642Y-13592857D01*
X17555714Y-13711904D01*
X17302738Y-13830952D01*
X16350357Y-13830952D01*
X16662857Y-11330952D01*
X17496190Y-11330952D01*
X17719404Y-11450000D01*
X17823571Y-11569047D01*
X17912857Y-11807142D01*
X17883095Y-12045238D01*
X17734285Y-12283333D01*
X17600357Y-12402380D01*
X17347380Y-12521428D01*
X16514047Y-12521428D01*
X18969404Y-12878571D02*
X20874166Y-12878571D01*
X21915833Y-13116666D02*
X23106309Y-13116666D01*
X21588452Y-13830952D02*
X22734285Y-11330952D01*
X23255119Y-13830952D01*
X25517023Y-13830952D02*
X24832500Y-12640476D01*
X24088452Y-13830952D02*
X24400952Y-11330952D01*
X25353333Y-11330952D01*
X25576547Y-11450000D01*
X25680714Y-11569047D01*
X25770000Y-11807142D01*
X25725357Y-12164285D01*
X25576547Y-12402380D01*
X25442619Y-12521428D01*
X25189642Y-12640476D01*
X24237261Y-12640476D01*
X27868214Y-12164285D02*
X27659880Y-13830952D01*
X27392023Y-11211904D02*
X26573571Y-12997619D01*
X28121190Y-12997619D01*
X29505119Y-12402380D02*
X29281904Y-12283333D01*
X29177738Y-12164285D01*
X29088452Y-11926190D01*
X29103333Y-11807142D01*
X29252142Y-11569047D01*
X29386071Y-11450000D01*
X29639047Y-11330952D01*
X30115238Y-11330952D01*
X30338452Y-11450000D01*
X30442619Y-11569047D01*
X30531904Y-11807142D01*
X30517023Y-11926190D01*
X30368214Y-12164285D01*
X30234285Y-12283333D01*
X29981309Y-12402380D01*
X29505119Y-12402380D01*
X29252142Y-12521428D01*
X29118214Y-12640476D01*
X28969404Y-12878571D01*
X28909880Y-13354761D01*
X28999166Y-13592857D01*
X29103333Y-13711904D01*
X29326547Y-13830952D01*
X29802738Y-13830952D01*
X30055714Y-13711904D01*
X30189642Y-13592857D01*
X30338452Y-13354761D01*
X30397976Y-12878571D01*
X30308690Y-12640476D01*
X30204523Y-12521428D01*
X29981309Y-12402380D01*
X31886071Y-12402380D02*
X31662857Y-12283333D01*
X31558690Y-12164285D01*
X31469404Y-11926190D01*
X31484285Y-11807142D01*
X31633095Y-11569047D01*
X31767023Y-11450000D01*
X32020000Y-11330952D01*
X32496190Y-11330952D01*
X32719404Y-11450000D01*
X32823571Y-11569047D01*
X32912857Y-11807142D01*
X32897976Y-11926190D01*
X32749166Y-12164285D01*
X32615238Y-12283333D01*
X32362261Y-12402380D01*
X31886071Y-12402380D01*
X31633095Y-12521428D01*
X31499166Y-12640476D01*
X31350357Y-12878571D01*
X31290833Y-13354761D01*
X31380119Y-13592857D01*
X31484285Y-13711904D01*
X31707500Y-13830952D01*
X32183690Y-13830952D01*
X32436666Y-13711904D01*
X32570595Y-13592857D01*
X32719404Y-13354761D01*
X32778928Y-12878571D01*
X32689642Y-12640476D01*
X32585476Y-12521428D01*
X32362261Y-12402380D01*
X35606309Y-13116666D02*
X36796785Y-13116666D01*
X35278928Y-13830952D02*
X36424761Y-11330952D01*
X36945595Y-13830952D01*
X38850357Y-13830952D02*
X39162857Y-11330952D01*
X38865238Y-13711904D02*
X38612261Y-13830952D01*
X38136071Y-13830952D01*
X37912857Y-13711904D01*
X37808690Y-13592857D01*
X37719404Y-13354761D01*
X37808690Y-12640476D01*
X37957500Y-12402380D01*
X38091428Y-12283333D01*
X38344404Y-12164285D01*
X38820595Y-12164285D01*
X39043809Y-12283333D01*
X41112261Y-13830952D02*
X41275952Y-12521428D01*
X41186666Y-12283333D01*
X40963452Y-12164285D01*
X40487261Y-12164285D01*
X40234285Y-12283333D01*
X41127142Y-13711904D02*
X40874166Y-13830952D01*
X40278928Y-13830952D01*
X40055714Y-13711904D01*
X39966428Y-13473809D01*
X39996190Y-13235714D01*
X40145000Y-12997619D01*
X40397976Y-12878571D01*
X40993214Y-12878571D01*
X41246190Y-12759523D01*
X42511071Y-12164285D02*
X42198571Y-14664285D01*
X42496190Y-12283333D02*
X42749166Y-12164285D01*
X43225357Y-12164285D01*
X43448571Y-12283333D01*
X43552738Y-12402380D01*
X43642023Y-12640476D01*
X43552738Y-13354761D01*
X43403928Y-13592857D01*
X43269999Y-13711904D01*
X43017023Y-13830952D01*
X42540833Y-13830952D01*
X42317619Y-13711904D01*
X44415833Y-12164285D02*
X45368214Y-12164285D01*
X44877142Y-11330952D02*
X44609285Y-13473809D01*
X44698571Y-13711904D01*
X44921785Y-13830952D01*
X45159880Y-13830952D01*
X46960476Y-13711904D02*
X46707499Y-13830952D01*
X46231309Y-13830952D01*
X46008095Y-13711904D01*
X45918809Y-13473809D01*
X46037857Y-12521428D01*
X46186666Y-12283333D01*
X46439642Y-12164285D01*
X46915833Y-12164285D01*
X47139047Y-12283333D01*
X47228333Y-12521428D01*
X47198571Y-12759523D01*
X45978333Y-12997619D01*
X48136071Y-13830952D02*
X48344404Y-12164285D01*
X48284880Y-12640476D02*
X48433690Y-12402380D01*
X48567619Y-12283333D01*
X48820595Y-12164285D01*
X49058690Y-12164285D01*
D10*
X7708095Y-7120000D02*
X7612857Y-7072380D01*
X7470000Y-7072380D01*
X7327142Y-7120000D01*
X7231904Y-7215238D01*
X7184285Y-7310476D01*
X7136666Y-7500952D01*
X7136666Y-7643809D01*
X7184285Y-7834285D01*
X7231904Y-7929523D01*
X7327142Y-8024761D01*
X7470000Y-8072380D01*
X7565238Y-8072380D01*
X7708095Y-8024761D01*
X7755714Y-7977142D01*
X7755714Y-7643809D01*
X7565238Y-7643809D01*
X8184285Y-8072380D02*
X8184285Y-7405714D01*
X8184285Y-7596190D02*
X8231904Y-7500952D01*
X8279523Y-7453333D01*
X8374761Y-7405714D01*
X8470000Y-7405714D01*
X9231904Y-8072380D02*
X9231904Y-7548571D01*
X9184285Y-7453333D01*
X9089047Y-7405714D01*
X8898571Y-7405714D01*
X8803333Y-7453333D01*
X9231904Y-8024761D02*
X9136666Y-8072380D01*
X8898571Y-8072380D01*
X8803333Y-8024761D01*
X8755714Y-7929523D01*
X8755714Y-7834285D01*
X8803333Y-7739047D01*
X8898571Y-7691428D01*
X9136666Y-7691428D01*
X9231904Y-7643809D01*
X9660476Y-8024761D02*
X9755714Y-8072380D01*
X9946190Y-8072380D01*
X10041428Y-8024761D01*
X10089047Y-7929523D01*
X10089047Y-7881904D01*
X10041428Y-7786666D01*
X9946190Y-7739047D01*
X9803333Y-7739047D01*
X9708095Y-7691428D01*
X9660476Y-7596190D01*
X9660476Y-7548571D01*
X9708095Y-7453333D01*
X9803333Y-7405714D01*
X9946190Y-7405714D01*
X10041428Y-7453333D01*
X10517619Y-8072380D02*
X10517619Y-7072380D01*
X10898571Y-7072380D01*
X10993809Y-7120000D01*
X11041428Y-7167619D01*
X11089047Y-7262857D01*
X11089047Y-7405714D01*
X11041428Y-7500952D01*
X10993809Y-7548571D01*
X10898571Y-7596190D01*
X10517619Y-7596190D01*
X11517619Y-8072380D02*
X11517619Y-7405714D01*
X11517619Y-7072380D02*
X11470000Y-7120000D01*
X11517619Y-7167619D01*
X11565238Y-7120000D01*
X11517619Y-7072380D01*
X11517619Y-7167619D01*
X12327142Y-7548571D02*
X12470000Y-7596190D01*
X12517619Y-7643809D01*
X12565238Y-7739047D01*
X12565238Y-7881904D01*
X12517619Y-7977142D01*
X12470000Y-8024761D01*
X12374761Y-8072380D01*
X11993809Y-8072380D01*
X11993809Y-7072380D01*
X12327142Y-7072380D01*
X12422380Y-7120000D01*
X12470000Y-7167619D01*
X12517619Y-7262857D01*
X12517619Y-7358095D01*
X12470000Y-7453333D01*
X12422380Y-7500952D01*
X12327142Y-7548571D01*
X11993809Y-7548571D01*
X13755714Y-8072380D02*
X13755714Y-7072380D01*
X14422380Y-7072380D02*
X14612857Y-7072380D01*
X14708095Y-7120000D01*
X14803333Y-7215238D01*
X14850952Y-7405714D01*
X14850952Y-7739047D01*
X14803333Y-7929523D01*
X14708095Y-8024761D01*
X14612857Y-8072380D01*
X14422380Y-8072380D01*
X14327142Y-8024761D01*
X14231904Y-7929523D01*
X14184285Y-7739047D01*
X14184285Y-7405714D01*
X14231904Y-7215238D01*
X14327142Y-7120000D01*
X14422380Y-7072380D01*
X16041428Y-8072380D02*
X16041428Y-7072380D01*
X16041428Y-7548571D02*
X16612857Y-7548571D01*
X16612857Y-8072380D02*
X16612857Y-7072380D01*
X17470000Y-8024761D02*
X17374761Y-8072380D01*
X17184285Y-8072380D01*
X17089047Y-8024761D01*
X17041428Y-7929523D01*
X17041428Y-7548571D01*
X17089047Y-7453333D01*
X17184285Y-7405714D01*
X17374761Y-7405714D01*
X17470000Y-7453333D01*
X17517619Y-7548571D01*
X17517619Y-7643809D01*
X17041428Y-7739047D01*
X18374761Y-8072380D02*
X18374761Y-7548571D01*
X18327142Y-7453333D01*
X18231904Y-7405714D01*
X18041428Y-7405714D01*
X17946190Y-7453333D01*
X18374761Y-8024761D02*
X18279523Y-8072380D01*
X18041428Y-8072380D01*
X17946190Y-8024761D01*
X17898571Y-7929523D01*
X17898571Y-7834285D01*
X17946190Y-7739047D01*
X18041428Y-7691428D01*
X18279523Y-7691428D01*
X18374761Y-7643809D01*
X19279523Y-8072380D02*
X19279523Y-7072380D01*
X19279523Y-8024761D02*
X19184285Y-8072380D01*
X18993809Y-8072380D01*
X18898571Y-8024761D01*
X18850952Y-7977142D01*
X18803333Y-7881904D01*
X18803333Y-7596190D01*
X18850952Y-7500952D01*
X18898571Y-7453333D01*
X18993809Y-7405714D01*
X19184285Y-7405714D01*
X19279523Y-7453333D01*
X20136666Y-8024761D02*
X20041428Y-8072380D01*
X19850952Y-8072380D01*
X19755714Y-8024761D01*
X19708095Y-7929523D01*
X19708095Y-7548571D01*
X19755714Y-7453333D01*
X19850952Y-7405714D01*
X20041428Y-7405714D01*
X20136666Y-7453333D01*
X20184285Y-7548571D01*
X20184285Y-7643809D01*
X19708095Y-7739047D01*
X20612857Y-8072380D02*
X20612857Y-7405714D01*
X20612857Y-7596190D02*
X20660476Y-7500952D01*
X20708095Y-7453333D01*
X20803333Y-7405714D01*
X20898571Y-7405714D01*
X2643809Y-25566666D02*
X3120000Y-25566666D01*
X2548571Y-25852380D02*
X2881904Y-24852380D01*
X3215238Y-25852380D01*
X3548571Y-25852380D02*
X3548571Y-25185714D01*
X3548571Y-25376190D02*
X3596190Y-25280952D01*
X3643809Y-25233333D01*
X3739047Y-25185714D01*
X3834285Y-25185714D01*
X4596190Y-25852380D02*
X4596190Y-24852380D01*
X4596190Y-25804761D02*
X4500952Y-25852380D01*
X4310476Y-25852380D01*
X4215238Y-25804761D01*
X4167619Y-25757142D01*
X4120000Y-25661904D01*
X4120000Y-25376190D01*
X4167619Y-25280952D01*
X4215238Y-25233333D01*
X4310476Y-25185714D01*
X4500952Y-25185714D01*
X4596190Y-25233333D01*
X5500952Y-25185714D02*
X5500952Y-25852380D01*
X5072380Y-25185714D02*
X5072380Y-25709523D01*
X5120000Y-25804761D01*
X5215238Y-25852380D01*
X5358095Y-25852380D01*
X5453333Y-25804761D01*
X5500952Y-25757142D01*
X5977142Y-25852380D02*
X5977142Y-25185714D01*
X5977142Y-24852380D02*
X5929523Y-24900000D01*
X5977142Y-24947619D01*
X6024761Y-24900000D01*
X5977142Y-24852380D01*
X5977142Y-24947619D01*
X6453333Y-25185714D02*
X6453333Y-25852380D01*
X6453333Y-25280952D02*
X6500952Y-25233333D01*
X6596190Y-25185714D01*
X6739047Y-25185714D01*
X6834285Y-25233333D01*
X6881904Y-25328571D01*
X6881904Y-25852380D01*
X7500952Y-25852380D02*
X7405714Y-25804761D01*
X7358095Y-25757142D01*
X7310476Y-25661904D01*
X7310476Y-25376190D01*
X7358095Y-25280952D01*
X7405714Y-25233333D01*
X7500952Y-25185714D01*
X7643809Y-25185714D01*
X7739047Y-25233333D01*
X7786666Y-25280952D01*
X7834285Y-25376190D01*
X7834285Y-25661904D01*
X7786666Y-25757142D01*
X7739047Y-25804761D01*
X7643809Y-25852380D01*
X7500952Y-25852380D01*
X9024761Y-25852380D02*
X9024761Y-24852380D01*
X9358095Y-25566666D01*
X9691428Y-24852380D01*
X9691428Y-25852380D01*
X10167619Y-25852380D02*
X10167619Y-25185714D01*
X10167619Y-24852380D02*
X10120000Y-24900000D01*
X10167619Y-24947619D01*
X10215238Y-24900000D01*
X10167619Y-24852380D01*
X10167619Y-24947619D01*
X11072380Y-25804761D02*
X10977142Y-25852380D01*
X10786666Y-25852380D01*
X10691428Y-25804761D01*
X10643809Y-25757142D01*
X10596190Y-25661904D01*
X10596190Y-25376190D01*
X10643809Y-25280952D01*
X10691428Y-25233333D01*
X10786666Y-25185714D01*
X10977142Y-25185714D01*
X11072380Y-25233333D01*
X11500952Y-25852380D02*
X11500952Y-25185714D01*
X11500952Y-25376190D02*
X11548571Y-25280952D01*
X11596190Y-25233333D01*
X11691428Y-25185714D01*
X11786666Y-25185714D01*
X12262857Y-25852380D02*
X12167619Y-25804761D01*
X12120000Y-25757142D01*
X12072380Y-25661904D01*
X12072380Y-25376190D01*
X12120000Y-25280952D01*
X12167619Y-25233333D01*
X12262857Y-25185714D01*
X12405714Y-25185714D01*
X12500952Y-25233333D01*
X12548571Y-25280952D01*
X12596190Y-25376190D01*
X12596190Y-25661904D01*
X12548571Y-25757142D01*
X12500952Y-25804761D01*
X12405714Y-25852380D01*
X12262857Y-25852380D01*
D13*
%TO.C,REF\u002A\u002A*%
G36*
X33575814Y-47633931D02*
G01*
X33659635Y-48078555D01*
X33968920Y-48206053D01*
X34278206Y-48333551D01*
X34649246Y-48081246D01*
X34753157Y-48010996D01*
X34847087Y-47948272D01*
X34926652Y-47895938D01*
X34987470Y-47856857D01*
X35025157Y-47833893D01*
X35035421Y-47828942D01*
X35053910Y-47841676D01*
X35093420Y-47876882D01*
X35149522Y-47930062D01*
X35217787Y-47996718D01*
X35293786Y-48072354D01*
X35373092Y-48152472D01*
X35451275Y-48232574D01*
X35523907Y-48308164D01*
X35586559Y-48374745D01*
X35634803Y-48427818D01*
X35664210Y-48462887D01*
X35671241Y-48474623D01*
X35661123Y-48496260D01*
X35632759Y-48543662D01*
X35589129Y-48612193D01*
X35533218Y-48697215D01*
X35468006Y-48794093D01*
X35430219Y-48849350D01*
X35361343Y-48950248D01*
X35300140Y-49041299D01*
X35249578Y-49117970D01*
X35212628Y-49175728D01*
X35192258Y-49210043D01*
X35189197Y-49217254D01*
X35196136Y-49237748D01*
X35215051Y-49285513D01*
X35243087Y-49353832D01*
X35277391Y-49435989D01*
X35315109Y-49525270D01*
X35353387Y-49614958D01*
X35389370Y-49698338D01*
X35420206Y-49768694D01*
X35443039Y-49819310D01*
X35455017Y-49843471D01*
X35455724Y-49844422D01*
X35474531Y-49849036D01*
X35524618Y-49859328D01*
X35600793Y-49874287D01*
X35697865Y-49892901D01*
X35810643Y-49914159D01*
X35876442Y-49926418D01*
X35996950Y-49949362D01*
X36105797Y-49971195D01*
X36197476Y-49990722D01*
X36266481Y-50006748D01*
X36307304Y-50018079D01*
X36315511Y-50021674D01*
X36323548Y-50046006D01*
X36330033Y-50100959D01*
X36334970Y-50180108D01*
X36338364Y-50277026D01*
X36340218Y-50385287D01*
X36340538Y-50498465D01*
X36339327Y-50610135D01*
X36336590Y-50713868D01*
X36332331Y-50803241D01*
X36326555Y-50871826D01*
X36319267Y-50913197D01*
X36314895Y-50921810D01*
X36288764Y-50932133D01*
X36233393Y-50946892D01*
X36156107Y-50964352D01*
X36064230Y-50982780D01*
X36032158Y-50988741D01*
X35877524Y-51017066D01*
X35755375Y-51039876D01*
X35661673Y-51058080D01*
X35592384Y-51072583D01*
X35543471Y-51084292D01*
X35510897Y-51094115D01*
X35490628Y-51102956D01*
X35478626Y-51111724D01*
X35476947Y-51113457D01*
X35460184Y-51141371D01*
X35434614Y-51195695D01*
X35402788Y-51269777D01*
X35367260Y-51356965D01*
X35330583Y-51450608D01*
X35295311Y-51544052D01*
X35263996Y-51630647D01*
X35239193Y-51703740D01*
X35223454Y-51756678D01*
X35219332Y-51782811D01*
X35219676Y-51783726D01*
X35233641Y-51805086D01*
X35265322Y-51852084D01*
X35311391Y-51919827D01*
X35368518Y-52003423D01*
X35433373Y-52097982D01*
X35451843Y-52124854D01*
X35517699Y-52222275D01*
X35575650Y-52311163D01*
X35622538Y-52386412D01*
X35655207Y-52442920D01*
X35670500Y-52475581D01*
X35671241Y-52479593D01*
X35658392Y-52500684D01*
X35622888Y-52542464D01*
X35569293Y-52600445D01*
X35502171Y-52670135D01*
X35426087Y-52747045D01*
X35345604Y-52826683D01*
X35265287Y-52904561D01*
X35189699Y-52976186D01*
X35123405Y-53037070D01*
X35070969Y-53082721D01*
X35036955Y-53108650D01*
X35027545Y-53112883D01*
X35005643Y-53102912D01*
X34960800Y-53076020D01*
X34900321Y-53036736D01*
X34853789Y-53005117D01*
X34769475Y-52947098D01*
X34669626Y-52878784D01*
X34569473Y-52810579D01*
X34515627Y-52774075D01*
X34333371Y-52650800D01*
X34180381Y-52733520D01*
X34110682Y-52769759D01*
X34051414Y-52797926D01*
X34011311Y-52813991D01*
X34001103Y-52816226D01*
X33988829Y-52799722D01*
X33964613Y-52753082D01*
X33930263Y-52680609D01*
X33887588Y-52586606D01*
X33838394Y-52475374D01*
X33784490Y-52351215D01*
X33727684Y-52218432D01*
X33669782Y-52081327D01*
X33612593Y-51944202D01*
X33557924Y-51811358D01*
X33507584Y-51687098D01*
X33463380Y-51575725D01*
X33427119Y-51481539D01*
X33400609Y-51408844D01*
X33385658Y-51361941D01*
X33383254Y-51345833D01*
X33402311Y-51325286D01*
X33444036Y-51291933D01*
X33499706Y-51252702D01*
X33504378Y-51249599D01*
X33648264Y-51134423D01*
X33764283Y-51000053D01*
X33851430Y-50850784D01*
X33908699Y-50690913D01*
X33935086Y-50524737D01*
X33929585Y-50356552D01*
X33891190Y-50190655D01*
X33818895Y-50031342D01*
X33797626Y-49996487D01*
X33686996Y-49855737D01*
X33556302Y-49742714D01*
X33410064Y-49658003D01*
X33252808Y-49602194D01*
X33089057Y-49575874D01*
X32923333Y-49579630D01*
X32760162Y-49614050D01*
X32604065Y-49679723D01*
X32459567Y-49777235D01*
X32414869Y-49816813D01*
X32301112Y-49940703D01*
X32218218Y-50071124D01*
X32161356Y-50217315D01*
X32129687Y-50362088D01*
X32121869Y-50524860D01*
X32147938Y-50688440D01*
X32205245Y-50847298D01*
X32291144Y-50995906D01*
X32402986Y-51128735D01*
X32538123Y-51240256D01*
X32555883Y-51252011D01*
X32612150Y-51290508D01*
X32654923Y-51323863D01*
X32675372Y-51345160D01*
X32675669Y-51345833D01*
X32671279Y-51368871D01*
X32653876Y-51421157D01*
X32625268Y-51498390D01*
X32587265Y-51596268D01*
X32541674Y-51710491D01*
X32490303Y-51836758D01*
X32434962Y-51970767D01*
X32377458Y-52108218D01*
X32319601Y-52244808D01*
X32263198Y-52376237D01*
X32210058Y-52498205D01*
X32161990Y-52606409D01*
X32120801Y-52696549D01*
X32088301Y-52764323D01*
X32066297Y-52805430D01*
X32057436Y-52816226D01*
X32030360Y-52807819D01*
X31979697Y-52785272D01*
X31914183Y-52752613D01*
X31878159Y-52733520D01*
X31725168Y-52650800D01*
X31542912Y-52774075D01*
X31449875Y-52837228D01*
X31348015Y-52906727D01*
X31252562Y-52972165D01*
X31204750Y-53005117D01*
X31137505Y-53050273D01*
X31080564Y-53086057D01*
X31041354Y-53107938D01*
X31028619Y-53112563D01*
X31010083Y-53100085D01*
X30969059Y-53065252D01*
X30909525Y-53011678D01*
X30835458Y-52942983D01*
X30750835Y-52862781D01*
X30697315Y-52811286D01*
X30603681Y-52719286D01*
X30522759Y-52636999D01*
X30457823Y-52567945D01*
X30412142Y-52515644D01*
X30388989Y-52483616D01*
X30386768Y-52477116D01*
X30397076Y-52452394D01*
X30425561Y-52402405D01*
X30469063Y-52332212D01*
X30524423Y-52246875D01*
X30588480Y-52151456D01*
X30606697Y-52124854D01*
X30673073Y-52028167D01*
X30732622Y-51941117D01*
X30782016Y-51868595D01*
X30817925Y-51815493D01*
X30837019Y-51786703D01*
X30838864Y-51783726D01*
X30836105Y-51760782D01*
X30821462Y-51710336D01*
X30797487Y-51639041D01*
X30766734Y-51553547D01*
X30731756Y-51460507D01*
X30695107Y-51366574D01*
X30659339Y-51278399D01*
X30627006Y-51202634D01*
X30600662Y-51145931D01*
X30582858Y-51114943D01*
X30581593Y-51113457D01*
X30570706Y-51104601D01*
X30552318Y-51095843D01*
X30522394Y-51086277D01*
X30476897Y-51074996D01*
X30411791Y-51061093D01*
X30323039Y-51043663D01*
X30206607Y-51021798D01*
X30058458Y-50994591D01*
X30026382Y-50988741D01*
X29931314Y-50970374D01*
X29848435Y-50952405D01*
X29785070Y-50936569D01*
X29748542Y-50924600D01*
X29743644Y-50921810D01*
X29735573Y-50897072D01*
X29729013Y-50841790D01*
X29723967Y-50762389D01*
X29720441Y-50665296D01*
X29718439Y-50556938D01*
X29717964Y-50443740D01*
X29719023Y-50332128D01*
X29721618Y-50228529D01*
X29725754Y-50139368D01*
X29731437Y-50071072D01*
X29738669Y-50030066D01*
X29743029Y-50021674D01*
X29767302Y-50013208D01*
X29822574Y-49999435D01*
X29903338Y-49981550D01*
X30004088Y-49960748D01*
X30119317Y-49938223D01*
X30182098Y-49926418D01*
X30301213Y-49904151D01*
X30407435Y-49883979D01*
X30495573Y-49866915D01*
X30560434Y-49853969D01*
X30596826Y-49846155D01*
X30602816Y-49844422D01*
X30612939Y-49824890D01*
X30634338Y-49777843D01*
X30664161Y-49710003D01*
X30699555Y-49628091D01*
X30737668Y-49538828D01*
X30775647Y-49448935D01*
X30810640Y-49365135D01*
X30839794Y-49294147D01*
X30860257Y-49242694D01*
X30869177Y-49217497D01*
X30869343Y-49216396D01*
X30859231Y-49196519D01*
X30830883Y-49150777D01*
X30787277Y-49083717D01*
X30731394Y-48999884D01*
X30666213Y-48903826D01*
X30628321Y-48848650D01*
X30559275Y-48747481D01*
X30497950Y-48655630D01*
X30447337Y-48577744D01*
X30410429Y-48518469D01*
X30390218Y-48482451D01*
X30387299Y-48474377D01*
X30399847Y-48455584D01*
X30434537Y-48415457D01*
X30486937Y-48358493D01*
X30552616Y-48289185D01*
X30627144Y-48212031D01*
X30706087Y-48131525D01*
X30785017Y-48052163D01*
X30859500Y-47978440D01*
X30925106Y-47914852D01*
X30977404Y-47865894D01*
X31011961Y-47836061D01*
X31023522Y-47828942D01*
X31042346Y-47838953D01*
X31087369Y-47867078D01*
X31154213Y-47910454D01*
X31238501Y-47966218D01*
X31335856Y-48031506D01*
X31409293Y-48081246D01*
X31780333Y-48333551D01*
X32398905Y-48078555D01*
X32482725Y-47633931D01*
X32566546Y-47189307D01*
X33491994Y-47189307D01*
X33575814Y-47633931D01*
G37*
X33575814Y-47633931D02*
X33659635Y-48078555D01*
X33968920Y-48206053D01*
X34278206Y-48333551D01*
X34649246Y-48081246D01*
X34753157Y-48010996D01*
X34847087Y-47948272D01*
X34926652Y-47895938D01*
X34987470Y-47856857D01*
X35025157Y-47833893D01*
X35035421Y-47828942D01*
X35053910Y-47841676D01*
X35093420Y-47876882D01*
X35149522Y-47930062D01*
X35217787Y-47996718D01*
X35293786Y-48072354D01*
X35373092Y-48152472D01*
X35451275Y-48232574D01*
X35523907Y-48308164D01*
X35586559Y-48374745D01*
X35634803Y-48427818D01*
X35664210Y-48462887D01*
X35671241Y-48474623D01*
X35661123Y-48496260D01*
X35632759Y-48543662D01*
X35589129Y-48612193D01*
X35533218Y-48697215D01*
X35468006Y-48794093D01*
X35430219Y-48849350D01*
X35361343Y-48950248D01*
X35300140Y-49041299D01*
X35249578Y-49117970D01*
X35212628Y-49175728D01*
X35192258Y-49210043D01*
X35189197Y-49217254D01*
X35196136Y-49237748D01*
X35215051Y-49285513D01*
X35243087Y-49353832D01*
X35277391Y-49435989D01*
X35315109Y-49525270D01*
X35353387Y-49614958D01*
X35389370Y-49698338D01*
X35420206Y-49768694D01*
X35443039Y-49819310D01*
X35455017Y-49843471D01*
X35455724Y-49844422D01*
X35474531Y-49849036D01*
X35524618Y-49859328D01*
X35600793Y-49874287D01*
X35697865Y-49892901D01*
X35810643Y-49914159D01*
X35876442Y-49926418D01*
X35996950Y-49949362D01*
X36105797Y-49971195D01*
X36197476Y-49990722D01*
X36266481Y-50006748D01*
X36307304Y-50018079D01*
X36315511Y-50021674D01*
X36323548Y-50046006D01*
X36330033Y-50100959D01*
X36334970Y-50180108D01*
X36338364Y-50277026D01*
X36340218Y-50385287D01*
X36340538Y-50498465D01*
X36339327Y-50610135D01*
X36336590Y-50713868D01*
X36332331Y-50803241D01*
X36326555Y-50871826D01*
X36319267Y-50913197D01*
X36314895Y-50921810D01*
X36288764Y-50932133D01*
X36233393Y-50946892D01*
X36156107Y-50964352D01*
X36064230Y-50982780D01*
X36032158Y-50988741D01*
X35877524Y-51017066D01*
X35755375Y-51039876D01*
X35661673Y-51058080D01*
X35592384Y-51072583D01*
X35543471Y-51084292D01*
X35510897Y-51094115D01*
X35490628Y-51102956D01*
X35478626Y-51111724D01*
X35476947Y-51113457D01*
X35460184Y-51141371D01*
X35434614Y-51195695D01*
X35402788Y-51269777D01*
X35367260Y-51356965D01*
X35330583Y-51450608D01*
X35295311Y-51544052D01*
X35263996Y-51630647D01*
X35239193Y-51703740D01*
X35223454Y-51756678D01*
X35219332Y-51782811D01*
X35219676Y-51783726D01*
X35233641Y-51805086D01*
X35265322Y-51852084D01*
X35311391Y-51919827D01*
X35368518Y-52003423D01*
X35433373Y-52097982D01*
X35451843Y-52124854D01*
X35517699Y-52222275D01*
X35575650Y-52311163D01*
X35622538Y-52386412D01*
X35655207Y-52442920D01*
X35670500Y-52475581D01*
X35671241Y-52479593D01*
X35658392Y-52500684D01*
X35622888Y-52542464D01*
X35569293Y-52600445D01*
X35502171Y-52670135D01*
X35426087Y-52747045D01*
X35345604Y-52826683D01*
X35265287Y-52904561D01*
X35189699Y-52976186D01*
X35123405Y-53037070D01*
X35070969Y-53082721D01*
X35036955Y-53108650D01*
X35027545Y-53112883D01*
X35005643Y-53102912D01*
X34960800Y-53076020D01*
X34900321Y-53036736D01*
X34853789Y-53005117D01*
X34769475Y-52947098D01*
X34669626Y-52878784D01*
X34569473Y-52810579D01*
X34515627Y-52774075D01*
X34333371Y-52650800D01*
X34180381Y-52733520D01*
X34110682Y-52769759D01*
X34051414Y-52797926D01*
X34011311Y-52813991D01*
X34001103Y-52816226D01*
X33988829Y-52799722D01*
X33964613Y-52753082D01*
X33930263Y-52680609D01*
X33887588Y-52586606D01*
X33838394Y-52475374D01*
X33784490Y-52351215D01*
X33727684Y-52218432D01*
X33669782Y-52081327D01*
X33612593Y-51944202D01*
X33557924Y-51811358D01*
X33507584Y-51687098D01*
X33463380Y-51575725D01*
X33427119Y-51481539D01*
X33400609Y-51408844D01*
X33385658Y-51361941D01*
X33383254Y-51345833D01*
X33402311Y-51325286D01*
X33444036Y-51291933D01*
X33499706Y-51252702D01*
X33504378Y-51249599D01*
X33648264Y-51134423D01*
X33764283Y-51000053D01*
X33851430Y-50850784D01*
X33908699Y-50690913D01*
X33935086Y-50524737D01*
X33929585Y-50356552D01*
X33891190Y-50190655D01*
X33818895Y-50031342D01*
X33797626Y-49996487D01*
X33686996Y-49855737D01*
X33556302Y-49742714D01*
X33410064Y-49658003D01*
X33252808Y-49602194D01*
X33089057Y-49575874D01*
X32923333Y-49579630D01*
X32760162Y-49614050D01*
X32604065Y-49679723D01*
X32459567Y-49777235D01*
X32414869Y-49816813D01*
X32301112Y-49940703D01*
X32218218Y-50071124D01*
X32161356Y-50217315D01*
X32129687Y-50362088D01*
X32121869Y-50524860D01*
X32147938Y-50688440D01*
X32205245Y-50847298D01*
X32291144Y-50995906D01*
X32402986Y-51128735D01*
X32538123Y-51240256D01*
X32555883Y-51252011D01*
X32612150Y-51290508D01*
X32654923Y-51323863D01*
X32675372Y-51345160D01*
X32675669Y-51345833D01*
X32671279Y-51368871D01*
X32653876Y-51421157D01*
X32625268Y-51498390D01*
X32587265Y-51596268D01*
X32541674Y-51710491D01*
X32490303Y-51836758D01*
X32434962Y-51970767D01*
X32377458Y-52108218D01*
X32319601Y-52244808D01*
X32263198Y-52376237D01*
X32210058Y-52498205D01*
X32161990Y-52606409D01*
X32120801Y-52696549D01*
X32088301Y-52764323D01*
X32066297Y-52805430D01*
X32057436Y-52816226D01*
X32030360Y-52807819D01*
X31979697Y-52785272D01*
X31914183Y-52752613D01*
X31878159Y-52733520D01*
X31725168Y-52650800D01*
X31542912Y-52774075D01*
X31449875Y-52837228D01*
X31348015Y-52906727D01*
X31252562Y-52972165D01*
X31204750Y-53005117D01*
X31137505Y-53050273D01*
X31080564Y-53086057D01*
X31041354Y-53107938D01*
X31028619Y-53112563D01*
X31010083Y-53100085D01*
X30969059Y-53065252D01*
X30909525Y-53011678D01*
X30835458Y-52942983D01*
X30750835Y-52862781D01*
X30697315Y-52811286D01*
X30603681Y-52719286D01*
X30522759Y-52636999D01*
X30457823Y-52567945D01*
X30412142Y-52515644D01*
X30388989Y-52483616D01*
X30386768Y-52477116D01*
X30397076Y-52452394D01*
X30425561Y-52402405D01*
X30469063Y-52332212D01*
X30524423Y-52246875D01*
X30588480Y-52151456D01*
X30606697Y-52124854D01*
X30673073Y-52028167D01*
X30732622Y-51941117D01*
X30782016Y-51868595D01*
X30817925Y-51815493D01*
X30837019Y-51786703D01*
X30838864Y-51783726D01*
X30836105Y-51760782D01*
X30821462Y-51710336D01*
X30797487Y-51639041D01*
X30766734Y-51553547D01*
X30731756Y-51460507D01*
X30695107Y-51366574D01*
X30659339Y-51278399D01*
X30627006Y-51202634D01*
X30600662Y-51145931D01*
X30582858Y-51114943D01*
X30581593Y-51113457D01*
X30570706Y-51104601D01*
X30552318Y-51095843D01*
X30522394Y-51086277D01*
X30476897Y-51074996D01*
X30411791Y-51061093D01*
X30323039Y-51043663D01*
X30206607Y-51021798D01*
X30058458Y-50994591D01*
X30026382Y-50988741D01*
X29931314Y-50970374D01*
X29848435Y-50952405D01*
X29785070Y-50936569D01*
X29748542Y-50924600D01*
X29743644Y-50921810D01*
X29735573Y-50897072D01*
X29729013Y-50841790D01*
X29723967Y-50762389D01*
X29720441Y-50665296D01*
X29718439Y-50556938D01*
X29717964Y-50443740D01*
X29719023Y-50332128D01*
X29721618Y-50228529D01*
X29725754Y-50139368D01*
X29731437Y-50071072D01*
X29738669Y-50030066D01*
X29743029Y-50021674D01*
X29767302Y-50013208D01*
X29822574Y-49999435D01*
X29903338Y-49981550D01*
X30004088Y-49960748D01*
X30119317Y-49938223D01*
X30182098Y-49926418D01*
X30301213Y-49904151D01*
X30407435Y-49883979D01*
X30495573Y-49866915D01*
X30560434Y-49853969D01*
X30596826Y-49846155D01*
X30602816Y-49844422D01*
X30612939Y-49824890D01*
X30634338Y-49777843D01*
X30664161Y-49710003D01*
X30699555Y-49628091D01*
X30737668Y-49538828D01*
X30775647Y-49448935D01*
X30810640Y-49365135D01*
X30839794Y-49294147D01*
X30860257Y-49242694D01*
X30869177Y-49217497D01*
X30869343Y-49216396D01*
X30859231Y-49196519D01*
X30830883Y-49150777D01*
X30787277Y-49083717D01*
X30731394Y-48999884D01*
X30666213Y-48903826D01*
X30628321Y-48848650D01*
X30559275Y-48747481D01*
X30497950Y-48655630D01*
X30447337Y-48577744D01*
X30410429Y-48518469D01*
X30390218Y-48482451D01*
X30387299Y-48474377D01*
X30399847Y-48455584D01*
X30434537Y-48415457D01*
X30486937Y-48358493D01*
X30552616Y-48289185D01*
X30627144Y-48212031D01*
X30706087Y-48131525D01*
X30785017Y-48052163D01*
X30859500Y-47978440D01*
X30925106Y-47914852D01*
X30977404Y-47865894D01*
X31011961Y-47836061D01*
X31023522Y-47828942D01*
X31042346Y-47838953D01*
X31087369Y-47867078D01*
X31154213Y-47910454D01*
X31238501Y-47966218D01*
X31335856Y-48031506D01*
X31409293Y-48081246D01*
X31780333Y-48333551D01*
X32398905Y-48078555D01*
X32482725Y-47633931D01*
X32566546Y-47189307D01*
X33491994Y-47189307D01*
X33575814Y-47633931D01*
G36*
X14418921Y-47201490D02*
G01*
X14522027Y-47237238D01*
X14618022Y-47293507D01*
X14703753Y-47370288D01*
X14776070Y-47467573D01*
X14808555Y-47528892D01*
X14836668Y-47614660D01*
X14850295Y-47713677D01*
X14848786Y-47815471D01*
X14832031Y-47907714D01*
X14786237Y-48020432D01*
X14719832Y-48118207D01*
X14636191Y-48199115D01*
X14538688Y-48261232D01*
X14430700Y-48302634D01*
X14315601Y-48321397D01*
X14196766Y-48315598D01*
X14138189Y-48303206D01*
X14024028Y-48258797D01*
X13922635Y-48191033D01*
X13836455Y-48102001D01*
X13767934Y-47993791D01*
X13762136Y-47981973D01*
X13742096Y-47937628D01*
X13729513Y-47900280D01*
X13722681Y-47860880D01*
X13719895Y-47810381D01*
X13719432Y-47755433D01*
X13720197Y-47689415D01*
X13723648Y-47641689D01*
X13731523Y-47603103D01*
X13745557Y-47564506D01*
X13762880Y-47526426D01*
X13827495Y-47418328D01*
X13907066Y-47330803D01*
X13998440Y-47263841D01*
X14098464Y-47217436D01*
X14203988Y-47191581D01*
X14311858Y-47186268D01*
X14418921Y-47201490D01*
G37*
X14418921Y-47201490D02*
X14522027Y-47237238D01*
X14618022Y-47293507D01*
X14703753Y-47370288D01*
X14776070Y-47467573D01*
X14808555Y-47528892D01*
X14836668Y-47614660D01*
X14850295Y-47713677D01*
X14848786Y-47815471D01*
X14832031Y-47907714D01*
X14786237Y-48020432D01*
X14719832Y-48118207D01*
X14636191Y-48199115D01*
X14538688Y-48261232D01*
X14430700Y-48302634D01*
X14315601Y-48321397D01*
X14196766Y-48315598D01*
X14138189Y-48303206D01*
X14024028Y-48258797D01*
X13922635Y-48191033D01*
X13836455Y-48102001D01*
X13767934Y-47993791D01*
X13762136Y-47981973D01*
X13742096Y-47937628D01*
X13729513Y-47900280D01*
X13722681Y-47860880D01*
X13719895Y-47810381D01*
X13719432Y-47755433D01*
X13720197Y-47689415D01*
X13723648Y-47641689D01*
X13731523Y-47603103D01*
X13745557Y-47564506D01*
X13762880Y-47526426D01*
X13827495Y-47418328D01*
X13907066Y-47330803D01*
X13998440Y-47263841D01*
X14098464Y-47217436D01*
X14203988Y-47191581D01*
X14311858Y-47186268D01*
X14418921Y-47201490D01*
G36*
X23987270Y-48121825D02*
G01*
X24104041Y-48122304D01*
X24143729Y-48122545D01*
X24689486Y-48126135D01*
X24696351Y-50219919D01*
X24697258Y-50503842D01*
X24698062Y-50761640D01*
X24698815Y-50994646D01*
X24699569Y-51204194D01*
X24700375Y-51391618D01*
X24701285Y-51558250D01*
X24702351Y-51705425D01*
X24703624Y-51834477D01*
X24705156Y-51946739D01*
X24706998Y-52043544D01*
X24709203Y-52126226D01*
X24711822Y-52196119D01*
X24714906Y-52254557D01*
X24718508Y-52302872D01*
X24722678Y-52342400D01*
X24727469Y-52374473D01*
X24732931Y-52400424D01*
X24739118Y-52421589D01*
X24746080Y-52439299D01*
X24753869Y-52454889D01*
X24762537Y-52469693D01*
X24772135Y-52485044D01*
X24782715Y-52502276D01*
X24784884Y-52505946D01*
X24821268Y-52568031D01*
X24295431Y-52564434D01*
X23769594Y-52560838D01*
X23762729Y-52445331D01*
X23758992Y-52389899D01*
X23755097Y-52357851D01*
X23749811Y-52345135D01*
X23741903Y-52347696D01*
X23735270Y-52355024D01*
X23706374Y-52381714D01*
X23659279Y-52416021D01*
X23600620Y-52453846D01*
X23537031Y-52491090D01*
X23475149Y-52523653D01*
X23427634Y-52545077D01*
X23316316Y-52580283D01*
X23188596Y-52605222D01*
X23053901Y-52618941D01*
X22921663Y-52620486D01*
X22801308Y-52608906D01*
X22799326Y-52608574D01*
X22634641Y-52567250D01*
X22480479Y-52501412D01*
X22338328Y-52412474D01*
X22209675Y-52301852D01*
X22096007Y-52170961D01*
X21998810Y-52021216D01*
X21919572Y-51854033D01*
X21876430Y-51730190D01*
X21847979Y-51626581D01*
X21826880Y-51526252D01*
X21812488Y-51423109D01*
X21804158Y-51311057D01*
X21801245Y-51184001D01*
X21802535Y-51080252D01*
X22815650Y-51080252D01*
X22820444Y-51254222D01*
X22835568Y-51403895D01*
X22861485Y-51530597D01*
X22898663Y-51635658D01*
X22947565Y-51720406D01*
X23008658Y-51786169D01*
X23079177Y-51832659D01*
X23115871Y-51850014D01*
X23147696Y-51860419D01*
X23183177Y-51865179D01*
X23230841Y-51865601D01*
X23282189Y-51863748D01*
X23383169Y-51854841D01*
X23463035Y-51837398D01*
X23488135Y-51828661D01*
X23545448Y-51802857D01*
X23605897Y-51770453D01*
X23632297Y-51754233D01*
X23700946Y-51709205D01*
X23700946Y-50281982D01*
X23625432Y-50236718D01*
X23520121Y-50185572D01*
X23412525Y-50155324D01*
X23306581Y-50145795D01*
X23206224Y-50156807D01*
X23115387Y-50188181D01*
X23038007Y-50239740D01*
X23013039Y-50264488D01*
X22952856Y-50345577D01*
X22904145Y-50443734D01*
X22866499Y-50560643D01*
X22839512Y-50697985D01*
X22822775Y-50857444D01*
X22815883Y-51040700D01*
X22815650Y-51080252D01*
X21802535Y-51080252D01*
X21803073Y-51037067D01*
X21814647Y-50811053D01*
X21837920Y-50607192D01*
X21873504Y-50422513D01*
X21922013Y-50254048D01*
X21984060Y-50098826D01*
X22006201Y-50052808D01*
X22095385Y-49902739D01*
X22203159Y-49769377D01*
X22326990Y-49654877D01*
X22464342Y-49561389D01*
X22612683Y-49491068D01*
X22701604Y-49462060D01*
X22788933Y-49444840D01*
X22894011Y-49434594D01*
X23008029Y-49431318D01*
X23122177Y-49435009D01*
X23227648Y-49445660D01*
X23312334Y-49462370D01*
X23413128Y-49495140D01*
X23510822Y-49537279D01*
X23596296Y-49584519D01*
X23641789Y-49616581D01*
X23673169Y-49640422D01*
X23695142Y-49654939D01*
X23700141Y-49657000D01*
X23701690Y-49643718D01*
X23703135Y-49605663D01*
X23704443Y-49545519D01*
X23705583Y-49465973D01*
X23706521Y-49369711D01*
X23707226Y-49259419D01*
X23707667Y-49137781D01*
X23707811Y-49013885D01*
X23707730Y-48855196D01*
X23707335Y-48721408D01*
X23706395Y-48609960D01*
X23704680Y-48518295D01*
X23701957Y-48443853D01*
X23697997Y-48384075D01*
X23692569Y-48336402D01*
X23685441Y-48298274D01*
X23676384Y-48267134D01*
X23665167Y-48240421D01*
X23651558Y-48215577D01*
X23635328Y-48190043D01*
X23633240Y-48186881D01*
X23612306Y-48153810D01*
X23599667Y-48131069D01*
X23597973Y-48126272D01*
X23611216Y-48124759D01*
X23649002Y-48123528D01*
X23708416Y-48122599D01*
X23786542Y-48121992D01*
X23880465Y-48121727D01*
X23987270Y-48121825D01*
G37*
X23987270Y-48121825D02*
X24104041Y-48122304D01*
X24143729Y-48122545D01*
X24689486Y-48126135D01*
X24696351Y-50219919D01*
X24697258Y-50503842D01*
X24698062Y-50761640D01*
X24698815Y-50994646D01*
X24699569Y-51204194D01*
X24700375Y-51391618D01*
X24701285Y-51558250D01*
X24702351Y-51705425D01*
X24703624Y-51834477D01*
X24705156Y-51946739D01*
X24706998Y-52043544D01*
X24709203Y-52126226D01*
X24711822Y-52196119D01*
X24714906Y-52254557D01*
X24718508Y-52302872D01*
X24722678Y-52342400D01*
X24727469Y-52374473D01*
X24732931Y-52400424D01*
X24739118Y-52421589D01*
X24746080Y-52439299D01*
X24753869Y-52454889D01*
X24762537Y-52469693D01*
X24772135Y-52485044D01*
X24782715Y-52502276D01*
X24784884Y-52505946D01*
X24821268Y-52568031D01*
X24295431Y-52564434D01*
X23769594Y-52560838D01*
X23762729Y-52445331D01*
X23758992Y-52389899D01*
X23755097Y-52357851D01*
X23749811Y-52345135D01*
X23741903Y-52347696D01*
X23735270Y-52355024D01*
X23706374Y-52381714D01*
X23659279Y-52416021D01*
X23600620Y-52453846D01*
X23537031Y-52491090D01*
X23475149Y-52523653D01*
X23427634Y-52545077D01*
X23316316Y-52580283D01*
X23188596Y-52605222D01*
X23053901Y-52618941D01*
X22921663Y-52620486D01*
X22801308Y-52608906D01*
X22799326Y-52608574D01*
X22634641Y-52567250D01*
X22480479Y-52501412D01*
X22338328Y-52412474D01*
X22209675Y-52301852D01*
X22096007Y-52170961D01*
X21998810Y-52021216D01*
X21919572Y-51854033D01*
X21876430Y-51730190D01*
X21847979Y-51626581D01*
X21826880Y-51526252D01*
X21812488Y-51423109D01*
X21804158Y-51311057D01*
X21801245Y-51184001D01*
X21802535Y-51080252D01*
X22815650Y-51080252D01*
X22820444Y-51254222D01*
X22835568Y-51403895D01*
X22861485Y-51530597D01*
X22898663Y-51635658D01*
X22947565Y-51720406D01*
X23008658Y-51786169D01*
X23079177Y-51832659D01*
X23115871Y-51850014D01*
X23147696Y-51860419D01*
X23183177Y-51865179D01*
X23230841Y-51865601D01*
X23282189Y-51863748D01*
X23383169Y-51854841D01*
X23463035Y-51837398D01*
X23488135Y-51828661D01*
X23545448Y-51802857D01*
X23605897Y-51770453D01*
X23632297Y-51754233D01*
X23700946Y-51709205D01*
X23700946Y-50281982D01*
X23625432Y-50236718D01*
X23520121Y-50185572D01*
X23412525Y-50155324D01*
X23306581Y-50145795D01*
X23206224Y-50156807D01*
X23115387Y-50188181D01*
X23038007Y-50239740D01*
X23013039Y-50264488D01*
X22952856Y-50345577D01*
X22904145Y-50443734D01*
X22866499Y-50560643D01*
X22839512Y-50697985D01*
X22822775Y-50857444D01*
X22815883Y-51040700D01*
X22815650Y-51080252D01*
X21802535Y-51080252D01*
X21803073Y-51037067D01*
X21814647Y-50811053D01*
X21837920Y-50607192D01*
X21873504Y-50422513D01*
X21922013Y-50254048D01*
X21984060Y-50098826D01*
X22006201Y-50052808D01*
X22095385Y-49902739D01*
X22203159Y-49769377D01*
X22326990Y-49654877D01*
X22464342Y-49561389D01*
X22612683Y-49491068D01*
X22701604Y-49462060D01*
X22788933Y-49444840D01*
X22894011Y-49434594D01*
X23008029Y-49431318D01*
X23122177Y-49435009D01*
X23227648Y-49445660D01*
X23312334Y-49462370D01*
X23413128Y-49495140D01*
X23510822Y-49537279D01*
X23596296Y-49584519D01*
X23641789Y-49616581D01*
X23673169Y-49640422D01*
X23695142Y-49654939D01*
X23700141Y-49657000D01*
X23701690Y-49643718D01*
X23703135Y-49605663D01*
X23704443Y-49545519D01*
X23705583Y-49465973D01*
X23706521Y-49369711D01*
X23707226Y-49259419D01*
X23707667Y-49137781D01*
X23707811Y-49013885D01*
X23707730Y-48855196D01*
X23707335Y-48721408D01*
X23706395Y-48609960D01*
X23704680Y-48518295D01*
X23701957Y-48443853D01*
X23697997Y-48384075D01*
X23692569Y-48336402D01*
X23685441Y-48298274D01*
X23676384Y-48267134D01*
X23665167Y-48240421D01*
X23651558Y-48215577D01*
X23635328Y-48190043D01*
X23633240Y-48186881D01*
X23612306Y-48153810D01*
X23599667Y-48131069D01*
X23597973Y-48126272D01*
X23611216Y-48124759D01*
X23649002Y-48123528D01*
X23708416Y-48122599D01*
X23786542Y-48121992D01*
X23880465Y-48121727D01*
X23987270Y-48121825D01*
G36*
X20312505Y-49429229D02*
G01*
X20380531Y-49434378D01*
X20575163Y-49460273D01*
X20747529Y-49501575D01*
X20898470Y-49558853D01*
X21028825Y-49632674D01*
X21139434Y-49723608D01*
X21231135Y-49832222D01*
X21304770Y-49959085D01*
X21358539Y-50096352D01*
X21372187Y-50140137D01*
X21384073Y-50181141D01*
X21394334Y-50221569D01*
X21403113Y-50263630D01*
X21410548Y-50309531D01*
X21416780Y-50361480D01*
X21421950Y-50421685D01*
X21426196Y-50492352D01*
X21429660Y-50575689D01*
X21432481Y-50673905D01*
X21434800Y-50789205D01*
X21436757Y-50923799D01*
X21438491Y-51079893D01*
X21440143Y-51259695D01*
X21441324Y-51400676D01*
X21449270Y-52368622D01*
X21500756Y-52461770D01*
X21525137Y-52506645D01*
X21543280Y-52541501D01*
X21551935Y-52560054D01*
X21552243Y-52561311D01*
X21539014Y-52562749D01*
X21501326Y-52564074D01*
X21442183Y-52565249D01*
X21364586Y-52566237D01*
X21271536Y-52566999D01*
X21166035Y-52567500D01*
X21051084Y-52567701D01*
X21037378Y-52567703D01*
X20522513Y-52567703D01*
X20522513Y-52451000D01*
X20521635Y-52398260D01*
X20519292Y-52357926D01*
X20515921Y-52336300D01*
X20514431Y-52334298D01*
X20500804Y-52342683D01*
X20472757Y-52364692D01*
X20436303Y-52395601D01*
X20435485Y-52396316D01*
X20368962Y-52445843D01*
X20284948Y-52495575D01*
X20192937Y-52540626D01*
X20102421Y-52576110D01*
X20062567Y-52588236D01*
X19983255Y-52603637D01*
X19885935Y-52613465D01*
X19779516Y-52617580D01*
X19672907Y-52615841D01*
X19575017Y-52608108D01*
X19506513Y-52596981D01*
X19338520Y-52547648D01*
X19187281Y-52477342D01*
X19053782Y-52386933D01*
X18939006Y-52277295D01*
X18843937Y-52149299D01*
X18769560Y-52003818D01*
X18737474Y-51915541D01*
X18717365Y-51829739D01*
X18704038Y-51726736D01*
X18697872Y-51616034D01*
X18698074Y-51599925D01*
X19626648Y-51599925D01*
X19634348Y-51682184D01*
X19659989Y-51750546D01*
X19707378Y-51813970D01*
X19725579Y-51832567D01*
X19790282Y-51882846D01*
X19865066Y-51915056D01*
X19954662Y-51930648D01*
X20049012Y-51931796D01*
X20138501Y-51924216D01*
X20207018Y-51909389D01*
X20236775Y-51898253D01*
X20290408Y-51867904D01*
X20347235Y-51825221D01*
X20399082Y-51777317D01*
X20437778Y-51731301D01*
X20448054Y-51714421D01*
X20456042Y-51690782D01*
X20461721Y-51653168D01*
X20465356Y-51597985D01*
X20467211Y-51521640D01*
X20467594Y-51448981D01*
X20467335Y-51364270D01*
X20466287Y-51303018D01*
X20464045Y-51261227D01*
X20460206Y-51234899D01*
X20454365Y-51220035D01*
X20446118Y-51212639D01*
X20443567Y-51211461D01*
X20421400Y-51207833D01*
X20377680Y-51204866D01*
X20318311Y-51202827D01*
X20249196Y-51201983D01*
X20234189Y-51201982D01*
X20141805Y-51203457D01*
X20070432Y-51207842D01*
X20013719Y-51215738D01*
X19966872Y-51227270D01*
X19850669Y-51271215D01*
X19759543Y-51325243D01*
X19692705Y-51390219D01*
X19649365Y-51467005D01*
X19628734Y-51556467D01*
X19626648Y-51599925D01*
X18698074Y-51599925D01*
X18699244Y-51507133D01*
X18708532Y-51409536D01*
X18715777Y-51370105D01*
X18762039Y-51223701D01*
X18832384Y-51088995D01*
X18925484Y-50967280D01*
X19040012Y-50859847D01*
X19174640Y-50767988D01*
X19328040Y-50692996D01*
X19458459Y-50647458D01*
X19545623Y-50623533D01*
X19628996Y-50604943D01*
X19713976Y-50591084D01*
X19805965Y-50581351D01*
X19910362Y-50575141D01*
X20032568Y-50571851D01*
X20143055Y-50570924D01*
X20470677Y-50570027D01*
X20464401Y-50471547D01*
X20446579Y-50364695D01*
X20408667Y-50272852D01*
X20352280Y-50198310D01*
X20279031Y-50143364D01*
X20214535Y-50116552D01*
X20122123Y-50099654D01*
X20012111Y-50097227D01*
X19889656Y-50108378D01*
X19759914Y-50132210D01*
X19628042Y-50167830D01*
X19499198Y-50214343D01*
X19405566Y-50256883D01*
X19360517Y-50278728D01*
X19326156Y-50293984D01*
X19308681Y-50299937D01*
X19307733Y-50299746D01*
X19301703Y-50286412D01*
X19286645Y-50251068D01*
X19263977Y-50197101D01*
X19235115Y-50127896D01*
X19201477Y-50046840D01*
X19167284Y-49964118D01*
X19030586Y-49632803D01*
X19127820Y-49616833D01*
X19169964Y-49608820D01*
X19233319Y-49595361D01*
X19312457Y-49577679D01*
X19401951Y-49556996D01*
X19496373Y-49534532D01*
X19533973Y-49525403D01*
X19696637Y-49487674D01*
X19839050Y-49459388D01*
X19966527Y-49439972D01*
X20084384Y-49428854D01*
X20197938Y-49425464D01*
X20312505Y-49429229D01*
G37*
X20312505Y-49429229D02*
X20380531Y-49434378D01*
X20575163Y-49460273D01*
X20747529Y-49501575D01*
X20898470Y-49558853D01*
X21028825Y-49632674D01*
X21139434Y-49723608D01*
X21231135Y-49832222D01*
X21304770Y-49959085D01*
X21358539Y-50096352D01*
X21372187Y-50140137D01*
X21384073Y-50181141D01*
X21394334Y-50221569D01*
X21403113Y-50263630D01*
X21410548Y-50309531D01*
X21416780Y-50361480D01*
X21421950Y-50421685D01*
X21426196Y-50492352D01*
X21429660Y-50575689D01*
X21432481Y-50673905D01*
X21434800Y-50789205D01*
X21436757Y-50923799D01*
X21438491Y-51079893D01*
X21440143Y-51259695D01*
X21441324Y-51400676D01*
X21449270Y-52368622D01*
X21500756Y-52461770D01*
X21525137Y-52506645D01*
X21543280Y-52541501D01*
X21551935Y-52560054D01*
X21552243Y-52561311D01*
X21539014Y-52562749D01*
X21501326Y-52564074D01*
X21442183Y-52565249D01*
X21364586Y-52566237D01*
X21271536Y-52566999D01*
X21166035Y-52567500D01*
X21051084Y-52567701D01*
X21037378Y-52567703D01*
X20522513Y-52567703D01*
X20522513Y-52451000D01*
X20521635Y-52398260D01*
X20519292Y-52357926D01*
X20515921Y-52336300D01*
X20514431Y-52334298D01*
X20500804Y-52342683D01*
X20472757Y-52364692D01*
X20436303Y-52395601D01*
X20435485Y-52396316D01*
X20368962Y-52445843D01*
X20284948Y-52495575D01*
X20192937Y-52540626D01*
X20102421Y-52576110D01*
X20062567Y-52588236D01*
X19983255Y-52603637D01*
X19885935Y-52613465D01*
X19779516Y-52617580D01*
X19672907Y-52615841D01*
X19575017Y-52608108D01*
X19506513Y-52596981D01*
X19338520Y-52547648D01*
X19187281Y-52477342D01*
X19053782Y-52386933D01*
X18939006Y-52277295D01*
X18843937Y-52149299D01*
X18769560Y-52003818D01*
X18737474Y-51915541D01*
X18717365Y-51829739D01*
X18704038Y-51726736D01*
X18697872Y-51616034D01*
X18698074Y-51599925D01*
X19626648Y-51599925D01*
X19634348Y-51682184D01*
X19659989Y-51750546D01*
X19707378Y-51813970D01*
X19725579Y-51832567D01*
X19790282Y-51882846D01*
X19865066Y-51915056D01*
X19954662Y-51930648D01*
X20049012Y-51931796D01*
X20138501Y-51924216D01*
X20207018Y-51909389D01*
X20236775Y-51898253D01*
X20290408Y-51867904D01*
X20347235Y-51825221D01*
X20399082Y-51777317D01*
X20437778Y-51731301D01*
X20448054Y-51714421D01*
X20456042Y-51690782D01*
X20461721Y-51653168D01*
X20465356Y-51597985D01*
X20467211Y-51521640D01*
X20467594Y-51448981D01*
X20467335Y-51364270D01*
X20466287Y-51303018D01*
X20464045Y-51261227D01*
X20460206Y-51234899D01*
X20454365Y-51220035D01*
X20446118Y-51212639D01*
X20443567Y-51211461D01*
X20421400Y-51207833D01*
X20377680Y-51204866D01*
X20318311Y-51202827D01*
X20249196Y-51201983D01*
X20234189Y-51201982D01*
X20141805Y-51203457D01*
X20070432Y-51207842D01*
X20013719Y-51215738D01*
X19966872Y-51227270D01*
X19850669Y-51271215D01*
X19759543Y-51325243D01*
X19692705Y-51390219D01*
X19649365Y-51467005D01*
X19628734Y-51556467D01*
X19626648Y-51599925D01*
X18698074Y-51599925D01*
X18699244Y-51507133D01*
X18708532Y-51409536D01*
X18715777Y-51370105D01*
X18762039Y-51223701D01*
X18832384Y-51088995D01*
X18925484Y-50967280D01*
X19040012Y-50859847D01*
X19174640Y-50767988D01*
X19328040Y-50692996D01*
X19458459Y-50647458D01*
X19545623Y-50623533D01*
X19628996Y-50604943D01*
X19713976Y-50591084D01*
X19805965Y-50581351D01*
X19910362Y-50575141D01*
X20032568Y-50571851D01*
X20143055Y-50570924D01*
X20470677Y-50570027D01*
X20464401Y-50471547D01*
X20446579Y-50364695D01*
X20408667Y-50272852D01*
X20352280Y-50198310D01*
X20279031Y-50143364D01*
X20214535Y-50116552D01*
X20122123Y-50099654D01*
X20012111Y-50097227D01*
X19889656Y-50108378D01*
X19759914Y-50132210D01*
X19628042Y-50167830D01*
X19499198Y-50214343D01*
X19405566Y-50256883D01*
X19360517Y-50278728D01*
X19326156Y-50293984D01*
X19308681Y-50299937D01*
X19307733Y-50299746D01*
X19301703Y-50286412D01*
X19286645Y-50251068D01*
X19263977Y-50197101D01*
X19235115Y-50127896D01*
X19201477Y-50046840D01*
X19167284Y-49964118D01*
X19030586Y-49632803D01*
X19127820Y-49616833D01*
X19169964Y-49608820D01*
X19233319Y-49595361D01*
X19312457Y-49577679D01*
X19401951Y-49556996D01*
X19496373Y-49534532D01*
X19533973Y-49525403D01*
X19696637Y-49487674D01*
X19839050Y-49459388D01*
X19966527Y-49439972D01*
X20084384Y-49428854D01*
X20197938Y-49425464D01*
X20312505Y-49429229D01*
G36*
X17584962Y-48325499D02*
G01*
X17733014Y-48341707D01*
X17876452Y-48370718D01*
X18021110Y-48414045D01*
X18172824Y-48473201D01*
X18337428Y-48549700D01*
X18367071Y-48564517D01*
X18435098Y-48598031D01*
X18499256Y-48628208D01*
X18553215Y-48652166D01*
X18590640Y-48667024D01*
X18596389Y-48668895D01*
X18651486Y-48685402D01*
X18404851Y-49044201D01*
X18344552Y-49131893D01*
X18289422Y-49212012D01*
X18241336Y-49281836D01*
X18202168Y-49338647D01*
X18173794Y-49379723D01*
X18158087Y-49402346D01*
X18155536Y-49405928D01*
X18145171Y-49398438D01*
X18119660Y-49375918D01*
X18083563Y-49342461D01*
X18063642Y-49323550D01*
X17950773Y-49233778D01*
X17824014Y-49165561D01*
X17714783Y-49128195D01*
X17649214Y-49116460D01*
X17567116Y-49109308D01*
X17478144Y-49106874D01*
X17391956Y-49109288D01*
X17318205Y-49116683D01*
X17288776Y-49122347D01*
X17156133Y-49167982D01*
X17036606Y-49237663D01*
X16930283Y-49331260D01*
X16837253Y-49448649D01*
X16757605Y-49589700D01*
X16691426Y-49754286D01*
X16638806Y-49942280D01*
X16607533Y-50103217D01*
X16599374Y-50174263D01*
X16593815Y-50266046D01*
X16590802Y-50371968D01*
X16590281Y-50485434D01*
X16592200Y-50599849D01*
X16596503Y-50708617D01*
X16603137Y-50805143D01*
X16612049Y-50882831D01*
X16613979Y-50894817D01*
X16656499Y-51087892D01*
X16714433Y-51258773D01*
X16788133Y-51408224D01*
X16877951Y-51537011D01*
X16941707Y-51606639D01*
X17056286Y-51701173D01*
X17181942Y-51771246D01*
X17316557Y-51816477D01*
X17458011Y-51836484D01*
X17604183Y-51830885D01*
X17752955Y-51799300D01*
X17840911Y-51768394D01*
X17962629Y-51706506D01*
X18088080Y-51617729D01*
X18158353Y-51557694D01*
X18197811Y-51522947D01*
X18228812Y-51497454D01*
X18246458Y-51485170D01*
X18248648Y-51484795D01*
X18256524Y-51497347D01*
X18276932Y-51530516D01*
X18308132Y-51581458D01*
X18348386Y-51647331D01*
X18395957Y-51725289D01*
X18449104Y-51812490D01*
X18478687Y-51861067D01*
X18704648Y-52232215D01*
X18422527Y-52371639D01*
X18320522Y-52421719D01*
X18237889Y-52461210D01*
X18169578Y-52492073D01*
X18110537Y-52516268D01*
X18055714Y-52535758D01*
X18000060Y-52552503D01*
X17938523Y-52568465D01*
X17879540Y-52582482D01*
X17827115Y-52593329D01*
X17772288Y-52601526D01*
X17709572Y-52607528D01*
X17633477Y-52611790D01*
X17538516Y-52614767D01*
X17474513Y-52616052D01*
X17383192Y-52616930D01*
X17295627Y-52616487D01*
X17217612Y-52614852D01*
X17154942Y-52612149D01*
X17113413Y-52608505D01*
X17110952Y-52608142D01*
X16895303Y-52561487D01*
X16692793Y-52490729D01*
X16503495Y-52395914D01*
X16327479Y-52277089D01*
X16164816Y-52134300D01*
X16015578Y-51967594D01*
X15907496Y-51819433D01*
X15792434Y-51625502D01*
X15699423Y-51420699D01*
X15628013Y-51203383D01*
X15577756Y-50971912D01*
X15548201Y-50724643D01*
X15538889Y-50473559D01*
X15546548Y-50230670D01*
X15570613Y-50006570D01*
X15611852Y-49797477D01*
X15671027Y-49599613D01*
X15748904Y-49409196D01*
X15758203Y-49389468D01*
X15860648Y-49205059D01*
X15986472Y-49029576D01*
X16132112Y-48866650D01*
X16294001Y-48719914D01*
X16468576Y-48593001D01*
X16631244Y-48499905D01*
X16795573Y-48426991D01*
X16960251Y-48374174D01*
X17131652Y-48340015D01*
X17316153Y-48323078D01*
X17426459Y-48320580D01*
X17584962Y-48325499D01*
G37*
X17584962Y-48325499D02*
X17733014Y-48341707D01*
X17876452Y-48370718D01*
X18021110Y-48414045D01*
X18172824Y-48473201D01*
X18337428Y-48549700D01*
X18367071Y-48564517D01*
X18435098Y-48598031D01*
X18499256Y-48628208D01*
X18553215Y-48652166D01*
X18590640Y-48667024D01*
X18596389Y-48668895D01*
X18651486Y-48685402D01*
X18404851Y-49044201D01*
X18344552Y-49131893D01*
X18289422Y-49212012D01*
X18241336Y-49281836D01*
X18202168Y-49338647D01*
X18173794Y-49379723D01*
X18158087Y-49402346D01*
X18155536Y-49405928D01*
X18145171Y-49398438D01*
X18119660Y-49375918D01*
X18083563Y-49342461D01*
X18063642Y-49323550D01*
X17950773Y-49233778D01*
X17824014Y-49165561D01*
X17714783Y-49128195D01*
X17649214Y-49116460D01*
X17567116Y-49109308D01*
X17478144Y-49106874D01*
X17391956Y-49109288D01*
X17318205Y-49116683D01*
X17288776Y-49122347D01*
X17156133Y-49167982D01*
X17036606Y-49237663D01*
X16930283Y-49331260D01*
X16837253Y-49448649D01*
X16757605Y-49589700D01*
X16691426Y-49754286D01*
X16638806Y-49942280D01*
X16607533Y-50103217D01*
X16599374Y-50174263D01*
X16593815Y-50266046D01*
X16590802Y-50371968D01*
X16590281Y-50485434D01*
X16592200Y-50599849D01*
X16596503Y-50708617D01*
X16603137Y-50805143D01*
X16612049Y-50882831D01*
X16613979Y-50894817D01*
X16656499Y-51087892D01*
X16714433Y-51258773D01*
X16788133Y-51408224D01*
X16877951Y-51537011D01*
X16941707Y-51606639D01*
X17056286Y-51701173D01*
X17181942Y-51771246D01*
X17316557Y-51816477D01*
X17458011Y-51836484D01*
X17604183Y-51830885D01*
X17752955Y-51799300D01*
X17840911Y-51768394D01*
X17962629Y-51706506D01*
X18088080Y-51617729D01*
X18158353Y-51557694D01*
X18197811Y-51522947D01*
X18228812Y-51497454D01*
X18246458Y-51485170D01*
X18248648Y-51484795D01*
X18256524Y-51497347D01*
X18276932Y-51530516D01*
X18308132Y-51581458D01*
X18348386Y-51647331D01*
X18395957Y-51725289D01*
X18449104Y-51812490D01*
X18478687Y-51861067D01*
X18704648Y-52232215D01*
X18422527Y-52371639D01*
X18320522Y-52421719D01*
X18237889Y-52461210D01*
X18169578Y-52492073D01*
X18110537Y-52516268D01*
X18055714Y-52535758D01*
X18000060Y-52552503D01*
X17938523Y-52568465D01*
X17879540Y-52582482D01*
X17827115Y-52593329D01*
X17772288Y-52601526D01*
X17709572Y-52607528D01*
X17633477Y-52611790D01*
X17538516Y-52614767D01*
X17474513Y-52616052D01*
X17383192Y-52616930D01*
X17295627Y-52616487D01*
X17217612Y-52614852D01*
X17154942Y-52612149D01*
X17113413Y-52608505D01*
X17110952Y-52608142D01*
X16895303Y-52561487D01*
X16692793Y-52490729D01*
X16503495Y-52395914D01*
X16327479Y-52277089D01*
X16164816Y-52134300D01*
X16015578Y-51967594D01*
X15907496Y-51819433D01*
X15792434Y-51625502D01*
X15699423Y-51420699D01*
X15628013Y-51203383D01*
X15577756Y-50971912D01*
X15548201Y-50724643D01*
X15538889Y-50473559D01*
X15546548Y-50230670D01*
X15570613Y-50006570D01*
X15611852Y-49797477D01*
X15671027Y-49599613D01*
X15748904Y-49409196D01*
X15758203Y-49389468D01*
X15860648Y-49205059D01*
X15986472Y-49029576D01*
X16132112Y-48866650D01*
X16294001Y-48719914D01*
X16468576Y-48593001D01*
X16631244Y-48499905D01*
X16795573Y-48426991D01*
X16960251Y-48374174D01*
X17131652Y-48340015D01*
X17316153Y-48323078D01*
X17426459Y-48320580D01*
X17584962Y-48325499D01*
G36*
X11189257Y-47638689D02*
G01*
X11453780Y-47638725D01*
X11576912Y-47638730D01*
X13547811Y-47638730D01*
X13547811Y-47754910D01*
X13560211Y-47896291D01*
X13597636Y-48026684D01*
X13660423Y-48146862D01*
X13748906Y-48257602D01*
X13778843Y-48287511D01*
X13886534Y-48372348D01*
X14005275Y-48434221D01*
X14131540Y-48473159D01*
X14261803Y-48489190D01*
X14392535Y-48482342D01*
X14520212Y-48452643D01*
X14641305Y-48400120D01*
X14752288Y-48324803D01*
X14802132Y-48279363D01*
X14895017Y-48167952D01*
X14963127Y-48045435D01*
X15005871Y-47913215D01*
X15022653Y-47772692D01*
X15022876Y-47758867D01*
X15023756Y-47638734D01*
X15076557Y-47638732D01*
X15123396Y-47645089D01*
X15166183Y-47660556D01*
X15169011Y-47662154D01*
X15178675Y-47667168D01*
X15187549Y-47671073D01*
X15195665Y-47675007D01*
X15203057Y-47680106D01*
X15209755Y-47687508D01*
X15215792Y-47698351D01*
X15221199Y-47713772D01*
X15226010Y-47734909D01*
X15230255Y-47762899D01*
X15233968Y-47798879D01*
X15237179Y-47843987D01*
X15239922Y-47899360D01*
X15242228Y-47966137D01*
X15244129Y-48045453D01*
X15245658Y-48138447D01*
X15246846Y-48246257D01*
X15247726Y-48370019D01*
X15248330Y-48510871D01*
X15248689Y-48669950D01*
X15248835Y-48848395D01*
X15248802Y-49047342D01*
X15248620Y-49267929D01*
X15248323Y-49511293D01*
X15247941Y-49778572D01*
X15247508Y-50070903D01*
X15247055Y-50389424D01*
X15247002Y-50428230D01*
X15246596Y-50748782D01*
X15246251Y-51043012D01*
X15245931Y-51312056D01*
X15245600Y-51557052D01*
X15245221Y-51779137D01*
X15244757Y-51979447D01*
X15244172Y-52159119D01*
X15243430Y-52319290D01*
X15242494Y-52461098D01*
X15241327Y-52585679D01*
X15239893Y-52694170D01*
X15238156Y-52787707D01*
X15236078Y-52867429D01*
X15233624Y-52934472D01*
X15230756Y-52989973D01*
X15227439Y-53035068D01*
X15223636Y-53070895D01*
X15219310Y-53098591D01*
X15214425Y-53119293D01*
X15208945Y-53134137D01*
X15202832Y-53144260D01*
X15196050Y-53150800D01*
X15188563Y-53154893D01*
X15180334Y-53157676D01*
X15171327Y-53160287D01*
X15161505Y-53163862D01*
X15159106Y-53164950D01*
X15151565Y-53167396D01*
X15138944Y-53169642D01*
X15120141Y-53171698D01*
X15094053Y-53173572D01*
X15059578Y-53175271D01*
X15015615Y-53176803D01*
X14961061Y-53178177D01*
X14894815Y-53179400D01*
X14815774Y-53180481D01*
X14722837Y-53181427D01*
X14614901Y-53182247D01*
X14490864Y-53182947D01*
X14349624Y-53183538D01*
X14190079Y-53184025D01*
X14011128Y-53184419D01*
X13811668Y-53184725D01*
X13590596Y-53184953D01*
X13346812Y-53185110D01*
X13079213Y-53185205D01*
X12786697Y-53185245D01*
X12468161Y-53185238D01*
X12364979Y-53185228D01*
X12039377Y-53185176D01*
X11740119Y-53185091D01*
X11466091Y-53184963D01*
X11216176Y-53184785D01*
X10989260Y-53184548D01*
X10784227Y-53184242D01*
X10599962Y-53183860D01*
X10435350Y-53183392D01*
X10289275Y-53182830D01*
X10160624Y-53182165D01*
X10048279Y-53181388D01*
X9951126Y-53180491D01*
X9868050Y-53179465D01*
X9797936Y-53178301D01*
X9739668Y-53176991D01*
X9692131Y-53175525D01*
X9654210Y-53173896D01*
X9624790Y-53172093D01*
X9602755Y-53170110D01*
X9586990Y-53167936D01*
X9576380Y-53165563D01*
X9570596Y-53163391D01*
X9560316Y-53159056D01*
X9550878Y-53155859D01*
X9542245Y-53152665D01*
X9534381Y-53148338D01*
X9527252Y-53141744D01*
X9520821Y-53131747D01*
X9515053Y-53117212D01*
X9509911Y-53097003D01*
X9505360Y-53069985D01*
X9501365Y-53035023D01*
X9497889Y-52990981D01*
X9494898Y-52936724D01*
X9492354Y-52871117D01*
X9490223Y-52793024D01*
X9488468Y-52701310D01*
X9487055Y-52594840D01*
X9486685Y-52553973D01*
X9853116Y-52553973D01*
X11148266Y-52553973D01*
X11123345Y-52516217D01*
X11098553Y-52477417D01*
X11077560Y-52440469D01*
X11060065Y-52402788D01*
X11045770Y-52361788D01*
X11034377Y-52314883D01*
X11025587Y-52259487D01*
X11019102Y-52193016D01*
X11014623Y-52112883D01*
X11011850Y-52016502D01*
X11010487Y-51901289D01*
X11010233Y-51764657D01*
X11010791Y-51604020D01*
X11011107Y-51544382D01*
X11014675Y-50905041D01*
X11419702Y-51456449D01*
X11534446Y-51612876D01*
X11633857Y-51749088D01*
X11719010Y-51866890D01*
X11790978Y-51968084D01*
X11850834Y-52054477D01*
X11899652Y-52127874D01*
X11938505Y-52190077D01*
X11968466Y-52242893D01*
X11990609Y-52288125D01*
X12006007Y-52327578D01*
X12015734Y-52363058D01*
X12020863Y-52396368D01*
X12022468Y-52429313D01*
X12021621Y-52463697D01*
X12021405Y-52468019D01*
X12016946Y-52554031D01*
X13436308Y-52553973D01*
X13330735Y-52447522D01*
X13302087Y-52418406D01*
X13274910Y-52390076D01*
X13248011Y-52360968D01*
X13220197Y-52329520D01*
X13190275Y-52294169D01*
X13157054Y-52253354D01*
X13119339Y-52205511D01*
X13075940Y-52149079D01*
X13025662Y-52082494D01*
X12967312Y-52004195D01*
X12899700Y-51912619D01*
X12821631Y-51806204D01*
X12731912Y-51683387D01*
X12629352Y-51542605D01*
X12512758Y-51382297D01*
X12417191Y-51250798D01*
X12297251Y-51085596D01*
X12192620Y-50941152D01*
X12102352Y-50816094D01*
X12025497Y-50709052D01*
X11961109Y-50618654D01*
X11908239Y-50543529D01*
X11865940Y-50482304D01*
X11833264Y-50433610D01*
X11809262Y-50396074D01*
X11792987Y-50368325D01*
X11783492Y-50348992D01*
X11779827Y-50336703D01*
X11780929Y-50330242D01*
X11794276Y-50313048D01*
X11823134Y-50276655D01*
X11865760Y-50223224D01*
X11920415Y-50154919D01*
X11985356Y-50073903D01*
X12058842Y-49982340D01*
X12139132Y-49882392D01*
X12224485Y-49776224D01*
X12313160Y-49665997D01*
X12403414Y-49553876D01*
X12453056Y-49492244D01*
X13685627Y-49492244D01*
X13736854Y-49584919D01*
X13788081Y-49677595D01*
X13788081Y-52368622D01*
X13736854Y-52461298D01*
X13685627Y-52553973D01*
X14291604Y-52553973D01*
X14436266Y-52553931D01*
X14555756Y-52553741D01*
X14652358Y-52553308D01*
X14728358Y-52552536D01*
X14786043Y-52551330D01*
X14827699Y-52549594D01*
X14855611Y-52547232D01*
X14872065Y-52544150D01*
X14879348Y-52540251D01*
X14879745Y-52535440D01*
X14875542Y-52529622D01*
X14875499Y-52529574D01*
X14858187Y-52504532D01*
X14835264Y-52463815D01*
X14815019Y-52423168D01*
X14776621Y-52341162D01*
X14768789Y-49492244D01*
X13685627Y-49492244D01*
X12453056Y-49492244D01*
X12493507Y-49442024D01*
X12581698Y-49332604D01*
X12666246Y-49227778D01*
X12745408Y-49129711D01*
X12817444Y-49040566D01*
X12880613Y-48962505D01*
X12933173Y-48897692D01*
X12973383Y-48848290D01*
X12997000Y-48819487D01*
X13088710Y-48711778D01*
X13176940Y-48614580D01*
X13258597Y-48531076D01*
X13330590Y-48464448D01*
X13381681Y-48423599D01*
X13442093Y-48380135D01*
X12052702Y-48380135D01*
X12053092Y-48461666D01*
X12049209Y-48521606D01*
X12034610Y-48577177D01*
X12012012Y-48629855D01*
X11997322Y-48659615D01*
X11981528Y-48689103D01*
X11963186Y-48720276D01*
X11940855Y-48755093D01*
X11913091Y-48795510D01*
X11878451Y-48843486D01*
X11835493Y-48900978D01*
X11782773Y-48969943D01*
X11718849Y-49052339D01*
X11642279Y-49150124D01*
X11551619Y-49265255D01*
X11445426Y-49399690D01*
X11433432Y-49414859D01*
X11014675Y-49944412D01*
X11010622Y-49357922D01*
X11009805Y-49182251D01*
X11009979Y-49033532D01*
X11011151Y-48911275D01*
X11013331Y-48814989D01*
X11016526Y-48744183D01*
X11020744Y-48698369D01*
X11022162Y-48689679D01*
X11044409Y-48598135D01*
X11073557Y-48515608D01*
X11106818Y-48449253D01*
X11126800Y-48421110D01*
X11161278Y-48380135D01*
X10507086Y-48380135D01*
X10351031Y-48380269D01*
X10220533Y-48380703D01*
X10113690Y-48381489D01*
X10028602Y-48382676D01*
X9963365Y-48384317D01*
X9916079Y-48386461D01*
X9884843Y-48389159D01*
X9867754Y-48392462D01*
X9862912Y-48396421D01*
X9863247Y-48397298D01*
X9877115Y-48418231D01*
X9900268Y-48451412D01*
X9912246Y-48468193D01*
X9924631Y-48484940D01*
X9935763Y-48499915D01*
X9945712Y-48514594D01*
X9954549Y-48530449D01*
X9962343Y-48548955D01*
X9969165Y-48571585D01*
X9975084Y-48599813D01*
X9980171Y-48635113D01*
X9984496Y-48678958D01*
X9988129Y-48732822D01*
X9991140Y-48798180D01*
X9993599Y-48876504D01*
X9995577Y-48969268D01*
X9997142Y-49077947D01*
X9998366Y-49204013D01*
X9999319Y-49348942D01*
X10000070Y-49514206D01*
X10000689Y-49701279D01*
X10001248Y-49911635D01*
X10001815Y-50146748D01*
X10002345Y-50362741D01*
X10002845Y-50603535D01*
X10003105Y-50833274D01*
X10003132Y-51050493D01*
X10002933Y-51253722D01*
X10002514Y-51441496D01*
X10001882Y-51612345D01*
X10001044Y-51764803D01*
X10000008Y-51897403D01*
X9998780Y-52008676D01*
X9997367Y-52097156D01*
X9995775Y-52161375D01*
X9994013Y-52199865D01*
X9993679Y-52203933D01*
X9981534Y-52297248D01*
X9962573Y-52372190D01*
X9933698Y-52437594D01*
X9891810Y-52502293D01*
X9886571Y-52509352D01*
X9853116Y-52553973D01*
X9486685Y-52553973D01*
X9485946Y-52472479D01*
X9485107Y-52333090D01*
X9484502Y-52175539D01*
X9484095Y-51998691D01*
X9483850Y-51801410D01*
X9483733Y-51582560D01*
X9483705Y-51341007D01*
X9483733Y-51075615D01*
X9483780Y-50785249D01*
X9483810Y-50468773D01*
X9483811Y-50405946D01*
X9483828Y-50086137D01*
X9483888Y-49792661D01*
X9483998Y-49524390D01*
X9484167Y-49280198D01*
X9484403Y-49058957D01*
X9484716Y-48859540D01*
X9485115Y-48680820D01*
X9485607Y-48521671D01*
X9486203Y-48380966D01*
X9486910Y-48257576D01*
X9487737Y-48150376D01*
X9488693Y-48058238D01*
X9489787Y-47980035D01*
X9491027Y-47914641D01*
X9492422Y-47860928D01*
X9493982Y-47817769D01*
X9495714Y-47784037D01*
X9497628Y-47758605D01*
X9499732Y-47740347D01*
X9502034Y-47728134D01*
X9504545Y-47720841D01*
X9504637Y-47720659D01*
X9509808Y-47709518D01*
X9514115Y-47699431D01*
X9518879Y-47690346D01*
X9525422Y-47682212D01*
X9535065Y-47674976D01*
X9549129Y-47668586D01*
X9568937Y-47662989D01*
X9595809Y-47658133D01*
X9631067Y-47653966D01*
X9676032Y-47650436D01*
X9732026Y-47647491D01*
X9800371Y-47645077D01*
X9882386Y-47643144D01*
X9979395Y-47641638D01*
X10092718Y-47640508D01*
X10223677Y-47639702D01*
X10373593Y-47639166D01*
X10543787Y-47638849D01*
X10735582Y-47638699D01*
X10950298Y-47638663D01*
X11189257Y-47638689D01*
G37*
X11189257Y-47638689D02*
X11453780Y-47638725D01*
X11576912Y-47638730D01*
X13547811Y-47638730D01*
X13547811Y-47754910D01*
X13560211Y-47896291D01*
X13597636Y-48026684D01*
X13660423Y-48146862D01*
X13748906Y-48257602D01*
X13778843Y-48287511D01*
X13886534Y-48372348D01*
X14005275Y-48434221D01*
X14131540Y-48473159D01*
X14261803Y-48489190D01*
X14392535Y-48482342D01*
X14520212Y-48452643D01*
X14641305Y-48400120D01*
X14752288Y-48324803D01*
X14802132Y-48279363D01*
X14895017Y-48167952D01*
X14963127Y-48045435D01*
X15005871Y-47913215D01*
X15022653Y-47772692D01*
X15022876Y-47758867D01*
X15023756Y-47638734D01*
X15076557Y-47638732D01*
X15123396Y-47645089D01*
X15166183Y-47660556D01*
X15169011Y-47662154D01*
X15178675Y-47667168D01*
X15187549Y-47671073D01*
X15195665Y-47675007D01*
X15203057Y-47680106D01*
X15209755Y-47687508D01*
X15215792Y-47698351D01*
X15221199Y-47713772D01*
X15226010Y-47734909D01*
X15230255Y-47762899D01*
X15233968Y-47798879D01*
X15237179Y-47843987D01*
X15239922Y-47899360D01*
X15242228Y-47966137D01*
X15244129Y-48045453D01*
X15245658Y-48138447D01*
X15246846Y-48246257D01*
X15247726Y-48370019D01*
X15248330Y-48510871D01*
X15248689Y-48669950D01*
X15248835Y-48848395D01*
X15248802Y-49047342D01*
X15248620Y-49267929D01*
X15248323Y-49511293D01*
X15247941Y-49778572D01*
X15247508Y-50070903D01*
X15247055Y-50389424D01*
X15247002Y-50428230D01*
X15246596Y-50748782D01*
X15246251Y-51043012D01*
X15245931Y-51312056D01*
X15245600Y-51557052D01*
X15245221Y-51779137D01*
X15244757Y-51979447D01*
X15244172Y-52159119D01*
X15243430Y-52319290D01*
X15242494Y-52461098D01*
X15241327Y-52585679D01*
X15239893Y-52694170D01*
X15238156Y-52787707D01*
X15236078Y-52867429D01*
X15233624Y-52934472D01*
X15230756Y-52989973D01*
X15227439Y-53035068D01*
X15223636Y-53070895D01*
X15219310Y-53098591D01*
X15214425Y-53119293D01*
X15208945Y-53134137D01*
X15202832Y-53144260D01*
X15196050Y-53150800D01*
X15188563Y-53154893D01*
X15180334Y-53157676D01*
X15171327Y-53160287D01*
X15161505Y-53163862D01*
X15159106Y-53164950D01*
X15151565Y-53167396D01*
X15138944Y-53169642D01*
X15120141Y-53171698D01*
X15094053Y-53173572D01*
X15059578Y-53175271D01*
X15015615Y-53176803D01*
X14961061Y-53178177D01*
X14894815Y-53179400D01*
X14815774Y-53180481D01*
X14722837Y-53181427D01*
X14614901Y-53182247D01*
X14490864Y-53182947D01*
X14349624Y-53183538D01*
X14190079Y-53184025D01*
X14011128Y-53184419D01*
X13811668Y-53184725D01*
X13590596Y-53184953D01*
X13346812Y-53185110D01*
X13079213Y-53185205D01*
X12786697Y-53185245D01*
X12468161Y-53185238D01*
X12364979Y-53185228D01*
X12039377Y-53185176D01*
X11740119Y-53185091D01*
X11466091Y-53184963D01*
X11216176Y-53184785D01*
X10989260Y-53184548D01*
X10784227Y-53184242D01*
X10599962Y-53183860D01*
X10435350Y-53183392D01*
X10289275Y-53182830D01*
X10160624Y-53182165D01*
X10048279Y-53181388D01*
X9951126Y-53180491D01*
X9868050Y-53179465D01*
X9797936Y-53178301D01*
X9739668Y-53176991D01*
X9692131Y-53175525D01*
X9654210Y-53173896D01*
X9624790Y-53172093D01*
X9602755Y-53170110D01*
X9586990Y-53167936D01*
X9576380Y-53165563D01*
X9570596Y-53163391D01*
X9560316Y-53159056D01*
X9550878Y-53155859D01*
X9542245Y-53152665D01*
X9534381Y-53148338D01*
X9527252Y-53141744D01*
X9520821Y-53131747D01*
X9515053Y-53117212D01*
X9509911Y-53097003D01*
X9505360Y-53069985D01*
X9501365Y-53035023D01*
X9497889Y-52990981D01*
X9494898Y-52936724D01*
X9492354Y-52871117D01*
X9490223Y-52793024D01*
X9488468Y-52701310D01*
X9487055Y-52594840D01*
X9486685Y-52553973D01*
X9853116Y-52553973D01*
X11148266Y-52553973D01*
X11123345Y-52516217D01*
X11098553Y-52477417D01*
X11077560Y-52440469D01*
X11060065Y-52402788D01*
X11045770Y-52361788D01*
X11034377Y-52314883D01*
X11025587Y-52259487D01*
X11019102Y-52193016D01*
X11014623Y-52112883D01*
X11011850Y-52016502D01*
X11010487Y-51901289D01*
X11010233Y-51764657D01*
X11010791Y-51604020D01*
X11011107Y-51544382D01*
X11014675Y-50905041D01*
X11419702Y-51456449D01*
X11534446Y-51612876D01*
X11633857Y-51749088D01*
X11719010Y-51866890D01*
X11790978Y-51968084D01*
X11850834Y-52054477D01*
X11899652Y-52127874D01*
X11938505Y-52190077D01*
X11968466Y-52242893D01*
X11990609Y-52288125D01*
X12006007Y-52327578D01*
X12015734Y-52363058D01*
X12020863Y-52396368D01*
X12022468Y-52429313D01*
X12021621Y-52463697D01*
X12021405Y-52468019D01*
X12016946Y-52554031D01*
X13436308Y-52553973D01*
X13330735Y-52447522D01*
X13302087Y-52418406D01*
X13274910Y-52390076D01*
X13248011Y-52360968D01*
X13220197Y-52329520D01*
X13190275Y-52294169D01*
X13157054Y-52253354D01*
X13119339Y-52205511D01*
X13075940Y-52149079D01*
X13025662Y-52082494D01*
X12967312Y-52004195D01*
X12899700Y-51912619D01*
X12821631Y-51806204D01*
X12731912Y-51683387D01*
X12629352Y-51542605D01*
X12512758Y-51382297D01*
X12417191Y-51250798D01*
X12297251Y-51085596D01*
X12192620Y-50941152D01*
X12102352Y-50816094D01*
X12025497Y-50709052D01*
X11961109Y-50618654D01*
X11908239Y-50543529D01*
X11865940Y-50482304D01*
X11833264Y-50433610D01*
X11809262Y-50396074D01*
X11792987Y-50368325D01*
X11783492Y-50348992D01*
X11779827Y-50336703D01*
X11780929Y-50330242D01*
X11794276Y-50313048D01*
X11823134Y-50276655D01*
X11865760Y-50223224D01*
X11920415Y-50154919D01*
X11985356Y-50073903D01*
X12058842Y-49982340D01*
X12139132Y-49882392D01*
X12224485Y-49776224D01*
X12313160Y-49665997D01*
X12403414Y-49553876D01*
X12453056Y-49492244D01*
X13685627Y-49492244D01*
X13736854Y-49584919D01*
X13788081Y-49677595D01*
X13788081Y-52368622D01*
X13736854Y-52461298D01*
X13685627Y-52553973D01*
X14291604Y-52553973D01*
X14436266Y-52553931D01*
X14555756Y-52553741D01*
X14652358Y-52553308D01*
X14728358Y-52552536D01*
X14786043Y-52551330D01*
X14827699Y-52549594D01*
X14855611Y-52547232D01*
X14872065Y-52544150D01*
X14879348Y-52540251D01*
X14879745Y-52535440D01*
X14875542Y-52529622D01*
X14875499Y-52529574D01*
X14858187Y-52504532D01*
X14835264Y-52463815D01*
X14815019Y-52423168D01*
X14776621Y-52341162D01*
X14768789Y-49492244D01*
X13685627Y-49492244D01*
X12453056Y-49492244D01*
X12493507Y-49442024D01*
X12581698Y-49332604D01*
X12666246Y-49227778D01*
X12745408Y-49129711D01*
X12817444Y-49040566D01*
X12880613Y-48962505D01*
X12933173Y-48897692D01*
X12973383Y-48848290D01*
X12997000Y-48819487D01*
X13088710Y-48711778D01*
X13176940Y-48614580D01*
X13258597Y-48531076D01*
X13330590Y-48464448D01*
X13381681Y-48423599D01*
X13442093Y-48380135D01*
X12052702Y-48380135D01*
X12053092Y-48461666D01*
X12049209Y-48521606D01*
X12034610Y-48577177D01*
X12012012Y-48629855D01*
X11997322Y-48659615D01*
X11981528Y-48689103D01*
X11963186Y-48720276D01*
X11940855Y-48755093D01*
X11913091Y-48795510D01*
X11878451Y-48843486D01*
X11835493Y-48900978D01*
X11782773Y-48969943D01*
X11718849Y-49052339D01*
X11642279Y-49150124D01*
X11551619Y-49265255D01*
X11445426Y-49399690D01*
X11433432Y-49414859D01*
X11014675Y-49944412D01*
X11010622Y-49357922D01*
X11009805Y-49182251D01*
X11009979Y-49033532D01*
X11011151Y-48911275D01*
X11013331Y-48814989D01*
X11016526Y-48744183D01*
X11020744Y-48698369D01*
X11022162Y-48689679D01*
X11044409Y-48598135D01*
X11073557Y-48515608D01*
X11106818Y-48449253D01*
X11126800Y-48421110D01*
X11161278Y-48380135D01*
X10507086Y-48380135D01*
X10351031Y-48380269D01*
X10220533Y-48380703D01*
X10113690Y-48381489D01*
X10028602Y-48382676D01*
X9963365Y-48384317D01*
X9916079Y-48386461D01*
X9884843Y-48389159D01*
X9867754Y-48392462D01*
X9862912Y-48396421D01*
X9863247Y-48397298D01*
X9877115Y-48418231D01*
X9900268Y-48451412D01*
X9912246Y-48468193D01*
X9924631Y-48484940D01*
X9935763Y-48499915D01*
X9945712Y-48514594D01*
X9954549Y-48530449D01*
X9962343Y-48548955D01*
X9969165Y-48571585D01*
X9975084Y-48599813D01*
X9980171Y-48635113D01*
X9984496Y-48678958D01*
X9988129Y-48732822D01*
X9991140Y-48798180D01*
X9993599Y-48876504D01*
X9995577Y-48969268D01*
X9997142Y-49077947D01*
X9998366Y-49204013D01*
X9999319Y-49348942D01*
X10000070Y-49514206D01*
X10000689Y-49701279D01*
X10001248Y-49911635D01*
X10001815Y-50146748D01*
X10002345Y-50362741D01*
X10002845Y-50603535D01*
X10003105Y-50833274D01*
X10003132Y-51050493D01*
X10002933Y-51253722D01*
X10002514Y-51441496D01*
X10001882Y-51612345D01*
X10001044Y-51764803D01*
X10000008Y-51897403D01*
X9998780Y-52008676D01*
X9997367Y-52097156D01*
X9995775Y-52161375D01*
X9994013Y-52199865D01*
X9993679Y-52203933D01*
X9981534Y-52297248D01*
X9962573Y-52372190D01*
X9933698Y-52437594D01*
X9891810Y-52502293D01*
X9886571Y-52509352D01*
X9853116Y-52553973D01*
X9486685Y-52553973D01*
X9485946Y-52472479D01*
X9485107Y-52333090D01*
X9484502Y-52175539D01*
X9484095Y-51998691D01*
X9483850Y-51801410D01*
X9483733Y-51582560D01*
X9483705Y-51341007D01*
X9483733Y-51075615D01*
X9483780Y-50785249D01*
X9483810Y-50468773D01*
X9483811Y-50405946D01*
X9483828Y-50086137D01*
X9483888Y-49792661D01*
X9483998Y-49524390D01*
X9484167Y-49280198D01*
X9484403Y-49058957D01*
X9484716Y-48859540D01*
X9485115Y-48680820D01*
X9485607Y-48521671D01*
X9486203Y-48380966D01*
X9486910Y-48257576D01*
X9487737Y-48150376D01*
X9488693Y-48058238D01*
X9489787Y-47980035D01*
X9491027Y-47914641D01*
X9492422Y-47860928D01*
X9493982Y-47817769D01*
X9495714Y-47784037D01*
X9497628Y-47758605D01*
X9499732Y-47740347D01*
X9502034Y-47728134D01*
X9504545Y-47720841D01*
X9504637Y-47720659D01*
X9509808Y-47709518D01*
X9514115Y-47699431D01*
X9518879Y-47690346D01*
X9525422Y-47682212D01*
X9535065Y-47674976D01*
X9549129Y-47668586D01*
X9568937Y-47662989D01*
X9595809Y-47658133D01*
X9631067Y-47653966D01*
X9676032Y-47650436D01*
X9732026Y-47647491D01*
X9800371Y-47645077D01*
X9882386Y-47643144D01*
X9979395Y-47641638D01*
X10092718Y-47640508D01*
X10223677Y-47639702D01*
X10373593Y-47639166D01*
X10543787Y-47638849D01*
X10735582Y-47638699D01*
X10950298Y-47638663D01*
X11189257Y-47638689D01*
D14*
%TO.C,U2*%
X6885000Y-6310000D02*
X6885000Y-1310000D01*
X57885000Y-6310000D02*
X6885000Y-6310000D01*
X57885000Y-1310000D02*
X57885000Y-6310000D01*
X6885000Y-1310000D02*
X57885000Y-1310000D01*
D10*
%TO.C,U1*%
X46863000Y-32512000D02*
G75*
G03*
X46863000Y-32512000I-1778000J0D01*
G01*
X48387000Y-35052000D02*
X48387000Y-29972000D01*
X48387000Y-29972000D02*
X41783000Y-29972000D01*
X41783000Y-29972000D02*
X41783000Y-35052000D01*
X41783000Y-35052000D02*
X48387000Y-35052000D01*
X46355000Y-39624000D02*
X46355000Y-41656000D01*
X46609000Y-39370000D02*
X46355000Y-39624000D01*
X46355000Y-39624000D02*
X46101000Y-39370000D01*
X43561000Y-39370000D02*
X43815000Y-39624000D01*
X43815000Y-39116000D02*
X44069000Y-39370000D01*
X41529000Y-39370000D02*
X43561000Y-39370000D01*
X43561000Y-39370000D02*
X43815000Y-39116000D01*
X43815000Y-39116000D02*
X43815000Y-37084000D01*
X41529000Y-39370000D02*
X41275000Y-39624000D01*
X41275000Y-39624000D02*
X41275000Y-41656000D01*
X41529000Y-39370000D02*
X41275000Y-39116000D01*
X41275000Y-39116000D02*
X41275000Y-37084000D01*
X46355000Y-39116000D02*
X46101000Y-39370000D01*
X46101000Y-39370000D02*
X44069000Y-39370000D01*
X44069000Y-39370000D02*
X43815000Y-39624000D01*
X43815000Y-39624000D02*
X43815000Y-41656000D01*
X46355000Y-37084000D02*
X46355000Y-39116000D01*
X46355000Y-39116000D02*
X46609000Y-39370000D01*
X46609000Y-39370000D02*
X48641000Y-39370000D01*
X44069000Y-41910000D02*
X46101000Y-41910000D01*
X41529000Y-41910000D02*
X43561000Y-41910000D01*
X43561000Y-36830000D02*
X41529000Y-36830000D01*
X46101000Y-36830000D02*
X44069000Y-36830000D01*
X48641000Y-36830000D02*
X46609000Y-36830000D01*
X48895000Y-39116000D02*
X48895000Y-37084000D01*
X48895000Y-41656000D02*
X48895000Y-39624000D01*
X48641000Y-41910000D02*
X46609000Y-41910000D01*
X41529000Y-36830000D02*
X41275000Y-37084000D01*
X44069000Y-36830000D02*
X43815000Y-37084000D01*
X43815000Y-37084000D02*
X43561000Y-36830000D01*
X46609000Y-36830000D02*
X46355000Y-37084000D01*
X46355000Y-37084000D02*
X46101000Y-36830000D01*
X48895000Y-37084000D02*
X48641000Y-36830000D01*
X48895000Y-41656000D02*
X48641000Y-41910000D01*
X41529000Y-41910000D02*
X41275000Y-41656000D01*
X44069000Y-41910000D02*
X43815000Y-41656000D01*
X43815000Y-41656000D02*
X43561000Y-41910000D01*
X46609000Y-41910000D02*
X46355000Y-41656000D01*
X46355000Y-41656000D02*
X46101000Y-41910000D01*
X48895000Y-39116000D02*
X48641000Y-39370000D01*
X48641000Y-39370000D02*
X48895000Y-39624000D01*
X42799000Y-38100000D02*
G75*
G03*
X42799000Y-38100000I-254000J0D01*
G01*
X45339000Y-38100000D02*
G75*
G03*
X45339000Y-38100000I-254000J0D01*
G01*
X47879000Y-38100000D02*
G75*
G03*
X47879000Y-38100000I-254000J0D01*
G01*
X47879000Y-40640000D02*
G75*
G03*
X47879000Y-40640000I-254000J0D01*
G01*
X42799000Y-40640000D02*
G75*
G03*
X42799000Y-40640000I-254000J0D01*
G01*
X45339000Y-40640000D02*
G75*
G03*
X45339000Y-40640000I-254000J0D01*
G01*
X23535000Y-30060000D02*
X18035000Y-35560000D01*
X18035000Y-35560000D02*
X23535000Y-41060000D01*
X23535000Y-41060000D02*
X29035000Y-35560000D01*
X29035000Y-35560000D02*
X23535000Y-30060000D01*
X2035000Y-31060000D02*
X6535000Y-31060000D01*
X6535000Y-31060000D02*
X6535000Y-40060000D01*
X6535000Y-40060000D02*
X2035000Y-40060000D01*
X3535000Y-27560000D02*
G75*
G03*
X3535000Y-27560000I-500000J0D01*
G01*
X3535000Y-43560000D02*
G75*
G03*
X3535000Y-43560000I-500000J0D01*
G01*
X49535000Y-43560000D02*
G75*
G03*
X49535000Y-43560000I-500000J0D01*
G01*
X49535000Y-27560000D02*
G75*
G03*
X49535000Y-27560000I-500000J0D01*
G01*
X50035000Y-26560000D02*
X2035000Y-26560000D01*
X2035000Y-26560000D02*
X2035000Y-44560000D01*
X2035000Y-44560000D02*
X50035000Y-44560000D01*
X50035000Y-44560000D02*
X50035000Y-26560000D01*
%TO.C,U2*%
X31623095Y-6762380D02*
X31623095Y-7571904D01*
X31670714Y-7667142D01*
X31718333Y-7714761D01*
X31813571Y-7762380D01*
X32004047Y-7762380D01*
X32099285Y-7714761D01*
X32146904Y-7667142D01*
X32194523Y-7571904D01*
X32194523Y-6762380D01*
X32623095Y-6857619D02*
X32670714Y-6810000D01*
X32765952Y-6762380D01*
X33004047Y-6762380D01*
X33099285Y-6810000D01*
X33146904Y-6857619D01*
X33194523Y-6952857D01*
X33194523Y-7048095D01*
X33146904Y-7190952D01*
X32575476Y-7762380D01*
X33194523Y-7762380D01*
%TO.C,U1*%
X48133095Y-24852380D02*
X48133095Y-25661904D01*
X48180714Y-25757142D01*
X48228333Y-25804761D01*
X48323571Y-25852380D01*
X48514047Y-25852380D01*
X48609285Y-25804761D01*
X48656904Y-25757142D01*
X48704523Y-25661904D01*
X48704523Y-24852380D01*
X49704523Y-25852380D02*
X49133095Y-25852380D01*
X49418809Y-25852380D02*
X49418809Y-24852380D01*
X49323571Y-24995238D01*
X49228333Y-25090476D01*
X49133095Y-25138095D01*
%TD*%
M02*
