M48
; DRILL file {KiCad 5.1.10} date Sat Nov 27 11:42:59 2021
; FORMAT={-:-/ absolute / inch / decimal}
; #@! TF.CreationDate,2021-11-27T11:42:59+01:00
; #@! TF.GenerationSoftware,Kicad,Pcbnew,5.1.10
FMAT,2
INCH
T1C0.0157
T2C0.0394
T3C0.0433
T4C0.1063
%
G90
G05
T1
X0.725Y-0.75
X0.725Y-0.9
X0.775Y-0.725
X0.825Y-0.9
X0.925Y-0.825
X0.975Y-0.825
X1.025Y-0.825
X1.075Y-0.825
X1.125Y-0.825
X1.175Y-0.825
X1.225Y-0.825
X1.925Y-0.925
X2.075Y-0.925
T2
X0.225Y-1.1
X0.225Y-1.7
X0.325Y-1.1
X0.325Y-1.7
X0.425Y-1.1
X0.425Y-1.7
X0.525Y-1.1
X0.525Y-1.7
X0.625Y-1.1
X0.625Y-1.7
X0.725Y-1.1
X0.725Y-1.7
X0.825Y-1.1
X0.825Y-1.7
X0.925Y-1.1
X0.925Y-1.7
X1.025Y-1.1
X1.025Y-1.7
X1.125Y-1.1
X1.125Y-1.7
X1.225Y-1.1
X1.225Y-1.7
X1.325Y-1.1
X1.325Y-1.7
X1.425Y-1.1
X1.425Y-1.7
X1.525Y-1.1
X1.525Y-1.7
X1.625Y-1.1
X1.625Y-1.7
X1.725Y-1.1
X1.725Y-1.7
X1.825Y-1.1
X1.825Y-1.7
T3
X0.325Y-0.1
X0.325Y-0.2
X0.425Y-0.1
X0.425Y-0.2
X0.525Y-0.1
X0.525Y-0.2
X0.625Y-0.1
X0.625Y-0.2
X0.725Y-0.1
X0.725Y-0.2
X0.825Y-0.1
X0.825Y-0.2
X0.925Y-0.1
X0.925Y-0.2
X1.025Y-0.1
X1.025Y-0.2
X1.125Y-0.1
X1.125Y-0.2
X1.225Y-0.1
X1.225Y-0.2
X1.325Y-0.1
X1.325Y-0.2
X1.425Y-0.1
X1.425Y-0.2
X1.525Y-0.1
X1.525Y-0.2
X1.625Y-0.1
X1.625Y-0.2
X1.725Y-0.1
X1.725Y-0.2
X1.825Y-0.1
X1.825Y-0.2
X1.925Y-0.1
X1.925Y-0.2
X2.025Y-0.1
X2.025Y-0.2
X2.125Y-0.1
X2.125Y-0.2
X2.225Y-0.1
X2.225Y-0.2
T4
X0.1333Y-0.15
X0.1333Y-2.0791
X2.4167Y-0.15
X2.4167Y-2.0791
T0
M30
