%TF.GenerationSoftware,KiCad,Pcbnew,5.1.10*%
%TF.CreationDate,2021-11-27T11:42:48+01:00*%
%TF.ProjectId,GrasPiB_AR488_Adapter,47726173-5069-4425-9f41-523438385f41,0*%
%TF.SameCoordinates,PX4ce8b88PY2455c20*%
%TF.FileFunction,Copper,L2,Bot*%
%TF.FilePolarity,Positive*%
%FSLAX46Y46*%
G04 Gerber Fmt 4.6, Leading zero omitted, Abs format (unit mm)*
G04 Created by KiCad (PCBNEW 5.1.10) date 2021-11-27 11:42:48*
%MOMM*%
%LPD*%
G01*
G04 APERTURE LIST*
%TA.AperFunction,WasherPad*%
%ADD10C,6.000000*%
%TD*%
%TA.AperFunction,ComponentPad*%
%ADD11C,1.600000*%
%TD*%
%TA.AperFunction,ViaPad*%
%ADD12C,0.800000*%
%TD*%
%TA.AperFunction,Conductor*%
%ADD13C,0.250000*%
%TD*%
%TA.AperFunction,Conductor*%
%ADD14C,0.350000*%
%TD*%
%TA.AperFunction,Conductor*%
%ADD15C,0.254000*%
%TD*%
%TA.AperFunction,Conductor*%
%ADD16C,0.100000*%
%TD*%
G04 APERTURE END LIST*
D10*
%TO.P,U2,*%
%TO.N,*%
X61385000Y-52810000D03*
X3385000Y-52810000D03*
X61385000Y-3810000D03*
X3385000Y-3810000D03*
D11*
%TO.P,U2,40*%
%TO.N,Net-(U2-Pad40)*%
X56515000Y-2540000D03*
%TO.P,U2,39*%
%TO.N,GND*%
X56515000Y-5080000D03*
%TO.P,U2,38*%
%TO.N,/DIO1*%
X53975000Y-2540000D03*
%TO.P,U2,37*%
%TO.N,/DIO2*%
X53975000Y-5080000D03*
%TO.P,U2,36*%
%TO.N,/DIO3*%
X51435000Y-2540000D03*
%TO.P,U2,35*%
%TO.N,/DIO4*%
X51435000Y-5080000D03*
%TO.P,U2,34*%
%TO.N,GND*%
X48895000Y-2540000D03*
%TO.P,U2,33*%
%TO.N,/DIO5*%
X48895000Y-5080000D03*
%TO.P,U2,32*%
%TO.N,/DIO6*%
X46355000Y-2540000D03*
%TO.P,U2,31*%
%TO.N,/DIO7*%
X46355000Y-5080000D03*
%TO.P,U2,30*%
%TO.N,GND*%
X43815000Y-2540000D03*
%TO.P,U2,29*%
%TO.N,/DIO8*%
X43815000Y-5080000D03*
%TO.P,U2,28*%
%TO.N,Net-(U2-Pad28)*%
X41275000Y-2540000D03*
%TO.P,U2,27*%
%TO.N,Net-(U2-Pad27)*%
X41275000Y-5080000D03*
%TO.P,U2,26*%
%TO.N,+5V*%
X38735000Y-2540000D03*
%TO.P,U2,25*%
%TO.N,GND*%
X38735000Y-5080000D03*
%TO.P,U2,24*%
%TO.N,/DC*%
X36195000Y-2540000D03*
%TO.P,U2,23*%
%TO.N,/SRQ*%
X36195000Y-5080000D03*
%TO.P,U2,22*%
%TO.N,/ATN*%
X33655000Y-2540000D03*
%TO.P,U2,21*%
%TO.N,/EOI*%
X33655000Y-5080000D03*
%TO.P,U2,20*%
%TO.N,GND*%
X31115000Y-2540000D03*
%TO.P,U2,19*%
%TO.N,/DAV*%
X31115000Y-5080000D03*
%TO.P,U2,18*%
%TO.N,/NRFD*%
X28575000Y-2540000D03*
%TO.P,U2,17*%
%TO.N,Net-(U2-Pad17)*%
X28575000Y-5080000D03*
%TO.P,U2,16*%
%TO.N,/NDAC*%
X26035000Y-2540000D03*
%TO.P,U2,15*%
%TO.N,/IFC*%
X26035000Y-5080000D03*
%TO.P,U2,14*%
%TO.N,GND*%
X23495000Y-2540000D03*
%TO.P,U2,13*%
%TO.N,/REN*%
X23495000Y-5080000D03*
%TO.P,U2,12*%
%TO.N,/TE*%
X20955000Y-2540000D03*
%TO.P,U2,11*%
%TO.N,Net-(U2-Pad11)*%
X20955000Y-5080000D03*
%TO.P,U2,10*%
%TO.N,/RX*%
X18415000Y-2540000D03*
%TO.P,U2,9*%
%TO.N,GND*%
X18415000Y-5080000D03*
%TO.P,U2,8*%
%TO.N,/TX*%
X15875000Y-2540000D03*
%TO.P,U2,7*%
%TO.N,/LED*%
X15875000Y-5080000D03*
%TO.P,U2,6*%
%TO.N,GND*%
X13335000Y-2540000D03*
%TO.P,U2,5*%
%TO.N,Net-(U2-Pad5)*%
X13335000Y-5080000D03*
%TO.P,U2,4*%
%TO.N,+5V*%
X10795000Y-2540000D03*
%TO.P,U2,3*%
%TO.N,Net-(U2-Pad3)*%
X10795000Y-5080000D03*
%TO.P,U2,2*%
%TO.N,+5V*%
X8255000Y-2540000D03*
%TO.P,U2,1*%
%TA.AperFunction,ComponentPad*%
G36*
G01*
X7455000Y-5480000D02*
X7455000Y-4680000D01*
G75*
G02*
X7855000Y-4280000I400000J0D01*
G01*
X8655000Y-4280000D01*
G75*
G02*
X9055000Y-4680000I0J-400000D01*
G01*
X9055000Y-5480000D01*
G75*
G02*
X8655000Y-5880000I-400000J0D01*
G01*
X7855000Y-5880000D01*
G75*
G02*
X7455000Y-5480000I0J400000D01*
G01*
G37*
%TD.AperFunction*%
%TD*%
%TO.P,U1,1*%
%TO.N,/DIO3*%
X46355000Y-27940000D03*
%TO.P,U1,2*%
%TO.N,Net-(U1-Pad2)*%
X43815000Y-27940000D03*
%TO.P,U1,3*%
%TO.N,/TX*%
X41275000Y-27940000D03*
%TO.P,U1,4*%
%TO.N,/RX*%
X38735000Y-27940000D03*
%TO.P,U1,5*%
%TO.N,Net-(U1-Pad5)*%
X36195000Y-27940000D03*
%TO.P,U1,6*%
%TO.N,GND*%
X33655000Y-27940000D03*
%TO.P,U1,7*%
%TO.N,/ATN*%
X31115000Y-27940000D03*
%TO.P,U1,8*%
%TO.N,/DIO1*%
X28575000Y-27940000D03*
%TO.P,U1,9*%
%TO.N,/IFC*%
X26035000Y-27940000D03*
%TO.P,U1,10*%
%TO.N,/REN*%
X23495000Y-27940000D03*
%TO.P,U1,11*%
%TO.N,/DIO8*%
X20955000Y-27940000D03*
%TO.P,U1,12*%
%TO.N,/SRQ*%
X18415000Y-27940000D03*
%TO.P,U1,13*%
%TO.N,/DIO5*%
X15875000Y-27940000D03*
%TO.P,U1,14*%
%TO.N,/DIO6*%
X13335000Y-27940000D03*
%TO.P,U1,15*%
%TO.N,/DIO7*%
X10795000Y-27940000D03*
%TO.P,U1,16*%
%TO.N,/DC*%
X8255000Y-27940000D03*
%TO.P,U1,17*%
%TO.N,/TE*%
X5715000Y-27940000D03*
%TO.P,U1,18*%
%TO.N,/LED*%
X5715000Y-43180000D03*
%TO.P,U1,19*%
%TO.N,Net-(U1-Pad19)*%
X8255000Y-43180000D03*
%TO.P,U1,20*%
%TO.N,Net-(U1-Pad20)*%
X10795000Y-43180000D03*
%TO.P,U1,21*%
%TO.N,/EOI*%
X13335000Y-43180000D03*
%TO.P,U1,22*%
%TO.N,/DAV*%
X15875000Y-43180000D03*
%TO.P,U1,23*%
%TO.N,/NRFD*%
X18415000Y-43180000D03*
%TO.P,U1,24*%
%TO.N,/NDAC*%
X20955000Y-43180000D03*
%TO.P,U1,25*%
%TO.N,Net-(U1-Pad25)*%
X23495000Y-43180000D03*
%TO.P,U1,26*%
%TO.N,Net-(U1-Pad26)*%
X26035000Y-43180000D03*
%TO.P,U1,27*%
%TO.N,Net-(U1-Pad27)*%
X28575000Y-43180000D03*
%TO.P,U1,28*%
%TO.N,Net-(U1-Pad28)*%
X31115000Y-43180000D03*
%TO.P,U1,29*%
%TO.N,+5V*%
X33655000Y-43180000D03*
%TO.P,U1,30*%
%TO.N,Net-(U1-Pad30)*%
X36195000Y-43180000D03*
%TO.P,U1,31*%
%TO.N,GND*%
X38735000Y-43180000D03*
%TO.P,U1,32*%
%TO.N,Net-(U1-Pad32)*%
X41275000Y-43180000D03*
%TO.P,U1,33*%
%TO.N,/DIO4*%
X43815000Y-43180000D03*
%TO.P,U1,34*%
%TO.N,/DIO2*%
X46355000Y-43180000D03*
%TD*%
D12*
%TO.N,/TX*%
X18415000Y-19050000D03*
%TO.N,/RX*%
X19685000Y-18415000D03*
%TO.N,/ATN*%
X29845000Y-20955000D03*
%TO.N,/DIO1*%
X48895000Y-23495000D03*
X52705000Y-23495000D03*
%TO.N,/IFC*%
X26035000Y-20955000D03*
%TO.N,/REN*%
X23495000Y-20955000D03*
%TO.N,/DIO8*%
X20955000Y-22860000D03*
%TO.N,/SRQ*%
X18415000Y-22860000D03*
%TO.N,/EOI*%
X31115000Y-20955000D03*
%TO.N,/DAV*%
X28575000Y-20955000D03*
%TO.N,/NRFD*%
X27305000Y-20955000D03*
%TO.N,/NDAC*%
X24765000Y-20955000D03*
%TD*%
D13*
%TO.N,/TX*%
X40005000Y-29210000D02*
X41275000Y-27940000D01*
X37465000Y-28575000D02*
X38100000Y-29210000D01*
X37465000Y-26035000D02*
X37465000Y-28575000D01*
X31115000Y-19685000D02*
X37465000Y-26035000D01*
X38100000Y-29210000D02*
X40005000Y-29210000D01*
X19050000Y-19685000D02*
X31115000Y-19685000D01*
X18415000Y-19050000D02*
X19050000Y-19685000D01*
%TO.N,/RX*%
X19685000Y-18415000D02*
X20320000Y-19050000D01*
X20320000Y-19050000D02*
X31750000Y-19050000D01*
X31750000Y-19050000D02*
X38735000Y-26035000D01*
X38735000Y-26035000D02*
X38735000Y-27940000D01*
D14*
%TO.N,GND*%
X38735000Y-5080000D02*
X40005000Y-3810000D01*
X40005000Y-3810000D02*
X42545000Y-3810000D01*
X42545000Y-3810000D02*
X43815000Y-2540000D01*
X55245000Y-3810000D02*
X56515000Y-5080000D01*
X42545000Y-3810000D02*
X55245000Y-3810000D01*
X31115000Y-2540000D02*
X32385000Y-3810000D01*
X32385000Y-3810000D02*
X37465000Y-3810000D01*
X37465000Y-3810000D02*
X38735000Y-5080000D01*
X31115000Y-2540000D02*
X29845000Y-3810000D01*
X29845000Y-3810000D02*
X24765000Y-3810000D01*
X24765000Y-3810000D02*
X23495000Y-2540000D01*
X18415000Y-5080000D02*
X19685000Y-3810000D01*
X19685000Y-3810000D02*
X22225000Y-3810000D01*
X22225000Y-3810000D02*
X23495000Y-2540000D01*
X18415000Y-5080000D02*
X17145000Y-3810000D01*
X13335000Y-2540000D02*
X14605000Y-3810000D01*
X14605000Y-3810000D02*
X17145000Y-3810000D01*
D13*
%TO.N,/ATN*%
X31115000Y-26035000D02*
X31115000Y-27940000D01*
X29845000Y-24765000D02*
X31115000Y-26035000D01*
X29845000Y-20955000D02*
X29845000Y-24765000D01*
%TO.N,/DIO1*%
X48895000Y-23495000D02*
X52705000Y-23495000D01*
%TO.N,/IFC*%
X26035000Y-20955000D02*
X26035000Y-27940000D01*
%TO.N,/REN*%
X23495000Y-20955000D02*
X23495000Y-27940000D01*
%TO.N,/DIO8*%
X20955000Y-22860000D02*
X20955000Y-27940000D01*
%TO.N,/SRQ*%
X18415000Y-22860000D02*
X18415000Y-27940000D01*
%TO.N,/EOI*%
X15875000Y-45720000D02*
X13335000Y-43180000D01*
X31115000Y-20955000D02*
X31115000Y-24130000D01*
X32385000Y-25400000D02*
X32385000Y-28575000D01*
X31115000Y-24130000D02*
X32385000Y-25400000D01*
X26035000Y-45720000D02*
X15875000Y-45720000D01*
X27305000Y-44450000D02*
X26035000Y-45720000D01*
X32385000Y-28575000D02*
X28575000Y-32385000D01*
X28575000Y-32385000D02*
X28575000Y-40005000D01*
X28575000Y-40005000D02*
X27305000Y-41275000D01*
X27305000Y-41275000D02*
X27305000Y-44450000D01*
%TO.N,/DAV*%
X17780000Y-45085000D02*
X15875000Y-43180000D01*
X23495000Y-45085000D02*
X17780000Y-45085000D01*
X24765000Y-43815000D02*
X23495000Y-45085000D01*
X24765000Y-41275000D02*
X24765000Y-43815000D01*
X27305000Y-31750000D02*
X27305000Y-38735000D01*
X29845000Y-29210000D02*
X27305000Y-31750000D01*
X28575000Y-25400000D02*
X29845000Y-26670000D01*
X28575000Y-20955000D02*
X28575000Y-25400000D01*
X27305000Y-38735000D02*
X24765000Y-41275000D01*
X29845000Y-26670000D02*
X29845000Y-29210000D01*
%TO.N,/NRFD*%
X19685000Y-44450000D02*
X18415000Y-43180000D01*
X21590000Y-44450000D02*
X19685000Y-44450000D01*
X22225000Y-43815000D02*
X21590000Y-44450000D01*
X22225000Y-41910000D02*
X22225000Y-43815000D01*
X26035000Y-38100000D02*
X22225000Y-41910000D01*
X26035000Y-29845000D02*
X26035000Y-38100000D01*
X27305000Y-28575000D02*
X26035000Y-29845000D01*
X27305000Y-20955000D02*
X27305000Y-28575000D01*
%TO.N,/NDAC*%
X20955000Y-41275000D02*
X20955000Y-43180000D01*
X24765000Y-37465000D02*
X20955000Y-41275000D01*
X24765000Y-20955000D02*
X24765000Y-37465000D01*
%TD*%
D15*
%TO.N,GND*%
X82338893Y-1017670D02*
X82775498Y-1149489D01*
X83178185Y-1363600D01*
X83531612Y-1651848D01*
X83822327Y-2003261D01*
X84039242Y-2404439D01*
X84174106Y-2840113D01*
X84225001Y-3324353D01*
X84225000Y-53277721D01*
X84177330Y-53763894D01*
X84045512Y-54200497D01*
X83831399Y-54603186D01*
X83543150Y-54956613D01*
X83191739Y-55247327D01*
X82790564Y-55464240D01*
X82354886Y-55599106D01*
X81870664Y-55650000D01*
X63677467Y-55650000D01*
X63702177Y-55633489D01*
X64208489Y-55127177D01*
X64606295Y-54531818D01*
X64880309Y-53870290D01*
X65020000Y-53168016D01*
X65020000Y-52451984D01*
X64880309Y-51749710D01*
X64606295Y-51088182D01*
X64208489Y-50492823D01*
X63702177Y-49986511D01*
X63106818Y-49588705D01*
X62445290Y-49314691D01*
X61743016Y-49175000D01*
X61026984Y-49175000D01*
X60324710Y-49314691D01*
X59663182Y-49588705D01*
X59067823Y-49986511D01*
X58561511Y-50492823D01*
X58163705Y-51088182D01*
X57889691Y-51749710D01*
X57750000Y-52451984D01*
X57750000Y-53168016D01*
X57889691Y-53870290D01*
X58163705Y-54531818D01*
X58561511Y-55127177D01*
X59067823Y-55633489D01*
X59092533Y-55650000D01*
X5677467Y-55650000D01*
X5702177Y-55633489D01*
X6208489Y-55127177D01*
X6606295Y-54531818D01*
X6880309Y-53870290D01*
X7020000Y-53168016D01*
X7020000Y-52451984D01*
X6880309Y-51749710D01*
X6606295Y-51088182D01*
X6208489Y-50492823D01*
X5702177Y-49986511D01*
X5106818Y-49588705D01*
X4445290Y-49314691D01*
X3743016Y-49175000D01*
X3026984Y-49175000D01*
X2324710Y-49314691D01*
X1663182Y-49588705D01*
X1067823Y-49986511D01*
X561511Y-50492823D01*
X545000Y-50517533D01*
X545000Y-27798665D01*
X4280000Y-27798665D01*
X4280000Y-28081335D01*
X4335147Y-28358574D01*
X4443320Y-28619727D01*
X4600363Y-28854759D01*
X4800241Y-29054637D01*
X5035273Y-29211680D01*
X5296426Y-29319853D01*
X5573665Y-29375000D01*
X5856335Y-29375000D01*
X6133574Y-29319853D01*
X6394727Y-29211680D01*
X6629759Y-29054637D01*
X6829637Y-28854759D01*
X6985000Y-28622241D01*
X7140363Y-28854759D01*
X7340241Y-29054637D01*
X7575273Y-29211680D01*
X7836426Y-29319853D01*
X8113665Y-29375000D01*
X8396335Y-29375000D01*
X8673574Y-29319853D01*
X8934727Y-29211680D01*
X9169759Y-29054637D01*
X9369637Y-28854759D01*
X9525000Y-28622241D01*
X9680363Y-28854759D01*
X9880241Y-29054637D01*
X10115273Y-29211680D01*
X10376426Y-29319853D01*
X10653665Y-29375000D01*
X10936335Y-29375000D01*
X11213574Y-29319853D01*
X11474727Y-29211680D01*
X11709759Y-29054637D01*
X11909637Y-28854759D01*
X12065000Y-28622241D01*
X12220363Y-28854759D01*
X12420241Y-29054637D01*
X12655273Y-29211680D01*
X12916426Y-29319853D01*
X13193665Y-29375000D01*
X13476335Y-29375000D01*
X13753574Y-29319853D01*
X14014727Y-29211680D01*
X14249759Y-29054637D01*
X14449637Y-28854759D01*
X14605000Y-28622241D01*
X14760363Y-28854759D01*
X14960241Y-29054637D01*
X15195273Y-29211680D01*
X15456426Y-29319853D01*
X15733665Y-29375000D01*
X16016335Y-29375000D01*
X16293574Y-29319853D01*
X16554727Y-29211680D01*
X16789759Y-29054637D01*
X16989637Y-28854759D01*
X17145000Y-28622241D01*
X17300363Y-28854759D01*
X17500241Y-29054637D01*
X17735273Y-29211680D01*
X17996426Y-29319853D01*
X18273665Y-29375000D01*
X18556335Y-29375000D01*
X18833574Y-29319853D01*
X19094727Y-29211680D01*
X19329759Y-29054637D01*
X19529637Y-28854759D01*
X19685000Y-28622241D01*
X19840363Y-28854759D01*
X20040241Y-29054637D01*
X20275273Y-29211680D01*
X20536426Y-29319853D01*
X20813665Y-29375000D01*
X21096335Y-29375000D01*
X21373574Y-29319853D01*
X21634727Y-29211680D01*
X21869759Y-29054637D01*
X22069637Y-28854759D01*
X22225000Y-28622241D01*
X22380363Y-28854759D01*
X22580241Y-29054637D01*
X22815273Y-29211680D01*
X23076426Y-29319853D01*
X23353665Y-29375000D01*
X23636335Y-29375000D01*
X23913574Y-29319853D01*
X24005001Y-29281983D01*
X24005001Y-37150197D01*
X20444003Y-40711196D01*
X20414999Y-40734999D01*
X20359871Y-40802174D01*
X20320026Y-40850724D01*
X20249455Y-40982753D01*
X20249454Y-40982754D01*
X20205997Y-41126015D01*
X20195000Y-41237668D01*
X20195000Y-41237678D01*
X20191324Y-41275000D01*
X20195000Y-41312323D01*
X20195000Y-41961956D01*
X20040241Y-42065363D01*
X19840363Y-42265241D01*
X19685000Y-42497759D01*
X19529637Y-42265241D01*
X19329759Y-42065363D01*
X19094727Y-41908320D01*
X18833574Y-41800147D01*
X18556335Y-41745000D01*
X18273665Y-41745000D01*
X17996426Y-41800147D01*
X17735273Y-41908320D01*
X17500241Y-42065363D01*
X17300363Y-42265241D01*
X17145000Y-42497759D01*
X16989637Y-42265241D01*
X16789759Y-42065363D01*
X16554727Y-41908320D01*
X16293574Y-41800147D01*
X16016335Y-41745000D01*
X15733665Y-41745000D01*
X15456426Y-41800147D01*
X15195273Y-41908320D01*
X14960241Y-42065363D01*
X14760363Y-42265241D01*
X14605000Y-42497759D01*
X14449637Y-42265241D01*
X14249759Y-42065363D01*
X14014727Y-41908320D01*
X13753574Y-41800147D01*
X13476335Y-41745000D01*
X13193665Y-41745000D01*
X12916426Y-41800147D01*
X12655273Y-41908320D01*
X12420241Y-42065363D01*
X12220363Y-42265241D01*
X12065000Y-42497759D01*
X11909637Y-42265241D01*
X11709759Y-42065363D01*
X11474727Y-41908320D01*
X11213574Y-41800147D01*
X10936335Y-41745000D01*
X10653665Y-41745000D01*
X10376426Y-41800147D01*
X10115273Y-41908320D01*
X9880241Y-42065363D01*
X9680363Y-42265241D01*
X9525000Y-42497759D01*
X9369637Y-42265241D01*
X9169759Y-42065363D01*
X8934727Y-41908320D01*
X8673574Y-41800147D01*
X8396335Y-41745000D01*
X8113665Y-41745000D01*
X7836426Y-41800147D01*
X7575273Y-41908320D01*
X7340241Y-42065363D01*
X7140363Y-42265241D01*
X6985000Y-42497759D01*
X6829637Y-42265241D01*
X6629759Y-42065363D01*
X6394727Y-41908320D01*
X6133574Y-41800147D01*
X5856335Y-41745000D01*
X5573665Y-41745000D01*
X5296426Y-41800147D01*
X5035273Y-41908320D01*
X4800241Y-42065363D01*
X4600363Y-42265241D01*
X4443320Y-42500273D01*
X4335147Y-42761426D01*
X4280000Y-43038665D01*
X4280000Y-43321335D01*
X4335147Y-43598574D01*
X4443320Y-43859727D01*
X4600363Y-44094759D01*
X4800241Y-44294637D01*
X5035273Y-44451680D01*
X5296426Y-44559853D01*
X5573665Y-44615000D01*
X5856335Y-44615000D01*
X6133574Y-44559853D01*
X6394727Y-44451680D01*
X6629759Y-44294637D01*
X6829637Y-44094759D01*
X6985000Y-43862241D01*
X7140363Y-44094759D01*
X7340241Y-44294637D01*
X7575273Y-44451680D01*
X7836426Y-44559853D01*
X8113665Y-44615000D01*
X8396335Y-44615000D01*
X8673574Y-44559853D01*
X8934727Y-44451680D01*
X9169759Y-44294637D01*
X9369637Y-44094759D01*
X9525000Y-43862241D01*
X9680363Y-44094759D01*
X9880241Y-44294637D01*
X10115273Y-44451680D01*
X10376426Y-44559853D01*
X10653665Y-44615000D01*
X10936335Y-44615000D01*
X11213574Y-44559853D01*
X11474727Y-44451680D01*
X11709759Y-44294637D01*
X11909637Y-44094759D01*
X12065000Y-43862241D01*
X12220363Y-44094759D01*
X12420241Y-44294637D01*
X12655273Y-44451680D01*
X12916426Y-44559853D01*
X13193665Y-44615000D01*
X13476335Y-44615000D01*
X13658886Y-44578688D01*
X15311205Y-46231008D01*
X15334999Y-46260001D01*
X15363992Y-46283795D01*
X15363996Y-46283799D01*
X15434685Y-46341811D01*
X15450724Y-46354974D01*
X15582753Y-46425546D01*
X15726014Y-46469003D01*
X15837667Y-46480000D01*
X15837676Y-46480000D01*
X15874999Y-46483676D01*
X15912322Y-46480000D01*
X25997678Y-46480000D01*
X26035000Y-46483676D01*
X26072322Y-46480000D01*
X26072333Y-46480000D01*
X26183986Y-46469003D01*
X26327247Y-46425546D01*
X26459276Y-46354974D01*
X26575001Y-46260001D01*
X26598804Y-46230997D01*
X27816003Y-45013799D01*
X27845001Y-44990001D01*
X27939974Y-44874276D01*
X28010546Y-44742247D01*
X28054003Y-44598986D01*
X28061721Y-44520625D01*
X28156426Y-44559853D01*
X28433665Y-44615000D01*
X28716335Y-44615000D01*
X28993574Y-44559853D01*
X29254727Y-44451680D01*
X29489759Y-44294637D01*
X29689637Y-44094759D01*
X29845000Y-43862241D01*
X30000363Y-44094759D01*
X30200241Y-44294637D01*
X30435273Y-44451680D01*
X30696426Y-44559853D01*
X30973665Y-44615000D01*
X31256335Y-44615000D01*
X31533574Y-44559853D01*
X31794727Y-44451680D01*
X32029759Y-44294637D01*
X32229637Y-44094759D01*
X32385000Y-43862241D01*
X32540363Y-44094759D01*
X32740241Y-44294637D01*
X32975273Y-44451680D01*
X33236426Y-44559853D01*
X33513665Y-44615000D01*
X33796335Y-44615000D01*
X34073574Y-44559853D01*
X34334727Y-44451680D01*
X34569759Y-44294637D01*
X34769637Y-44094759D01*
X34925000Y-43862241D01*
X35080363Y-44094759D01*
X35280241Y-44294637D01*
X35515273Y-44451680D01*
X35776426Y-44559853D01*
X36053665Y-44615000D01*
X36336335Y-44615000D01*
X36613574Y-44559853D01*
X36874727Y-44451680D01*
X37109759Y-44294637D01*
X37231694Y-44172702D01*
X37921903Y-44172702D01*
X37993486Y-44416671D01*
X38248996Y-44537571D01*
X38523184Y-44606300D01*
X38805512Y-44620217D01*
X39085130Y-44578787D01*
X39351292Y-44483603D01*
X39476514Y-44416671D01*
X39548097Y-44172702D01*
X38735000Y-43359605D01*
X37921903Y-44172702D01*
X37231694Y-44172702D01*
X37309637Y-44094759D01*
X37465915Y-43860872D01*
X37498329Y-43921514D01*
X37742298Y-43993097D01*
X38555395Y-43180000D01*
X38914605Y-43180000D01*
X39727702Y-43993097D01*
X39971671Y-43921514D01*
X40002194Y-43857008D01*
X40003320Y-43859727D01*
X40160363Y-44094759D01*
X40360241Y-44294637D01*
X40595273Y-44451680D01*
X40856426Y-44559853D01*
X41133665Y-44615000D01*
X41416335Y-44615000D01*
X41693574Y-44559853D01*
X41954727Y-44451680D01*
X42189759Y-44294637D01*
X42389637Y-44094759D01*
X42545000Y-43862241D01*
X42700363Y-44094759D01*
X42900241Y-44294637D01*
X43135273Y-44451680D01*
X43396426Y-44559853D01*
X43673665Y-44615000D01*
X43956335Y-44615000D01*
X44233574Y-44559853D01*
X44494727Y-44451680D01*
X44729759Y-44294637D01*
X44929637Y-44094759D01*
X45085000Y-43862241D01*
X45240363Y-44094759D01*
X45440241Y-44294637D01*
X45675273Y-44451680D01*
X45936426Y-44559853D01*
X46213665Y-44615000D01*
X46496335Y-44615000D01*
X46773574Y-44559853D01*
X47034727Y-44451680D01*
X47269759Y-44294637D01*
X47469637Y-44094759D01*
X47626680Y-43859727D01*
X47734853Y-43598574D01*
X47790000Y-43321335D01*
X47790000Y-43038665D01*
X47734853Y-42761426D01*
X47626680Y-42500273D01*
X47469637Y-42265241D01*
X47269759Y-42065363D01*
X47034727Y-41908320D01*
X46773574Y-41800147D01*
X46496335Y-41745000D01*
X46213665Y-41745000D01*
X45936426Y-41800147D01*
X45675273Y-41908320D01*
X45440241Y-42065363D01*
X45240363Y-42265241D01*
X45085000Y-42497759D01*
X44929637Y-42265241D01*
X44729759Y-42065363D01*
X44494727Y-41908320D01*
X44233574Y-41800147D01*
X43956335Y-41745000D01*
X43673665Y-41745000D01*
X43396426Y-41800147D01*
X43135273Y-41908320D01*
X42900241Y-42065363D01*
X42700363Y-42265241D01*
X42545000Y-42497759D01*
X42389637Y-42265241D01*
X42189759Y-42065363D01*
X41954727Y-41908320D01*
X41693574Y-41800147D01*
X41416335Y-41745000D01*
X41133665Y-41745000D01*
X40856426Y-41800147D01*
X40595273Y-41908320D01*
X40360241Y-42065363D01*
X40160363Y-42265241D01*
X40004085Y-42499128D01*
X39971671Y-42438486D01*
X39727702Y-42366903D01*
X38914605Y-43180000D01*
X38555395Y-43180000D01*
X37742298Y-42366903D01*
X37498329Y-42438486D01*
X37467806Y-42502992D01*
X37466680Y-42500273D01*
X37309637Y-42265241D01*
X37231694Y-42187298D01*
X37921903Y-42187298D01*
X38735000Y-43000395D01*
X39548097Y-42187298D01*
X39476514Y-41943329D01*
X39221004Y-41822429D01*
X38946816Y-41753700D01*
X38664488Y-41739783D01*
X38384870Y-41781213D01*
X38118708Y-41876397D01*
X37993486Y-41943329D01*
X37921903Y-42187298D01*
X37231694Y-42187298D01*
X37109759Y-42065363D01*
X36874727Y-41908320D01*
X36613574Y-41800147D01*
X36336335Y-41745000D01*
X36053665Y-41745000D01*
X35776426Y-41800147D01*
X35515273Y-41908320D01*
X35280241Y-42065363D01*
X35080363Y-42265241D01*
X34925000Y-42497759D01*
X34769637Y-42265241D01*
X34569759Y-42065363D01*
X34334727Y-41908320D01*
X34073574Y-41800147D01*
X33796335Y-41745000D01*
X33513665Y-41745000D01*
X33236426Y-41800147D01*
X32975273Y-41908320D01*
X32740241Y-42065363D01*
X32540363Y-42265241D01*
X32385000Y-42497759D01*
X32229637Y-42265241D01*
X32029759Y-42065363D01*
X31794727Y-41908320D01*
X31533574Y-41800147D01*
X31256335Y-41745000D01*
X30973665Y-41745000D01*
X30696426Y-41800147D01*
X30435273Y-41908320D01*
X30200241Y-42065363D01*
X30000363Y-42265241D01*
X29845000Y-42497759D01*
X29689637Y-42265241D01*
X29489759Y-42065363D01*
X29254727Y-41908320D01*
X28993574Y-41800147D01*
X28716335Y-41745000D01*
X28433665Y-41745000D01*
X28156426Y-41800147D01*
X28065000Y-41838017D01*
X28065000Y-41589801D01*
X29086003Y-40568799D01*
X29115001Y-40545001D01*
X29209974Y-40429276D01*
X29280546Y-40297247D01*
X29324003Y-40153986D01*
X29335000Y-40042333D01*
X29335000Y-40042324D01*
X29338676Y-40005001D01*
X29335000Y-39967678D01*
X29335000Y-32699801D01*
X32896003Y-29138799D01*
X32901138Y-29134585D01*
X32913486Y-29176671D01*
X33168996Y-29297571D01*
X33443184Y-29366300D01*
X33725512Y-29380217D01*
X34005130Y-29338787D01*
X34271292Y-29243603D01*
X34396514Y-29176671D01*
X34468097Y-28932702D01*
X33655000Y-28119605D01*
X33640858Y-28133748D01*
X33461253Y-27954143D01*
X33475395Y-27940000D01*
X33461253Y-27925858D01*
X33640858Y-27746253D01*
X33655000Y-27760395D01*
X34468097Y-26947298D01*
X34396514Y-26703329D01*
X34141004Y-26582429D01*
X33866816Y-26513700D01*
X33584488Y-26499783D01*
X33304870Y-26541213D01*
X33145000Y-26598385D01*
X33145000Y-25437322D01*
X33148676Y-25399999D01*
X33145000Y-25362676D01*
X33145000Y-25362667D01*
X33134003Y-25251014D01*
X33090546Y-25107753D01*
X33019974Y-24975724D01*
X32925001Y-24859999D01*
X32896003Y-24836201D01*
X31875000Y-23815199D01*
X31875000Y-21658711D01*
X31918937Y-21614774D01*
X31939379Y-21584180D01*
X36705000Y-26349802D01*
X36705000Y-26598017D01*
X36613574Y-26560147D01*
X36336335Y-26505000D01*
X36053665Y-26505000D01*
X35776426Y-26560147D01*
X35515273Y-26668320D01*
X35280241Y-26825363D01*
X35080363Y-27025241D01*
X34924085Y-27259128D01*
X34891671Y-27198486D01*
X34647702Y-27126903D01*
X33834605Y-27940000D01*
X34647702Y-28753097D01*
X34891671Y-28681514D01*
X34922194Y-28617008D01*
X34923320Y-28619727D01*
X35080363Y-28854759D01*
X35280241Y-29054637D01*
X35515273Y-29211680D01*
X35776426Y-29319853D01*
X36053665Y-29375000D01*
X36336335Y-29375000D01*
X36613574Y-29319853D01*
X36874727Y-29211680D01*
X36965935Y-29150737D01*
X37536200Y-29721002D01*
X37559999Y-29750001D01*
X37675724Y-29844974D01*
X37807753Y-29915546D01*
X37951014Y-29959003D01*
X38100000Y-29973677D01*
X38137333Y-29970000D01*
X39967678Y-29970000D01*
X40005000Y-29973676D01*
X40042322Y-29970000D01*
X40042333Y-29970000D01*
X40153986Y-29959003D01*
X40297247Y-29915546D01*
X40429276Y-29844974D01*
X40545001Y-29750001D01*
X40568804Y-29720997D01*
X40951114Y-29338688D01*
X41133665Y-29375000D01*
X41416335Y-29375000D01*
X41693574Y-29319853D01*
X41954727Y-29211680D01*
X42189759Y-29054637D01*
X42389637Y-28854759D01*
X42545000Y-28622241D01*
X42700363Y-28854759D01*
X42900241Y-29054637D01*
X43135273Y-29211680D01*
X43396426Y-29319853D01*
X43673665Y-29375000D01*
X43956335Y-29375000D01*
X44233574Y-29319853D01*
X44494727Y-29211680D01*
X44729759Y-29054637D01*
X44929637Y-28854759D01*
X45085000Y-28622241D01*
X45240363Y-28854759D01*
X45440241Y-29054637D01*
X45675273Y-29211680D01*
X45936426Y-29319853D01*
X46213665Y-29375000D01*
X46496335Y-29375000D01*
X46773574Y-29319853D01*
X47034727Y-29211680D01*
X47269759Y-29054637D01*
X47469637Y-28854759D01*
X47626680Y-28619727D01*
X47734853Y-28358574D01*
X47790000Y-28081335D01*
X47790000Y-27798665D01*
X47734853Y-27521426D01*
X47626680Y-27260273D01*
X47469637Y-27025241D01*
X47269759Y-26825363D01*
X47034727Y-26668320D01*
X46773574Y-26560147D01*
X46496335Y-26505000D01*
X46213665Y-26505000D01*
X45936426Y-26560147D01*
X45675273Y-26668320D01*
X45440241Y-26825363D01*
X45240363Y-27025241D01*
X45085000Y-27257759D01*
X44929637Y-27025241D01*
X44729759Y-26825363D01*
X44494727Y-26668320D01*
X44233574Y-26560147D01*
X43956335Y-26505000D01*
X43673665Y-26505000D01*
X43396426Y-26560147D01*
X43135273Y-26668320D01*
X42900241Y-26825363D01*
X42700363Y-27025241D01*
X42545000Y-27257759D01*
X42389637Y-27025241D01*
X42189759Y-26825363D01*
X41954727Y-26668320D01*
X41693574Y-26560147D01*
X41416335Y-26505000D01*
X41133665Y-26505000D01*
X40856426Y-26560147D01*
X40595273Y-26668320D01*
X40360241Y-26825363D01*
X40160363Y-27025241D01*
X40005000Y-27257759D01*
X39849637Y-27025241D01*
X39649759Y-26825363D01*
X39495000Y-26721957D01*
X39495000Y-26072325D01*
X39498676Y-26035000D01*
X39495000Y-25997675D01*
X39495000Y-25997667D01*
X39484003Y-25886014D01*
X39440546Y-25742753D01*
X39369974Y-25610724D01*
X39275001Y-25494999D01*
X39246004Y-25471202D01*
X37167863Y-23393061D01*
X47860000Y-23393061D01*
X47860000Y-23596939D01*
X47899774Y-23796898D01*
X47977795Y-23985256D01*
X48091063Y-24154774D01*
X48235226Y-24298937D01*
X48404744Y-24412205D01*
X48593102Y-24490226D01*
X48793061Y-24530000D01*
X48996939Y-24530000D01*
X49196898Y-24490226D01*
X49385256Y-24412205D01*
X49554774Y-24298937D01*
X49598711Y-24255000D01*
X52001289Y-24255000D01*
X52045226Y-24298937D01*
X52214744Y-24412205D01*
X52403102Y-24490226D01*
X52603061Y-24530000D01*
X52806939Y-24530000D01*
X53006898Y-24490226D01*
X53195256Y-24412205D01*
X53364774Y-24298937D01*
X53508937Y-24154774D01*
X53622205Y-23985256D01*
X53700226Y-23796898D01*
X53740000Y-23596939D01*
X53740000Y-23393061D01*
X53700226Y-23193102D01*
X53622205Y-23004744D01*
X53508937Y-22835226D01*
X53364774Y-22691063D01*
X53195256Y-22577795D01*
X53006898Y-22499774D01*
X52806939Y-22460000D01*
X52603061Y-22460000D01*
X52403102Y-22499774D01*
X52214744Y-22577795D01*
X52045226Y-22691063D01*
X52001289Y-22735000D01*
X49598711Y-22735000D01*
X49554774Y-22691063D01*
X49385256Y-22577795D01*
X49196898Y-22499774D01*
X48996939Y-22460000D01*
X48793061Y-22460000D01*
X48593102Y-22499774D01*
X48404744Y-22577795D01*
X48235226Y-22691063D01*
X48091063Y-22835226D01*
X47977795Y-23004744D01*
X47899774Y-23193102D01*
X47860000Y-23393061D01*
X37167863Y-23393061D01*
X32313804Y-18539003D01*
X32290001Y-18509999D01*
X32174276Y-18415026D01*
X32042247Y-18344454D01*
X31898986Y-18300997D01*
X31787333Y-18290000D01*
X31787322Y-18290000D01*
X31750000Y-18286324D01*
X31712678Y-18290000D01*
X20715413Y-18290000D01*
X20680226Y-18113102D01*
X20602205Y-17924744D01*
X20488937Y-17755226D01*
X20344774Y-17611063D01*
X20175256Y-17497795D01*
X19986898Y-17419774D01*
X19786939Y-17380000D01*
X19583061Y-17380000D01*
X19383102Y-17419774D01*
X19194744Y-17497795D01*
X19025226Y-17611063D01*
X18881063Y-17755226D01*
X18767795Y-17924744D01*
X18714160Y-18054229D01*
X18516939Y-18015000D01*
X18313061Y-18015000D01*
X18113102Y-18054774D01*
X17924744Y-18132795D01*
X17755226Y-18246063D01*
X17611063Y-18390226D01*
X17497795Y-18559744D01*
X17419774Y-18748102D01*
X17380000Y-18948061D01*
X17380000Y-19151939D01*
X17419774Y-19351898D01*
X17497795Y-19540256D01*
X17611063Y-19709774D01*
X17755226Y-19853937D01*
X17924744Y-19967205D01*
X18113102Y-20045226D01*
X18313061Y-20085000D01*
X18375198Y-20085000D01*
X18486200Y-20196002D01*
X18509999Y-20225001D01*
X18538997Y-20248799D01*
X18625724Y-20319974D01*
X18757753Y-20390546D01*
X18901014Y-20434003D01*
X19050000Y-20448677D01*
X19087333Y-20445000D01*
X22590987Y-20445000D01*
X22577795Y-20464744D01*
X22499774Y-20653102D01*
X22460000Y-20853061D01*
X22460000Y-21056939D01*
X22499774Y-21256898D01*
X22577795Y-21445256D01*
X22691063Y-21614774D01*
X22735000Y-21658711D01*
X22735001Y-26721956D01*
X22580241Y-26825363D01*
X22380363Y-27025241D01*
X22225000Y-27257759D01*
X22069637Y-27025241D01*
X21869759Y-26825363D01*
X21715000Y-26721957D01*
X21715000Y-23563711D01*
X21758937Y-23519774D01*
X21872205Y-23350256D01*
X21950226Y-23161898D01*
X21990000Y-22961939D01*
X21990000Y-22758061D01*
X21950226Y-22558102D01*
X21872205Y-22369744D01*
X21758937Y-22200226D01*
X21614774Y-22056063D01*
X21445256Y-21942795D01*
X21256898Y-21864774D01*
X21056939Y-21825000D01*
X20853061Y-21825000D01*
X20653102Y-21864774D01*
X20464744Y-21942795D01*
X20295226Y-22056063D01*
X20151063Y-22200226D01*
X20037795Y-22369744D01*
X19959774Y-22558102D01*
X19920000Y-22758061D01*
X19920000Y-22961939D01*
X19959774Y-23161898D01*
X20037795Y-23350256D01*
X20151063Y-23519774D01*
X20195000Y-23563711D01*
X20195001Y-26721956D01*
X20040241Y-26825363D01*
X19840363Y-27025241D01*
X19685000Y-27257759D01*
X19529637Y-27025241D01*
X19329759Y-26825363D01*
X19175000Y-26721957D01*
X19175000Y-23563711D01*
X19218937Y-23519774D01*
X19332205Y-23350256D01*
X19410226Y-23161898D01*
X19450000Y-22961939D01*
X19450000Y-22758061D01*
X19410226Y-22558102D01*
X19332205Y-22369744D01*
X19218937Y-22200226D01*
X19074774Y-22056063D01*
X18905256Y-21942795D01*
X18716898Y-21864774D01*
X18516939Y-21825000D01*
X18313061Y-21825000D01*
X18113102Y-21864774D01*
X17924744Y-21942795D01*
X17755226Y-22056063D01*
X17611063Y-22200226D01*
X17497795Y-22369744D01*
X17419774Y-22558102D01*
X17380000Y-22758061D01*
X17380000Y-22961939D01*
X17419774Y-23161898D01*
X17497795Y-23350256D01*
X17611063Y-23519774D01*
X17655000Y-23563711D01*
X17655001Y-26721956D01*
X17500241Y-26825363D01*
X17300363Y-27025241D01*
X17145000Y-27257759D01*
X16989637Y-27025241D01*
X16789759Y-26825363D01*
X16554727Y-26668320D01*
X16293574Y-26560147D01*
X16016335Y-26505000D01*
X15733665Y-26505000D01*
X15456426Y-26560147D01*
X15195273Y-26668320D01*
X14960241Y-26825363D01*
X14760363Y-27025241D01*
X14605000Y-27257759D01*
X14449637Y-27025241D01*
X14249759Y-26825363D01*
X14014727Y-26668320D01*
X13753574Y-26560147D01*
X13476335Y-26505000D01*
X13193665Y-26505000D01*
X12916426Y-26560147D01*
X12655273Y-26668320D01*
X12420241Y-26825363D01*
X12220363Y-27025241D01*
X12065000Y-27257759D01*
X11909637Y-27025241D01*
X11709759Y-26825363D01*
X11474727Y-26668320D01*
X11213574Y-26560147D01*
X10936335Y-26505000D01*
X10653665Y-26505000D01*
X10376426Y-26560147D01*
X10115273Y-26668320D01*
X9880241Y-26825363D01*
X9680363Y-27025241D01*
X9525000Y-27257759D01*
X9369637Y-27025241D01*
X9169759Y-26825363D01*
X8934727Y-26668320D01*
X8673574Y-26560147D01*
X8396335Y-26505000D01*
X8113665Y-26505000D01*
X7836426Y-26560147D01*
X7575273Y-26668320D01*
X7340241Y-26825363D01*
X7140363Y-27025241D01*
X6985000Y-27257759D01*
X6829637Y-27025241D01*
X6629759Y-26825363D01*
X6394727Y-26668320D01*
X6133574Y-26560147D01*
X5856335Y-26505000D01*
X5573665Y-26505000D01*
X5296426Y-26560147D01*
X5035273Y-26668320D01*
X4800241Y-26825363D01*
X4600363Y-27025241D01*
X4443320Y-27260273D01*
X4335147Y-27521426D01*
X4280000Y-27798665D01*
X545000Y-27798665D01*
X545000Y-6102467D01*
X561511Y-6127177D01*
X1067823Y-6633489D01*
X1663182Y-7031295D01*
X2324710Y-7305309D01*
X3026984Y-7445000D01*
X3743016Y-7445000D01*
X4445290Y-7305309D01*
X5106818Y-7031295D01*
X5702177Y-6633489D01*
X6208489Y-6127177D01*
X6606295Y-5531818D01*
X6816928Y-5023305D01*
X6816928Y-5480000D01*
X6836874Y-5682518D01*
X6895947Y-5877253D01*
X6991875Y-6056722D01*
X7120972Y-6214028D01*
X7278278Y-6343125D01*
X7457747Y-6439053D01*
X7652482Y-6498126D01*
X7855000Y-6518072D01*
X8655000Y-6518072D01*
X8857518Y-6498126D01*
X9052253Y-6439053D01*
X9231722Y-6343125D01*
X9389028Y-6214028D01*
X9518125Y-6056722D01*
X9608629Y-5887401D01*
X9680363Y-5994759D01*
X9880241Y-6194637D01*
X10115273Y-6351680D01*
X10376426Y-6459853D01*
X10653665Y-6515000D01*
X10936335Y-6515000D01*
X11213574Y-6459853D01*
X11474727Y-6351680D01*
X11709759Y-6194637D01*
X11909637Y-5994759D01*
X12065000Y-5762241D01*
X12220363Y-5994759D01*
X12420241Y-6194637D01*
X12655273Y-6351680D01*
X12916426Y-6459853D01*
X13193665Y-6515000D01*
X13476335Y-6515000D01*
X13753574Y-6459853D01*
X14014727Y-6351680D01*
X14249759Y-6194637D01*
X14449637Y-5994759D01*
X14605000Y-5762241D01*
X14760363Y-5994759D01*
X14960241Y-6194637D01*
X15195273Y-6351680D01*
X15456426Y-6459853D01*
X15733665Y-6515000D01*
X16016335Y-6515000D01*
X16293574Y-6459853D01*
X16554727Y-6351680D01*
X16789759Y-6194637D01*
X16911694Y-6072702D01*
X17601903Y-6072702D01*
X17673486Y-6316671D01*
X17928996Y-6437571D01*
X18203184Y-6506300D01*
X18485512Y-6520217D01*
X18765130Y-6478787D01*
X19031292Y-6383603D01*
X19156514Y-6316671D01*
X19228097Y-6072702D01*
X18415000Y-5259605D01*
X17601903Y-6072702D01*
X16911694Y-6072702D01*
X16989637Y-5994759D01*
X17145915Y-5760872D01*
X17178329Y-5821514D01*
X17422298Y-5893097D01*
X18235395Y-5080000D01*
X17422298Y-4266903D01*
X17178329Y-4338486D01*
X17147806Y-4402992D01*
X17146680Y-4400273D01*
X16989637Y-4165241D01*
X16789759Y-3965363D01*
X16557241Y-3810000D01*
X16789759Y-3654637D01*
X16989637Y-3454759D01*
X17145000Y-3222241D01*
X17300363Y-3454759D01*
X17500241Y-3654637D01*
X17734128Y-3810915D01*
X17673486Y-3843329D01*
X17601903Y-4087298D01*
X18415000Y-4900395D01*
X19228097Y-4087298D01*
X19156514Y-3843329D01*
X19092008Y-3812806D01*
X19094727Y-3811680D01*
X19329759Y-3654637D01*
X19529637Y-3454759D01*
X19685000Y-3222241D01*
X19840363Y-3454759D01*
X20040241Y-3654637D01*
X20272759Y-3810000D01*
X20040241Y-3965363D01*
X19840363Y-4165241D01*
X19684085Y-4399128D01*
X19651671Y-4338486D01*
X19407702Y-4266903D01*
X18594605Y-5080000D01*
X19407702Y-5893097D01*
X19651671Y-5821514D01*
X19682194Y-5757008D01*
X19683320Y-5759727D01*
X19840363Y-5994759D01*
X20040241Y-6194637D01*
X20275273Y-6351680D01*
X20536426Y-6459853D01*
X20813665Y-6515000D01*
X21096335Y-6515000D01*
X21373574Y-6459853D01*
X21634727Y-6351680D01*
X21869759Y-6194637D01*
X22069637Y-5994759D01*
X22225000Y-5762241D01*
X22380363Y-5994759D01*
X22580241Y-6194637D01*
X22815273Y-6351680D01*
X23076426Y-6459853D01*
X23353665Y-6515000D01*
X23636335Y-6515000D01*
X23913574Y-6459853D01*
X24174727Y-6351680D01*
X24409759Y-6194637D01*
X24609637Y-5994759D01*
X24765000Y-5762241D01*
X24920363Y-5994759D01*
X25120241Y-6194637D01*
X25355273Y-6351680D01*
X25616426Y-6459853D01*
X25893665Y-6515000D01*
X26176335Y-6515000D01*
X26453574Y-6459853D01*
X26714727Y-6351680D01*
X26949759Y-6194637D01*
X27149637Y-5994759D01*
X27305000Y-5762241D01*
X27460363Y-5994759D01*
X27660241Y-6194637D01*
X27895273Y-6351680D01*
X28156426Y-6459853D01*
X28433665Y-6515000D01*
X28716335Y-6515000D01*
X28993574Y-6459853D01*
X29254727Y-6351680D01*
X29489759Y-6194637D01*
X29689637Y-5994759D01*
X29845000Y-5762241D01*
X30000363Y-5994759D01*
X30200241Y-6194637D01*
X30435273Y-6351680D01*
X30696426Y-6459853D01*
X30973665Y-6515000D01*
X31256335Y-6515000D01*
X31533574Y-6459853D01*
X31794727Y-6351680D01*
X32029759Y-6194637D01*
X32229637Y-5994759D01*
X32385000Y-5762241D01*
X32540363Y-5994759D01*
X32740241Y-6194637D01*
X32975273Y-6351680D01*
X33236426Y-6459853D01*
X33513665Y-6515000D01*
X33796335Y-6515000D01*
X34073574Y-6459853D01*
X34334727Y-6351680D01*
X34569759Y-6194637D01*
X34769637Y-5994759D01*
X34925000Y-5762241D01*
X35080363Y-5994759D01*
X35280241Y-6194637D01*
X35515273Y-6351680D01*
X35776426Y-6459853D01*
X36053665Y-6515000D01*
X36336335Y-6515000D01*
X36613574Y-6459853D01*
X36874727Y-6351680D01*
X37109759Y-6194637D01*
X37231694Y-6072702D01*
X37921903Y-6072702D01*
X37993486Y-6316671D01*
X38248996Y-6437571D01*
X38523184Y-6506300D01*
X38805512Y-6520217D01*
X39085130Y-6478787D01*
X39351292Y-6383603D01*
X39476514Y-6316671D01*
X39548097Y-6072702D01*
X38735000Y-5259605D01*
X37921903Y-6072702D01*
X37231694Y-6072702D01*
X37309637Y-5994759D01*
X37465915Y-5760872D01*
X37498329Y-5821514D01*
X37742298Y-5893097D01*
X38555395Y-5080000D01*
X37742298Y-4266903D01*
X37498329Y-4338486D01*
X37467806Y-4402992D01*
X37466680Y-4400273D01*
X37309637Y-4165241D01*
X37109759Y-3965363D01*
X36877241Y-3810000D01*
X37109759Y-3654637D01*
X37309637Y-3454759D01*
X37465000Y-3222241D01*
X37620363Y-3454759D01*
X37820241Y-3654637D01*
X38054128Y-3810915D01*
X37993486Y-3843329D01*
X37921903Y-4087298D01*
X38735000Y-4900395D01*
X39548097Y-4087298D01*
X39476514Y-3843329D01*
X39412008Y-3812806D01*
X39414727Y-3811680D01*
X39649759Y-3654637D01*
X39849637Y-3454759D01*
X40005000Y-3222241D01*
X40160363Y-3454759D01*
X40360241Y-3654637D01*
X40592759Y-3810000D01*
X40360241Y-3965363D01*
X40160363Y-4165241D01*
X40004085Y-4399128D01*
X39971671Y-4338486D01*
X39727702Y-4266903D01*
X38914605Y-5080000D01*
X39727702Y-5893097D01*
X39971671Y-5821514D01*
X40002194Y-5757008D01*
X40003320Y-5759727D01*
X40160363Y-5994759D01*
X40360241Y-6194637D01*
X40595273Y-6351680D01*
X40856426Y-6459853D01*
X41133665Y-6515000D01*
X41416335Y-6515000D01*
X41693574Y-6459853D01*
X41954727Y-6351680D01*
X42189759Y-6194637D01*
X42389637Y-5994759D01*
X42545000Y-5762241D01*
X42700363Y-5994759D01*
X42900241Y-6194637D01*
X43135273Y-6351680D01*
X43396426Y-6459853D01*
X43673665Y-6515000D01*
X43956335Y-6515000D01*
X44233574Y-6459853D01*
X44494727Y-6351680D01*
X44729759Y-6194637D01*
X44929637Y-5994759D01*
X45085000Y-5762241D01*
X45240363Y-5994759D01*
X45440241Y-6194637D01*
X45675273Y-6351680D01*
X45936426Y-6459853D01*
X46213665Y-6515000D01*
X46496335Y-6515000D01*
X46773574Y-6459853D01*
X47034727Y-6351680D01*
X47269759Y-6194637D01*
X47469637Y-5994759D01*
X47625000Y-5762241D01*
X47780363Y-5994759D01*
X47980241Y-6194637D01*
X48215273Y-6351680D01*
X48476426Y-6459853D01*
X48753665Y-6515000D01*
X49036335Y-6515000D01*
X49313574Y-6459853D01*
X49574727Y-6351680D01*
X49809759Y-6194637D01*
X50009637Y-5994759D01*
X50165000Y-5762241D01*
X50320363Y-5994759D01*
X50520241Y-6194637D01*
X50755273Y-6351680D01*
X51016426Y-6459853D01*
X51293665Y-6515000D01*
X51576335Y-6515000D01*
X51853574Y-6459853D01*
X52114727Y-6351680D01*
X52349759Y-6194637D01*
X52549637Y-5994759D01*
X52705000Y-5762241D01*
X52860363Y-5994759D01*
X53060241Y-6194637D01*
X53295273Y-6351680D01*
X53556426Y-6459853D01*
X53833665Y-6515000D01*
X54116335Y-6515000D01*
X54393574Y-6459853D01*
X54654727Y-6351680D01*
X54889759Y-6194637D01*
X55011694Y-6072702D01*
X55701903Y-6072702D01*
X55773486Y-6316671D01*
X56028996Y-6437571D01*
X56303184Y-6506300D01*
X56585512Y-6520217D01*
X56865130Y-6478787D01*
X57131292Y-6383603D01*
X57256514Y-6316671D01*
X57328097Y-6072702D01*
X56515000Y-5259605D01*
X55701903Y-6072702D01*
X55011694Y-6072702D01*
X55089637Y-5994759D01*
X55245915Y-5760872D01*
X55278329Y-5821514D01*
X55522298Y-5893097D01*
X56335395Y-5080000D01*
X55522298Y-4266903D01*
X55278329Y-4338486D01*
X55247806Y-4402992D01*
X55246680Y-4400273D01*
X55089637Y-4165241D01*
X54889759Y-3965363D01*
X54657241Y-3810000D01*
X54889759Y-3654637D01*
X55089637Y-3454759D01*
X55245000Y-3222241D01*
X55400363Y-3454759D01*
X55600241Y-3654637D01*
X55834128Y-3810915D01*
X55773486Y-3843329D01*
X55701903Y-4087298D01*
X56515000Y-4900395D01*
X57328097Y-4087298D01*
X57256514Y-3843329D01*
X57192008Y-3812806D01*
X57194727Y-3811680D01*
X57429759Y-3654637D01*
X57629637Y-3454759D01*
X57786680Y-3219727D01*
X57804993Y-3175515D01*
X57750000Y-3451984D01*
X57750000Y-4168016D01*
X57803016Y-4434547D01*
X57751671Y-4338486D01*
X57507702Y-4266903D01*
X56694605Y-5080000D01*
X57507702Y-5893097D01*
X57751671Y-5821514D01*
X57872571Y-5566004D01*
X57941300Y-5291816D01*
X57954380Y-5026464D01*
X58163705Y-5531818D01*
X58561511Y-6127177D01*
X59067823Y-6633489D01*
X59663182Y-7031295D01*
X60324710Y-7305309D01*
X61026984Y-7445000D01*
X61743016Y-7445000D01*
X62445290Y-7305309D01*
X63106818Y-7031295D01*
X63702177Y-6633489D01*
X64208489Y-6127177D01*
X64606295Y-5531818D01*
X64880309Y-4870290D01*
X65020000Y-4168016D01*
X65020000Y-3451984D01*
X64880309Y-2749710D01*
X64606295Y-2088182D01*
X64208489Y-1492823D01*
X63702177Y-986511D01*
X63677467Y-970000D01*
X81852721Y-970000D01*
X82338893Y-1017670D01*
%TA.AperFunction,Conductor*%
D16*
G36*
X82338893Y-1017670D02*
G01*
X82775498Y-1149489D01*
X83178185Y-1363600D01*
X83531612Y-1651848D01*
X83822327Y-2003261D01*
X84039242Y-2404439D01*
X84174106Y-2840113D01*
X84225001Y-3324353D01*
X84225000Y-53277721D01*
X84177330Y-53763894D01*
X84045512Y-54200497D01*
X83831399Y-54603186D01*
X83543150Y-54956613D01*
X83191739Y-55247327D01*
X82790564Y-55464240D01*
X82354886Y-55599106D01*
X81870664Y-55650000D01*
X63677467Y-55650000D01*
X63702177Y-55633489D01*
X64208489Y-55127177D01*
X64606295Y-54531818D01*
X64880309Y-53870290D01*
X65020000Y-53168016D01*
X65020000Y-52451984D01*
X64880309Y-51749710D01*
X64606295Y-51088182D01*
X64208489Y-50492823D01*
X63702177Y-49986511D01*
X63106818Y-49588705D01*
X62445290Y-49314691D01*
X61743016Y-49175000D01*
X61026984Y-49175000D01*
X60324710Y-49314691D01*
X59663182Y-49588705D01*
X59067823Y-49986511D01*
X58561511Y-50492823D01*
X58163705Y-51088182D01*
X57889691Y-51749710D01*
X57750000Y-52451984D01*
X57750000Y-53168016D01*
X57889691Y-53870290D01*
X58163705Y-54531818D01*
X58561511Y-55127177D01*
X59067823Y-55633489D01*
X59092533Y-55650000D01*
X5677467Y-55650000D01*
X5702177Y-55633489D01*
X6208489Y-55127177D01*
X6606295Y-54531818D01*
X6880309Y-53870290D01*
X7020000Y-53168016D01*
X7020000Y-52451984D01*
X6880309Y-51749710D01*
X6606295Y-51088182D01*
X6208489Y-50492823D01*
X5702177Y-49986511D01*
X5106818Y-49588705D01*
X4445290Y-49314691D01*
X3743016Y-49175000D01*
X3026984Y-49175000D01*
X2324710Y-49314691D01*
X1663182Y-49588705D01*
X1067823Y-49986511D01*
X561511Y-50492823D01*
X545000Y-50517533D01*
X545000Y-27798665D01*
X4280000Y-27798665D01*
X4280000Y-28081335D01*
X4335147Y-28358574D01*
X4443320Y-28619727D01*
X4600363Y-28854759D01*
X4800241Y-29054637D01*
X5035273Y-29211680D01*
X5296426Y-29319853D01*
X5573665Y-29375000D01*
X5856335Y-29375000D01*
X6133574Y-29319853D01*
X6394727Y-29211680D01*
X6629759Y-29054637D01*
X6829637Y-28854759D01*
X6985000Y-28622241D01*
X7140363Y-28854759D01*
X7340241Y-29054637D01*
X7575273Y-29211680D01*
X7836426Y-29319853D01*
X8113665Y-29375000D01*
X8396335Y-29375000D01*
X8673574Y-29319853D01*
X8934727Y-29211680D01*
X9169759Y-29054637D01*
X9369637Y-28854759D01*
X9525000Y-28622241D01*
X9680363Y-28854759D01*
X9880241Y-29054637D01*
X10115273Y-29211680D01*
X10376426Y-29319853D01*
X10653665Y-29375000D01*
X10936335Y-29375000D01*
X11213574Y-29319853D01*
X11474727Y-29211680D01*
X11709759Y-29054637D01*
X11909637Y-28854759D01*
X12065000Y-28622241D01*
X12220363Y-28854759D01*
X12420241Y-29054637D01*
X12655273Y-29211680D01*
X12916426Y-29319853D01*
X13193665Y-29375000D01*
X13476335Y-29375000D01*
X13753574Y-29319853D01*
X14014727Y-29211680D01*
X14249759Y-29054637D01*
X14449637Y-28854759D01*
X14605000Y-28622241D01*
X14760363Y-28854759D01*
X14960241Y-29054637D01*
X15195273Y-29211680D01*
X15456426Y-29319853D01*
X15733665Y-29375000D01*
X16016335Y-29375000D01*
X16293574Y-29319853D01*
X16554727Y-29211680D01*
X16789759Y-29054637D01*
X16989637Y-28854759D01*
X17145000Y-28622241D01*
X17300363Y-28854759D01*
X17500241Y-29054637D01*
X17735273Y-29211680D01*
X17996426Y-29319853D01*
X18273665Y-29375000D01*
X18556335Y-29375000D01*
X18833574Y-29319853D01*
X19094727Y-29211680D01*
X19329759Y-29054637D01*
X19529637Y-28854759D01*
X19685000Y-28622241D01*
X19840363Y-28854759D01*
X20040241Y-29054637D01*
X20275273Y-29211680D01*
X20536426Y-29319853D01*
X20813665Y-29375000D01*
X21096335Y-29375000D01*
X21373574Y-29319853D01*
X21634727Y-29211680D01*
X21869759Y-29054637D01*
X22069637Y-28854759D01*
X22225000Y-28622241D01*
X22380363Y-28854759D01*
X22580241Y-29054637D01*
X22815273Y-29211680D01*
X23076426Y-29319853D01*
X23353665Y-29375000D01*
X23636335Y-29375000D01*
X23913574Y-29319853D01*
X24005001Y-29281983D01*
X24005001Y-37150197D01*
X20444003Y-40711196D01*
X20414999Y-40734999D01*
X20359871Y-40802174D01*
X20320026Y-40850724D01*
X20249455Y-40982753D01*
X20249454Y-40982754D01*
X20205997Y-41126015D01*
X20195000Y-41237668D01*
X20195000Y-41237678D01*
X20191324Y-41275000D01*
X20195000Y-41312323D01*
X20195000Y-41961956D01*
X20040241Y-42065363D01*
X19840363Y-42265241D01*
X19685000Y-42497759D01*
X19529637Y-42265241D01*
X19329759Y-42065363D01*
X19094727Y-41908320D01*
X18833574Y-41800147D01*
X18556335Y-41745000D01*
X18273665Y-41745000D01*
X17996426Y-41800147D01*
X17735273Y-41908320D01*
X17500241Y-42065363D01*
X17300363Y-42265241D01*
X17145000Y-42497759D01*
X16989637Y-42265241D01*
X16789759Y-42065363D01*
X16554727Y-41908320D01*
X16293574Y-41800147D01*
X16016335Y-41745000D01*
X15733665Y-41745000D01*
X15456426Y-41800147D01*
X15195273Y-41908320D01*
X14960241Y-42065363D01*
X14760363Y-42265241D01*
X14605000Y-42497759D01*
X14449637Y-42265241D01*
X14249759Y-42065363D01*
X14014727Y-41908320D01*
X13753574Y-41800147D01*
X13476335Y-41745000D01*
X13193665Y-41745000D01*
X12916426Y-41800147D01*
X12655273Y-41908320D01*
X12420241Y-42065363D01*
X12220363Y-42265241D01*
X12065000Y-42497759D01*
X11909637Y-42265241D01*
X11709759Y-42065363D01*
X11474727Y-41908320D01*
X11213574Y-41800147D01*
X10936335Y-41745000D01*
X10653665Y-41745000D01*
X10376426Y-41800147D01*
X10115273Y-41908320D01*
X9880241Y-42065363D01*
X9680363Y-42265241D01*
X9525000Y-42497759D01*
X9369637Y-42265241D01*
X9169759Y-42065363D01*
X8934727Y-41908320D01*
X8673574Y-41800147D01*
X8396335Y-41745000D01*
X8113665Y-41745000D01*
X7836426Y-41800147D01*
X7575273Y-41908320D01*
X7340241Y-42065363D01*
X7140363Y-42265241D01*
X6985000Y-42497759D01*
X6829637Y-42265241D01*
X6629759Y-42065363D01*
X6394727Y-41908320D01*
X6133574Y-41800147D01*
X5856335Y-41745000D01*
X5573665Y-41745000D01*
X5296426Y-41800147D01*
X5035273Y-41908320D01*
X4800241Y-42065363D01*
X4600363Y-42265241D01*
X4443320Y-42500273D01*
X4335147Y-42761426D01*
X4280000Y-43038665D01*
X4280000Y-43321335D01*
X4335147Y-43598574D01*
X4443320Y-43859727D01*
X4600363Y-44094759D01*
X4800241Y-44294637D01*
X5035273Y-44451680D01*
X5296426Y-44559853D01*
X5573665Y-44615000D01*
X5856335Y-44615000D01*
X6133574Y-44559853D01*
X6394727Y-44451680D01*
X6629759Y-44294637D01*
X6829637Y-44094759D01*
X6985000Y-43862241D01*
X7140363Y-44094759D01*
X7340241Y-44294637D01*
X7575273Y-44451680D01*
X7836426Y-44559853D01*
X8113665Y-44615000D01*
X8396335Y-44615000D01*
X8673574Y-44559853D01*
X8934727Y-44451680D01*
X9169759Y-44294637D01*
X9369637Y-44094759D01*
X9525000Y-43862241D01*
X9680363Y-44094759D01*
X9880241Y-44294637D01*
X10115273Y-44451680D01*
X10376426Y-44559853D01*
X10653665Y-44615000D01*
X10936335Y-44615000D01*
X11213574Y-44559853D01*
X11474727Y-44451680D01*
X11709759Y-44294637D01*
X11909637Y-44094759D01*
X12065000Y-43862241D01*
X12220363Y-44094759D01*
X12420241Y-44294637D01*
X12655273Y-44451680D01*
X12916426Y-44559853D01*
X13193665Y-44615000D01*
X13476335Y-44615000D01*
X13658886Y-44578688D01*
X15311205Y-46231008D01*
X15334999Y-46260001D01*
X15363992Y-46283795D01*
X15363996Y-46283799D01*
X15434685Y-46341811D01*
X15450724Y-46354974D01*
X15582753Y-46425546D01*
X15726014Y-46469003D01*
X15837667Y-46480000D01*
X15837676Y-46480000D01*
X15874999Y-46483676D01*
X15912322Y-46480000D01*
X25997678Y-46480000D01*
X26035000Y-46483676D01*
X26072322Y-46480000D01*
X26072333Y-46480000D01*
X26183986Y-46469003D01*
X26327247Y-46425546D01*
X26459276Y-46354974D01*
X26575001Y-46260001D01*
X26598804Y-46230997D01*
X27816003Y-45013799D01*
X27845001Y-44990001D01*
X27939974Y-44874276D01*
X28010546Y-44742247D01*
X28054003Y-44598986D01*
X28061721Y-44520625D01*
X28156426Y-44559853D01*
X28433665Y-44615000D01*
X28716335Y-44615000D01*
X28993574Y-44559853D01*
X29254727Y-44451680D01*
X29489759Y-44294637D01*
X29689637Y-44094759D01*
X29845000Y-43862241D01*
X30000363Y-44094759D01*
X30200241Y-44294637D01*
X30435273Y-44451680D01*
X30696426Y-44559853D01*
X30973665Y-44615000D01*
X31256335Y-44615000D01*
X31533574Y-44559853D01*
X31794727Y-44451680D01*
X32029759Y-44294637D01*
X32229637Y-44094759D01*
X32385000Y-43862241D01*
X32540363Y-44094759D01*
X32740241Y-44294637D01*
X32975273Y-44451680D01*
X33236426Y-44559853D01*
X33513665Y-44615000D01*
X33796335Y-44615000D01*
X34073574Y-44559853D01*
X34334727Y-44451680D01*
X34569759Y-44294637D01*
X34769637Y-44094759D01*
X34925000Y-43862241D01*
X35080363Y-44094759D01*
X35280241Y-44294637D01*
X35515273Y-44451680D01*
X35776426Y-44559853D01*
X36053665Y-44615000D01*
X36336335Y-44615000D01*
X36613574Y-44559853D01*
X36874727Y-44451680D01*
X37109759Y-44294637D01*
X37231694Y-44172702D01*
X37921903Y-44172702D01*
X37993486Y-44416671D01*
X38248996Y-44537571D01*
X38523184Y-44606300D01*
X38805512Y-44620217D01*
X39085130Y-44578787D01*
X39351292Y-44483603D01*
X39476514Y-44416671D01*
X39548097Y-44172702D01*
X38735000Y-43359605D01*
X37921903Y-44172702D01*
X37231694Y-44172702D01*
X37309637Y-44094759D01*
X37465915Y-43860872D01*
X37498329Y-43921514D01*
X37742298Y-43993097D01*
X38555395Y-43180000D01*
X38914605Y-43180000D01*
X39727702Y-43993097D01*
X39971671Y-43921514D01*
X40002194Y-43857008D01*
X40003320Y-43859727D01*
X40160363Y-44094759D01*
X40360241Y-44294637D01*
X40595273Y-44451680D01*
X40856426Y-44559853D01*
X41133665Y-44615000D01*
X41416335Y-44615000D01*
X41693574Y-44559853D01*
X41954727Y-44451680D01*
X42189759Y-44294637D01*
X42389637Y-44094759D01*
X42545000Y-43862241D01*
X42700363Y-44094759D01*
X42900241Y-44294637D01*
X43135273Y-44451680D01*
X43396426Y-44559853D01*
X43673665Y-44615000D01*
X43956335Y-44615000D01*
X44233574Y-44559853D01*
X44494727Y-44451680D01*
X44729759Y-44294637D01*
X44929637Y-44094759D01*
X45085000Y-43862241D01*
X45240363Y-44094759D01*
X45440241Y-44294637D01*
X45675273Y-44451680D01*
X45936426Y-44559853D01*
X46213665Y-44615000D01*
X46496335Y-44615000D01*
X46773574Y-44559853D01*
X47034727Y-44451680D01*
X47269759Y-44294637D01*
X47469637Y-44094759D01*
X47626680Y-43859727D01*
X47734853Y-43598574D01*
X47790000Y-43321335D01*
X47790000Y-43038665D01*
X47734853Y-42761426D01*
X47626680Y-42500273D01*
X47469637Y-42265241D01*
X47269759Y-42065363D01*
X47034727Y-41908320D01*
X46773574Y-41800147D01*
X46496335Y-41745000D01*
X46213665Y-41745000D01*
X45936426Y-41800147D01*
X45675273Y-41908320D01*
X45440241Y-42065363D01*
X45240363Y-42265241D01*
X45085000Y-42497759D01*
X44929637Y-42265241D01*
X44729759Y-42065363D01*
X44494727Y-41908320D01*
X44233574Y-41800147D01*
X43956335Y-41745000D01*
X43673665Y-41745000D01*
X43396426Y-41800147D01*
X43135273Y-41908320D01*
X42900241Y-42065363D01*
X42700363Y-42265241D01*
X42545000Y-42497759D01*
X42389637Y-42265241D01*
X42189759Y-42065363D01*
X41954727Y-41908320D01*
X41693574Y-41800147D01*
X41416335Y-41745000D01*
X41133665Y-41745000D01*
X40856426Y-41800147D01*
X40595273Y-41908320D01*
X40360241Y-42065363D01*
X40160363Y-42265241D01*
X40004085Y-42499128D01*
X39971671Y-42438486D01*
X39727702Y-42366903D01*
X38914605Y-43180000D01*
X38555395Y-43180000D01*
X37742298Y-42366903D01*
X37498329Y-42438486D01*
X37467806Y-42502992D01*
X37466680Y-42500273D01*
X37309637Y-42265241D01*
X37231694Y-42187298D01*
X37921903Y-42187298D01*
X38735000Y-43000395D01*
X39548097Y-42187298D01*
X39476514Y-41943329D01*
X39221004Y-41822429D01*
X38946816Y-41753700D01*
X38664488Y-41739783D01*
X38384870Y-41781213D01*
X38118708Y-41876397D01*
X37993486Y-41943329D01*
X37921903Y-42187298D01*
X37231694Y-42187298D01*
X37109759Y-42065363D01*
X36874727Y-41908320D01*
X36613574Y-41800147D01*
X36336335Y-41745000D01*
X36053665Y-41745000D01*
X35776426Y-41800147D01*
X35515273Y-41908320D01*
X35280241Y-42065363D01*
X35080363Y-42265241D01*
X34925000Y-42497759D01*
X34769637Y-42265241D01*
X34569759Y-42065363D01*
X34334727Y-41908320D01*
X34073574Y-41800147D01*
X33796335Y-41745000D01*
X33513665Y-41745000D01*
X33236426Y-41800147D01*
X32975273Y-41908320D01*
X32740241Y-42065363D01*
X32540363Y-42265241D01*
X32385000Y-42497759D01*
X32229637Y-42265241D01*
X32029759Y-42065363D01*
X31794727Y-41908320D01*
X31533574Y-41800147D01*
X31256335Y-41745000D01*
X30973665Y-41745000D01*
X30696426Y-41800147D01*
X30435273Y-41908320D01*
X30200241Y-42065363D01*
X30000363Y-42265241D01*
X29845000Y-42497759D01*
X29689637Y-42265241D01*
X29489759Y-42065363D01*
X29254727Y-41908320D01*
X28993574Y-41800147D01*
X28716335Y-41745000D01*
X28433665Y-41745000D01*
X28156426Y-41800147D01*
X28065000Y-41838017D01*
X28065000Y-41589801D01*
X29086003Y-40568799D01*
X29115001Y-40545001D01*
X29209974Y-40429276D01*
X29280546Y-40297247D01*
X29324003Y-40153986D01*
X29335000Y-40042333D01*
X29335000Y-40042324D01*
X29338676Y-40005001D01*
X29335000Y-39967678D01*
X29335000Y-32699801D01*
X32896003Y-29138799D01*
X32901138Y-29134585D01*
X32913486Y-29176671D01*
X33168996Y-29297571D01*
X33443184Y-29366300D01*
X33725512Y-29380217D01*
X34005130Y-29338787D01*
X34271292Y-29243603D01*
X34396514Y-29176671D01*
X34468097Y-28932702D01*
X33655000Y-28119605D01*
X33640858Y-28133748D01*
X33461253Y-27954143D01*
X33475395Y-27940000D01*
X33461253Y-27925858D01*
X33640858Y-27746253D01*
X33655000Y-27760395D01*
X34468097Y-26947298D01*
X34396514Y-26703329D01*
X34141004Y-26582429D01*
X33866816Y-26513700D01*
X33584488Y-26499783D01*
X33304870Y-26541213D01*
X33145000Y-26598385D01*
X33145000Y-25437322D01*
X33148676Y-25399999D01*
X33145000Y-25362676D01*
X33145000Y-25362667D01*
X33134003Y-25251014D01*
X33090546Y-25107753D01*
X33019974Y-24975724D01*
X32925001Y-24859999D01*
X32896003Y-24836201D01*
X31875000Y-23815199D01*
X31875000Y-21658711D01*
X31918937Y-21614774D01*
X31939379Y-21584180D01*
X36705000Y-26349802D01*
X36705000Y-26598017D01*
X36613574Y-26560147D01*
X36336335Y-26505000D01*
X36053665Y-26505000D01*
X35776426Y-26560147D01*
X35515273Y-26668320D01*
X35280241Y-26825363D01*
X35080363Y-27025241D01*
X34924085Y-27259128D01*
X34891671Y-27198486D01*
X34647702Y-27126903D01*
X33834605Y-27940000D01*
X34647702Y-28753097D01*
X34891671Y-28681514D01*
X34922194Y-28617008D01*
X34923320Y-28619727D01*
X35080363Y-28854759D01*
X35280241Y-29054637D01*
X35515273Y-29211680D01*
X35776426Y-29319853D01*
X36053665Y-29375000D01*
X36336335Y-29375000D01*
X36613574Y-29319853D01*
X36874727Y-29211680D01*
X36965935Y-29150737D01*
X37536200Y-29721002D01*
X37559999Y-29750001D01*
X37675724Y-29844974D01*
X37807753Y-29915546D01*
X37951014Y-29959003D01*
X38100000Y-29973677D01*
X38137333Y-29970000D01*
X39967678Y-29970000D01*
X40005000Y-29973676D01*
X40042322Y-29970000D01*
X40042333Y-29970000D01*
X40153986Y-29959003D01*
X40297247Y-29915546D01*
X40429276Y-29844974D01*
X40545001Y-29750001D01*
X40568804Y-29720997D01*
X40951114Y-29338688D01*
X41133665Y-29375000D01*
X41416335Y-29375000D01*
X41693574Y-29319853D01*
X41954727Y-29211680D01*
X42189759Y-29054637D01*
X42389637Y-28854759D01*
X42545000Y-28622241D01*
X42700363Y-28854759D01*
X42900241Y-29054637D01*
X43135273Y-29211680D01*
X43396426Y-29319853D01*
X43673665Y-29375000D01*
X43956335Y-29375000D01*
X44233574Y-29319853D01*
X44494727Y-29211680D01*
X44729759Y-29054637D01*
X44929637Y-28854759D01*
X45085000Y-28622241D01*
X45240363Y-28854759D01*
X45440241Y-29054637D01*
X45675273Y-29211680D01*
X45936426Y-29319853D01*
X46213665Y-29375000D01*
X46496335Y-29375000D01*
X46773574Y-29319853D01*
X47034727Y-29211680D01*
X47269759Y-29054637D01*
X47469637Y-28854759D01*
X47626680Y-28619727D01*
X47734853Y-28358574D01*
X47790000Y-28081335D01*
X47790000Y-27798665D01*
X47734853Y-27521426D01*
X47626680Y-27260273D01*
X47469637Y-27025241D01*
X47269759Y-26825363D01*
X47034727Y-26668320D01*
X46773574Y-26560147D01*
X46496335Y-26505000D01*
X46213665Y-26505000D01*
X45936426Y-26560147D01*
X45675273Y-26668320D01*
X45440241Y-26825363D01*
X45240363Y-27025241D01*
X45085000Y-27257759D01*
X44929637Y-27025241D01*
X44729759Y-26825363D01*
X44494727Y-26668320D01*
X44233574Y-26560147D01*
X43956335Y-26505000D01*
X43673665Y-26505000D01*
X43396426Y-26560147D01*
X43135273Y-26668320D01*
X42900241Y-26825363D01*
X42700363Y-27025241D01*
X42545000Y-27257759D01*
X42389637Y-27025241D01*
X42189759Y-26825363D01*
X41954727Y-26668320D01*
X41693574Y-26560147D01*
X41416335Y-26505000D01*
X41133665Y-26505000D01*
X40856426Y-26560147D01*
X40595273Y-26668320D01*
X40360241Y-26825363D01*
X40160363Y-27025241D01*
X40005000Y-27257759D01*
X39849637Y-27025241D01*
X39649759Y-26825363D01*
X39495000Y-26721957D01*
X39495000Y-26072325D01*
X39498676Y-26035000D01*
X39495000Y-25997675D01*
X39495000Y-25997667D01*
X39484003Y-25886014D01*
X39440546Y-25742753D01*
X39369974Y-25610724D01*
X39275001Y-25494999D01*
X39246004Y-25471202D01*
X37167863Y-23393061D01*
X47860000Y-23393061D01*
X47860000Y-23596939D01*
X47899774Y-23796898D01*
X47977795Y-23985256D01*
X48091063Y-24154774D01*
X48235226Y-24298937D01*
X48404744Y-24412205D01*
X48593102Y-24490226D01*
X48793061Y-24530000D01*
X48996939Y-24530000D01*
X49196898Y-24490226D01*
X49385256Y-24412205D01*
X49554774Y-24298937D01*
X49598711Y-24255000D01*
X52001289Y-24255000D01*
X52045226Y-24298937D01*
X52214744Y-24412205D01*
X52403102Y-24490226D01*
X52603061Y-24530000D01*
X52806939Y-24530000D01*
X53006898Y-24490226D01*
X53195256Y-24412205D01*
X53364774Y-24298937D01*
X53508937Y-24154774D01*
X53622205Y-23985256D01*
X53700226Y-23796898D01*
X53740000Y-23596939D01*
X53740000Y-23393061D01*
X53700226Y-23193102D01*
X53622205Y-23004744D01*
X53508937Y-22835226D01*
X53364774Y-22691063D01*
X53195256Y-22577795D01*
X53006898Y-22499774D01*
X52806939Y-22460000D01*
X52603061Y-22460000D01*
X52403102Y-22499774D01*
X52214744Y-22577795D01*
X52045226Y-22691063D01*
X52001289Y-22735000D01*
X49598711Y-22735000D01*
X49554774Y-22691063D01*
X49385256Y-22577795D01*
X49196898Y-22499774D01*
X48996939Y-22460000D01*
X48793061Y-22460000D01*
X48593102Y-22499774D01*
X48404744Y-22577795D01*
X48235226Y-22691063D01*
X48091063Y-22835226D01*
X47977795Y-23004744D01*
X47899774Y-23193102D01*
X47860000Y-23393061D01*
X37167863Y-23393061D01*
X32313804Y-18539003D01*
X32290001Y-18509999D01*
X32174276Y-18415026D01*
X32042247Y-18344454D01*
X31898986Y-18300997D01*
X31787333Y-18290000D01*
X31787322Y-18290000D01*
X31750000Y-18286324D01*
X31712678Y-18290000D01*
X20715413Y-18290000D01*
X20680226Y-18113102D01*
X20602205Y-17924744D01*
X20488937Y-17755226D01*
X20344774Y-17611063D01*
X20175256Y-17497795D01*
X19986898Y-17419774D01*
X19786939Y-17380000D01*
X19583061Y-17380000D01*
X19383102Y-17419774D01*
X19194744Y-17497795D01*
X19025226Y-17611063D01*
X18881063Y-17755226D01*
X18767795Y-17924744D01*
X18714160Y-18054229D01*
X18516939Y-18015000D01*
X18313061Y-18015000D01*
X18113102Y-18054774D01*
X17924744Y-18132795D01*
X17755226Y-18246063D01*
X17611063Y-18390226D01*
X17497795Y-18559744D01*
X17419774Y-18748102D01*
X17380000Y-18948061D01*
X17380000Y-19151939D01*
X17419774Y-19351898D01*
X17497795Y-19540256D01*
X17611063Y-19709774D01*
X17755226Y-19853937D01*
X17924744Y-19967205D01*
X18113102Y-20045226D01*
X18313061Y-20085000D01*
X18375198Y-20085000D01*
X18486200Y-20196002D01*
X18509999Y-20225001D01*
X18538997Y-20248799D01*
X18625724Y-20319974D01*
X18757753Y-20390546D01*
X18901014Y-20434003D01*
X19050000Y-20448677D01*
X19087333Y-20445000D01*
X22590987Y-20445000D01*
X22577795Y-20464744D01*
X22499774Y-20653102D01*
X22460000Y-20853061D01*
X22460000Y-21056939D01*
X22499774Y-21256898D01*
X22577795Y-21445256D01*
X22691063Y-21614774D01*
X22735000Y-21658711D01*
X22735001Y-26721956D01*
X22580241Y-26825363D01*
X22380363Y-27025241D01*
X22225000Y-27257759D01*
X22069637Y-27025241D01*
X21869759Y-26825363D01*
X21715000Y-26721957D01*
X21715000Y-23563711D01*
X21758937Y-23519774D01*
X21872205Y-23350256D01*
X21950226Y-23161898D01*
X21990000Y-22961939D01*
X21990000Y-22758061D01*
X21950226Y-22558102D01*
X21872205Y-22369744D01*
X21758937Y-22200226D01*
X21614774Y-22056063D01*
X21445256Y-21942795D01*
X21256898Y-21864774D01*
X21056939Y-21825000D01*
X20853061Y-21825000D01*
X20653102Y-21864774D01*
X20464744Y-21942795D01*
X20295226Y-22056063D01*
X20151063Y-22200226D01*
X20037795Y-22369744D01*
X19959774Y-22558102D01*
X19920000Y-22758061D01*
X19920000Y-22961939D01*
X19959774Y-23161898D01*
X20037795Y-23350256D01*
X20151063Y-23519774D01*
X20195000Y-23563711D01*
X20195001Y-26721956D01*
X20040241Y-26825363D01*
X19840363Y-27025241D01*
X19685000Y-27257759D01*
X19529637Y-27025241D01*
X19329759Y-26825363D01*
X19175000Y-26721957D01*
X19175000Y-23563711D01*
X19218937Y-23519774D01*
X19332205Y-23350256D01*
X19410226Y-23161898D01*
X19450000Y-22961939D01*
X19450000Y-22758061D01*
X19410226Y-22558102D01*
X19332205Y-22369744D01*
X19218937Y-22200226D01*
X19074774Y-22056063D01*
X18905256Y-21942795D01*
X18716898Y-21864774D01*
X18516939Y-21825000D01*
X18313061Y-21825000D01*
X18113102Y-21864774D01*
X17924744Y-21942795D01*
X17755226Y-22056063D01*
X17611063Y-22200226D01*
X17497795Y-22369744D01*
X17419774Y-22558102D01*
X17380000Y-22758061D01*
X17380000Y-22961939D01*
X17419774Y-23161898D01*
X17497795Y-23350256D01*
X17611063Y-23519774D01*
X17655000Y-23563711D01*
X17655001Y-26721956D01*
X17500241Y-26825363D01*
X17300363Y-27025241D01*
X17145000Y-27257759D01*
X16989637Y-27025241D01*
X16789759Y-26825363D01*
X16554727Y-26668320D01*
X16293574Y-26560147D01*
X16016335Y-26505000D01*
X15733665Y-26505000D01*
X15456426Y-26560147D01*
X15195273Y-26668320D01*
X14960241Y-26825363D01*
X14760363Y-27025241D01*
X14605000Y-27257759D01*
X14449637Y-27025241D01*
X14249759Y-26825363D01*
X14014727Y-26668320D01*
X13753574Y-26560147D01*
X13476335Y-26505000D01*
X13193665Y-26505000D01*
X12916426Y-26560147D01*
X12655273Y-26668320D01*
X12420241Y-26825363D01*
X12220363Y-27025241D01*
X12065000Y-27257759D01*
X11909637Y-27025241D01*
X11709759Y-26825363D01*
X11474727Y-26668320D01*
X11213574Y-26560147D01*
X10936335Y-26505000D01*
X10653665Y-26505000D01*
X10376426Y-26560147D01*
X10115273Y-26668320D01*
X9880241Y-26825363D01*
X9680363Y-27025241D01*
X9525000Y-27257759D01*
X9369637Y-27025241D01*
X9169759Y-26825363D01*
X8934727Y-26668320D01*
X8673574Y-26560147D01*
X8396335Y-26505000D01*
X8113665Y-26505000D01*
X7836426Y-26560147D01*
X7575273Y-26668320D01*
X7340241Y-26825363D01*
X7140363Y-27025241D01*
X6985000Y-27257759D01*
X6829637Y-27025241D01*
X6629759Y-26825363D01*
X6394727Y-26668320D01*
X6133574Y-26560147D01*
X5856335Y-26505000D01*
X5573665Y-26505000D01*
X5296426Y-26560147D01*
X5035273Y-26668320D01*
X4800241Y-26825363D01*
X4600363Y-27025241D01*
X4443320Y-27260273D01*
X4335147Y-27521426D01*
X4280000Y-27798665D01*
X545000Y-27798665D01*
X545000Y-6102467D01*
X561511Y-6127177D01*
X1067823Y-6633489D01*
X1663182Y-7031295D01*
X2324710Y-7305309D01*
X3026984Y-7445000D01*
X3743016Y-7445000D01*
X4445290Y-7305309D01*
X5106818Y-7031295D01*
X5702177Y-6633489D01*
X6208489Y-6127177D01*
X6606295Y-5531818D01*
X6816928Y-5023305D01*
X6816928Y-5480000D01*
X6836874Y-5682518D01*
X6895947Y-5877253D01*
X6991875Y-6056722D01*
X7120972Y-6214028D01*
X7278278Y-6343125D01*
X7457747Y-6439053D01*
X7652482Y-6498126D01*
X7855000Y-6518072D01*
X8655000Y-6518072D01*
X8857518Y-6498126D01*
X9052253Y-6439053D01*
X9231722Y-6343125D01*
X9389028Y-6214028D01*
X9518125Y-6056722D01*
X9608629Y-5887401D01*
X9680363Y-5994759D01*
X9880241Y-6194637D01*
X10115273Y-6351680D01*
X10376426Y-6459853D01*
X10653665Y-6515000D01*
X10936335Y-6515000D01*
X11213574Y-6459853D01*
X11474727Y-6351680D01*
X11709759Y-6194637D01*
X11909637Y-5994759D01*
X12065000Y-5762241D01*
X12220363Y-5994759D01*
X12420241Y-6194637D01*
X12655273Y-6351680D01*
X12916426Y-6459853D01*
X13193665Y-6515000D01*
X13476335Y-6515000D01*
X13753574Y-6459853D01*
X14014727Y-6351680D01*
X14249759Y-6194637D01*
X14449637Y-5994759D01*
X14605000Y-5762241D01*
X14760363Y-5994759D01*
X14960241Y-6194637D01*
X15195273Y-6351680D01*
X15456426Y-6459853D01*
X15733665Y-6515000D01*
X16016335Y-6515000D01*
X16293574Y-6459853D01*
X16554727Y-6351680D01*
X16789759Y-6194637D01*
X16911694Y-6072702D01*
X17601903Y-6072702D01*
X17673486Y-6316671D01*
X17928996Y-6437571D01*
X18203184Y-6506300D01*
X18485512Y-6520217D01*
X18765130Y-6478787D01*
X19031292Y-6383603D01*
X19156514Y-6316671D01*
X19228097Y-6072702D01*
X18415000Y-5259605D01*
X17601903Y-6072702D01*
X16911694Y-6072702D01*
X16989637Y-5994759D01*
X17145915Y-5760872D01*
X17178329Y-5821514D01*
X17422298Y-5893097D01*
X18235395Y-5080000D01*
X17422298Y-4266903D01*
X17178329Y-4338486D01*
X17147806Y-4402992D01*
X17146680Y-4400273D01*
X16989637Y-4165241D01*
X16789759Y-3965363D01*
X16557241Y-3810000D01*
X16789759Y-3654637D01*
X16989637Y-3454759D01*
X17145000Y-3222241D01*
X17300363Y-3454759D01*
X17500241Y-3654637D01*
X17734128Y-3810915D01*
X17673486Y-3843329D01*
X17601903Y-4087298D01*
X18415000Y-4900395D01*
X19228097Y-4087298D01*
X19156514Y-3843329D01*
X19092008Y-3812806D01*
X19094727Y-3811680D01*
X19329759Y-3654637D01*
X19529637Y-3454759D01*
X19685000Y-3222241D01*
X19840363Y-3454759D01*
X20040241Y-3654637D01*
X20272759Y-3810000D01*
X20040241Y-3965363D01*
X19840363Y-4165241D01*
X19684085Y-4399128D01*
X19651671Y-4338486D01*
X19407702Y-4266903D01*
X18594605Y-5080000D01*
X19407702Y-5893097D01*
X19651671Y-5821514D01*
X19682194Y-5757008D01*
X19683320Y-5759727D01*
X19840363Y-5994759D01*
X20040241Y-6194637D01*
X20275273Y-6351680D01*
X20536426Y-6459853D01*
X20813665Y-6515000D01*
X21096335Y-6515000D01*
X21373574Y-6459853D01*
X21634727Y-6351680D01*
X21869759Y-6194637D01*
X22069637Y-5994759D01*
X22225000Y-5762241D01*
X22380363Y-5994759D01*
X22580241Y-6194637D01*
X22815273Y-6351680D01*
X23076426Y-6459853D01*
X23353665Y-6515000D01*
X23636335Y-6515000D01*
X23913574Y-6459853D01*
X24174727Y-6351680D01*
X24409759Y-6194637D01*
X24609637Y-5994759D01*
X24765000Y-5762241D01*
X24920363Y-5994759D01*
X25120241Y-6194637D01*
X25355273Y-6351680D01*
X25616426Y-6459853D01*
X25893665Y-6515000D01*
X26176335Y-6515000D01*
X26453574Y-6459853D01*
X26714727Y-6351680D01*
X26949759Y-6194637D01*
X27149637Y-5994759D01*
X27305000Y-5762241D01*
X27460363Y-5994759D01*
X27660241Y-6194637D01*
X27895273Y-6351680D01*
X28156426Y-6459853D01*
X28433665Y-6515000D01*
X28716335Y-6515000D01*
X28993574Y-6459853D01*
X29254727Y-6351680D01*
X29489759Y-6194637D01*
X29689637Y-5994759D01*
X29845000Y-5762241D01*
X30000363Y-5994759D01*
X30200241Y-6194637D01*
X30435273Y-6351680D01*
X30696426Y-6459853D01*
X30973665Y-6515000D01*
X31256335Y-6515000D01*
X31533574Y-6459853D01*
X31794727Y-6351680D01*
X32029759Y-6194637D01*
X32229637Y-5994759D01*
X32385000Y-5762241D01*
X32540363Y-5994759D01*
X32740241Y-6194637D01*
X32975273Y-6351680D01*
X33236426Y-6459853D01*
X33513665Y-6515000D01*
X33796335Y-6515000D01*
X34073574Y-6459853D01*
X34334727Y-6351680D01*
X34569759Y-6194637D01*
X34769637Y-5994759D01*
X34925000Y-5762241D01*
X35080363Y-5994759D01*
X35280241Y-6194637D01*
X35515273Y-6351680D01*
X35776426Y-6459853D01*
X36053665Y-6515000D01*
X36336335Y-6515000D01*
X36613574Y-6459853D01*
X36874727Y-6351680D01*
X37109759Y-6194637D01*
X37231694Y-6072702D01*
X37921903Y-6072702D01*
X37993486Y-6316671D01*
X38248996Y-6437571D01*
X38523184Y-6506300D01*
X38805512Y-6520217D01*
X39085130Y-6478787D01*
X39351292Y-6383603D01*
X39476514Y-6316671D01*
X39548097Y-6072702D01*
X38735000Y-5259605D01*
X37921903Y-6072702D01*
X37231694Y-6072702D01*
X37309637Y-5994759D01*
X37465915Y-5760872D01*
X37498329Y-5821514D01*
X37742298Y-5893097D01*
X38555395Y-5080000D01*
X37742298Y-4266903D01*
X37498329Y-4338486D01*
X37467806Y-4402992D01*
X37466680Y-4400273D01*
X37309637Y-4165241D01*
X37109759Y-3965363D01*
X36877241Y-3810000D01*
X37109759Y-3654637D01*
X37309637Y-3454759D01*
X37465000Y-3222241D01*
X37620363Y-3454759D01*
X37820241Y-3654637D01*
X38054128Y-3810915D01*
X37993486Y-3843329D01*
X37921903Y-4087298D01*
X38735000Y-4900395D01*
X39548097Y-4087298D01*
X39476514Y-3843329D01*
X39412008Y-3812806D01*
X39414727Y-3811680D01*
X39649759Y-3654637D01*
X39849637Y-3454759D01*
X40005000Y-3222241D01*
X40160363Y-3454759D01*
X40360241Y-3654637D01*
X40592759Y-3810000D01*
X40360241Y-3965363D01*
X40160363Y-4165241D01*
X40004085Y-4399128D01*
X39971671Y-4338486D01*
X39727702Y-4266903D01*
X38914605Y-5080000D01*
X39727702Y-5893097D01*
X39971671Y-5821514D01*
X40002194Y-5757008D01*
X40003320Y-5759727D01*
X40160363Y-5994759D01*
X40360241Y-6194637D01*
X40595273Y-6351680D01*
X40856426Y-6459853D01*
X41133665Y-6515000D01*
X41416335Y-6515000D01*
X41693574Y-6459853D01*
X41954727Y-6351680D01*
X42189759Y-6194637D01*
X42389637Y-5994759D01*
X42545000Y-5762241D01*
X42700363Y-5994759D01*
X42900241Y-6194637D01*
X43135273Y-6351680D01*
X43396426Y-6459853D01*
X43673665Y-6515000D01*
X43956335Y-6515000D01*
X44233574Y-6459853D01*
X44494727Y-6351680D01*
X44729759Y-6194637D01*
X44929637Y-5994759D01*
X45085000Y-5762241D01*
X45240363Y-5994759D01*
X45440241Y-6194637D01*
X45675273Y-6351680D01*
X45936426Y-6459853D01*
X46213665Y-6515000D01*
X46496335Y-6515000D01*
X46773574Y-6459853D01*
X47034727Y-6351680D01*
X47269759Y-6194637D01*
X47469637Y-5994759D01*
X47625000Y-5762241D01*
X47780363Y-5994759D01*
X47980241Y-6194637D01*
X48215273Y-6351680D01*
X48476426Y-6459853D01*
X48753665Y-6515000D01*
X49036335Y-6515000D01*
X49313574Y-6459853D01*
X49574727Y-6351680D01*
X49809759Y-6194637D01*
X50009637Y-5994759D01*
X50165000Y-5762241D01*
X50320363Y-5994759D01*
X50520241Y-6194637D01*
X50755273Y-6351680D01*
X51016426Y-6459853D01*
X51293665Y-6515000D01*
X51576335Y-6515000D01*
X51853574Y-6459853D01*
X52114727Y-6351680D01*
X52349759Y-6194637D01*
X52549637Y-5994759D01*
X52705000Y-5762241D01*
X52860363Y-5994759D01*
X53060241Y-6194637D01*
X53295273Y-6351680D01*
X53556426Y-6459853D01*
X53833665Y-6515000D01*
X54116335Y-6515000D01*
X54393574Y-6459853D01*
X54654727Y-6351680D01*
X54889759Y-6194637D01*
X55011694Y-6072702D01*
X55701903Y-6072702D01*
X55773486Y-6316671D01*
X56028996Y-6437571D01*
X56303184Y-6506300D01*
X56585512Y-6520217D01*
X56865130Y-6478787D01*
X57131292Y-6383603D01*
X57256514Y-6316671D01*
X57328097Y-6072702D01*
X56515000Y-5259605D01*
X55701903Y-6072702D01*
X55011694Y-6072702D01*
X55089637Y-5994759D01*
X55245915Y-5760872D01*
X55278329Y-5821514D01*
X55522298Y-5893097D01*
X56335395Y-5080000D01*
X55522298Y-4266903D01*
X55278329Y-4338486D01*
X55247806Y-4402992D01*
X55246680Y-4400273D01*
X55089637Y-4165241D01*
X54889759Y-3965363D01*
X54657241Y-3810000D01*
X54889759Y-3654637D01*
X55089637Y-3454759D01*
X55245000Y-3222241D01*
X55400363Y-3454759D01*
X55600241Y-3654637D01*
X55834128Y-3810915D01*
X55773486Y-3843329D01*
X55701903Y-4087298D01*
X56515000Y-4900395D01*
X57328097Y-4087298D01*
X57256514Y-3843329D01*
X57192008Y-3812806D01*
X57194727Y-3811680D01*
X57429759Y-3654637D01*
X57629637Y-3454759D01*
X57786680Y-3219727D01*
X57804993Y-3175515D01*
X57750000Y-3451984D01*
X57750000Y-4168016D01*
X57803016Y-4434547D01*
X57751671Y-4338486D01*
X57507702Y-4266903D01*
X56694605Y-5080000D01*
X57507702Y-5893097D01*
X57751671Y-5821514D01*
X57872571Y-5566004D01*
X57941300Y-5291816D01*
X57954380Y-5026464D01*
X58163705Y-5531818D01*
X58561511Y-6127177D01*
X59067823Y-6633489D01*
X59663182Y-7031295D01*
X60324710Y-7305309D01*
X61026984Y-7445000D01*
X61743016Y-7445000D01*
X62445290Y-7305309D01*
X63106818Y-7031295D01*
X63702177Y-6633489D01*
X64208489Y-6127177D01*
X64606295Y-5531818D01*
X64880309Y-4870290D01*
X65020000Y-4168016D01*
X65020000Y-3451984D01*
X64880309Y-2749710D01*
X64606295Y-2088182D01*
X64208489Y-1492823D01*
X63702177Y-986511D01*
X63677467Y-970000D01*
X81852721Y-970000D01*
X82338893Y-1017670D01*
G37*
%TD.AperFunction*%
D15*
X59067823Y-986511D02*
X58561511Y-1492823D01*
X58163705Y-2088182D01*
X57950000Y-2604111D01*
X57950000Y-2398665D01*
X57894853Y-2121426D01*
X57786680Y-1860273D01*
X57629637Y-1625241D01*
X57429759Y-1425363D01*
X57194727Y-1268320D01*
X56933574Y-1160147D01*
X56656335Y-1105000D01*
X56373665Y-1105000D01*
X56096426Y-1160147D01*
X55835273Y-1268320D01*
X55600241Y-1425363D01*
X55400363Y-1625241D01*
X55245000Y-1857759D01*
X55089637Y-1625241D01*
X54889759Y-1425363D01*
X54654727Y-1268320D01*
X54393574Y-1160147D01*
X54116335Y-1105000D01*
X53833665Y-1105000D01*
X53556426Y-1160147D01*
X53295273Y-1268320D01*
X53060241Y-1425363D01*
X52860363Y-1625241D01*
X52705000Y-1857759D01*
X52549637Y-1625241D01*
X52349759Y-1425363D01*
X52114727Y-1268320D01*
X51853574Y-1160147D01*
X51576335Y-1105000D01*
X51293665Y-1105000D01*
X51016426Y-1160147D01*
X50755273Y-1268320D01*
X50520241Y-1425363D01*
X50320363Y-1625241D01*
X50164085Y-1859128D01*
X50131671Y-1798486D01*
X49887702Y-1726903D01*
X49074605Y-2540000D01*
X49887702Y-3353097D01*
X50131671Y-3281514D01*
X50162194Y-3217008D01*
X50163320Y-3219727D01*
X50320363Y-3454759D01*
X50520241Y-3654637D01*
X50752759Y-3810000D01*
X50520241Y-3965363D01*
X50320363Y-4165241D01*
X50165000Y-4397759D01*
X50009637Y-4165241D01*
X49809759Y-3965363D01*
X49575872Y-3809085D01*
X49636514Y-3776671D01*
X49708097Y-3532702D01*
X48895000Y-2719605D01*
X48081903Y-3532702D01*
X48153486Y-3776671D01*
X48217992Y-3807194D01*
X48215273Y-3808320D01*
X47980241Y-3965363D01*
X47780363Y-4165241D01*
X47625000Y-4397759D01*
X47469637Y-4165241D01*
X47269759Y-3965363D01*
X47037241Y-3810000D01*
X47269759Y-3654637D01*
X47469637Y-3454759D01*
X47625915Y-3220872D01*
X47658329Y-3281514D01*
X47902298Y-3353097D01*
X48715395Y-2540000D01*
X47902298Y-1726903D01*
X47658329Y-1798486D01*
X47627806Y-1862992D01*
X47626680Y-1860273D01*
X47469637Y-1625241D01*
X47391694Y-1547298D01*
X48081903Y-1547298D01*
X48895000Y-2360395D01*
X49708097Y-1547298D01*
X49636514Y-1303329D01*
X49381004Y-1182429D01*
X49106816Y-1113700D01*
X48824488Y-1099783D01*
X48544870Y-1141213D01*
X48278708Y-1236397D01*
X48153486Y-1303329D01*
X48081903Y-1547298D01*
X47391694Y-1547298D01*
X47269759Y-1425363D01*
X47034727Y-1268320D01*
X46773574Y-1160147D01*
X46496335Y-1105000D01*
X46213665Y-1105000D01*
X45936426Y-1160147D01*
X45675273Y-1268320D01*
X45440241Y-1425363D01*
X45240363Y-1625241D01*
X45084085Y-1859128D01*
X45051671Y-1798486D01*
X44807702Y-1726903D01*
X43994605Y-2540000D01*
X44807702Y-3353097D01*
X45051671Y-3281514D01*
X45082194Y-3217008D01*
X45083320Y-3219727D01*
X45240363Y-3454759D01*
X45440241Y-3654637D01*
X45672759Y-3810000D01*
X45440241Y-3965363D01*
X45240363Y-4165241D01*
X45085000Y-4397759D01*
X44929637Y-4165241D01*
X44729759Y-3965363D01*
X44495872Y-3809085D01*
X44556514Y-3776671D01*
X44628097Y-3532702D01*
X43815000Y-2719605D01*
X43001903Y-3532702D01*
X43073486Y-3776671D01*
X43137992Y-3807194D01*
X43135273Y-3808320D01*
X42900241Y-3965363D01*
X42700363Y-4165241D01*
X42545000Y-4397759D01*
X42389637Y-4165241D01*
X42189759Y-3965363D01*
X41957241Y-3810000D01*
X42189759Y-3654637D01*
X42389637Y-3454759D01*
X42545915Y-3220872D01*
X42578329Y-3281514D01*
X42822298Y-3353097D01*
X43635395Y-2540000D01*
X42822298Y-1726903D01*
X42578329Y-1798486D01*
X42547806Y-1862992D01*
X42546680Y-1860273D01*
X42389637Y-1625241D01*
X42311694Y-1547298D01*
X43001903Y-1547298D01*
X43815000Y-2360395D01*
X44628097Y-1547298D01*
X44556514Y-1303329D01*
X44301004Y-1182429D01*
X44026816Y-1113700D01*
X43744488Y-1099783D01*
X43464870Y-1141213D01*
X43198708Y-1236397D01*
X43073486Y-1303329D01*
X43001903Y-1547298D01*
X42311694Y-1547298D01*
X42189759Y-1425363D01*
X41954727Y-1268320D01*
X41693574Y-1160147D01*
X41416335Y-1105000D01*
X41133665Y-1105000D01*
X40856426Y-1160147D01*
X40595273Y-1268320D01*
X40360241Y-1425363D01*
X40160363Y-1625241D01*
X40005000Y-1857759D01*
X39849637Y-1625241D01*
X39649759Y-1425363D01*
X39414727Y-1268320D01*
X39153574Y-1160147D01*
X38876335Y-1105000D01*
X38593665Y-1105000D01*
X38316426Y-1160147D01*
X38055273Y-1268320D01*
X37820241Y-1425363D01*
X37620363Y-1625241D01*
X37465000Y-1857759D01*
X37309637Y-1625241D01*
X37109759Y-1425363D01*
X36874727Y-1268320D01*
X36613574Y-1160147D01*
X36336335Y-1105000D01*
X36053665Y-1105000D01*
X35776426Y-1160147D01*
X35515273Y-1268320D01*
X35280241Y-1425363D01*
X35080363Y-1625241D01*
X34925000Y-1857759D01*
X34769637Y-1625241D01*
X34569759Y-1425363D01*
X34334727Y-1268320D01*
X34073574Y-1160147D01*
X33796335Y-1105000D01*
X33513665Y-1105000D01*
X33236426Y-1160147D01*
X32975273Y-1268320D01*
X32740241Y-1425363D01*
X32540363Y-1625241D01*
X32384085Y-1859128D01*
X32351671Y-1798486D01*
X32107702Y-1726903D01*
X31294605Y-2540000D01*
X32107702Y-3353097D01*
X32351671Y-3281514D01*
X32382194Y-3217008D01*
X32383320Y-3219727D01*
X32540363Y-3454759D01*
X32740241Y-3654637D01*
X32972759Y-3810000D01*
X32740241Y-3965363D01*
X32540363Y-4165241D01*
X32385000Y-4397759D01*
X32229637Y-4165241D01*
X32029759Y-3965363D01*
X31795872Y-3809085D01*
X31856514Y-3776671D01*
X31928097Y-3532702D01*
X31115000Y-2719605D01*
X30301903Y-3532702D01*
X30373486Y-3776671D01*
X30437992Y-3807194D01*
X30435273Y-3808320D01*
X30200241Y-3965363D01*
X30000363Y-4165241D01*
X29845000Y-4397759D01*
X29689637Y-4165241D01*
X29489759Y-3965363D01*
X29257241Y-3810000D01*
X29489759Y-3654637D01*
X29689637Y-3454759D01*
X29845915Y-3220872D01*
X29878329Y-3281514D01*
X30122298Y-3353097D01*
X30935395Y-2540000D01*
X30122298Y-1726903D01*
X29878329Y-1798486D01*
X29847806Y-1862992D01*
X29846680Y-1860273D01*
X29689637Y-1625241D01*
X29611694Y-1547298D01*
X30301903Y-1547298D01*
X31115000Y-2360395D01*
X31928097Y-1547298D01*
X31856514Y-1303329D01*
X31601004Y-1182429D01*
X31326816Y-1113700D01*
X31044488Y-1099783D01*
X30764870Y-1141213D01*
X30498708Y-1236397D01*
X30373486Y-1303329D01*
X30301903Y-1547298D01*
X29611694Y-1547298D01*
X29489759Y-1425363D01*
X29254727Y-1268320D01*
X28993574Y-1160147D01*
X28716335Y-1105000D01*
X28433665Y-1105000D01*
X28156426Y-1160147D01*
X27895273Y-1268320D01*
X27660241Y-1425363D01*
X27460363Y-1625241D01*
X27305000Y-1857759D01*
X27149637Y-1625241D01*
X26949759Y-1425363D01*
X26714727Y-1268320D01*
X26453574Y-1160147D01*
X26176335Y-1105000D01*
X25893665Y-1105000D01*
X25616426Y-1160147D01*
X25355273Y-1268320D01*
X25120241Y-1425363D01*
X24920363Y-1625241D01*
X24764085Y-1859128D01*
X24731671Y-1798486D01*
X24487702Y-1726903D01*
X23674605Y-2540000D01*
X24487702Y-3353097D01*
X24731671Y-3281514D01*
X24762194Y-3217008D01*
X24763320Y-3219727D01*
X24920363Y-3454759D01*
X25120241Y-3654637D01*
X25352759Y-3810000D01*
X25120241Y-3965363D01*
X24920363Y-4165241D01*
X24765000Y-4397759D01*
X24609637Y-4165241D01*
X24409759Y-3965363D01*
X24175872Y-3809085D01*
X24236514Y-3776671D01*
X24308097Y-3532702D01*
X23495000Y-2719605D01*
X22681903Y-3532702D01*
X22753486Y-3776671D01*
X22817992Y-3807194D01*
X22815273Y-3808320D01*
X22580241Y-3965363D01*
X22380363Y-4165241D01*
X22225000Y-4397759D01*
X22069637Y-4165241D01*
X21869759Y-3965363D01*
X21637241Y-3810000D01*
X21869759Y-3654637D01*
X22069637Y-3454759D01*
X22225915Y-3220872D01*
X22258329Y-3281514D01*
X22502298Y-3353097D01*
X23315395Y-2540000D01*
X22502298Y-1726903D01*
X22258329Y-1798486D01*
X22227806Y-1862992D01*
X22226680Y-1860273D01*
X22069637Y-1625241D01*
X21991694Y-1547298D01*
X22681903Y-1547298D01*
X23495000Y-2360395D01*
X24308097Y-1547298D01*
X24236514Y-1303329D01*
X23981004Y-1182429D01*
X23706816Y-1113700D01*
X23424488Y-1099783D01*
X23144870Y-1141213D01*
X22878708Y-1236397D01*
X22753486Y-1303329D01*
X22681903Y-1547298D01*
X21991694Y-1547298D01*
X21869759Y-1425363D01*
X21634727Y-1268320D01*
X21373574Y-1160147D01*
X21096335Y-1105000D01*
X20813665Y-1105000D01*
X20536426Y-1160147D01*
X20275273Y-1268320D01*
X20040241Y-1425363D01*
X19840363Y-1625241D01*
X19685000Y-1857759D01*
X19529637Y-1625241D01*
X19329759Y-1425363D01*
X19094727Y-1268320D01*
X18833574Y-1160147D01*
X18556335Y-1105000D01*
X18273665Y-1105000D01*
X17996426Y-1160147D01*
X17735273Y-1268320D01*
X17500241Y-1425363D01*
X17300363Y-1625241D01*
X17145000Y-1857759D01*
X16989637Y-1625241D01*
X16789759Y-1425363D01*
X16554727Y-1268320D01*
X16293574Y-1160147D01*
X16016335Y-1105000D01*
X15733665Y-1105000D01*
X15456426Y-1160147D01*
X15195273Y-1268320D01*
X14960241Y-1425363D01*
X14760363Y-1625241D01*
X14604085Y-1859128D01*
X14571671Y-1798486D01*
X14327702Y-1726903D01*
X13514605Y-2540000D01*
X14327702Y-3353097D01*
X14571671Y-3281514D01*
X14602194Y-3217008D01*
X14603320Y-3219727D01*
X14760363Y-3454759D01*
X14960241Y-3654637D01*
X15192759Y-3810000D01*
X14960241Y-3965363D01*
X14760363Y-4165241D01*
X14605000Y-4397759D01*
X14449637Y-4165241D01*
X14249759Y-3965363D01*
X14015872Y-3809085D01*
X14076514Y-3776671D01*
X14148097Y-3532702D01*
X13335000Y-2719605D01*
X12521903Y-3532702D01*
X12593486Y-3776671D01*
X12657992Y-3807194D01*
X12655273Y-3808320D01*
X12420241Y-3965363D01*
X12220363Y-4165241D01*
X12065000Y-4397759D01*
X11909637Y-4165241D01*
X11709759Y-3965363D01*
X11477241Y-3810000D01*
X11709759Y-3654637D01*
X11909637Y-3454759D01*
X12065915Y-3220872D01*
X12098329Y-3281514D01*
X12342298Y-3353097D01*
X13155395Y-2540000D01*
X12342298Y-1726903D01*
X12098329Y-1798486D01*
X12067806Y-1862992D01*
X12066680Y-1860273D01*
X11909637Y-1625241D01*
X11831694Y-1547298D01*
X12521903Y-1547298D01*
X13335000Y-2360395D01*
X14148097Y-1547298D01*
X14076514Y-1303329D01*
X13821004Y-1182429D01*
X13546816Y-1113700D01*
X13264488Y-1099783D01*
X12984870Y-1141213D01*
X12718708Y-1236397D01*
X12593486Y-1303329D01*
X12521903Y-1547298D01*
X11831694Y-1547298D01*
X11709759Y-1425363D01*
X11474727Y-1268320D01*
X11213574Y-1160147D01*
X10936335Y-1105000D01*
X10653665Y-1105000D01*
X10376426Y-1160147D01*
X10115273Y-1268320D01*
X9880241Y-1425363D01*
X9680363Y-1625241D01*
X9525000Y-1857759D01*
X9369637Y-1625241D01*
X9169759Y-1425363D01*
X8934727Y-1268320D01*
X8673574Y-1160147D01*
X8396335Y-1105000D01*
X8113665Y-1105000D01*
X7836426Y-1160147D01*
X7575273Y-1268320D01*
X7340241Y-1425363D01*
X7140363Y-1625241D01*
X6983320Y-1860273D01*
X6875147Y-2121426D01*
X6820000Y-2398665D01*
X6820000Y-2604111D01*
X6606295Y-2088182D01*
X6208489Y-1492823D01*
X5702177Y-986511D01*
X5677467Y-970000D01*
X59092533Y-970000D01*
X59067823Y-986511D01*
%TA.AperFunction,Conductor*%
D16*
G36*
X59067823Y-986511D02*
G01*
X58561511Y-1492823D01*
X58163705Y-2088182D01*
X57950000Y-2604111D01*
X57950000Y-2398665D01*
X57894853Y-2121426D01*
X57786680Y-1860273D01*
X57629637Y-1625241D01*
X57429759Y-1425363D01*
X57194727Y-1268320D01*
X56933574Y-1160147D01*
X56656335Y-1105000D01*
X56373665Y-1105000D01*
X56096426Y-1160147D01*
X55835273Y-1268320D01*
X55600241Y-1425363D01*
X55400363Y-1625241D01*
X55245000Y-1857759D01*
X55089637Y-1625241D01*
X54889759Y-1425363D01*
X54654727Y-1268320D01*
X54393574Y-1160147D01*
X54116335Y-1105000D01*
X53833665Y-1105000D01*
X53556426Y-1160147D01*
X53295273Y-1268320D01*
X53060241Y-1425363D01*
X52860363Y-1625241D01*
X52705000Y-1857759D01*
X52549637Y-1625241D01*
X52349759Y-1425363D01*
X52114727Y-1268320D01*
X51853574Y-1160147D01*
X51576335Y-1105000D01*
X51293665Y-1105000D01*
X51016426Y-1160147D01*
X50755273Y-1268320D01*
X50520241Y-1425363D01*
X50320363Y-1625241D01*
X50164085Y-1859128D01*
X50131671Y-1798486D01*
X49887702Y-1726903D01*
X49074605Y-2540000D01*
X49887702Y-3353097D01*
X50131671Y-3281514D01*
X50162194Y-3217008D01*
X50163320Y-3219727D01*
X50320363Y-3454759D01*
X50520241Y-3654637D01*
X50752759Y-3810000D01*
X50520241Y-3965363D01*
X50320363Y-4165241D01*
X50165000Y-4397759D01*
X50009637Y-4165241D01*
X49809759Y-3965363D01*
X49575872Y-3809085D01*
X49636514Y-3776671D01*
X49708097Y-3532702D01*
X48895000Y-2719605D01*
X48081903Y-3532702D01*
X48153486Y-3776671D01*
X48217992Y-3807194D01*
X48215273Y-3808320D01*
X47980241Y-3965363D01*
X47780363Y-4165241D01*
X47625000Y-4397759D01*
X47469637Y-4165241D01*
X47269759Y-3965363D01*
X47037241Y-3810000D01*
X47269759Y-3654637D01*
X47469637Y-3454759D01*
X47625915Y-3220872D01*
X47658329Y-3281514D01*
X47902298Y-3353097D01*
X48715395Y-2540000D01*
X47902298Y-1726903D01*
X47658329Y-1798486D01*
X47627806Y-1862992D01*
X47626680Y-1860273D01*
X47469637Y-1625241D01*
X47391694Y-1547298D01*
X48081903Y-1547298D01*
X48895000Y-2360395D01*
X49708097Y-1547298D01*
X49636514Y-1303329D01*
X49381004Y-1182429D01*
X49106816Y-1113700D01*
X48824488Y-1099783D01*
X48544870Y-1141213D01*
X48278708Y-1236397D01*
X48153486Y-1303329D01*
X48081903Y-1547298D01*
X47391694Y-1547298D01*
X47269759Y-1425363D01*
X47034727Y-1268320D01*
X46773574Y-1160147D01*
X46496335Y-1105000D01*
X46213665Y-1105000D01*
X45936426Y-1160147D01*
X45675273Y-1268320D01*
X45440241Y-1425363D01*
X45240363Y-1625241D01*
X45084085Y-1859128D01*
X45051671Y-1798486D01*
X44807702Y-1726903D01*
X43994605Y-2540000D01*
X44807702Y-3353097D01*
X45051671Y-3281514D01*
X45082194Y-3217008D01*
X45083320Y-3219727D01*
X45240363Y-3454759D01*
X45440241Y-3654637D01*
X45672759Y-3810000D01*
X45440241Y-3965363D01*
X45240363Y-4165241D01*
X45085000Y-4397759D01*
X44929637Y-4165241D01*
X44729759Y-3965363D01*
X44495872Y-3809085D01*
X44556514Y-3776671D01*
X44628097Y-3532702D01*
X43815000Y-2719605D01*
X43001903Y-3532702D01*
X43073486Y-3776671D01*
X43137992Y-3807194D01*
X43135273Y-3808320D01*
X42900241Y-3965363D01*
X42700363Y-4165241D01*
X42545000Y-4397759D01*
X42389637Y-4165241D01*
X42189759Y-3965363D01*
X41957241Y-3810000D01*
X42189759Y-3654637D01*
X42389637Y-3454759D01*
X42545915Y-3220872D01*
X42578329Y-3281514D01*
X42822298Y-3353097D01*
X43635395Y-2540000D01*
X42822298Y-1726903D01*
X42578329Y-1798486D01*
X42547806Y-1862992D01*
X42546680Y-1860273D01*
X42389637Y-1625241D01*
X42311694Y-1547298D01*
X43001903Y-1547298D01*
X43815000Y-2360395D01*
X44628097Y-1547298D01*
X44556514Y-1303329D01*
X44301004Y-1182429D01*
X44026816Y-1113700D01*
X43744488Y-1099783D01*
X43464870Y-1141213D01*
X43198708Y-1236397D01*
X43073486Y-1303329D01*
X43001903Y-1547298D01*
X42311694Y-1547298D01*
X42189759Y-1425363D01*
X41954727Y-1268320D01*
X41693574Y-1160147D01*
X41416335Y-1105000D01*
X41133665Y-1105000D01*
X40856426Y-1160147D01*
X40595273Y-1268320D01*
X40360241Y-1425363D01*
X40160363Y-1625241D01*
X40005000Y-1857759D01*
X39849637Y-1625241D01*
X39649759Y-1425363D01*
X39414727Y-1268320D01*
X39153574Y-1160147D01*
X38876335Y-1105000D01*
X38593665Y-1105000D01*
X38316426Y-1160147D01*
X38055273Y-1268320D01*
X37820241Y-1425363D01*
X37620363Y-1625241D01*
X37465000Y-1857759D01*
X37309637Y-1625241D01*
X37109759Y-1425363D01*
X36874727Y-1268320D01*
X36613574Y-1160147D01*
X36336335Y-1105000D01*
X36053665Y-1105000D01*
X35776426Y-1160147D01*
X35515273Y-1268320D01*
X35280241Y-1425363D01*
X35080363Y-1625241D01*
X34925000Y-1857759D01*
X34769637Y-1625241D01*
X34569759Y-1425363D01*
X34334727Y-1268320D01*
X34073574Y-1160147D01*
X33796335Y-1105000D01*
X33513665Y-1105000D01*
X33236426Y-1160147D01*
X32975273Y-1268320D01*
X32740241Y-1425363D01*
X32540363Y-1625241D01*
X32384085Y-1859128D01*
X32351671Y-1798486D01*
X32107702Y-1726903D01*
X31294605Y-2540000D01*
X32107702Y-3353097D01*
X32351671Y-3281514D01*
X32382194Y-3217008D01*
X32383320Y-3219727D01*
X32540363Y-3454759D01*
X32740241Y-3654637D01*
X32972759Y-3810000D01*
X32740241Y-3965363D01*
X32540363Y-4165241D01*
X32385000Y-4397759D01*
X32229637Y-4165241D01*
X32029759Y-3965363D01*
X31795872Y-3809085D01*
X31856514Y-3776671D01*
X31928097Y-3532702D01*
X31115000Y-2719605D01*
X30301903Y-3532702D01*
X30373486Y-3776671D01*
X30437992Y-3807194D01*
X30435273Y-3808320D01*
X30200241Y-3965363D01*
X30000363Y-4165241D01*
X29845000Y-4397759D01*
X29689637Y-4165241D01*
X29489759Y-3965363D01*
X29257241Y-3810000D01*
X29489759Y-3654637D01*
X29689637Y-3454759D01*
X29845915Y-3220872D01*
X29878329Y-3281514D01*
X30122298Y-3353097D01*
X30935395Y-2540000D01*
X30122298Y-1726903D01*
X29878329Y-1798486D01*
X29847806Y-1862992D01*
X29846680Y-1860273D01*
X29689637Y-1625241D01*
X29611694Y-1547298D01*
X30301903Y-1547298D01*
X31115000Y-2360395D01*
X31928097Y-1547298D01*
X31856514Y-1303329D01*
X31601004Y-1182429D01*
X31326816Y-1113700D01*
X31044488Y-1099783D01*
X30764870Y-1141213D01*
X30498708Y-1236397D01*
X30373486Y-1303329D01*
X30301903Y-1547298D01*
X29611694Y-1547298D01*
X29489759Y-1425363D01*
X29254727Y-1268320D01*
X28993574Y-1160147D01*
X28716335Y-1105000D01*
X28433665Y-1105000D01*
X28156426Y-1160147D01*
X27895273Y-1268320D01*
X27660241Y-1425363D01*
X27460363Y-1625241D01*
X27305000Y-1857759D01*
X27149637Y-1625241D01*
X26949759Y-1425363D01*
X26714727Y-1268320D01*
X26453574Y-1160147D01*
X26176335Y-1105000D01*
X25893665Y-1105000D01*
X25616426Y-1160147D01*
X25355273Y-1268320D01*
X25120241Y-1425363D01*
X24920363Y-1625241D01*
X24764085Y-1859128D01*
X24731671Y-1798486D01*
X24487702Y-1726903D01*
X23674605Y-2540000D01*
X24487702Y-3353097D01*
X24731671Y-3281514D01*
X24762194Y-3217008D01*
X24763320Y-3219727D01*
X24920363Y-3454759D01*
X25120241Y-3654637D01*
X25352759Y-3810000D01*
X25120241Y-3965363D01*
X24920363Y-4165241D01*
X24765000Y-4397759D01*
X24609637Y-4165241D01*
X24409759Y-3965363D01*
X24175872Y-3809085D01*
X24236514Y-3776671D01*
X24308097Y-3532702D01*
X23495000Y-2719605D01*
X22681903Y-3532702D01*
X22753486Y-3776671D01*
X22817992Y-3807194D01*
X22815273Y-3808320D01*
X22580241Y-3965363D01*
X22380363Y-4165241D01*
X22225000Y-4397759D01*
X22069637Y-4165241D01*
X21869759Y-3965363D01*
X21637241Y-3810000D01*
X21869759Y-3654637D01*
X22069637Y-3454759D01*
X22225915Y-3220872D01*
X22258329Y-3281514D01*
X22502298Y-3353097D01*
X23315395Y-2540000D01*
X22502298Y-1726903D01*
X22258329Y-1798486D01*
X22227806Y-1862992D01*
X22226680Y-1860273D01*
X22069637Y-1625241D01*
X21991694Y-1547298D01*
X22681903Y-1547298D01*
X23495000Y-2360395D01*
X24308097Y-1547298D01*
X24236514Y-1303329D01*
X23981004Y-1182429D01*
X23706816Y-1113700D01*
X23424488Y-1099783D01*
X23144870Y-1141213D01*
X22878708Y-1236397D01*
X22753486Y-1303329D01*
X22681903Y-1547298D01*
X21991694Y-1547298D01*
X21869759Y-1425363D01*
X21634727Y-1268320D01*
X21373574Y-1160147D01*
X21096335Y-1105000D01*
X20813665Y-1105000D01*
X20536426Y-1160147D01*
X20275273Y-1268320D01*
X20040241Y-1425363D01*
X19840363Y-1625241D01*
X19685000Y-1857759D01*
X19529637Y-1625241D01*
X19329759Y-1425363D01*
X19094727Y-1268320D01*
X18833574Y-1160147D01*
X18556335Y-1105000D01*
X18273665Y-1105000D01*
X17996426Y-1160147D01*
X17735273Y-1268320D01*
X17500241Y-1425363D01*
X17300363Y-1625241D01*
X17145000Y-1857759D01*
X16989637Y-1625241D01*
X16789759Y-1425363D01*
X16554727Y-1268320D01*
X16293574Y-1160147D01*
X16016335Y-1105000D01*
X15733665Y-1105000D01*
X15456426Y-1160147D01*
X15195273Y-1268320D01*
X14960241Y-1425363D01*
X14760363Y-1625241D01*
X14604085Y-1859128D01*
X14571671Y-1798486D01*
X14327702Y-1726903D01*
X13514605Y-2540000D01*
X14327702Y-3353097D01*
X14571671Y-3281514D01*
X14602194Y-3217008D01*
X14603320Y-3219727D01*
X14760363Y-3454759D01*
X14960241Y-3654637D01*
X15192759Y-3810000D01*
X14960241Y-3965363D01*
X14760363Y-4165241D01*
X14605000Y-4397759D01*
X14449637Y-4165241D01*
X14249759Y-3965363D01*
X14015872Y-3809085D01*
X14076514Y-3776671D01*
X14148097Y-3532702D01*
X13335000Y-2719605D01*
X12521903Y-3532702D01*
X12593486Y-3776671D01*
X12657992Y-3807194D01*
X12655273Y-3808320D01*
X12420241Y-3965363D01*
X12220363Y-4165241D01*
X12065000Y-4397759D01*
X11909637Y-4165241D01*
X11709759Y-3965363D01*
X11477241Y-3810000D01*
X11709759Y-3654637D01*
X11909637Y-3454759D01*
X12065915Y-3220872D01*
X12098329Y-3281514D01*
X12342298Y-3353097D01*
X13155395Y-2540000D01*
X12342298Y-1726903D01*
X12098329Y-1798486D01*
X12067806Y-1862992D01*
X12066680Y-1860273D01*
X11909637Y-1625241D01*
X11831694Y-1547298D01*
X12521903Y-1547298D01*
X13335000Y-2360395D01*
X14148097Y-1547298D01*
X14076514Y-1303329D01*
X13821004Y-1182429D01*
X13546816Y-1113700D01*
X13264488Y-1099783D01*
X12984870Y-1141213D01*
X12718708Y-1236397D01*
X12593486Y-1303329D01*
X12521903Y-1547298D01*
X11831694Y-1547298D01*
X11709759Y-1425363D01*
X11474727Y-1268320D01*
X11213574Y-1160147D01*
X10936335Y-1105000D01*
X10653665Y-1105000D01*
X10376426Y-1160147D01*
X10115273Y-1268320D01*
X9880241Y-1425363D01*
X9680363Y-1625241D01*
X9525000Y-1857759D01*
X9369637Y-1625241D01*
X9169759Y-1425363D01*
X8934727Y-1268320D01*
X8673574Y-1160147D01*
X8396335Y-1105000D01*
X8113665Y-1105000D01*
X7836426Y-1160147D01*
X7575273Y-1268320D01*
X7340241Y-1425363D01*
X7140363Y-1625241D01*
X6983320Y-1860273D01*
X6875147Y-2121426D01*
X6820000Y-2398665D01*
X6820000Y-2604111D01*
X6606295Y-2088182D01*
X6208489Y-1492823D01*
X5702177Y-986511D01*
X5677467Y-970000D01*
X59092533Y-970000D01*
X59067823Y-986511D01*
G37*
%TD.AperFunction*%
%TD*%
M02*
