%TF.GenerationSoftware,KiCad,Pcbnew,5.1.10*%
%TF.CreationDate,2021-11-27T11:42:48+01:00*%
%TF.ProjectId,GrasPiB_AR488_Adapter,47726173-5069-4425-9f41-523438385f41,0*%
%TF.SameCoordinates,PX4ce8b88PY2455c20*%
%TF.FileFunction,Copper,L1,Top*%
%TF.FilePolarity,Positive*%
%FSLAX46Y46*%
G04 Gerber Fmt 4.6, Leading zero omitted, Abs format (unit mm)*
G04 Created by KiCad (PCBNEW 5.1.10) date 2021-11-27 11:42:48*
%MOMM*%
%LPD*%
G01*
G04 APERTURE LIST*
%TA.AperFunction,WasherPad*%
%ADD10C,6.000000*%
%TD*%
%TA.AperFunction,ComponentPad*%
%ADD11C,1.600000*%
%TD*%
%TA.AperFunction,ViaPad*%
%ADD12C,0.800000*%
%TD*%
%TA.AperFunction,Conductor*%
%ADD13C,0.250000*%
%TD*%
%TA.AperFunction,Conductor*%
%ADD14C,0.350000*%
%TD*%
%TA.AperFunction,Conductor*%
%ADD15C,0.254000*%
%TD*%
%TA.AperFunction,Conductor*%
%ADD16C,0.100000*%
%TD*%
G04 APERTURE END LIST*
D10*
%TO.P,U2,*%
%TO.N,*%
X61385000Y-52810000D03*
X3385000Y-52810000D03*
X61385000Y-3810000D03*
X3385000Y-3810000D03*
D11*
%TO.P,U2,40*%
%TO.N,Net-(U2-Pad40)*%
X56515000Y-2540000D03*
%TO.P,U2,39*%
%TO.N,GND*%
X56515000Y-5080000D03*
%TO.P,U2,38*%
%TO.N,/DIO1*%
X53975000Y-2540000D03*
%TO.P,U2,37*%
%TO.N,/DIO2*%
X53975000Y-5080000D03*
%TO.P,U2,36*%
%TO.N,/DIO3*%
X51435000Y-2540000D03*
%TO.P,U2,35*%
%TO.N,/DIO4*%
X51435000Y-5080000D03*
%TO.P,U2,34*%
%TO.N,GND*%
X48895000Y-2540000D03*
%TO.P,U2,33*%
%TO.N,/DIO5*%
X48895000Y-5080000D03*
%TO.P,U2,32*%
%TO.N,/DIO6*%
X46355000Y-2540000D03*
%TO.P,U2,31*%
%TO.N,/DIO7*%
X46355000Y-5080000D03*
%TO.P,U2,30*%
%TO.N,GND*%
X43815000Y-2540000D03*
%TO.P,U2,29*%
%TO.N,/DIO8*%
X43815000Y-5080000D03*
%TO.P,U2,28*%
%TO.N,Net-(U2-Pad28)*%
X41275000Y-2540000D03*
%TO.P,U2,27*%
%TO.N,Net-(U2-Pad27)*%
X41275000Y-5080000D03*
%TO.P,U2,26*%
%TO.N,+5V*%
X38735000Y-2540000D03*
%TO.P,U2,25*%
%TO.N,GND*%
X38735000Y-5080000D03*
%TO.P,U2,24*%
%TO.N,/DC*%
X36195000Y-2540000D03*
%TO.P,U2,23*%
%TO.N,/SRQ*%
X36195000Y-5080000D03*
%TO.P,U2,22*%
%TO.N,/ATN*%
X33655000Y-2540000D03*
%TO.P,U2,21*%
%TO.N,/EOI*%
X33655000Y-5080000D03*
%TO.P,U2,20*%
%TO.N,GND*%
X31115000Y-2540000D03*
%TO.P,U2,19*%
%TO.N,/DAV*%
X31115000Y-5080000D03*
%TO.P,U2,18*%
%TO.N,/NRFD*%
X28575000Y-2540000D03*
%TO.P,U2,17*%
%TO.N,Net-(U2-Pad17)*%
X28575000Y-5080000D03*
%TO.P,U2,16*%
%TO.N,/NDAC*%
X26035000Y-2540000D03*
%TO.P,U2,15*%
%TO.N,/IFC*%
X26035000Y-5080000D03*
%TO.P,U2,14*%
%TO.N,GND*%
X23495000Y-2540000D03*
%TO.P,U2,13*%
%TO.N,/REN*%
X23495000Y-5080000D03*
%TO.P,U2,12*%
%TO.N,/TE*%
X20955000Y-2540000D03*
%TO.P,U2,11*%
%TO.N,Net-(U2-Pad11)*%
X20955000Y-5080000D03*
%TO.P,U2,10*%
%TO.N,/RX*%
X18415000Y-2540000D03*
%TO.P,U2,9*%
%TO.N,GND*%
X18415000Y-5080000D03*
%TO.P,U2,8*%
%TO.N,/TX*%
X15875000Y-2540000D03*
%TO.P,U2,7*%
%TO.N,/LED*%
X15875000Y-5080000D03*
%TO.P,U2,6*%
%TO.N,GND*%
X13335000Y-2540000D03*
%TO.P,U2,5*%
%TO.N,Net-(U2-Pad5)*%
X13335000Y-5080000D03*
%TO.P,U2,4*%
%TO.N,+5V*%
X10795000Y-2540000D03*
%TO.P,U2,3*%
%TO.N,Net-(U2-Pad3)*%
X10795000Y-5080000D03*
%TO.P,U2,2*%
%TO.N,+5V*%
X8255000Y-2540000D03*
%TO.P,U2,1*%
%TA.AperFunction,ComponentPad*%
G36*
G01*
X7455000Y-5480000D02*
X7455000Y-4680000D01*
G75*
G02*
X7855000Y-4280000I400000J0D01*
G01*
X8655000Y-4280000D01*
G75*
G02*
X9055000Y-4680000I0J-400000D01*
G01*
X9055000Y-5480000D01*
G75*
G02*
X8655000Y-5880000I-400000J0D01*
G01*
X7855000Y-5880000D01*
G75*
G02*
X7455000Y-5480000I0J400000D01*
G01*
G37*
%TD.AperFunction*%
%TD*%
%TO.P,U1,1*%
%TO.N,/DIO3*%
X46355000Y-27940000D03*
%TO.P,U1,2*%
%TO.N,Net-(U1-Pad2)*%
X43815000Y-27940000D03*
%TO.P,U1,3*%
%TO.N,/TX*%
X41275000Y-27940000D03*
%TO.P,U1,4*%
%TO.N,/RX*%
X38735000Y-27940000D03*
%TO.P,U1,5*%
%TO.N,Net-(U1-Pad5)*%
X36195000Y-27940000D03*
%TO.P,U1,6*%
%TO.N,GND*%
X33655000Y-27940000D03*
%TO.P,U1,7*%
%TO.N,/ATN*%
X31115000Y-27940000D03*
%TO.P,U1,8*%
%TO.N,/DIO1*%
X28575000Y-27940000D03*
%TO.P,U1,9*%
%TO.N,/IFC*%
X26035000Y-27940000D03*
%TO.P,U1,10*%
%TO.N,/REN*%
X23495000Y-27940000D03*
%TO.P,U1,11*%
%TO.N,/DIO8*%
X20955000Y-27940000D03*
%TO.P,U1,12*%
%TO.N,/SRQ*%
X18415000Y-27940000D03*
%TO.P,U1,13*%
%TO.N,/DIO5*%
X15875000Y-27940000D03*
%TO.P,U1,14*%
%TO.N,/DIO6*%
X13335000Y-27940000D03*
%TO.P,U1,15*%
%TO.N,/DIO7*%
X10795000Y-27940000D03*
%TO.P,U1,16*%
%TO.N,/DC*%
X8255000Y-27940000D03*
%TO.P,U1,17*%
%TO.N,/TE*%
X5715000Y-27940000D03*
%TO.P,U1,18*%
%TO.N,/LED*%
X5715000Y-43180000D03*
%TO.P,U1,19*%
%TO.N,Net-(U1-Pad19)*%
X8255000Y-43180000D03*
%TO.P,U1,20*%
%TO.N,Net-(U1-Pad20)*%
X10795000Y-43180000D03*
%TO.P,U1,21*%
%TO.N,/EOI*%
X13335000Y-43180000D03*
%TO.P,U1,22*%
%TO.N,/DAV*%
X15875000Y-43180000D03*
%TO.P,U1,23*%
%TO.N,/NRFD*%
X18415000Y-43180000D03*
%TO.P,U1,24*%
%TO.N,/NDAC*%
X20955000Y-43180000D03*
%TO.P,U1,25*%
%TO.N,Net-(U1-Pad25)*%
X23495000Y-43180000D03*
%TO.P,U1,26*%
%TO.N,Net-(U1-Pad26)*%
X26035000Y-43180000D03*
%TO.P,U1,27*%
%TO.N,Net-(U1-Pad27)*%
X28575000Y-43180000D03*
%TO.P,U1,28*%
%TO.N,Net-(U1-Pad28)*%
X31115000Y-43180000D03*
%TO.P,U1,29*%
%TO.N,+5V*%
X33655000Y-43180000D03*
%TO.P,U1,30*%
%TO.N,Net-(U1-Pad30)*%
X36195000Y-43180000D03*
%TO.P,U1,31*%
%TO.N,GND*%
X38735000Y-43180000D03*
%TO.P,U1,32*%
%TO.N,Net-(U1-Pad32)*%
X41275000Y-43180000D03*
%TO.P,U1,33*%
%TO.N,/DIO4*%
X43815000Y-43180000D03*
%TO.P,U1,34*%
%TO.N,/DIO2*%
X46355000Y-43180000D03*
%TD*%
D12*
%TO.N,/TX*%
X18415000Y-19050000D03*
%TO.N,/RX*%
X19685000Y-18415000D03*
%TO.N,/ATN*%
X29845000Y-20955000D03*
%TO.N,/DIO1*%
X48895000Y-23495000D03*
X52705000Y-23495000D03*
%TO.N,/IFC*%
X26035000Y-20955000D03*
%TO.N,/REN*%
X23495000Y-20955000D03*
%TO.N,/DIO8*%
X20955000Y-22860000D03*
%TO.N,/SRQ*%
X18415000Y-22860000D03*
%TO.N,/EOI*%
X31115000Y-20955000D03*
%TO.N,/DAV*%
X28575000Y-20955000D03*
%TO.N,/NRFD*%
X27305000Y-20955000D03*
%TO.N,/NDAC*%
X24765000Y-20955000D03*
%TD*%
D13*
%TO.N,/DIO3*%
X50165000Y-24130000D02*
X46355000Y-27940000D01*
X50165000Y-3810000D02*
X50165000Y-24130000D01*
X51435000Y-2540000D02*
X50165000Y-3810000D01*
%TO.N,/TX*%
X15875000Y-2540000D02*
X17145000Y-3810000D01*
X17145000Y-3810000D02*
X17145000Y-5715000D01*
X17145000Y-5715000D02*
X18415000Y-6985000D01*
X18415000Y-6985000D02*
X18415000Y-19050000D01*
%TO.N,/RX*%
X19685000Y-3810000D02*
X18415000Y-2540000D01*
X19685000Y-18415000D02*
X19685000Y-3810000D01*
%TO.N,/ATN*%
X32385000Y-3810000D02*
X33655000Y-2540000D01*
X32385000Y-5715000D02*
X32385000Y-3810000D01*
X29845000Y-8255000D02*
X32385000Y-5715000D01*
X29845000Y-20955000D02*
X29845000Y-8255000D01*
%TO.N,/DIO1*%
X28575000Y-27940000D02*
X30480000Y-26035000D01*
X30480000Y-26035000D02*
X38735000Y-26035000D01*
X38735000Y-26035000D02*
X46355000Y-26035000D01*
X46355000Y-26035000D02*
X48895000Y-23495000D01*
X52705000Y-3810000D02*
X53975000Y-2540000D01*
X52705000Y-23495000D02*
X52705000Y-3810000D01*
%TO.N,/IFC*%
X26035000Y-5080000D02*
X26035000Y-20955000D01*
%TO.N,/REN*%
X23495000Y-5080000D02*
X23495000Y-20955000D01*
%TO.N,/DIO8*%
X45085000Y-6350000D02*
X43815000Y-5080000D01*
X45085000Y-21590000D02*
X45085000Y-6350000D01*
X43180000Y-23495000D02*
X45085000Y-21590000D01*
X21590000Y-23495000D02*
X43180000Y-23495000D01*
X20955000Y-22860000D02*
X21590000Y-23495000D01*
%TO.N,/SRQ*%
X21590000Y-21590000D02*
X22860000Y-22860000D01*
X19685000Y-21590000D02*
X21590000Y-21590000D01*
X18415000Y-22860000D02*
X19685000Y-21590000D01*
X36195000Y-5080000D02*
X36195000Y-6985000D01*
X36195000Y-6985000D02*
X33655000Y-9525000D01*
X33655000Y-9525000D02*
X33655000Y-20955000D01*
X31750000Y-22860000D02*
X22860000Y-22860000D01*
X33655000Y-20955000D02*
X31750000Y-22860000D01*
%TO.N,/DIO5*%
X18415000Y-25400000D02*
X15875000Y-27940000D01*
X45085000Y-25400000D02*
X18415000Y-25400000D01*
X48895000Y-21590000D02*
X45085000Y-25400000D01*
X48895000Y-5080000D02*
X48895000Y-21590000D01*
%TO.N,/DIO6*%
X44450000Y-24765000D02*
X16510000Y-24765000D01*
X16510000Y-24765000D02*
X13335000Y-27940000D01*
X47625000Y-21590000D02*
X44450000Y-24765000D01*
X47625000Y-3810000D02*
X47625000Y-21590000D01*
X46355000Y-2540000D02*
X47625000Y-3810000D01*
%TO.N,/DIO7*%
X14605000Y-24130000D02*
X10795000Y-27940000D01*
X43815000Y-24130000D02*
X14605000Y-24130000D01*
X46355000Y-21590000D02*
X43815000Y-24130000D01*
X46355000Y-5080000D02*
X46355000Y-21590000D01*
%TO.N,/TE*%
X13335000Y-20320000D02*
X5715000Y-27940000D01*
X20955000Y-20320000D02*
X13335000Y-20320000D01*
X22225000Y-19050000D02*
X20955000Y-20320000D01*
X22225000Y-3810000D02*
X22225000Y-19050000D01*
X20955000Y-2540000D02*
X22225000Y-3810000D01*
%TO.N,/DC*%
X22225000Y-20955000D02*
X23495000Y-22225000D01*
X15240000Y-20955000D02*
X22225000Y-20955000D01*
X8255000Y-27940000D02*
X15240000Y-20955000D01*
X23495000Y-22225000D02*
X31115000Y-22225000D01*
X31115000Y-22225000D02*
X32385000Y-20955000D01*
X32385000Y-20955000D02*
X32385000Y-9525000D01*
X32385000Y-9525000D02*
X34925000Y-6985000D01*
X34925000Y-3810000D02*
X36195000Y-2540000D01*
X34925000Y-6985000D02*
X34925000Y-3810000D01*
%TO.N,/EOI*%
X31115000Y-20955000D02*
X31115000Y-8890000D01*
X33655000Y-6350000D02*
X33655000Y-5080000D01*
X31115000Y-8890000D02*
X33655000Y-6350000D01*
%TO.N,/DAV*%
X28575000Y-20955000D02*
X28575000Y-7620000D01*
X28575000Y-7620000D02*
X31115000Y-5080000D01*
%TO.N,/NRFD*%
X27305000Y-3810000D02*
X28575000Y-2540000D01*
X27305000Y-20955000D02*
X27305000Y-3810000D01*
%TO.N,/NDAC*%
X26035000Y-2540000D02*
X26035000Y-2660000D01*
X24765000Y-3810000D02*
X26035000Y-2540000D01*
X24765000Y-20955000D02*
X24765000Y-3810000D01*
D14*
%TO.N,+5V*%
X10795000Y-2540000D02*
X8255000Y-2540000D01*
X8255000Y-2540000D02*
X8255000Y-5080000D01*
X31750000Y-45085000D02*
X33655000Y-43180000D01*
X4445000Y-45085000D02*
X31750000Y-45085000D01*
X3175000Y-26670000D02*
X3175000Y-43815000D01*
X12065000Y-17780000D02*
X3175000Y-26670000D01*
X15240000Y-17780000D02*
X12065000Y-17780000D01*
X3175000Y-43815000D02*
X4445000Y-45085000D01*
X15875000Y-17145000D02*
X15240000Y-17780000D01*
X15875000Y-8255000D02*
X15875000Y-17145000D01*
X10160000Y-6985000D02*
X14605000Y-6985000D01*
X14605000Y-6985000D02*
X15875000Y-8255000D01*
X8255000Y-5080000D02*
X10160000Y-6985000D01*
D13*
X37465000Y-1270000D02*
X38735000Y-2540000D01*
X12065000Y-1270000D02*
X37465000Y-1270000D01*
X10795000Y-2540000D02*
X12065000Y-1270000D01*
%TO.N,/DIO4*%
X51435000Y-5080000D02*
X51435000Y-25400000D01*
X43815000Y-33020000D02*
X43815000Y-43180000D01*
X51435000Y-25400000D02*
X43815000Y-33020000D01*
%TO.N,/DIO2*%
X53975000Y-5080000D02*
X53975000Y-24765000D01*
X53975000Y-24765000D02*
X45085000Y-33655000D01*
X45085000Y-41910000D02*
X46355000Y-43180000D01*
X45085000Y-33655000D02*
X45085000Y-41910000D01*
%TO.N,/LED*%
X4445000Y-41910000D02*
X5715000Y-43180000D01*
X4445000Y-27305000D02*
X4445000Y-41910000D01*
X12700000Y-19050000D02*
X4445000Y-27305000D01*
X16510000Y-19050000D02*
X12700000Y-19050000D01*
X17145000Y-18415000D02*
X16510000Y-19050000D01*
X17145000Y-7620000D02*
X17145000Y-18415000D01*
X15875000Y-6350000D02*
X17145000Y-7620000D01*
X15875000Y-5080000D02*
X15875000Y-6350000D01*
%TD*%
D15*
%TO.N,GND*%
X82338893Y-1017670D02*
X82775498Y-1149489D01*
X83178185Y-1363600D01*
X83531612Y-1651848D01*
X83822327Y-2003261D01*
X84039242Y-2404439D01*
X84174106Y-2840113D01*
X84225001Y-3324353D01*
X84225000Y-53277721D01*
X84177330Y-53763894D01*
X84045512Y-54200497D01*
X83831399Y-54603186D01*
X83543150Y-54956613D01*
X83191739Y-55247327D01*
X82790564Y-55464240D01*
X82354886Y-55599106D01*
X81870664Y-55650000D01*
X63677467Y-55650000D01*
X63702177Y-55633489D01*
X64208489Y-55127177D01*
X64606295Y-54531818D01*
X64880309Y-53870290D01*
X65020000Y-53168016D01*
X65020000Y-52451984D01*
X64880309Y-51749710D01*
X64606295Y-51088182D01*
X64208489Y-50492823D01*
X63702177Y-49986511D01*
X63106818Y-49588705D01*
X62445290Y-49314691D01*
X61743016Y-49175000D01*
X61026984Y-49175000D01*
X60324710Y-49314691D01*
X59663182Y-49588705D01*
X59067823Y-49986511D01*
X58561511Y-50492823D01*
X58163705Y-51088182D01*
X57889691Y-51749710D01*
X57750000Y-52451984D01*
X57750000Y-53168016D01*
X57889691Y-53870290D01*
X58163705Y-54531818D01*
X58561511Y-55127177D01*
X59067823Y-55633489D01*
X59092533Y-55650000D01*
X5677467Y-55650000D01*
X5702177Y-55633489D01*
X6208489Y-55127177D01*
X6606295Y-54531818D01*
X6880309Y-53870290D01*
X7020000Y-53168016D01*
X7020000Y-52451984D01*
X6880309Y-51749710D01*
X6606295Y-51088182D01*
X6208489Y-50492823D01*
X5702177Y-49986511D01*
X5106818Y-49588705D01*
X4445290Y-49314691D01*
X3743016Y-49175000D01*
X3026984Y-49175000D01*
X2324710Y-49314691D01*
X1663182Y-49588705D01*
X1067823Y-49986511D01*
X561511Y-50492823D01*
X545000Y-50517533D01*
X545000Y-6102467D01*
X561511Y-6127177D01*
X1067823Y-6633489D01*
X1663182Y-7031295D01*
X2324710Y-7305309D01*
X3026984Y-7445000D01*
X3743016Y-7445000D01*
X4445290Y-7305309D01*
X5106818Y-7031295D01*
X5702177Y-6633489D01*
X6208489Y-6127177D01*
X6606295Y-5531818D01*
X6816928Y-5023305D01*
X6816928Y-5480000D01*
X6836874Y-5682518D01*
X6895947Y-5877253D01*
X6991875Y-6056722D01*
X7120972Y-6214028D01*
X7278278Y-6343125D01*
X7457747Y-6439053D01*
X7652482Y-6498126D01*
X7855000Y-6518072D01*
X8547560Y-6518072D01*
X9559105Y-7529618D01*
X9584472Y-7560528D01*
X9615380Y-7585893D01*
X9707810Y-7661749D01*
X9783024Y-7701951D01*
X9848527Y-7736963D01*
X10001212Y-7783280D01*
X10120209Y-7795000D01*
X10120212Y-7795000D01*
X10160000Y-7798919D01*
X10199788Y-7795000D01*
X14269488Y-7795000D01*
X15065000Y-8590513D01*
X15065001Y-16809486D01*
X14904488Y-16970000D01*
X12104791Y-16970000D01*
X12065000Y-16966081D01*
X11906212Y-16981720D01*
X11753526Y-17028037D01*
X11612811Y-17103251D01*
X11489472Y-17204472D01*
X11464107Y-17235380D01*
X2630388Y-26069100D01*
X2599472Y-26094472D01*
X2542679Y-26163676D01*
X2498251Y-26217811D01*
X2458049Y-26293025D01*
X2423037Y-26358528D01*
X2376720Y-26511213D01*
X2365000Y-26630209D01*
X2361081Y-26670000D01*
X2365000Y-26709788D01*
X2365001Y-43775202D01*
X2361081Y-43815000D01*
X2372310Y-43929002D01*
X2376721Y-43973788D01*
X2413418Y-44094759D01*
X2423038Y-44126473D01*
X2498251Y-44267189D01*
X2552292Y-44333037D01*
X2599473Y-44390528D01*
X2630383Y-44415895D01*
X3844105Y-45629618D01*
X3869472Y-45660528D01*
X3937210Y-45716119D01*
X3992810Y-45761749D01*
X4068024Y-45801951D01*
X4133527Y-45836963D01*
X4286212Y-45883280D01*
X4405209Y-45895000D01*
X4405211Y-45895000D01*
X4444999Y-45898919D01*
X4484787Y-45895000D01*
X31710212Y-45895000D01*
X31750000Y-45898919D01*
X31789788Y-45895000D01*
X31789791Y-45895000D01*
X31908788Y-45883280D01*
X32061473Y-45836963D01*
X32202189Y-45761749D01*
X32325528Y-45660528D01*
X32350899Y-45629613D01*
X33390093Y-44590420D01*
X33513665Y-44615000D01*
X33796335Y-44615000D01*
X34073574Y-44559853D01*
X34334727Y-44451680D01*
X34569759Y-44294637D01*
X34769637Y-44094759D01*
X34925000Y-43862241D01*
X35080363Y-44094759D01*
X35280241Y-44294637D01*
X35515273Y-44451680D01*
X35776426Y-44559853D01*
X36053665Y-44615000D01*
X36336335Y-44615000D01*
X36613574Y-44559853D01*
X36874727Y-44451680D01*
X37109759Y-44294637D01*
X37231694Y-44172702D01*
X37921903Y-44172702D01*
X37993486Y-44416671D01*
X38248996Y-44537571D01*
X38523184Y-44606300D01*
X38805512Y-44620217D01*
X39085130Y-44578787D01*
X39351292Y-44483603D01*
X39476514Y-44416671D01*
X39548097Y-44172702D01*
X38735000Y-43359605D01*
X37921903Y-44172702D01*
X37231694Y-44172702D01*
X37309637Y-44094759D01*
X37465915Y-43860872D01*
X37498329Y-43921514D01*
X37742298Y-43993097D01*
X38555395Y-43180000D01*
X37742298Y-42366903D01*
X37498329Y-42438486D01*
X37467806Y-42502992D01*
X37466680Y-42500273D01*
X37309637Y-42265241D01*
X37231694Y-42187298D01*
X37921903Y-42187298D01*
X38735000Y-43000395D01*
X39548097Y-42187298D01*
X39476514Y-41943329D01*
X39221004Y-41822429D01*
X38946816Y-41753700D01*
X38664488Y-41739783D01*
X38384870Y-41781213D01*
X38118708Y-41876397D01*
X37993486Y-41943329D01*
X37921903Y-42187298D01*
X37231694Y-42187298D01*
X37109759Y-42065363D01*
X36874727Y-41908320D01*
X36613574Y-41800147D01*
X36336335Y-41745000D01*
X36053665Y-41745000D01*
X35776426Y-41800147D01*
X35515273Y-41908320D01*
X35280241Y-42065363D01*
X35080363Y-42265241D01*
X34925000Y-42497759D01*
X34769637Y-42265241D01*
X34569759Y-42065363D01*
X34334727Y-41908320D01*
X34073574Y-41800147D01*
X33796335Y-41745000D01*
X33513665Y-41745000D01*
X33236426Y-41800147D01*
X32975273Y-41908320D01*
X32740241Y-42065363D01*
X32540363Y-42265241D01*
X32385000Y-42497759D01*
X32229637Y-42265241D01*
X32029759Y-42065363D01*
X31794727Y-41908320D01*
X31533574Y-41800147D01*
X31256335Y-41745000D01*
X30973665Y-41745000D01*
X30696426Y-41800147D01*
X30435273Y-41908320D01*
X30200241Y-42065363D01*
X30000363Y-42265241D01*
X29845000Y-42497759D01*
X29689637Y-42265241D01*
X29489759Y-42065363D01*
X29254727Y-41908320D01*
X28993574Y-41800147D01*
X28716335Y-41745000D01*
X28433665Y-41745000D01*
X28156426Y-41800147D01*
X27895273Y-41908320D01*
X27660241Y-42065363D01*
X27460363Y-42265241D01*
X27305000Y-42497759D01*
X27149637Y-42265241D01*
X26949759Y-42065363D01*
X26714727Y-41908320D01*
X26453574Y-41800147D01*
X26176335Y-41745000D01*
X25893665Y-41745000D01*
X25616426Y-41800147D01*
X25355273Y-41908320D01*
X25120241Y-42065363D01*
X24920363Y-42265241D01*
X24765000Y-42497759D01*
X24609637Y-42265241D01*
X24409759Y-42065363D01*
X24174727Y-41908320D01*
X23913574Y-41800147D01*
X23636335Y-41745000D01*
X23353665Y-41745000D01*
X23076426Y-41800147D01*
X22815273Y-41908320D01*
X22580241Y-42065363D01*
X22380363Y-42265241D01*
X22225000Y-42497759D01*
X22069637Y-42265241D01*
X21869759Y-42065363D01*
X21634727Y-41908320D01*
X21373574Y-41800147D01*
X21096335Y-41745000D01*
X20813665Y-41745000D01*
X20536426Y-41800147D01*
X20275273Y-41908320D01*
X20040241Y-42065363D01*
X19840363Y-42265241D01*
X19685000Y-42497759D01*
X19529637Y-42265241D01*
X19329759Y-42065363D01*
X19094727Y-41908320D01*
X18833574Y-41800147D01*
X18556335Y-41745000D01*
X18273665Y-41745000D01*
X17996426Y-41800147D01*
X17735273Y-41908320D01*
X17500241Y-42065363D01*
X17300363Y-42265241D01*
X17145000Y-42497759D01*
X16989637Y-42265241D01*
X16789759Y-42065363D01*
X16554727Y-41908320D01*
X16293574Y-41800147D01*
X16016335Y-41745000D01*
X15733665Y-41745000D01*
X15456426Y-41800147D01*
X15195273Y-41908320D01*
X14960241Y-42065363D01*
X14760363Y-42265241D01*
X14605000Y-42497759D01*
X14449637Y-42265241D01*
X14249759Y-42065363D01*
X14014727Y-41908320D01*
X13753574Y-41800147D01*
X13476335Y-41745000D01*
X13193665Y-41745000D01*
X12916426Y-41800147D01*
X12655273Y-41908320D01*
X12420241Y-42065363D01*
X12220363Y-42265241D01*
X12065000Y-42497759D01*
X11909637Y-42265241D01*
X11709759Y-42065363D01*
X11474727Y-41908320D01*
X11213574Y-41800147D01*
X10936335Y-41745000D01*
X10653665Y-41745000D01*
X10376426Y-41800147D01*
X10115273Y-41908320D01*
X9880241Y-42065363D01*
X9680363Y-42265241D01*
X9525000Y-42497759D01*
X9369637Y-42265241D01*
X9169759Y-42065363D01*
X8934727Y-41908320D01*
X8673574Y-41800147D01*
X8396335Y-41745000D01*
X8113665Y-41745000D01*
X7836426Y-41800147D01*
X7575273Y-41908320D01*
X7340241Y-42065363D01*
X7140363Y-42265241D01*
X6985000Y-42497759D01*
X6829637Y-42265241D01*
X6629759Y-42065363D01*
X6394727Y-41908320D01*
X6133574Y-41800147D01*
X5856335Y-41745000D01*
X5573665Y-41745000D01*
X5391114Y-41781312D01*
X5205000Y-41595199D01*
X5205000Y-29281983D01*
X5296426Y-29319853D01*
X5573665Y-29375000D01*
X5856335Y-29375000D01*
X6133574Y-29319853D01*
X6394727Y-29211680D01*
X6629759Y-29054637D01*
X6829637Y-28854759D01*
X6985000Y-28622241D01*
X7140363Y-28854759D01*
X7340241Y-29054637D01*
X7575273Y-29211680D01*
X7836426Y-29319853D01*
X8113665Y-29375000D01*
X8396335Y-29375000D01*
X8673574Y-29319853D01*
X8934727Y-29211680D01*
X9169759Y-29054637D01*
X9369637Y-28854759D01*
X9525000Y-28622241D01*
X9680363Y-28854759D01*
X9880241Y-29054637D01*
X10115273Y-29211680D01*
X10376426Y-29319853D01*
X10653665Y-29375000D01*
X10936335Y-29375000D01*
X11213574Y-29319853D01*
X11474727Y-29211680D01*
X11709759Y-29054637D01*
X11909637Y-28854759D01*
X12065000Y-28622241D01*
X12220363Y-28854759D01*
X12420241Y-29054637D01*
X12655273Y-29211680D01*
X12916426Y-29319853D01*
X13193665Y-29375000D01*
X13476335Y-29375000D01*
X13753574Y-29319853D01*
X14014727Y-29211680D01*
X14249759Y-29054637D01*
X14449637Y-28854759D01*
X14605000Y-28622241D01*
X14760363Y-28854759D01*
X14960241Y-29054637D01*
X15195273Y-29211680D01*
X15456426Y-29319853D01*
X15733665Y-29375000D01*
X16016335Y-29375000D01*
X16293574Y-29319853D01*
X16554727Y-29211680D01*
X16789759Y-29054637D01*
X16989637Y-28854759D01*
X17145000Y-28622241D01*
X17300363Y-28854759D01*
X17500241Y-29054637D01*
X17735273Y-29211680D01*
X17996426Y-29319853D01*
X18273665Y-29375000D01*
X18556335Y-29375000D01*
X18833574Y-29319853D01*
X19094727Y-29211680D01*
X19329759Y-29054637D01*
X19529637Y-28854759D01*
X19685000Y-28622241D01*
X19840363Y-28854759D01*
X20040241Y-29054637D01*
X20275273Y-29211680D01*
X20536426Y-29319853D01*
X20813665Y-29375000D01*
X21096335Y-29375000D01*
X21373574Y-29319853D01*
X21634727Y-29211680D01*
X21869759Y-29054637D01*
X22069637Y-28854759D01*
X22225000Y-28622241D01*
X22380363Y-28854759D01*
X22580241Y-29054637D01*
X22815273Y-29211680D01*
X23076426Y-29319853D01*
X23353665Y-29375000D01*
X23636335Y-29375000D01*
X23913574Y-29319853D01*
X24174727Y-29211680D01*
X24409759Y-29054637D01*
X24609637Y-28854759D01*
X24765000Y-28622241D01*
X24920363Y-28854759D01*
X25120241Y-29054637D01*
X25355273Y-29211680D01*
X25616426Y-29319853D01*
X25893665Y-29375000D01*
X26176335Y-29375000D01*
X26453574Y-29319853D01*
X26714727Y-29211680D01*
X26949759Y-29054637D01*
X27149637Y-28854759D01*
X27305000Y-28622241D01*
X27460363Y-28854759D01*
X27660241Y-29054637D01*
X27895273Y-29211680D01*
X28156426Y-29319853D01*
X28433665Y-29375000D01*
X28716335Y-29375000D01*
X28993574Y-29319853D01*
X29254727Y-29211680D01*
X29489759Y-29054637D01*
X29689637Y-28854759D01*
X29845000Y-28622241D01*
X30000363Y-28854759D01*
X30200241Y-29054637D01*
X30435273Y-29211680D01*
X30696426Y-29319853D01*
X30973665Y-29375000D01*
X31256335Y-29375000D01*
X31533574Y-29319853D01*
X31794727Y-29211680D01*
X32029759Y-29054637D01*
X32151694Y-28932702D01*
X32841903Y-28932702D01*
X32913486Y-29176671D01*
X33168996Y-29297571D01*
X33443184Y-29366300D01*
X33725512Y-29380217D01*
X34005130Y-29338787D01*
X34271292Y-29243603D01*
X34396514Y-29176671D01*
X34468097Y-28932702D01*
X33655000Y-28119605D01*
X32841903Y-28932702D01*
X32151694Y-28932702D01*
X32229637Y-28854759D01*
X32385915Y-28620872D01*
X32418329Y-28681514D01*
X32662298Y-28753097D01*
X33475395Y-27940000D01*
X32662298Y-27126903D01*
X32418329Y-27198486D01*
X32387806Y-27262992D01*
X32386680Y-27260273D01*
X32229637Y-27025241D01*
X32029759Y-26825363D01*
X31984317Y-26795000D01*
X32886589Y-26795000D01*
X32841903Y-26947298D01*
X33655000Y-27760395D01*
X34468097Y-26947298D01*
X34423411Y-26795000D01*
X35325683Y-26795000D01*
X35280241Y-26825363D01*
X35080363Y-27025241D01*
X34924085Y-27259128D01*
X34891671Y-27198486D01*
X34647702Y-27126903D01*
X33834605Y-27940000D01*
X34647702Y-28753097D01*
X34891671Y-28681514D01*
X34922194Y-28617008D01*
X34923320Y-28619727D01*
X35080363Y-28854759D01*
X35280241Y-29054637D01*
X35515273Y-29211680D01*
X35776426Y-29319853D01*
X36053665Y-29375000D01*
X36336335Y-29375000D01*
X36613574Y-29319853D01*
X36874727Y-29211680D01*
X37109759Y-29054637D01*
X37309637Y-28854759D01*
X37465000Y-28622241D01*
X37620363Y-28854759D01*
X37820241Y-29054637D01*
X38055273Y-29211680D01*
X38316426Y-29319853D01*
X38593665Y-29375000D01*
X38876335Y-29375000D01*
X39153574Y-29319853D01*
X39414727Y-29211680D01*
X39649759Y-29054637D01*
X39849637Y-28854759D01*
X40005000Y-28622241D01*
X40160363Y-28854759D01*
X40360241Y-29054637D01*
X40595273Y-29211680D01*
X40856426Y-29319853D01*
X41133665Y-29375000D01*
X41416335Y-29375000D01*
X41693574Y-29319853D01*
X41954727Y-29211680D01*
X42189759Y-29054637D01*
X42389637Y-28854759D01*
X42545000Y-28622241D01*
X42700363Y-28854759D01*
X42900241Y-29054637D01*
X43135273Y-29211680D01*
X43396426Y-29319853D01*
X43673665Y-29375000D01*
X43956335Y-29375000D01*
X44233574Y-29319853D01*
X44494727Y-29211680D01*
X44729759Y-29054637D01*
X44929637Y-28854759D01*
X45085000Y-28622241D01*
X45240363Y-28854759D01*
X45440241Y-29054637D01*
X45675273Y-29211680D01*
X45936426Y-29319853D01*
X46213665Y-29375000D01*
X46385199Y-29375000D01*
X43304003Y-32456196D01*
X43274999Y-32479999D01*
X43219871Y-32547174D01*
X43180026Y-32595724D01*
X43109455Y-32727753D01*
X43109454Y-32727754D01*
X43065997Y-32871015D01*
X43055000Y-32982668D01*
X43055000Y-32982678D01*
X43051324Y-33020000D01*
X43055000Y-33057322D01*
X43055001Y-41961956D01*
X42900241Y-42065363D01*
X42700363Y-42265241D01*
X42545000Y-42497759D01*
X42389637Y-42265241D01*
X42189759Y-42065363D01*
X41954727Y-41908320D01*
X41693574Y-41800147D01*
X41416335Y-41745000D01*
X41133665Y-41745000D01*
X40856426Y-41800147D01*
X40595273Y-41908320D01*
X40360241Y-42065363D01*
X40160363Y-42265241D01*
X40004085Y-42499128D01*
X39971671Y-42438486D01*
X39727702Y-42366903D01*
X38914605Y-43180000D01*
X39727702Y-43993097D01*
X39971671Y-43921514D01*
X40002194Y-43857008D01*
X40003320Y-43859727D01*
X40160363Y-44094759D01*
X40360241Y-44294637D01*
X40595273Y-44451680D01*
X40856426Y-44559853D01*
X41133665Y-44615000D01*
X41416335Y-44615000D01*
X41693574Y-44559853D01*
X41954727Y-44451680D01*
X42189759Y-44294637D01*
X42389637Y-44094759D01*
X42545000Y-43862241D01*
X42700363Y-44094759D01*
X42900241Y-44294637D01*
X43135273Y-44451680D01*
X43396426Y-44559853D01*
X43673665Y-44615000D01*
X43956335Y-44615000D01*
X44233574Y-44559853D01*
X44494727Y-44451680D01*
X44729759Y-44294637D01*
X44929637Y-44094759D01*
X45085000Y-43862241D01*
X45240363Y-44094759D01*
X45440241Y-44294637D01*
X45675273Y-44451680D01*
X45936426Y-44559853D01*
X46213665Y-44615000D01*
X46496335Y-44615000D01*
X46773574Y-44559853D01*
X47034727Y-44451680D01*
X47269759Y-44294637D01*
X47469637Y-44094759D01*
X47626680Y-43859727D01*
X47734853Y-43598574D01*
X47790000Y-43321335D01*
X47790000Y-43038665D01*
X47734853Y-42761426D01*
X47626680Y-42500273D01*
X47469637Y-42265241D01*
X47269759Y-42065363D01*
X47034727Y-41908320D01*
X46773574Y-41800147D01*
X46496335Y-41745000D01*
X46213665Y-41745000D01*
X46031114Y-41781312D01*
X45845000Y-41595199D01*
X45845000Y-33969801D01*
X54486003Y-25328799D01*
X54515001Y-25305001D01*
X54609974Y-25189276D01*
X54680546Y-25057247D01*
X54724003Y-24913986D01*
X54735000Y-24802333D01*
X54738677Y-24765000D01*
X54735000Y-24727667D01*
X54735000Y-6298043D01*
X54889759Y-6194637D01*
X55011694Y-6072702D01*
X55701903Y-6072702D01*
X55773486Y-6316671D01*
X56028996Y-6437571D01*
X56303184Y-6506300D01*
X56585512Y-6520217D01*
X56865130Y-6478787D01*
X57131292Y-6383603D01*
X57256514Y-6316671D01*
X57328097Y-6072702D01*
X56515000Y-5259605D01*
X55701903Y-6072702D01*
X55011694Y-6072702D01*
X55089637Y-5994759D01*
X55245915Y-5760872D01*
X55278329Y-5821514D01*
X55522298Y-5893097D01*
X56335395Y-5080000D01*
X55522298Y-4266903D01*
X55278329Y-4338486D01*
X55247806Y-4402992D01*
X55246680Y-4400273D01*
X55089637Y-4165241D01*
X54889759Y-3965363D01*
X54657241Y-3810000D01*
X54889759Y-3654637D01*
X55089637Y-3454759D01*
X55245000Y-3222241D01*
X55400363Y-3454759D01*
X55600241Y-3654637D01*
X55834128Y-3810915D01*
X55773486Y-3843329D01*
X55701903Y-4087298D01*
X56515000Y-4900395D01*
X57328097Y-4087298D01*
X57256514Y-3843329D01*
X57192008Y-3812806D01*
X57194727Y-3811680D01*
X57429759Y-3654637D01*
X57629637Y-3454759D01*
X57786680Y-3219727D01*
X57804993Y-3175515D01*
X57750000Y-3451984D01*
X57750000Y-4168016D01*
X57803016Y-4434547D01*
X57751671Y-4338486D01*
X57507702Y-4266903D01*
X56694605Y-5080000D01*
X57507702Y-5893097D01*
X57751671Y-5821514D01*
X57872571Y-5566004D01*
X57941300Y-5291816D01*
X57954380Y-5026464D01*
X58163705Y-5531818D01*
X58561511Y-6127177D01*
X59067823Y-6633489D01*
X59663182Y-7031295D01*
X60324710Y-7305309D01*
X61026984Y-7445000D01*
X61743016Y-7445000D01*
X62445290Y-7305309D01*
X63106818Y-7031295D01*
X63702177Y-6633489D01*
X64208489Y-6127177D01*
X64606295Y-5531818D01*
X64880309Y-4870290D01*
X65020000Y-4168016D01*
X65020000Y-3451984D01*
X64880309Y-2749710D01*
X64606295Y-2088182D01*
X64208489Y-1492823D01*
X63702177Y-986511D01*
X63677467Y-970000D01*
X81852721Y-970000D01*
X82338893Y-1017670D01*
%TA.AperFunction,Conductor*%
D16*
G36*
X82338893Y-1017670D02*
G01*
X82775498Y-1149489D01*
X83178185Y-1363600D01*
X83531612Y-1651848D01*
X83822327Y-2003261D01*
X84039242Y-2404439D01*
X84174106Y-2840113D01*
X84225001Y-3324353D01*
X84225000Y-53277721D01*
X84177330Y-53763894D01*
X84045512Y-54200497D01*
X83831399Y-54603186D01*
X83543150Y-54956613D01*
X83191739Y-55247327D01*
X82790564Y-55464240D01*
X82354886Y-55599106D01*
X81870664Y-55650000D01*
X63677467Y-55650000D01*
X63702177Y-55633489D01*
X64208489Y-55127177D01*
X64606295Y-54531818D01*
X64880309Y-53870290D01*
X65020000Y-53168016D01*
X65020000Y-52451984D01*
X64880309Y-51749710D01*
X64606295Y-51088182D01*
X64208489Y-50492823D01*
X63702177Y-49986511D01*
X63106818Y-49588705D01*
X62445290Y-49314691D01*
X61743016Y-49175000D01*
X61026984Y-49175000D01*
X60324710Y-49314691D01*
X59663182Y-49588705D01*
X59067823Y-49986511D01*
X58561511Y-50492823D01*
X58163705Y-51088182D01*
X57889691Y-51749710D01*
X57750000Y-52451984D01*
X57750000Y-53168016D01*
X57889691Y-53870290D01*
X58163705Y-54531818D01*
X58561511Y-55127177D01*
X59067823Y-55633489D01*
X59092533Y-55650000D01*
X5677467Y-55650000D01*
X5702177Y-55633489D01*
X6208489Y-55127177D01*
X6606295Y-54531818D01*
X6880309Y-53870290D01*
X7020000Y-53168016D01*
X7020000Y-52451984D01*
X6880309Y-51749710D01*
X6606295Y-51088182D01*
X6208489Y-50492823D01*
X5702177Y-49986511D01*
X5106818Y-49588705D01*
X4445290Y-49314691D01*
X3743016Y-49175000D01*
X3026984Y-49175000D01*
X2324710Y-49314691D01*
X1663182Y-49588705D01*
X1067823Y-49986511D01*
X561511Y-50492823D01*
X545000Y-50517533D01*
X545000Y-6102467D01*
X561511Y-6127177D01*
X1067823Y-6633489D01*
X1663182Y-7031295D01*
X2324710Y-7305309D01*
X3026984Y-7445000D01*
X3743016Y-7445000D01*
X4445290Y-7305309D01*
X5106818Y-7031295D01*
X5702177Y-6633489D01*
X6208489Y-6127177D01*
X6606295Y-5531818D01*
X6816928Y-5023305D01*
X6816928Y-5480000D01*
X6836874Y-5682518D01*
X6895947Y-5877253D01*
X6991875Y-6056722D01*
X7120972Y-6214028D01*
X7278278Y-6343125D01*
X7457747Y-6439053D01*
X7652482Y-6498126D01*
X7855000Y-6518072D01*
X8547560Y-6518072D01*
X9559105Y-7529618D01*
X9584472Y-7560528D01*
X9615380Y-7585893D01*
X9707810Y-7661749D01*
X9783024Y-7701951D01*
X9848527Y-7736963D01*
X10001212Y-7783280D01*
X10120209Y-7795000D01*
X10120212Y-7795000D01*
X10160000Y-7798919D01*
X10199788Y-7795000D01*
X14269488Y-7795000D01*
X15065000Y-8590513D01*
X15065001Y-16809486D01*
X14904488Y-16970000D01*
X12104791Y-16970000D01*
X12065000Y-16966081D01*
X11906212Y-16981720D01*
X11753526Y-17028037D01*
X11612811Y-17103251D01*
X11489472Y-17204472D01*
X11464107Y-17235380D01*
X2630388Y-26069100D01*
X2599472Y-26094472D01*
X2542679Y-26163676D01*
X2498251Y-26217811D01*
X2458049Y-26293025D01*
X2423037Y-26358528D01*
X2376720Y-26511213D01*
X2365000Y-26630209D01*
X2361081Y-26670000D01*
X2365000Y-26709788D01*
X2365001Y-43775202D01*
X2361081Y-43815000D01*
X2372310Y-43929002D01*
X2376721Y-43973788D01*
X2413418Y-44094759D01*
X2423038Y-44126473D01*
X2498251Y-44267189D01*
X2552292Y-44333037D01*
X2599473Y-44390528D01*
X2630383Y-44415895D01*
X3844105Y-45629618D01*
X3869472Y-45660528D01*
X3937210Y-45716119D01*
X3992810Y-45761749D01*
X4068024Y-45801951D01*
X4133527Y-45836963D01*
X4286212Y-45883280D01*
X4405209Y-45895000D01*
X4405211Y-45895000D01*
X4444999Y-45898919D01*
X4484787Y-45895000D01*
X31710212Y-45895000D01*
X31750000Y-45898919D01*
X31789788Y-45895000D01*
X31789791Y-45895000D01*
X31908788Y-45883280D01*
X32061473Y-45836963D01*
X32202189Y-45761749D01*
X32325528Y-45660528D01*
X32350899Y-45629613D01*
X33390093Y-44590420D01*
X33513665Y-44615000D01*
X33796335Y-44615000D01*
X34073574Y-44559853D01*
X34334727Y-44451680D01*
X34569759Y-44294637D01*
X34769637Y-44094759D01*
X34925000Y-43862241D01*
X35080363Y-44094759D01*
X35280241Y-44294637D01*
X35515273Y-44451680D01*
X35776426Y-44559853D01*
X36053665Y-44615000D01*
X36336335Y-44615000D01*
X36613574Y-44559853D01*
X36874727Y-44451680D01*
X37109759Y-44294637D01*
X37231694Y-44172702D01*
X37921903Y-44172702D01*
X37993486Y-44416671D01*
X38248996Y-44537571D01*
X38523184Y-44606300D01*
X38805512Y-44620217D01*
X39085130Y-44578787D01*
X39351292Y-44483603D01*
X39476514Y-44416671D01*
X39548097Y-44172702D01*
X38735000Y-43359605D01*
X37921903Y-44172702D01*
X37231694Y-44172702D01*
X37309637Y-44094759D01*
X37465915Y-43860872D01*
X37498329Y-43921514D01*
X37742298Y-43993097D01*
X38555395Y-43180000D01*
X37742298Y-42366903D01*
X37498329Y-42438486D01*
X37467806Y-42502992D01*
X37466680Y-42500273D01*
X37309637Y-42265241D01*
X37231694Y-42187298D01*
X37921903Y-42187298D01*
X38735000Y-43000395D01*
X39548097Y-42187298D01*
X39476514Y-41943329D01*
X39221004Y-41822429D01*
X38946816Y-41753700D01*
X38664488Y-41739783D01*
X38384870Y-41781213D01*
X38118708Y-41876397D01*
X37993486Y-41943329D01*
X37921903Y-42187298D01*
X37231694Y-42187298D01*
X37109759Y-42065363D01*
X36874727Y-41908320D01*
X36613574Y-41800147D01*
X36336335Y-41745000D01*
X36053665Y-41745000D01*
X35776426Y-41800147D01*
X35515273Y-41908320D01*
X35280241Y-42065363D01*
X35080363Y-42265241D01*
X34925000Y-42497759D01*
X34769637Y-42265241D01*
X34569759Y-42065363D01*
X34334727Y-41908320D01*
X34073574Y-41800147D01*
X33796335Y-41745000D01*
X33513665Y-41745000D01*
X33236426Y-41800147D01*
X32975273Y-41908320D01*
X32740241Y-42065363D01*
X32540363Y-42265241D01*
X32385000Y-42497759D01*
X32229637Y-42265241D01*
X32029759Y-42065363D01*
X31794727Y-41908320D01*
X31533574Y-41800147D01*
X31256335Y-41745000D01*
X30973665Y-41745000D01*
X30696426Y-41800147D01*
X30435273Y-41908320D01*
X30200241Y-42065363D01*
X30000363Y-42265241D01*
X29845000Y-42497759D01*
X29689637Y-42265241D01*
X29489759Y-42065363D01*
X29254727Y-41908320D01*
X28993574Y-41800147D01*
X28716335Y-41745000D01*
X28433665Y-41745000D01*
X28156426Y-41800147D01*
X27895273Y-41908320D01*
X27660241Y-42065363D01*
X27460363Y-42265241D01*
X27305000Y-42497759D01*
X27149637Y-42265241D01*
X26949759Y-42065363D01*
X26714727Y-41908320D01*
X26453574Y-41800147D01*
X26176335Y-41745000D01*
X25893665Y-41745000D01*
X25616426Y-41800147D01*
X25355273Y-41908320D01*
X25120241Y-42065363D01*
X24920363Y-42265241D01*
X24765000Y-42497759D01*
X24609637Y-42265241D01*
X24409759Y-42065363D01*
X24174727Y-41908320D01*
X23913574Y-41800147D01*
X23636335Y-41745000D01*
X23353665Y-41745000D01*
X23076426Y-41800147D01*
X22815273Y-41908320D01*
X22580241Y-42065363D01*
X22380363Y-42265241D01*
X22225000Y-42497759D01*
X22069637Y-42265241D01*
X21869759Y-42065363D01*
X21634727Y-41908320D01*
X21373574Y-41800147D01*
X21096335Y-41745000D01*
X20813665Y-41745000D01*
X20536426Y-41800147D01*
X20275273Y-41908320D01*
X20040241Y-42065363D01*
X19840363Y-42265241D01*
X19685000Y-42497759D01*
X19529637Y-42265241D01*
X19329759Y-42065363D01*
X19094727Y-41908320D01*
X18833574Y-41800147D01*
X18556335Y-41745000D01*
X18273665Y-41745000D01*
X17996426Y-41800147D01*
X17735273Y-41908320D01*
X17500241Y-42065363D01*
X17300363Y-42265241D01*
X17145000Y-42497759D01*
X16989637Y-42265241D01*
X16789759Y-42065363D01*
X16554727Y-41908320D01*
X16293574Y-41800147D01*
X16016335Y-41745000D01*
X15733665Y-41745000D01*
X15456426Y-41800147D01*
X15195273Y-41908320D01*
X14960241Y-42065363D01*
X14760363Y-42265241D01*
X14605000Y-42497759D01*
X14449637Y-42265241D01*
X14249759Y-42065363D01*
X14014727Y-41908320D01*
X13753574Y-41800147D01*
X13476335Y-41745000D01*
X13193665Y-41745000D01*
X12916426Y-41800147D01*
X12655273Y-41908320D01*
X12420241Y-42065363D01*
X12220363Y-42265241D01*
X12065000Y-42497759D01*
X11909637Y-42265241D01*
X11709759Y-42065363D01*
X11474727Y-41908320D01*
X11213574Y-41800147D01*
X10936335Y-41745000D01*
X10653665Y-41745000D01*
X10376426Y-41800147D01*
X10115273Y-41908320D01*
X9880241Y-42065363D01*
X9680363Y-42265241D01*
X9525000Y-42497759D01*
X9369637Y-42265241D01*
X9169759Y-42065363D01*
X8934727Y-41908320D01*
X8673574Y-41800147D01*
X8396335Y-41745000D01*
X8113665Y-41745000D01*
X7836426Y-41800147D01*
X7575273Y-41908320D01*
X7340241Y-42065363D01*
X7140363Y-42265241D01*
X6985000Y-42497759D01*
X6829637Y-42265241D01*
X6629759Y-42065363D01*
X6394727Y-41908320D01*
X6133574Y-41800147D01*
X5856335Y-41745000D01*
X5573665Y-41745000D01*
X5391114Y-41781312D01*
X5205000Y-41595199D01*
X5205000Y-29281983D01*
X5296426Y-29319853D01*
X5573665Y-29375000D01*
X5856335Y-29375000D01*
X6133574Y-29319853D01*
X6394727Y-29211680D01*
X6629759Y-29054637D01*
X6829637Y-28854759D01*
X6985000Y-28622241D01*
X7140363Y-28854759D01*
X7340241Y-29054637D01*
X7575273Y-29211680D01*
X7836426Y-29319853D01*
X8113665Y-29375000D01*
X8396335Y-29375000D01*
X8673574Y-29319853D01*
X8934727Y-29211680D01*
X9169759Y-29054637D01*
X9369637Y-28854759D01*
X9525000Y-28622241D01*
X9680363Y-28854759D01*
X9880241Y-29054637D01*
X10115273Y-29211680D01*
X10376426Y-29319853D01*
X10653665Y-29375000D01*
X10936335Y-29375000D01*
X11213574Y-29319853D01*
X11474727Y-29211680D01*
X11709759Y-29054637D01*
X11909637Y-28854759D01*
X12065000Y-28622241D01*
X12220363Y-28854759D01*
X12420241Y-29054637D01*
X12655273Y-29211680D01*
X12916426Y-29319853D01*
X13193665Y-29375000D01*
X13476335Y-29375000D01*
X13753574Y-29319853D01*
X14014727Y-29211680D01*
X14249759Y-29054637D01*
X14449637Y-28854759D01*
X14605000Y-28622241D01*
X14760363Y-28854759D01*
X14960241Y-29054637D01*
X15195273Y-29211680D01*
X15456426Y-29319853D01*
X15733665Y-29375000D01*
X16016335Y-29375000D01*
X16293574Y-29319853D01*
X16554727Y-29211680D01*
X16789759Y-29054637D01*
X16989637Y-28854759D01*
X17145000Y-28622241D01*
X17300363Y-28854759D01*
X17500241Y-29054637D01*
X17735273Y-29211680D01*
X17996426Y-29319853D01*
X18273665Y-29375000D01*
X18556335Y-29375000D01*
X18833574Y-29319853D01*
X19094727Y-29211680D01*
X19329759Y-29054637D01*
X19529637Y-28854759D01*
X19685000Y-28622241D01*
X19840363Y-28854759D01*
X20040241Y-29054637D01*
X20275273Y-29211680D01*
X20536426Y-29319853D01*
X20813665Y-29375000D01*
X21096335Y-29375000D01*
X21373574Y-29319853D01*
X21634727Y-29211680D01*
X21869759Y-29054637D01*
X22069637Y-28854759D01*
X22225000Y-28622241D01*
X22380363Y-28854759D01*
X22580241Y-29054637D01*
X22815273Y-29211680D01*
X23076426Y-29319853D01*
X23353665Y-29375000D01*
X23636335Y-29375000D01*
X23913574Y-29319853D01*
X24174727Y-29211680D01*
X24409759Y-29054637D01*
X24609637Y-28854759D01*
X24765000Y-28622241D01*
X24920363Y-28854759D01*
X25120241Y-29054637D01*
X25355273Y-29211680D01*
X25616426Y-29319853D01*
X25893665Y-29375000D01*
X26176335Y-29375000D01*
X26453574Y-29319853D01*
X26714727Y-29211680D01*
X26949759Y-29054637D01*
X27149637Y-28854759D01*
X27305000Y-28622241D01*
X27460363Y-28854759D01*
X27660241Y-29054637D01*
X27895273Y-29211680D01*
X28156426Y-29319853D01*
X28433665Y-29375000D01*
X28716335Y-29375000D01*
X28993574Y-29319853D01*
X29254727Y-29211680D01*
X29489759Y-29054637D01*
X29689637Y-28854759D01*
X29845000Y-28622241D01*
X30000363Y-28854759D01*
X30200241Y-29054637D01*
X30435273Y-29211680D01*
X30696426Y-29319853D01*
X30973665Y-29375000D01*
X31256335Y-29375000D01*
X31533574Y-29319853D01*
X31794727Y-29211680D01*
X32029759Y-29054637D01*
X32151694Y-28932702D01*
X32841903Y-28932702D01*
X32913486Y-29176671D01*
X33168996Y-29297571D01*
X33443184Y-29366300D01*
X33725512Y-29380217D01*
X34005130Y-29338787D01*
X34271292Y-29243603D01*
X34396514Y-29176671D01*
X34468097Y-28932702D01*
X33655000Y-28119605D01*
X32841903Y-28932702D01*
X32151694Y-28932702D01*
X32229637Y-28854759D01*
X32385915Y-28620872D01*
X32418329Y-28681514D01*
X32662298Y-28753097D01*
X33475395Y-27940000D01*
X32662298Y-27126903D01*
X32418329Y-27198486D01*
X32387806Y-27262992D01*
X32386680Y-27260273D01*
X32229637Y-27025241D01*
X32029759Y-26825363D01*
X31984317Y-26795000D01*
X32886589Y-26795000D01*
X32841903Y-26947298D01*
X33655000Y-27760395D01*
X34468097Y-26947298D01*
X34423411Y-26795000D01*
X35325683Y-26795000D01*
X35280241Y-26825363D01*
X35080363Y-27025241D01*
X34924085Y-27259128D01*
X34891671Y-27198486D01*
X34647702Y-27126903D01*
X33834605Y-27940000D01*
X34647702Y-28753097D01*
X34891671Y-28681514D01*
X34922194Y-28617008D01*
X34923320Y-28619727D01*
X35080363Y-28854759D01*
X35280241Y-29054637D01*
X35515273Y-29211680D01*
X35776426Y-29319853D01*
X36053665Y-29375000D01*
X36336335Y-29375000D01*
X36613574Y-29319853D01*
X36874727Y-29211680D01*
X37109759Y-29054637D01*
X37309637Y-28854759D01*
X37465000Y-28622241D01*
X37620363Y-28854759D01*
X37820241Y-29054637D01*
X38055273Y-29211680D01*
X38316426Y-29319853D01*
X38593665Y-29375000D01*
X38876335Y-29375000D01*
X39153574Y-29319853D01*
X39414727Y-29211680D01*
X39649759Y-29054637D01*
X39849637Y-28854759D01*
X40005000Y-28622241D01*
X40160363Y-28854759D01*
X40360241Y-29054637D01*
X40595273Y-29211680D01*
X40856426Y-29319853D01*
X41133665Y-29375000D01*
X41416335Y-29375000D01*
X41693574Y-29319853D01*
X41954727Y-29211680D01*
X42189759Y-29054637D01*
X42389637Y-28854759D01*
X42545000Y-28622241D01*
X42700363Y-28854759D01*
X42900241Y-29054637D01*
X43135273Y-29211680D01*
X43396426Y-29319853D01*
X43673665Y-29375000D01*
X43956335Y-29375000D01*
X44233574Y-29319853D01*
X44494727Y-29211680D01*
X44729759Y-29054637D01*
X44929637Y-28854759D01*
X45085000Y-28622241D01*
X45240363Y-28854759D01*
X45440241Y-29054637D01*
X45675273Y-29211680D01*
X45936426Y-29319853D01*
X46213665Y-29375000D01*
X46385199Y-29375000D01*
X43304003Y-32456196D01*
X43274999Y-32479999D01*
X43219871Y-32547174D01*
X43180026Y-32595724D01*
X43109455Y-32727753D01*
X43109454Y-32727754D01*
X43065997Y-32871015D01*
X43055000Y-32982668D01*
X43055000Y-32982678D01*
X43051324Y-33020000D01*
X43055000Y-33057322D01*
X43055001Y-41961956D01*
X42900241Y-42065363D01*
X42700363Y-42265241D01*
X42545000Y-42497759D01*
X42389637Y-42265241D01*
X42189759Y-42065363D01*
X41954727Y-41908320D01*
X41693574Y-41800147D01*
X41416335Y-41745000D01*
X41133665Y-41745000D01*
X40856426Y-41800147D01*
X40595273Y-41908320D01*
X40360241Y-42065363D01*
X40160363Y-42265241D01*
X40004085Y-42499128D01*
X39971671Y-42438486D01*
X39727702Y-42366903D01*
X38914605Y-43180000D01*
X39727702Y-43993097D01*
X39971671Y-43921514D01*
X40002194Y-43857008D01*
X40003320Y-43859727D01*
X40160363Y-44094759D01*
X40360241Y-44294637D01*
X40595273Y-44451680D01*
X40856426Y-44559853D01*
X41133665Y-44615000D01*
X41416335Y-44615000D01*
X41693574Y-44559853D01*
X41954727Y-44451680D01*
X42189759Y-44294637D01*
X42389637Y-44094759D01*
X42545000Y-43862241D01*
X42700363Y-44094759D01*
X42900241Y-44294637D01*
X43135273Y-44451680D01*
X43396426Y-44559853D01*
X43673665Y-44615000D01*
X43956335Y-44615000D01*
X44233574Y-44559853D01*
X44494727Y-44451680D01*
X44729759Y-44294637D01*
X44929637Y-44094759D01*
X45085000Y-43862241D01*
X45240363Y-44094759D01*
X45440241Y-44294637D01*
X45675273Y-44451680D01*
X45936426Y-44559853D01*
X46213665Y-44615000D01*
X46496335Y-44615000D01*
X46773574Y-44559853D01*
X47034727Y-44451680D01*
X47269759Y-44294637D01*
X47469637Y-44094759D01*
X47626680Y-43859727D01*
X47734853Y-43598574D01*
X47790000Y-43321335D01*
X47790000Y-43038665D01*
X47734853Y-42761426D01*
X47626680Y-42500273D01*
X47469637Y-42265241D01*
X47269759Y-42065363D01*
X47034727Y-41908320D01*
X46773574Y-41800147D01*
X46496335Y-41745000D01*
X46213665Y-41745000D01*
X46031114Y-41781312D01*
X45845000Y-41595199D01*
X45845000Y-33969801D01*
X54486003Y-25328799D01*
X54515001Y-25305001D01*
X54609974Y-25189276D01*
X54680546Y-25057247D01*
X54724003Y-24913986D01*
X54735000Y-24802333D01*
X54738677Y-24765000D01*
X54735000Y-24727667D01*
X54735000Y-6298043D01*
X54889759Y-6194637D01*
X55011694Y-6072702D01*
X55701903Y-6072702D01*
X55773486Y-6316671D01*
X56028996Y-6437571D01*
X56303184Y-6506300D01*
X56585512Y-6520217D01*
X56865130Y-6478787D01*
X57131292Y-6383603D01*
X57256514Y-6316671D01*
X57328097Y-6072702D01*
X56515000Y-5259605D01*
X55701903Y-6072702D01*
X55011694Y-6072702D01*
X55089637Y-5994759D01*
X55245915Y-5760872D01*
X55278329Y-5821514D01*
X55522298Y-5893097D01*
X56335395Y-5080000D01*
X55522298Y-4266903D01*
X55278329Y-4338486D01*
X55247806Y-4402992D01*
X55246680Y-4400273D01*
X55089637Y-4165241D01*
X54889759Y-3965363D01*
X54657241Y-3810000D01*
X54889759Y-3654637D01*
X55089637Y-3454759D01*
X55245000Y-3222241D01*
X55400363Y-3454759D01*
X55600241Y-3654637D01*
X55834128Y-3810915D01*
X55773486Y-3843329D01*
X55701903Y-4087298D01*
X56515000Y-4900395D01*
X57328097Y-4087298D01*
X57256514Y-3843329D01*
X57192008Y-3812806D01*
X57194727Y-3811680D01*
X57429759Y-3654637D01*
X57629637Y-3454759D01*
X57786680Y-3219727D01*
X57804993Y-3175515D01*
X57750000Y-3451984D01*
X57750000Y-4168016D01*
X57803016Y-4434547D01*
X57751671Y-4338486D01*
X57507702Y-4266903D01*
X56694605Y-5080000D01*
X57507702Y-5893097D01*
X57751671Y-5821514D01*
X57872571Y-5566004D01*
X57941300Y-5291816D01*
X57954380Y-5026464D01*
X58163705Y-5531818D01*
X58561511Y-6127177D01*
X59067823Y-6633489D01*
X59663182Y-7031295D01*
X60324710Y-7305309D01*
X61026984Y-7445000D01*
X61743016Y-7445000D01*
X62445290Y-7305309D01*
X63106818Y-7031295D01*
X63702177Y-6633489D01*
X64208489Y-6127177D01*
X64606295Y-5531818D01*
X64880309Y-4870290D01*
X65020000Y-4168016D01*
X65020000Y-3451984D01*
X64880309Y-2749710D01*
X64606295Y-2088182D01*
X64208489Y-1492823D01*
X63702177Y-986511D01*
X63677467Y-970000D01*
X81852721Y-970000D01*
X82338893Y-1017670D01*
G37*
%TD.AperFunction*%
D15*
X40160363Y-3454759D02*
X40360241Y-3654637D01*
X40592759Y-3810000D01*
X40360241Y-3965363D01*
X40160363Y-4165241D01*
X40004085Y-4399128D01*
X39971671Y-4338486D01*
X39727702Y-4266903D01*
X38914605Y-5080000D01*
X39727702Y-5893097D01*
X39971671Y-5821514D01*
X40002194Y-5757008D01*
X40003320Y-5759727D01*
X40160363Y-5994759D01*
X40360241Y-6194637D01*
X40595273Y-6351680D01*
X40856426Y-6459853D01*
X41133665Y-6515000D01*
X41416335Y-6515000D01*
X41693574Y-6459853D01*
X41954727Y-6351680D01*
X42189759Y-6194637D01*
X42389637Y-5994759D01*
X42545000Y-5762241D01*
X42700363Y-5994759D01*
X42900241Y-6194637D01*
X43135273Y-6351680D01*
X43396426Y-6459853D01*
X43673665Y-6515000D01*
X43956335Y-6515000D01*
X44138886Y-6478688D01*
X44325001Y-6664803D01*
X44325000Y-21275198D01*
X42865199Y-22735000D01*
X32949801Y-22735000D01*
X34166003Y-21518799D01*
X34195001Y-21495001D01*
X34289974Y-21379276D01*
X34360546Y-21247247D01*
X34404003Y-21103986D01*
X34415000Y-20992333D01*
X34415000Y-20992323D01*
X34418676Y-20955000D01*
X34415000Y-20917677D01*
X34415000Y-9839801D01*
X36706008Y-7548795D01*
X36735001Y-7525001D01*
X36758795Y-7496008D01*
X36758799Y-7496004D01*
X36829973Y-7409277D01*
X36829974Y-7409276D01*
X36900546Y-7277247D01*
X36944003Y-7133986D01*
X36955000Y-7022333D01*
X36955000Y-7022324D01*
X36958676Y-6985001D01*
X36955000Y-6947678D01*
X36955000Y-6298043D01*
X37109759Y-6194637D01*
X37231694Y-6072702D01*
X37921903Y-6072702D01*
X37993486Y-6316671D01*
X38248996Y-6437571D01*
X38523184Y-6506300D01*
X38805512Y-6520217D01*
X39085130Y-6478787D01*
X39351292Y-6383603D01*
X39476514Y-6316671D01*
X39548097Y-6072702D01*
X38735000Y-5259605D01*
X37921903Y-6072702D01*
X37231694Y-6072702D01*
X37309637Y-5994759D01*
X37465915Y-5760872D01*
X37498329Y-5821514D01*
X37742298Y-5893097D01*
X38555395Y-5080000D01*
X37742298Y-4266903D01*
X37498329Y-4338486D01*
X37467806Y-4402992D01*
X37466680Y-4400273D01*
X37309637Y-4165241D01*
X37109759Y-3965363D01*
X36877241Y-3810000D01*
X37109759Y-3654637D01*
X37309637Y-3454759D01*
X37465000Y-3222241D01*
X37620363Y-3454759D01*
X37820241Y-3654637D01*
X38054128Y-3810915D01*
X37993486Y-3843329D01*
X37921903Y-4087298D01*
X38735000Y-4900395D01*
X39548097Y-4087298D01*
X39476514Y-3843329D01*
X39412008Y-3812806D01*
X39414727Y-3811680D01*
X39649759Y-3654637D01*
X39849637Y-3454759D01*
X40005000Y-3222241D01*
X40160363Y-3454759D01*
%TA.AperFunction,Conductor*%
D16*
G36*
X40160363Y-3454759D02*
G01*
X40360241Y-3654637D01*
X40592759Y-3810000D01*
X40360241Y-3965363D01*
X40160363Y-4165241D01*
X40004085Y-4399128D01*
X39971671Y-4338486D01*
X39727702Y-4266903D01*
X38914605Y-5080000D01*
X39727702Y-5893097D01*
X39971671Y-5821514D01*
X40002194Y-5757008D01*
X40003320Y-5759727D01*
X40160363Y-5994759D01*
X40360241Y-6194637D01*
X40595273Y-6351680D01*
X40856426Y-6459853D01*
X41133665Y-6515000D01*
X41416335Y-6515000D01*
X41693574Y-6459853D01*
X41954727Y-6351680D01*
X42189759Y-6194637D01*
X42389637Y-5994759D01*
X42545000Y-5762241D01*
X42700363Y-5994759D01*
X42900241Y-6194637D01*
X43135273Y-6351680D01*
X43396426Y-6459853D01*
X43673665Y-6515000D01*
X43956335Y-6515000D01*
X44138886Y-6478688D01*
X44325001Y-6664803D01*
X44325000Y-21275198D01*
X42865199Y-22735000D01*
X32949801Y-22735000D01*
X34166003Y-21518799D01*
X34195001Y-21495001D01*
X34289974Y-21379276D01*
X34360546Y-21247247D01*
X34404003Y-21103986D01*
X34415000Y-20992333D01*
X34415000Y-20992323D01*
X34418676Y-20955000D01*
X34415000Y-20917677D01*
X34415000Y-9839801D01*
X36706008Y-7548795D01*
X36735001Y-7525001D01*
X36758795Y-7496008D01*
X36758799Y-7496004D01*
X36829973Y-7409277D01*
X36829974Y-7409276D01*
X36900546Y-7277247D01*
X36944003Y-7133986D01*
X36955000Y-7022333D01*
X36955000Y-7022324D01*
X36958676Y-6985001D01*
X36955000Y-6947678D01*
X36955000Y-6298043D01*
X37109759Y-6194637D01*
X37231694Y-6072702D01*
X37921903Y-6072702D01*
X37993486Y-6316671D01*
X38248996Y-6437571D01*
X38523184Y-6506300D01*
X38805512Y-6520217D01*
X39085130Y-6478787D01*
X39351292Y-6383603D01*
X39476514Y-6316671D01*
X39548097Y-6072702D01*
X38735000Y-5259605D01*
X37921903Y-6072702D01*
X37231694Y-6072702D01*
X37309637Y-5994759D01*
X37465915Y-5760872D01*
X37498329Y-5821514D01*
X37742298Y-5893097D01*
X38555395Y-5080000D01*
X37742298Y-4266903D01*
X37498329Y-4338486D01*
X37467806Y-4402992D01*
X37466680Y-4400273D01*
X37309637Y-4165241D01*
X37109759Y-3965363D01*
X36877241Y-3810000D01*
X37109759Y-3654637D01*
X37309637Y-3454759D01*
X37465000Y-3222241D01*
X37620363Y-3454759D01*
X37820241Y-3654637D01*
X38054128Y-3810915D01*
X37993486Y-3843329D01*
X37921903Y-4087298D01*
X38735000Y-4900395D01*
X39548097Y-4087298D01*
X39476514Y-3843329D01*
X39412008Y-3812806D01*
X39414727Y-3811680D01*
X39649759Y-3654637D01*
X39849637Y-3454759D01*
X40005000Y-3222241D01*
X40160363Y-3454759D01*
G37*
%TD.AperFunction*%
D15*
X18608748Y-5065858D02*
X18594605Y-5080000D01*
X18608748Y-5094143D01*
X18429143Y-5273748D01*
X18415000Y-5259605D01*
X18400858Y-5273748D01*
X18221253Y-5094143D01*
X18235395Y-5080000D01*
X18221253Y-5065858D01*
X18400858Y-4886253D01*
X18415000Y-4900395D01*
X18429143Y-4886253D01*
X18608748Y-5065858D01*
%TA.AperFunction,Conductor*%
D16*
G36*
X18608748Y-5065858D02*
G01*
X18594605Y-5080000D01*
X18608748Y-5094143D01*
X18429143Y-5273748D01*
X18415000Y-5259605D01*
X18400858Y-5273748D01*
X18221253Y-5094143D01*
X18235395Y-5080000D01*
X18221253Y-5065858D01*
X18400858Y-4886253D01*
X18415000Y-4900395D01*
X18429143Y-4886253D01*
X18608748Y-5065858D01*
G37*
%TD.AperFunction*%
D15*
X13528748Y-2525858D02*
X13514605Y-2540000D01*
X14327702Y-3353097D01*
X14571671Y-3281514D01*
X14602194Y-3217008D01*
X14603320Y-3219727D01*
X14760363Y-3454759D01*
X14960241Y-3654637D01*
X15192759Y-3810000D01*
X14960241Y-3965363D01*
X14760363Y-4165241D01*
X14605000Y-4397759D01*
X14449637Y-4165241D01*
X14249759Y-3965363D01*
X14015872Y-3809085D01*
X14076514Y-3776671D01*
X14148097Y-3532702D01*
X13335000Y-2719605D01*
X12521903Y-3532702D01*
X12593486Y-3776671D01*
X12657992Y-3807194D01*
X12655273Y-3808320D01*
X12420241Y-3965363D01*
X12220363Y-4165241D01*
X12065000Y-4397759D01*
X11909637Y-4165241D01*
X11709759Y-3965363D01*
X11477241Y-3810000D01*
X11709759Y-3654637D01*
X11909637Y-3454759D01*
X12065915Y-3220872D01*
X12098329Y-3281514D01*
X12342298Y-3353097D01*
X13155395Y-2540000D01*
X13141253Y-2525858D01*
X13320858Y-2346253D01*
X13335000Y-2360395D01*
X13349143Y-2346253D01*
X13528748Y-2525858D01*
%TA.AperFunction,Conductor*%
D16*
G36*
X13528748Y-2525858D02*
G01*
X13514605Y-2540000D01*
X14327702Y-3353097D01*
X14571671Y-3281514D01*
X14602194Y-3217008D01*
X14603320Y-3219727D01*
X14760363Y-3454759D01*
X14960241Y-3654637D01*
X15192759Y-3810000D01*
X14960241Y-3965363D01*
X14760363Y-4165241D01*
X14605000Y-4397759D01*
X14449637Y-4165241D01*
X14249759Y-3965363D01*
X14015872Y-3809085D01*
X14076514Y-3776671D01*
X14148097Y-3532702D01*
X13335000Y-2719605D01*
X12521903Y-3532702D01*
X12593486Y-3776671D01*
X12657992Y-3807194D01*
X12655273Y-3808320D01*
X12420241Y-3965363D01*
X12220363Y-4165241D01*
X12065000Y-4397759D01*
X11909637Y-4165241D01*
X11709759Y-3965363D01*
X11477241Y-3810000D01*
X11709759Y-3654637D01*
X11909637Y-3454759D01*
X12065915Y-3220872D01*
X12098329Y-3281514D01*
X12342298Y-3353097D01*
X13155395Y-2540000D01*
X13141253Y-2525858D01*
X13320858Y-2346253D01*
X13335000Y-2360395D01*
X13349143Y-2346253D01*
X13528748Y-2525858D01*
G37*
%TD.AperFunction*%
D15*
X31308748Y-2525858D02*
X31294605Y-2540000D01*
X31308748Y-2554143D01*
X31129143Y-2733748D01*
X31115000Y-2719605D01*
X30301903Y-3532702D01*
X30373486Y-3776671D01*
X30437992Y-3807194D01*
X30435273Y-3808320D01*
X30200241Y-3965363D01*
X30000363Y-4165241D01*
X29845000Y-4397759D01*
X29689637Y-4165241D01*
X29489759Y-3965363D01*
X29257241Y-3810000D01*
X29489759Y-3654637D01*
X29689637Y-3454759D01*
X29845915Y-3220872D01*
X29878329Y-3281514D01*
X30122298Y-3353097D01*
X30935395Y-2540000D01*
X30921253Y-2525858D01*
X31100858Y-2346253D01*
X31115000Y-2360395D01*
X31129143Y-2346253D01*
X31308748Y-2525858D01*
%TA.AperFunction,Conductor*%
D16*
G36*
X31308748Y-2525858D02*
G01*
X31294605Y-2540000D01*
X31308748Y-2554143D01*
X31129143Y-2733748D01*
X31115000Y-2719605D01*
X30301903Y-3532702D01*
X30373486Y-3776671D01*
X30437992Y-3807194D01*
X30435273Y-3808320D01*
X30200241Y-3965363D01*
X30000363Y-4165241D01*
X29845000Y-4397759D01*
X29689637Y-4165241D01*
X29489759Y-3965363D01*
X29257241Y-3810000D01*
X29489759Y-3654637D01*
X29689637Y-3454759D01*
X29845915Y-3220872D01*
X29878329Y-3281514D01*
X30122298Y-3353097D01*
X30935395Y-2540000D01*
X30921253Y-2525858D01*
X31100858Y-2346253D01*
X31115000Y-2360395D01*
X31129143Y-2346253D01*
X31308748Y-2525858D01*
G37*
%TD.AperFunction*%
D15*
X59067823Y-986511D02*
X58561511Y-1492823D01*
X58163705Y-2088182D01*
X57950000Y-2604111D01*
X57950000Y-2398665D01*
X57894853Y-2121426D01*
X57786680Y-1860273D01*
X57629637Y-1625241D01*
X57429759Y-1425363D01*
X57194727Y-1268320D01*
X56933574Y-1160147D01*
X56656335Y-1105000D01*
X56373665Y-1105000D01*
X56096426Y-1160147D01*
X55835273Y-1268320D01*
X55600241Y-1425363D01*
X55400363Y-1625241D01*
X55245000Y-1857759D01*
X55089637Y-1625241D01*
X54889759Y-1425363D01*
X54654727Y-1268320D01*
X54393574Y-1160147D01*
X54116335Y-1105000D01*
X53833665Y-1105000D01*
X53556426Y-1160147D01*
X53295273Y-1268320D01*
X53060241Y-1425363D01*
X52860363Y-1625241D01*
X52705000Y-1857759D01*
X52549637Y-1625241D01*
X52349759Y-1425363D01*
X52114727Y-1268320D01*
X51853574Y-1160147D01*
X51576335Y-1105000D01*
X51293665Y-1105000D01*
X51016426Y-1160147D01*
X50755273Y-1268320D01*
X50520241Y-1425363D01*
X50320363Y-1625241D01*
X50164085Y-1859128D01*
X50131671Y-1798486D01*
X49887702Y-1726903D01*
X49074605Y-2540000D01*
X49088748Y-2554143D01*
X48909143Y-2733748D01*
X48895000Y-2719605D01*
X48880858Y-2733748D01*
X48701253Y-2554143D01*
X48715395Y-2540000D01*
X47902298Y-1726903D01*
X47658329Y-1798486D01*
X47627806Y-1862992D01*
X47626680Y-1860273D01*
X47469637Y-1625241D01*
X47391694Y-1547298D01*
X48081903Y-1547298D01*
X48895000Y-2360395D01*
X49708097Y-1547298D01*
X49636514Y-1303329D01*
X49381004Y-1182429D01*
X49106816Y-1113700D01*
X48824488Y-1099783D01*
X48544870Y-1141213D01*
X48278708Y-1236397D01*
X48153486Y-1303329D01*
X48081903Y-1547298D01*
X47391694Y-1547298D01*
X47269759Y-1425363D01*
X47034727Y-1268320D01*
X46773574Y-1160147D01*
X46496335Y-1105000D01*
X46213665Y-1105000D01*
X45936426Y-1160147D01*
X45675273Y-1268320D01*
X45440241Y-1425363D01*
X45240363Y-1625241D01*
X45084085Y-1859128D01*
X45051671Y-1798486D01*
X44807702Y-1726903D01*
X43994605Y-2540000D01*
X44807702Y-3353097D01*
X45051671Y-3281514D01*
X45082194Y-3217008D01*
X45083320Y-3219727D01*
X45240363Y-3454759D01*
X45440241Y-3654637D01*
X45672759Y-3810000D01*
X45440241Y-3965363D01*
X45240363Y-4165241D01*
X45085000Y-4397759D01*
X44929637Y-4165241D01*
X44729759Y-3965363D01*
X44495872Y-3809085D01*
X44556514Y-3776671D01*
X44628097Y-3532702D01*
X43815000Y-2719605D01*
X43001903Y-3532702D01*
X43073486Y-3776671D01*
X43137992Y-3807194D01*
X43135273Y-3808320D01*
X42900241Y-3965363D01*
X42700363Y-4165241D01*
X42545000Y-4397759D01*
X42389637Y-4165241D01*
X42189759Y-3965363D01*
X41957241Y-3810000D01*
X42189759Y-3654637D01*
X42389637Y-3454759D01*
X42545915Y-3220872D01*
X42578329Y-3281514D01*
X42822298Y-3353097D01*
X43635395Y-2540000D01*
X42822298Y-1726903D01*
X42578329Y-1798486D01*
X42547806Y-1862992D01*
X42546680Y-1860273D01*
X42389637Y-1625241D01*
X42311694Y-1547298D01*
X43001903Y-1547298D01*
X43815000Y-2360395D01*
X44628097Y-1547298D01*
X44556514Y-1303329D01*
X44301004Y-1182429D01*
X44026816Y-1113700D01*
X43744488Y-1099783D01*
X43464870Y-1141213D01*
X43198708Y-1236397D01*
X43073486Y-1303329D01*
X43001903Y-1547298D01*
X42311694Y-1547298D01*
X42189759Y-1425363D01*
X41954727Y-1268320D01*
X41693574Y-1160147D01*
X41416335Y-1105000D01*
X41133665Y-1105000D01*
X40856426Y-1160147D01*
X40595273Y-1268320D01*
X40360241Y-1425363D01*
X40160363Y-1625241D01*
X40005000Y-1857759D01*
X39849637Y-1625241D01*
X39649759Y-1425363D01*
X39414727Y-1268320D01*
X39153574Y-1160147D01*
X38876335Y-1105000D01*
X38593665Y-1105000D01*
X38411114Y-1141312D01*
X38239801Y-970000D01*
X59092533Y-970000D01*
X59067823Y-986511D01*
%TA.AperFunction,Conductor*%
D16*
G36*
X59067823Y-986511D02*
G01*
X58561511Y-1492823D01*
X58163705Y-2088182D01*
X57950000Y-2604111D01*
X57950000Y-2398665D01*
X57894853Y-2121426D01*
X57786680Y-1860273D01*
X57629637Y-1625241D01*
X57429759Y-1425363D01*
X57194727Y-1268320D01*
X56933574Y-1160147D01*
X56656335Y-1105000D01*
X56373665Y-1105000D01*
X56096426Y-1160147D01*
X55835273Y-1268320D01*
X55600241Y-1425363D01*
X55400363Y-1625241D01*
X55245000Y-1857759D01*
X55089637Y-1625241D01*
X54889759Y-1425363D01*
X54654727Y-1268320D01*
X54393574Y-1160147D01*
X54116335Y-1105000D01*
X53833665Y-1105000D01*
X53556426Y-1160147D01*
X53295273Y-1268320D01*
X53060241Y-1425363D01*
X52860363Y-1625241D01*
X52705000Y-1857759D01*
X52549637Y-1625241D01*
X52349759Y-1425363D01*
X52114727Y-1268320D01*
X51853574Y-1160147D01*
X51576335Y-1105000D01*
X51293665Y-1105000D01*
X51016426Y-1160147D01*
X50755273Y-1268320D01*
X50520241Y-1425363D01*
X50320363Y-1625241D01*
X50164085Y-1859128D01*
X50131671Y-1798486D01*
X49887702Y-1726903D01*
X49074605Y-2540000D01*
X49088748Y-2554143D01*
X48909143Y-2733748D01*
X48895000Y-2719605D01*
X48880858Y-2733748D01*
X48701253Y-2554143D01*
X48715395Y-2540000D01*
X47902298Y-1726903D01*
X47658329Y-1798486D01*
X47627806Y-1862992D01*
X47626680Y-1860273D01*
X47469637Y-1625241D01*
X47391694Y-1547298D01*
X48081903Y-1547298D01*
X48895000Y-2360395D01*
X49708097Y-1547298D01*
X49636514Y-1303329D01*
X49381004Y-1182429D01*
X49106816Y-1113700D01*
X48824488Y-1099783D01*
X48544870Y-1141213D01*
X48278708Y-1236397D01*
X48153486Y-1303329D01*
X48081903Y-1547298D01*
X47391694Y-1547298D01*
X47269759Y-1425363D01*
X47034727Y-1268320D01*
X46773574Y-1160147D01*
X46496335Y-1105000D01*
X46213665Y-1105000D01*
X45936426Y-1160147D01*
X45675273Y-1268320D01*
X45440241Y-1425363D01*
X45240363Y-1625241D01*
X45084085Y-1859128D01*
X45051671Y-1798486D01*
X44807702Y-1726903D01*
X43994605Y-2540000D01*
X44807702Y-3353097D01*
X45051671Y-3281514D01*
X45082194Y-3217008D01*
X45083320Y-3219727D01*
X45240363Y-3454759D01*
X45440241Y-3654637D01*
X45672759Y-3810000D01*
X45440241Y-3965363D01*
X45240363Y-4165241D01*
X45085000Y-4397759D01*
X44929637Y-4165241D01*
X44729759Y-3965363D01*
X44495872Y-3809085D01*
X44556514Y-3776671D01*
X44628097Y-3532702D01*
X43815000Y-2719605D01*
X43001903Y-3532702D01*
X43073486Y-3776671D01*
X43137992Y-3807194D01*
X43135273Y-3808320D01*
X42900241Y-3965363D01*
X42700363Y-4165241D01*
X42545000Y-4397759D01*
X42389637Y-4165241D01*
X42189759Y-3965363D01*
X41957241Y-3810000D01*
X42189759Y-3654637D01*
X42389637Y-3454759D01*
X42545915Y-3220872D01*
X42578329Y-3281514D01*
X42822298Y-3353097D01*
X43635395Y-2540000D01*
X42822298Y-1726903D01*
X42578329Y-1798486D01*
X42547806Y-1862992D01*
X42546680Y-1860273D01*
X42389637Y-1625241D01*
X42311694Y-1547298D01*
X43001903Y-1547298D01*
X43815000Y-2360395D01*
X44628097Y-1547298D01*
X44556514Y-1303329D01*
X44301004Y-1182429D01*
X44026816Y-1113700D01*
X43744488Y-1099783D01*
X43464870Y-1141213D01*
X43198708Y-1236397D01*
X43073486Y-1303329D01*
X43001903Y-1547298D01*
X42311694Y-1547298D01*
X42189759Y-1425363D01*
X41954727Y-1268320D01*
X41693574Y-1160147D01*
X41416335Y-1105000D01*
X41133665Y-1105000D01*
X40856426Y-1160147D01*
X40595273Y-1268320D01*
X40360241Y-1425363D01*
X40160363Y-1625241D01*
X40005000Y-1857759D01*
X39849637Y-1625241D01*
X39649759Y-1425363D01*
X39414727Y-1268320D01*
X39153574Y-1160147D01*
X38876335Y-1105000D01*
X38593665Y-1105000D01*
X38411114Y-1141312D01*
X38239801Y-970000D01*
X59092533Y-970000D01*
X59067823Y-986511D01*
G37*
%TD.AperFunction*%
D15*
X23688748Y-2525858D02*
X23674605Y-2540000D01*
X23688748Y-2554143D01*
X23509143Y-2733748D01*
X23495000Y-2719605D01*
X23480858Y-2733748D01*
X23301253Y-2554143D01*
X23315395Y-2540000D01*
X23301253Y-2525858D01*
X23480858Y-2346253D01*
X23495000Y-2360395D01*
X23509143Y-2346253D01*
X23688748Y-2525858D01*
%TA.AperFunction,Conductor*%
D16*
G36*
X23688748Y-2525858D02*
G01*
X23674605Y-2540000D01*
X23688748Y-2554143D01*
X23509143Y-2733748D01*
X23495000Y-2719605D01*
X23480858Y-2733748D01*
X23301253Y-2554143D01*
X23315395Y-2540000D01*
X23301253Y-2525858D01*
X23480858Y-2346253D01*
X23495000Y-2360395D01*
X23509143Y-2346253D01*
X23688748Y-2525858D01*
G37*
%TD.AperFunction*%
%TD*%
M02*
