%TF.GenerationSoftware,KiCad,Pcbnew,(5.1.12)-1*%
%TF.CreationDate,2022-01-13T19:50:35+01:00*%
%TF.ProjectId,GrasPiB_v1,47726173-5069-4425-9f76-312e6b696361,2*%
%TF.SameCoordinates,PX6779420PY3305860*%
%TF.FileFunction,Copper,L2,Bot*%
%TF.FilePolarity,Positive*%
%FSLAX46Y46*%
G04 Gerber Fmt 4.6, Leading zero omitted, Abs format (unit mm)*
G04 Created by KiCad (PCBNEW (5.1.12)-1) date 2022-01-13 19:50:35*
%MOMM*%
%LPD*%
G01*
G04 APERTURE LIST*
%TA.AperFunction,ComponentPad*%
%ADD10O,1.750000X1.200000*%
%TD*%
%TA.AperFunction,ComponentPad*%
%ADD11C,1.600000*%
%TD*%
%TA.AperFunction,WasherPad*%
%ADD12C,6.000000*%
%TD*%
%TA.AperFunction,ComponentPad*%
%ADD13O,1.700000X1.700000*%
%TD*%
%TA.AperFunction,ComponentPad*%
%ADD14R,1.700000X1.700000*%
%TD*%
%TA.AperFunction,ComponentPad*%
%ADD15C,1.700000*%
%TD*%
%TA.AperFunction,ComponentPad*%
%ADD16C,2.400000*%
%TD*%
%TA.AperFunction,ComponentPad*%
%ADD17R,2.400000X2.400000*%
%TD*%
%TA.AperFunction,ComponentPad*%
%ADD18O,1.200000X1.750000*%
%TD*%
%TA.AperFunction,ComponentPad*%
%ADD19O,2.000000X1.500000*%
%TD*%
%TA.AperFunction,ComponentPad*%
%ADD20C,6.000000*%
%TD*%
%TA.AperFunction,ComponentPad*%
%ADD21R,1.600000X1.600000*%
%TD*%
%TA.AperFunction,ComponentPad*%
%ADD22C,4.000000*%
%TD*%
%TA.AperFunction,ViaPad*%
%ADD23C,0.800000*%
%TD*%
%TA.AperFunction,ViaPad*%
%ADD24C,1.200000*%
%TD*%
%TA.AperFunction,Conductor*%
%ADD25C,0.250000*%
%TD*%
%TA.AperFunction,Conductor*%
%ADD26C,0.750000*%
%TD*%
%TA.AperFunction,Conductor*%
%ADD27C,0.500000*%
%TD*%
G04 APERTURE END LIST*
D10*
%TO.P,J4,5*%
%TO.N,GND*%
X3500000Y-22000000D03*
%TO.P,J4,4*%
%TO.N,GPIO17*%
X3500000Y-20000000D03*
%TO.P,J4,3*%
%TO.N,SCL*%
X3500000Y-18000000D03*
%TO.P,J4,2*%
%TO.N,SDA*%
X3500000Y-16000000D03*
%TO.P,J4,1*%
%TO.N,Net-(J4-Pad1)*%
%TA.AperFunction,ComponentPad*%
G36*
G01*
X2874999Y-13400000D02*
X4125001Y-13400000D01*
G75*
G02*
X4375000Y-13649999I0J-249999D01*
G01*
X4375000Y-14350001D01*
G75*
G02*
X4125001Y-14600000I-249999J0D01*
G01*
X2874999Y-14600000D01*
G75*
G02*
X2625000Y-14350001I0J249999D01*
G01*
X2625000Y-13649999D01*
G75*
G02*
X2874999Y-13400000I249999J0D01*
G01*
G37*
%TD.AperFunction*%
%TD*%
%TO.P,U1,1*%
%TO.N,+3V3*%
%TA.AperFunction,ComponentPad*%
G36*
G01*
X7570000Y-5170000D02*
X7570000Y-4370000D01*
G75*
G02*
X7970000Y-3970000I400000J0D01*
G01*
X8770000Y-3970000D01*
G75*
G02*
X9170000Y-4370000I0J-400000D01*
G01*
X9170000Y-5170000D01*
G75*
G02*
X8770000Y-5570000I-400000J0D01*
G01*
X7970000Y-5570000D01*
G75*
G02*
X7570000Y-5170000I0J400000D01*
G01*
G37*
%TD.AperFunction*%
D11*
%TO.P,U1,2*%
%TO.N,+5V*%
X8370000Y-2230000D03*
%TO.P,U1,3*%
%TO.N,SDA*%
X10910000Y-4770000D03*
%TO.P,U1,4*%
%TO.N,+5V*%
X10910000Y-2230000D03*
%TO.P,U1,5*%
%TO.N,SCL*%
X13450000Y-4770000D03*
%TO.P,U1,6*%
%TO.N,GND*%
X13450000Y-2230000D03*
%TO.P,U1,7*%
%TO.N,/A_LED*%
X15990000Y-4770000D03*
%TO.P,U1,8*%
%TO.N,UART_TX*%
X15990000Y-2230000D03*
%TO.P,U1,9*%
%TO.N,GND*%
X18530000Y-4770000D03*
%TO.P,U1,10*%
%TO.N,UART_RX*%
X18530000Y-2230000D03*
%TO.P,U1,11*%
%TO.N,GPIO17*%
X21070000Y-4770000D03*
%TO.P,U1,12*%
%TO.N,TE*%
X21070000Y-2230000D03*
%TO.P,U1,13*%
%TO.N,REN*%
X23610000Y-4770000D03*
%TO.P,U1,14*%
%TO.N,GND*%
X23610000Y-2230000D03*
%TO.P,U1,15*%
%TO.N,IFC*%
X26150000Y-4770000D03*
%TO.P,U1,16*%
%TO.N,NDAC*%
X26150000Y-2230000D03*
%TO.P,U1,17*%
%TO.N,Net-(U1-Pad17)*%
X28690000Y-4770000D03*
%TO.P,U1,18*%
%TO.N,NRFD*%
X28690000Y-2230000D03*
%TO.P,U1,19*%
%TO.N,DAV*%
X31230000Y-4770000D03*
%TO.P,U1,20*%
%TO.N,GND*%
X31230000Y-2230000D03*
%TO.P,U1,21*%
%TO.N,EOI*%
X33770000Y-4770000D03*
%TO.P,U1,22*%
%TO.N,ATN*%
X33770000Y-2230000D03*
%TO.P,U1,23*%
%TO.N,SRQ*%
X36310000Y-4770000D03*
%TO.P,U1,24*%
%TO.N,DC*%
X36310000Y-2230000D03*
%TO.P,U1,25*%
%TO.N,GND*%
X38850000Y-4770000D03*
%TO.P,U1,26*%
%TO.N,PE*%
X38850000Y-2230000D03*
%TO.P,U1,27*%
%TO.N,Net-(U1-Pad27)*%
X41390000Y-4770000D03*
%TO.P,U1,28*%
%TO.N,Net-(U1-Pad28)*%
X41390000Y-2230000D03*
%TO.P,U1,29*%
%TO.N,DIO8*%
X43930000Y-4770000D03*
%TO.P,U1,30*%
%TO.N,GND*%
X43930000Y-2230000D03*
%TO.P,U1,31*%
%TO.N,DIO7*%
X46470000Y-4770000D03*
%TO.P,U1,32*%
%TO.N,DIO6*%
X46470000Y-2230000D03*
%TO.P,U1,33*%
%TO.N,DIO5*%
X49010000Y-4770000D03*
%TO.P,U1,34*%
%TO.N,GND*%
X49010000Y-2230000D03*
%TO.P,U1,35*%
%TO.N,DIO4*%
X51550000Y-4770000D03*
%TO.P,U1,36*%
%TO.N,Net-(JP2-Pad1)*%
X51550000Y-2230000D03*
%TO.P,U1,37*%
%TO.N,DIO2*%
X54090000Y-4770000D03*
%TO.P,U1,38*%
%TO.N,DIO1*%
X54090000Y-2230000D03*
%TO.P,U1,39*%
%TO.N,GND*%
X56630000Y-4770000D03*
%TO.P,U1,40*%
%TO.N,Net-(JP3-Pad3)*%
X56630000Y-2230000D03*
D12*
%TO.P,U1,*%
%TO.N,*%
X3500000Y-3500000D03*
X61500000Y-3500000D03*
X3500000Y-52500000D03*
X61500000Y-52500000D03*
%TD*%
D13*
%TO.P,JP7,3*%
%TO.N,+12V*%
X2210000Y-9500000D03*
%TO.P,JP7,2*%
%TO.N,+5V*%
X4750000Y-9500000D03*
D14*
%TO.P,JP7,1*%
%TO.N,+5VP*%
X7290000Y-9500000D03*
%TD*%
D15*
%TO.P,J6,10*%
%TO.N,Net-(J6-Pad10)*%
X43410000Y-48460000D03*
%TO.P,J6,8*%
%TO.N,/RS232_CTS*%
X40870000Y-48460000D03*
%TO.P,J6,6*%
%TO.N,Net-(J6-Pad6)*%
X38330000Y-48460000D03*
%TO.P,J6,4*%
%TO.N,Net-(J6-Pad4)*%
X35790000Y-48460000D03*
%TO.P,J6,2*%
%TO.N,/RS232_RX*%
X33250000Y-48460000D03*
%TO.P,J6,9*%
%TO.N,Net-(J6-Pad9)*%
X43410000Y-51000000D03*
%TO.P,J6,7*%
%TO.N,/RS232_RTS*%
X40870000Y-51000000D03*
%TO.P,J6,5*%
%TO.N,GND*%
X38330000Y-51000000D03*
%TO.P,J6,3*%
%TO.N,/RS232_TX*%
X35790000Y-51000000D03*
%TO.P,J6,1*%
%TO.N,Net-(J6-Pad1)*%
%TA.AperFunction,ComponentPad*%
G36*
G01*
X33850000Y-51850000D02*
X32650000Y-51850000D01*
G75*
G02*
X32400000Y-51600000I0J250000D01*
G01*
X32400000Y-50400000D01*
G75*
G02*
X32650000Y-50150000I250000J0D01*
G01*
X33850000Y-50150000D01*
G75*
G02*
X34100000Y-50400000I0J-250000D01*
G01*
X34100000Y-51600000D01*
G75*
G02*
X33850000Y-51850000I-250000J0D01*
G01*
G37*
%TD.AperFunction*%
%TD*%
D16*
%TO.P,J5,2*%
%TO.N,GND*%
X5000000Y-47000000D03*
D17*
%TO.P,J5,1*%
%TO.N,+12V*%
X5000000Y-43500000D03*
%TD*%
D18*
%TO.P,J3,2*%
%TO.N,GND*%
X5000000Y-27000000D03*
%TO.P,J3,1*%
%TO.N,+5V*%
%TA.AperFunction,ComponentPad*%
G36*
G01*
X2400000Y-27625001D02*
X2400000Y-26374999D01*
G75*
G02*
X2649999Y-26125000I249999J0D01*
G01*
X3350001Y-26125000D01*
G75*
G02*
X3600000Y-26374999I0J-249999D01*
G01*
X3600000Y-27625001D01*
G75*
G02*
X3350001Y-27875000I-249999J0D01*
G01*
X2649999Y-27875000D01*
G75*
G02*
X2400000Y-27625001I0J249999D01*
G01*
G37*
%TD.AperFunction*%
%TD*%
D19*
%TO.P,J2,1*%
%TO.N,/GPIB_DIO1*%
X71355000Y-16120000D03*
%TO.P,J2,2*%
%TO.N,/GPIB_DIO2*%
X71355000Y-18280000D03*
%TO.P,J2,3*%
%TO.N,/GPIB_DIO3*%
X71355000Y-20440000D03*
%TO.P,J2,4*%
%TO.N,/GPIB_DIO4*%
X71355000Y-22600000D03*
%TO.P,J2,5*%
%TO.N,/GPIB_EOI*%
X71355000Y-24760000D03*
%TO.P,J2,6*%
%TO.N,/GPIB_DAV*%
X71355000Y-26920000D03*
%TO.P,J2,7*%
%TO.N,/GPIB_NRFD*%
X71355000Y-29080000D03*
%TO.P,J2,8*%
%TO.N,/GPIB_NDAC*%
X71355000Y-31240000D03*
%TO.P,J2,9*%
%TO.N,/GPIB_IFC*%
X71355000Y-33400000D03*
%TO.P,J2,10*%
%TO.N,/GPIB_SRQ*%
X71355000Y-35560000D03*
%TO.P,J2,11*%
%TO.N,/GPIB_ATN*%
X71355000Y-37720000D03*
%TO.P,J2,12*%
%TO.N,GND*%
X71355000Y-39880000D03*
%TO.P,J2,13*%
%TO.N,/GPIB_DIO5*%
X75645000Y-16120000D03*
%TO.P,J2,14*%
%TO.N,/GPIB_DIO6*%
X75645000Y-18280000D03*
%TO.P,J2,15*%
%TO.N,/GPIB_DIO7*%
X75645000Y-20440000D03*
%TO.P,J2,16*%
%TO.N,/GPIB_DIO8*%
X75645000Y-22600000D03*
%TO.P,J2,17*%
%TO.N,/GPIB_REN*%
X75645000Y-24760000D03*
%TO.P,J2,18*%
%TO.N,GND*%
X75645000Y-26920000D03*
%TO.P,J2,19*%
X75645000Y-29080000D03*
%TO.P,J2,20*%
X75645000Y-31240000D03*
%TO.P,J2,21*%
X75645000Y-33400000D03*
%TO.P,J2,22*%
X75645000Y-35560000D03*
%TO.P,J2,23*%
X75645000Y-37720000D03*
%TO.P,J2,24*%
X75645000Y-39880000D03*
D20*
%TO.P,J2,25*%
X73500000Y-51400000D03*
X73500000Y-4600000D03*
%TD*%
D21*
%TO.P,J1,1*%
%TO.N,Net-(J1-Pad1)*%
X32750000Y-40750000D03*
D11*
%TO.P,J1,2*%
%TO.N,/RS232_RX*%
X35520000Y-40750000D03*
%TO.P,J1,3*%
%TO.N,/RS232_TX*%
X38290000Y-40750000D03*
%TO.P,J1,4*%
%TO.N,Net-(J1-Pad4)*%
X41060000Y-40750000D03*
%TO.P,J1,5*%
%TO.N,GND*%
X43830000Y-40750000D03*
%TO.P,J1,6*%
%TO.N,Net-(J1-Pad6)*%
X34135000Y-43590000D03*
%TO.P,J1,7*%
%TO.N,/RS232_RTS*%
X36905000Y-43590000D03*
%TO.P,J1,8*%
%TO.N,/RS232_CTS*%
X39675000Y-43590000D03*
%TO.P,J1,9*%
%TO.N,Net-(J1-Pad9)*%
X42445000Y-43590000D03*
D22*
%TO.P,J1,0*%
%TO.N,GND*%
X25790000Y-42170000D03*
X50790000Y-42170000D03*
%TD*%
D23*
%TO.N,+3V3*%
X31750000Y-11000000D03*
X54750000Y-48750000D03*
X52250000Y-33250000D03*
X52250000Y-29250000D03*
%TO.N,GND*%
X64250000Y-10000000D03*
X21000000Y-30250000D03*
X19500000Y-30250000D03*
X20250000Y-29500000D03*
X18000000Y-30250000D03*
X18750000Y-29500000D03*
X16500000Y-30250000D03*
X17250000Y-29500000D03*
X15000000Y-30250000D03*
X15750000Y-29500000D03*
X14250000Y-29500000D03*
X13500000Y-30250000D03*
X12750000Y-29500000D03*
X12000000Y-30250000D03*
X21000000Y-42750000D03*
X19500000Y-42750000D03*
X18000000Y-42750000D03*
X16500000Y-42750000D03*
X15000000Y-42750000D03*
X13500000Y-42750000D03*
X12000000Y-42750000D03*
X20250000Y-43500000D03*
X18750000Y-43500000D03*
X17250000Y-43500000D03*
X15750000Y-43500000D03*
X14250000Y-43500000D03*
X12750000Y-43500000D03*
X18000000Y-46000000D03*
X19500000Y-46000000D03*
X21000000Y-46000000D03*
X21000000Y-50000000D03*
X19500000Y-50000000D03*
X18000000Y-50000000D03*
X3750000Y-36500000D03*
X18000000Y-28750000D03*
X19500000Y-28750000D03*
X21000000Y-28750000D03*
X21000000Y-44250000D03*
X19500000Y-44250000D03*
X18000000Y-44250000D03*
X20250000Y-9750000D03*
X19000000Y-9750000D03*
X21500000Y-9750000D03*
X21500000Y-13750000D03*
X20250000Y-13750000D03*
X19000000Y-13750000D03*
X14250000Y-55000000D03*
X10250000Y-40000000D03*
X10250000Y-36500000D03*
X61500000Y-23500000D03*
X63750000Y-25000000D03*
X14750000Y-6000000D03*
X66000000Y-53250000D03*
X67500000Y-39250000D03*
X54750000Y-46750000D03*
X51000000Y-37000000D03*
X13750000Y-8000000D03*
X16500000Y-8000000D03*
%TO.N,+5V*%
X58000000Y-1250000D03*
%TO.N,/A_LED*%
X8500000Y-54000000D03*
%TO.N,UART_CTS*%
X53250000Y-9000000D03*
X42500000Y-11250000D03*
%TO.N,DIO3*%
X57750000Y-10000000D03*
X57675000Y-18925000D03*
%TO.N,DIO2*%
X58590000Y-18340000D03*
%TO.N,DIO4*%
X57695000Y-20195000D03*
%TO.N,DIO1*%
X59500000Y-15750000D03*
%TO.N,TE*%
X63750000Y-22000000D03*
X50250000Y-18250000D03*
D24*
%TO.N,+12V*%
X4350000Y-33100000D03*
%TD*%
D25*
%TO.N,+3V3*%
X53750000Y-40500000D02*
X53750000Y-48250000D01*
X53750000Y-48250000D02*
X54250000Y-48750000D01*
X51000000Y-39500000D02*
X52750000Y-39500000D01*
X54250000Y-48750000D02*
X54750000Y-48750000D01*
X52750000Y-39500000D02*
X53750000Y-40500000D01*
X49500000Y-38000000D02*
X51000000Y-39500000D01*
X52250000Y-33250000D02*
X52250000Y-29250000D01*
X48000000Y-18500000D02*
X48000000Y-19500000D01*
X42500000Y-13000000D02*
X48000000Y-18500000D01*
X49000000Y-20500000D02*
X49000000Y-26000000D01*
X48000000Y-19500000D02*
X49000000Y-20500000D01*
X41500000Y-13000000D02*
X42500000Y-13000000D01*
X49000000Y-26000000D02*
X52250000Y-29250000D01*
X40000000Y-11500000D02*
X41500000Y-13000000D01*
X32250000Y-11500000D02*
X40000000Y-11500000D01*
X31750000Y-11000000D02*
X32250000Y-11500000D01*
X52250000Y-33250000D02*
X49500000Y-36000000D01*
X49500000Y-36000000D02*
X49500000Y-38000000D01*
%TO.N,+5V*%
X10910000Y-2230000D02*
X11020000Y-2230000D01*
X11020000Y-2230000D02*
X12500000Y-750000D01*
X57500000Y-750000D02*
X58000000Y-1250000D01*
X12500000Y-750000D02*
X57500000Y-750000D01*
%TO.N,/A_LED*%
X15990000Y-4740000D02*
X15990000Y-4770000D01*
X8500000Y-54000000D02*
X7500000Y-54000000D01*
X7500000Y-54000000D02*
X7000000Y-53500000D01*
X7000000Y-53500000D02*
X7000000Y-51000000D01*
X7000000Y-51000000D02*
X5000000Y-49000000D01*
X5000000Y-49000000D02*
X1250000Y-49000000D01*
X1250000Y-49000000D02*
X500000Y-48250000D01*
X500000Y-8000000D02*
X1250000Y-7250000D01*
X1250000Y-7250000D02*
X8500000Y-7250000D01*
X8500000Y-7250000D02*
X9750000Y-6000000D01*
X9750000Y-6000000D02*
X9750000Y-4000000D01*
X14750000Y-3500000D02*
X15990000Y-4740000D01*
X500000Y-48250000D02*
X500000Y-8000000D01*
X9750000Y-4000000D02*
X10250000Y-3500000D01*
X10250000Y-3500000D02*
X14750000Y-3500000D01*
%TO.N,UART_CTS*%
X51000000Y-11250000D02*
X53250000Y-9000000D01*
X42500000Y-11250000D02*
X51000000Y-11250000D01*
%TO.N,DIO3*%
X57675000Y-10075000D02*
X57675000Y-18925000D01*
X57750000Y-10000000D02*
X57675000Y-10075000D01*
%TO.N,DIO2*%
X58590000Y-10590000D02*
X58590000Y-18340000D01*
X54090000Y-4770000D02*
X54090000Y-5090000D01*
X58590000Y-9590000D02*
X58590000Y-10590000D01*
X54090000Y-5090000D02*
X58590000Y-9590000D01*
%TO.N,DIO4*%
X52780000Y-6000000D02*
X51550000Y-4770000D01*
X54250000Y-6000000D02*
X52780000Y-6000000D01*
X57000000Y-8750000D02*
X54250000Y-6000000D01*
X57000000Y-18500000D02*
X57000000Y-8750000D01*
X56750000Y-18750000D02*
X57000000Y-18500000D01*
X56750000Y-19250000D02*
X56750000Y-18750000D01*
X57695000Y-20195000D02*
X56750000Y-19250000D01*
%TO.N,DIO1*%
X54090000Y-2230000D02*
X54090000Y-2340000D01*
X54090000Y-2340000D02*
X55250000Y-3500000D01*
X55250000Y-3500000D02*
X55250000Y-5500000D01*
X59500000Y-9750000D02*
X59500000Y-15750000D01*
X55250000Y-5500000D02*
X59500000Y-9750000D01*
%TO.N,TE*%
X54000000Y-22000000D02*
X63750000Y-22000000D01*
X50250000Y-18250000D02*
X54000000Y-22000000D01*
%TO.N,SCL*%
X5750000Y-17250000D02*
X5000000Y-18000000D01*
X5750000Y-14500000D02*
X5750000Y-17250000D01*
X5000000Y-18000000D02*
X3500000Y-18000000D01*
X13450000Y-6800000D02*
X5750000Y-14500000D01*
X13450000Y-4770000D02*
X13450000Y-6800000D01*
%TO.N,SDA*%
X5250000Y-15750000D02*
X5000000Y-16000000D01*
X5250000Y-14250000D02*
X5250000Y-15750000D01*
X5000000Y-16000000D02*
X3500000Y-16000000D01*
X10910000Y-8590000D02*
X5250000Y-14250000D01*
X10910000Y-4770000D02*
X10910000Y-8590000D01*
D26*
%TO.N,+12V*%
X2250000Y-40750000D02*
X5000000Y-43500000D01*
D27*
X2210000Y-11290000D02*
X2210000Y-9500000D01*
X1750000Y-11750000D02*
X2210000Y-11290000D01*
X1750000Y-30500000D02*
X1750000Y-11750000D01*
X4350000Y-33100000D02*
X1750000Y-30500000D01*
D26*
X2250000Y-35200000D02*
X4350000Y-33100000D01*
X2250000Y-40750000D02*
X2250000Y-35200000D01*
D25*
%TO.N,GPIO17*%
X16750000Y-9000000D02*
X21070000Y-4770000D01*
X12000000Y-9000000D02*
X16750000Y-9000000D01*
X6250000Y-18750000D02*
X6250000Y-14750000D01*
X6250000Y-14750000D02*
X12000000Y-9000000D01*
X5000000Y-20000000D02*
X6250000Y-18750000D01*
X3500000Y-20000000D02*
X5000000Y-20000000D01*
%TD*%
M02*
