%TF.GenerationSoftware,KiCad,Pcbnew,(5.1.12)-1*%
%TF.CreationDate,2022-01-13T19:50:35+01:00*%
%TF.ProjectId,GrasPiB_v1,47726173-5069-4425-9f76-312e6b696361,2*%
%TF.SameCoordinates,PX6779420PY3305860*%
%TF.FileFunction,Copper,L1,Top*%
%TF.FilePolarity,Positive*%
%FSLAX46Y46*%
G04 Gerber Fmt 4.6, Leading zero omitted, Abs format (unit mm)*
G04 Created by KiCad (PCBNEW (5.1.12)-1) date 2022-01-13 19:50:35*
%MOMM*%
%LPD*%
G01*
G04 APERTURE LIST*
%TA.AperFunction,EtchedComponent*%
%ADD10C,0.100000*%
%TD*%
%TA.AperFunction,ComponentPad*%
%ADD11O,1.750000X1.200000*%
%TD*%
%TA.AperFunction,ComponentPad*%
%ADD12C,1.600000*%
%TD*%
%TA.AperFunction,WasherPad*%
%ADD13C,6.000000*%
%TD*%
%TA.AperFunction,ComponentPad*%
%ADD14O,1.700000X1.700000*%
%TD*%
%TA.AperFunction,ComponentPad*%
%ADD15R,1.700000X1.700000*%
%TD*%
%TA.AperFunction,ComponentPad*%
%ADD16C,1.700000*%
%TD*%
%TA.AperFunction,SMDPad,CuDef*%
%ADD17R,1.500000X0.600000*%
%TD*%
%TA.AperFunction,ComponentPad*%
%ADD18C,2.400000*%
%TD*%
%TA.AperFunction,ComponentPad*%
%ADD19R,2.400000X2.400000*%
%TD*%
%TA.AperFunction,SMDPad,CuDef*%
%ADD20R,2.900000X5.400000*%
%TD*%
%TA.AperFunction,SMDPad,CuDef*%
%ADD21R,1.800000X3.500000*%
%TD*%
%TA.AperFunction,SMDPad,CuDef*%
%ADD22R,9.400000X10.800000*%
%TD*%
%TA.AperFunction,SMDPad,CuDef*%
%ADD23R,4.600000X1.100000*%
%TD*%
%TA.AperFunction,SMDPad,CuDef*%
%ADD24R,1.500000X1.000000*%
%TD*%
%TA.AperFunction,SMDPad,CuDef*%
%ADD25C,0.100000*%
%TD*%
%TA.AperFunction,ComponentPad*%
%ADD26O,1.200000X1.750000*%
%TD*%
%TA.AperFunction,ComponentPad*%
%ADD27O,2.000000X1.500000*%
%TD*%
%TA.AperFunction,ComponentPad*%
%ADD28C,6.000000*%
%TD*%
%TA.AperFunction,ComponentPad*%
%ADD29R,1.600000X1.600000*%
%TD*%
%TA.AperFunction,ComponentPad*%
%ADD30C,4.000000*%
%TD*%
%TA.AperFunction,SMDPad,CuDef*%
%ADD31R,1.000000X1.500000*%
%TD*%
%TA.AperFunction,SMDPad,CuDef*%
%ADD32R,0.900000X0.900000*%
%TD*%
%TA.AperFunction,ViaPad*%
%ADD33C,0.800000*%
%TD*%
%TA.AperFunction,ViaPad*%
%ADD34C,1.200000*%
%TD*%
%TA.AperFunction,Conductor*%
%ADD35C,0.250000*%
%TD*%
%TA.AperFunction,Conductor*%
%ADD36C,0.350000*%
%TD*%
%TA.AperFunction,Conductor*%
%ADD37C,0.750000*%
%TD*%
%TA.AperFunction,Conductor*%
%ADD38C,0.500000*%
%TD*%
G04 APERTURE END LIST*
D10*
%TO.C,JP3*%
G36*
X56600000Y-7200000D02*
G01*
X57100000Y-7200000D01*
X57100000Y-7800000D01*
X56600000Y-7800000D01*
X56600000Y-7200000D01*
G37*
%TD*%
D11*
%TO.P,J4,5*%
%TO.N,GND*%
X3500000Y-22000000D03*
%TO.P,J4,4*%
%TO.N,GPIO17*%
X3500000Y-20000000D03*
%TO.P,J4,3*%
%TO.N,SCL*%
X3500000Y-18000000D03*
%TO.P,J4,2*%
%TO.N,SDA*%
X3500000Y-16000000D03*
%TO.P,J4,1*%
%TO.N,Net-(J4-Pad1)*%
%TA.AperFunction,ComponentPad*%
G36*
G01*
X2874999Y-13400000D02*
X4125001Y-13400000D01*
G75*
G02*
X4375000Y-13649999I0J-249999D01*
G01*
X4375000Y-14350001D01*
G75*
G02*
X4125001Y-14600000I-249999J0D01*
G01*
X2874999Y-14600000D01*
G75*
G02*
X2625000Y-14350001I0J249999D01*
G01*
X2625000Y-13649999D01*
G75*
G02*
X2874999Y-13400000I249999J0D01*
G01*
G37*
%TD.AperFunction*%
%TD*%
%TO.P,U1,1*%
%TO.N,+3V3*%
%TA.AperFunction,ComponentPad*%
G36*
G01*
X7570000Y-5170000D02*
X7570000Y-4370000D01*
G75*
G02*
X7970000Y-3970000I400000J0D01*
G01*
X8770000Y-3970000D01*
G75*
G02*
X9170000Y-4370000I0J-400000D01*
G01*
X9170000Y-5170000D01*
G75*
G02*
X8770000Y-5570000I-400000J0D01*
G01*
X7970000Y-5570000D01*
G75*
G02*
X7570000Y-5170000I0J400000D01*
G01*
G37*
%TD.AperFunction*%
D12*
%TO.P,U1,2*%
%TO.N,+5V*%
X8370000Y-2230000D03*
%TO.P,U1,3*%
%TO.N,SDA*%
X10910000Y-4770000D03*
%TO.P,U1,4*%
%TO.N,+5V*%
X10910000Y-2230000D03*
%TO.P,U1,5*%
%TO.N,SCL*%
X13450000Y-4770000D03*
%TO.P,U1,6*%
%TO.N,GND*%
X13450000Y-2230000D03*
%TO.P,U1,7*%
%TO.N,/A_LED*%
X15990000Y-4770000D03*
%TO.P,U1,8*%
%TO.N,UART_TX*%
X15990000Y-2230000D03*
%TO.P,U1,9*%
%TO.N,GND*%
X18530000Y-4770000D03*
%TO.P,U1,10*%
%TO.N,UART_RX*%
X18530000Y-2230000D03*
%TO.P,U1,11*%
%TO.N,GPIO17*%
X21070000Y-4770000D03*
%TO.P,U1,12*%
%TO.N,TE*%
X21070000Y-2230000D03*
%TO.P,U1,13*%
%TO.N,REN*%
X23610000Y-4770000D03*
%TO.P,U1,14*%
%TO.N,GND*%
X23610000Y-2230000D03*
%TO.P,U1,15*%
%TO.N,IFC*%
X26150000Y-4770000D03*
%TO.P,U1,16*%
%TO.N,NDAC*%
X26150000Y-2230000D03*
%TO.P,U1,17*%
%TO.N,Net-(U1-Pad17)*%
X28690000Y-4770000D03*
%TO.P,U1,18*%
%TO.N,NRFD*%
X28690000Y-2230000D03*
%TO.P,U1,19*%
%TO.N,DAV*%
X31230000Y-4770000D03*
%TO.P,U1,20*%
%TO.N,GND*%
X31230000Y-2230000D03*
%TO.P,U1,21*%
%TO.N,EOI*%
X33770000Y-4770000D03*
%TO.P,U1,22*%
%TO.N,ATN*%
X33770000Y-2230000D03*
%TO.P,U1,23*%
%TO.N,SRQ*%
X36310000Y-4770000D03*
%TO.P,U1,24*%
%TO.N,DC*%
X36310000Y-2230000D03*
%TO.P,U1,25*%
%TO.N,GND*%
X38850000Y-4770000D03*
%TO.P,U1,26*%
%TO.N,PE*%
X38850000Y-2230000D03*
%TO.P,U1,27*%
%TO.N,Net-(U1-Pad27)*%
X41390000Y-4770000D03*
%TO.P,U1,28*%
%TO.N,Net-(U1-Pad28)*%
X41390000Y-2230000D03*
%TO.P,U1,29*%
%TO.N,DIO8*%
X43930000Y-4770000D03*
%TO.P,U1,30*%
%TO.N,GND*%
X43930000Y-2230000D03*
%TO.P,U1,31*%
%TO.N,DIO7*%
X46470000Y-4770000D03*
%TO.P,U1,32*%
%TO.N,DIO6*%
X46470000Y-2230000D03*
%TO.P,U1,33*%
%TO.N,DIO5*%
X49010000Y-4770000D03*
%TO.P,U1,34*%
%TO.N,GND*%
X49010000Y-2230000D03*
%TO.P,U1,35*%
%TO.N,DIO4*%
X51550000Y-4770000D03*
%TO.P,U1,36*%
%TO.N,Net-(JP2-Pad1)*%
X51550000Y-2230000D03*
%TO.P,U1,37*%
%TO.N,DIO2*%
X54090000Y-4770000D03*
%TO.P,U1,38*%
%TO.N,DIO1*%
X54090000Y-2230000D03*
%TO.P,U1,39*%
%TO.N,GND*%
X56630000Y-4770000D03*
%TO.P,U1,40*%
%TO.N,Net-(JP3-Pad3)*%
X56630000Y-2230000D03*
D13*
%TO.P,U1,*%
%TO.N,*%
X3500000Y-3500000D03*
X61500000Y-3500000D03*
X3500000Y-52500000D03*
X61500000Y-52500000D03*
%TD*%
%TO.P,R5,2*%
%TO.N,NRFD*%
%TA.AperFunction,SMDPad,CuDef*%
G36*
G01*
X53675000Y-32487500D02*
X53675000Y-32012500D01*
G75*
G02*
X53912500Y-31775000I237500J0D01*
G01*
X54412500Y-31775000D01*
G75*
G02*
X54650000Y-32012500I0J-237500D01*
G01*
X54650000Y-32487500D01*
G75*
G02*
X54412500Y-32725000I-237500J0D01*
G01*
X53912500Y-32725000D01*
G75*
G02*
X53675000Y-32487500I0J237500D01*
G01*
G37*
%TD.AperFunction*%
%TO.P,R5,1*%
%TO.N,+3V3*%
%TA.AperFunction,SMDPad,CuDef*%
G36*
G01*
X51850000Y-32487500D02*
X51850000Y-32012500D01*
G75*
G02*
X52087500Y-31775000I237500J0D01*
G01*
X52587500Y-31775000D01*
G75*
G02*
X52825000Y-32012500I0J-237500D01*
G01*
X52825000Y-32487500D01*
G75*
G02*
X52587500Y-32725000I-237500J0D01*
G01*
X52087500Y-32725000D01*
G75*
G02*
X51850000Y-32487500I0J237500D01*
G01*
G37*
%TD.AperFunction*%
%TD*%
%TO.P,R4,2*%
%TO.N,NDAC*%
%TA.AperFunction,SMDPad,CuDef*%
G36*
G01*
X53675000Y-34487500D02*
X53675000Y-34012500D01*
G75*
G02*
X53912500Y-33775000I237500J0D01*
G01*
X54412500Y-33775000D01*
G75*
G02*
X54650000Y-34012500I0J-237500D01*
G01*
X54650000Y-34487500D01*
G75*
G02*
X54412500Y-34725000I-237500J0D01*
G01*
X53912500Y-34725000D01*
G75*
G02*
X53675000Y-34487500I0J237500D01*
G01*
G37*
%TD.AperFunction*%
%TO.P,R4,1*%
%TO.N,+3V3*%
%TA.AperFunction,SMDPad,CuDef*%
G36*
G01*
X51850000Y-34487500D02*
X51850000Y-34012500D01*
G75*
G02*
X52087500Y-33775000I237500J0D01*
G01*
X52587500Y-33775000D01*
G75*
G02*
X52825000Y-34012500I0J-237500D01*
G01*
X52825000Y-34487500D01*
G75*
G02*
X52587500Y-34725000I-237500J0D01*
G01*
X52087500Y-34725000D01*
G75*
G02*
X51850000Y-34487500I0J237500D01*
G01*
G37*
%TD.AperFunction*%
%TD*%
%TO.P,R3,2*%
%TO.N,DAV*%
%TA.AperFunction,SMDPad,CuDef*%
G36*
G01*
X53675000Y-30487500D02*
X53675000Y-30012500D01*
G75*
G02*
X53912500Y-29775000I237500J0D01*
G01*
X54412500Y-29775000D01*
G75*
G02*
X54650000Y-30012500I0J-237500D01*
G01*
X54650000Y-30487500D01*
G75*
G02*
X54412500Y-30725000I-237500J0D01*
G01*
X53912500Y-30725000D01*
G75*
G02*
X53675000Y-30487500I0J237500D01*
G01*
G37*
%TD.AperFunction*%
%TO.P,R3,1*%
%TO.N,+3V3*%
%TA.AperFunction,SMDPad,CuDef*%
G36*
G01*
X51850000Y-30487500D02*
X51850000Y-30012500D01*
G75*
G02*
X52087500Y-29775000I237500J0D01*
G01*
X52587500Y-29775000D01*
G75*
G02*
X52825000Y-30012500I0J-237500D01*
G01*
X52825000Y-30487500D01*
G75*
G02*
X52587500Y-30725000I-237500J0D01*
G01*
X52087500Y-30725000D01*
G75*
G02*
X51850000Y-30487500I0J237500D01*
G01*
G37*
%TD.AperFunction*%
%TD*%
%TO.P,U2,1*%
%TO.N,Net-(C1-Pad2)*%
%TA.AperFunction,SMDPad,CuDef*%
G36*
G01*
X64200000Y-48045000D02*
X64200000Y-48345000D01*
G75*
G02*
X64050000Y-48495000I-150000J0D01*
G01*
X62600000Y-48495000D01*
G75*
G02*
X62450000Y-48345000I0J150000D01*
G01*
X62450000Y-48045000D01*
G75*
G02*
X62600000Y-47895000I150000J0D01*
G01*
X64050000Y-47895000D01*
G75*
G02*
X64200000Y-48045000I0J-150000D01*
G01*
G37*
%TD.AperFunction*%
%TO.P,U2,2*%
%TO.N,Net-(C5-Pad2)*%
%TA.AperFunction,SMDPad,CuDef*%
G36*
G01*
X64200000Y-46775000D02*
X64200000Y-47075000D01*
G75*
G02*
X64050000Y-47225000I-150000J0D01*
G01*
X62600000Y-47225000D01*
G75*
G02*
X62450000Y-47075000I0J150000D01*
G01*
X62450000Y-46775000D01*
G75*
G02*
X62600000Y-46625000I150000J0D01*
G01*
X64050000Y-46625000D01*
G75*
G02*
X64200000Y-46775000I0J-150000D01*
G01*
G37*
%TD.AperFunction*%
%TO.P,U2,3*%
%TO.N,Net-(C1-Pad1)*%
%TA.AperFunction,SMDPad,CuDef*%
G36*
G01*
X64200000Y-45505000D02*
X64200000Y-45805000D01*
G75*
G02*
X64050000Y-45955000I-150000J0D01*
G01*
X62600000Y-45955000D01*
G75*
G02*
X62450000Y-45805000I0J150000D01*
G01*
X62450000Y-45505000D01*
G75*
G02*
X62600000Y-45355000I150000J0D01*
G01*
X64050000Y-45355000D01*
G75*
G02*
X64200000Y-45505000I0J-150000D01*
G01*
G37*
%TD.AperFunction*%
%TO.P,U2,4*%
%TO.N,Net-(C3-Pad1)*%
%TA.AperFunction,SMDPad,CuDef*%
G36*
G01*
X64200000Y-44235000D02*
X64200000Y-44535000D01*
G75*
G02*
X64050000Y-44685000I-150000J0D01*
G01*
X62600000Y-44685000D01*
G75*
G02*
X62450000Y-44535000I0J150000D01*
G01*
X62450000Y-44235000D01*
G75*
G02*
X62600000Y-44085000I150000J0D01*
G01*
X64050000Y-44085000D01*
G75*
G02*
X64200000Y-44235000I0J-150000D01*
G01*
G37*
%TD.AperFunction*%
%TO.P,U2,5*%
%TO.N,Net-(C3-Pad2)*%
%TA.AperFunction,SMDPad,CuDef*%
G36*
G01*
X64200000Y-42965000D02*
X64200000Y-43265000D01*
G75*
G02*
X64050000Y-43415000I-150000J0D01*
G01*
X62600000Y-43415000D01*
G75*
G02*
X62450000Y-43265000I0J150000D01*
G01*
X62450000Y-42965000D01*
G75*
G02*
X62600000Y-42815000I150000J0D01*
G01*
X64050000Y-42815000D01*
G75*
G02*
X64200000Y-42965000I0J-150000D01*
G01*
G37*
%TD.AperFunction*%
%TO.P,U2,6*%
%TO.N,Net-(C4-Pad2)*%
%TA.AperFunction,SMDPad,CuDef*%
G36*
G01*
X64200000Y-41695000D02*
X64200000Y-41995000D01*
G75*
G02*
X64050000Y-42145000I-150000J0D01*
G01*
X62600000Y-42145000D01*
G75*
G02*
X62450000Y-41995000I0J150000D01*
G01*
X62450000Y-41695000D01*
G75*
G02*
X62600000Y-41545000I150000J0D01*
G01*
X64050000Y-41545000D01*
G75*
G02*
X64200000Y-41695000I0J-150000D01*
G01*
G37*
%TD.AperFunction*%
%TO.P,U2,7*%
%TO.N,Net-(JP5-Pad1)*%
%TA.AperFunction,SMDPad,CuDef*%
G36*
G01*
X64200000Y-40425000D02*
X64200000Y-40725000D01*
G75*
G02*
X64050000Y-40875000I-150000J0D01*
G01*
X62600000Y-40875000D01*
G75*
G02*
X62450000Y-40725000I0J150000D01*
G01*
X62450000Y-40425000D01*
G75*
G02*
X62600000Y-40275000I150000J0D01*
G01*
X64050000Y-40275000D01*
G75*
G02*
X64200000Y-40425000I0J-150000D01*
G01*
G37*
%TD.AperFunction*%
%TO.P,U2,8*%
%TO.N,Net-(JP4-Pad1)*%
%TA.AperFunction,SMDPad,CuDef*%
G36*
G01*
X64200000Y-39155000D02*
X64200000Y-39455000D01*
G75*
G02*
X64050000Y-39605000I-150000J0D01*
G01*
X62600000Y-39605000D01*
G75*
G02*
X62450000Y-39455000I0J150000D01*
G01*
X62450000Y-39155000D01*
G75*
G02*
X62600000Y-39005000I150000J0D01*
G01*
X64050000Y-39005000D01*
G75*
G02*
X64200000Y-39155000I0J-150000D01*
G01*
G37*
%TD.AperFunction*%
%TO.P,U2,9*%
%TO.N,UART_CTS*%
%TA.AperFunction,SMDPad,CuDef*%
G36*
G01*
X59050000Y-39155000D02*
X59050000Y-39455000D01*
G75*
G02*
X58900000Y-39605000I-150000J0D01*
G01*
X57450000Y-39605000D01*
G75*
G02*
X57300000Y-39455000I0J150000D01*
G01*
X57300000Y-39155000D01*
G75*
G02*
X57450000Y-39005000I150000J0D01*
G01*
X58900000Y-39005000D01*
G75*
G02*
X59050000Y-39155000I0J-150000D01*
G01*
G37*
%TD.AperFunction*%
%TO.P,U2,10*%
%TO.N,UART_RTS*%
%TA.AperFunction,SMDPad,CuDef*%
G36*
G01*
X59050000Y-40425000D02*
X59050000Y-40725000D01*
G75*
G02*
X58900000Y-40875000I-150000J0D01*
G01*
X57450000Y-40875000D01*
G75*
G02*
X57300000Y-40725000I0J150000D01*
G01*
X57300000Y-40425000D01*
G75*
G02*
X57450000Y-40275000I150000J0D01*
G01*
X58900000Y-40275000D01*
G75*
G02*
X59050000Y-40425000I0J-150000D01*
G01*
G37*
%TD.AperFunction*%
%TO.P,U2,11*%
%TO.N,UART_TX*%
%TA.AperFunction,SMDPad,CuDef*%
G36*
G01*
X59050000Y-41695000D02*
X59050000Y-41995000D01*
G75*
G02*
X58900000Y-42145000I-150000J0D01*
G01*
X57450000Y-42145000D01*
G75*
G02*
X57300000Y-41995000I0J150000D01*
G01*
X57300000Y-41695000D01*
G75*
G02*
X57450000Y-41545000I150000J0D01*
G01*
X58900000Y-41545000D01*
G75*
G02*
X59050000Y-41695000I0J-150000D01*
G01*
G37*
%TD.AperFunction*%
%TO.P,U2,12*%
%TO.N,UART_RX*%
%TA.AperFunction,SMDPad,CuDef*%
G36*
G01*
X59050000Y-42965000D02*
X59050000Y-43265000D01*
G75*
G02*
X58900000Y-43415000I-150000J0D01*
G01*
X57450000Y-43415000D01*
G75*
G02*
X57300000Y-43265000I0J150000D01*
G01*
X57300000Y-42965000D01*
G75*
G02*
X57450000Y-42815000I150000J0D01*
G01*
X58900000Y-42815000D01*
G75*
G02*
X59050000Y-42965000I0J-150000D01*
G01*
G37*
%TD.AperFunction*%
%TO.P,U2,13*%
%TO.N,/RS232_RX*%
%TA.AperFunction,SMDPad,CuDef*%
G36*
G01*
X59050000Y-44235000D02*
X59050000Y-44535000D01*
G75*
G02*
X58900000Y-44685000I-150000J0D01*
G01*
X57450000Y-44685000D01*
G75*
G02*
X57300000Y-44535000I0J150000D01*
G01*
X57300000Y-44235000D01*
G75*
G02*
X57450000Y-44085000I150000J0D01*
G01*
X58900000Y-44085000D01*
G75*
G02*
X59050000Y-44235000I0J-150000D01*
G01*
G37*
%TD.AperFunction*%
%TO.P,U2,14*%
%TO.N,/RS232_TX*%
%TA.AperFunction,SMDPad,CuDef*%
G36*
G01*
X59050000Y-45505000D02*
X59050000Y-45805000D01*
G75*
G02*
X58900000Y-45955000I-150000J0D01*
G01*
X57450000Y-45955000D01*
G75*
G02*
X57300000Y-45805000I0J150000D01*
G01*
X57300000Y-45505000D01*
G75*
G02*
X57450000Y-45355000I150000J0D01*
G01*
X58900000Y-45355000D01*
G75*
G02*
X59050000Y-45505000I0J-150000D01*
G01*
G37*
%TD.AperFunction*%
%TO.P,U2,15*%
%TO.N,GND*%
%TA.AperFunction,SMDPad,CuDef*%
G36*
G01*
X59050000Y-46775000D02*
X59050000Y-47075000D01*
G75*
G02*
X58900000Y-47225000I-150000J0D01*
G01*
X57450000Y-47225000D01*
G75*
G02*
X57300000Y-47075000I0J150000D01*
G01*
X57300000Y-46775000D01*
G75*
G02*
X57450000Y-46625000I150000J0D01*
G01*
X58900000Y-46625000D01*
G75*
G02*
X59050000Y-46775000I0J-150000D01*
G01*
G37*
%TD.AperFunction*%
%TO.P,U2,16*%
%TO.N,+3V3*%
%TA.AperFunction,SMDPad,CuDef*%
G36*
G01*
X59050000Y-48045000D02*
X59050000Y-48345000D01*
G75*
G02*
X58900000Y-48495000I-150000J0D01*
G01*
X57450000Y-48495000D01*
G75*
G02*
X57300000Y-48345000I0J150000D01*
G01*
X57300000Y-48045000D01*
G75*
G02*
X57450000Y-47895000I150000J0D01*
G01*
X58900000Y-47895000D01*
G75*
G02*
X59050000Y-48045000I0J-150000D01*
G01*
G37*
%TD.AperFunction*%
%TD*%
D14*
%TO.P,JP7,3*%
%TO.N,+12V*%
X2210000Y-9500000D03*
%TO.P,JP7,2*%
%TO.N,+5V*%
X4750000Y-9500000D03*
D15*
%TO.P,JP7,1*%
%TO.N,+5VP*%
X7290000Y-9500000D03*
%TD*%
D16*
%TO.P,J6,10*%
%TO.N,Net-(J6-Pad10)*%
X43410000Y-48460000D03*
%TO.P,J6,8*%
%TO.N,/RS232_CTS*%
X40870000Y-48460000D03*
%TO.P,J6,6*%
%TO.N,Net-(J6-Pad6)*%
X38330000Y-48460000D03*
%TO.P,J6,4*%
%TO.N,Net-(J6-Pad4)*%
X35790000Y-48460000D03*
%TO.P,J6,2*%
%TO.N,/RS232_RX*%
X33250000Y-48460000D03*
%TO.P,J6,9*%
%TO.N,Net-(J6-Pad9)*%
X43410000Y-51000000D03*
%TO.P,J6,7*%
%TO.N,/RS232_RTS*%
X40870000Y-51000000D03*
%TO.P,J6,5*%
%TO.N,GND*%
X38330000Y-51000000D03*
%TO.P,J6,3*%
%TO.N,/RS232_TX*%
X35790000Y-51000000D03*
%TO.P,J6,1*%
%TO.N,Net-(J6-Pad1)*%
%TA.AperFunction,ComponentPad*%
G36*
G01*
X33850000Y-51850000D02*
X32650000Y-51850000D01*
G75*
G02*
X32400000Y-51600000I0J250000D01*
G01*
X32400000Y-50400000D01*
G75*
G02*
X32650000Y-50150000I250000J0D01*
G01*
X33850000Y-50150000D01*
G75*
G02*
X34100000Y-50400000I0J-250000D01*
G01*
X34100000Y-51600000D01*
G75*
G02*
X33850000Y-51850000I-250000J0D01*
G01*
G37*
%TD.AperFunction*%
%TD*%
D17*
%TO.P,U4,6*%
%TO.N,/GPIB_DAV*%
X65750000Y-30615000D03*
%TO.P,U4,5*%
%TO.N,/GPIB_NRFD*%
X65750000Y-31885000D03*
%TO.P,U4,4*%
%TO.N,/GPIB_NDAC*%
X65750000Y-33155000D03*
%TO.P,U4,3*%
%TO.N,/GPIB_IFC*%
X65750000Y-34425000D03*
%TO.P,U4,2*%
%TO.N,/GPIB_REN*%
X65750000Y-35695000D03*
%TO.P,U4,1*%
%TO.N,TE*%
X65750000Y-36965000D03*
%TO.P,U4,7*%
%TO.N,/GPIB_EOI*%
X65750000Y-29345000D03*
%TO.P,U4,8*%
%TO.N,/GPIB_ATN*%
X65750000Y-28075000D03*
%TO.P,U4,9*%
%TO.N,/GPIB_SRQ*%
X65750000Y-26805000D03*
%TO.P,U4,10*%
%TO.N,GND*%
X65750000Y-25535000D03*
%TO.P,U4,11*%
%TO.N,DC*%
X56250000Y-25535000D03*
%TO.P,U4,12*%
%TO.N,SRQ*%
X56250000Y-26805000D03*
%TO.P,U4,13*%
%TO.N,ATN*%
X56250000Y-28075000D03*
%TO.P,U4,14*%
%TO.N,EOI*%
X56250000Y-29345000D03*
%TO.P,U4,15*%
%TO.N,DAV*%
X56250000Y-30615000D03*
%TO.P,U4,16*%
%TO.N,NRFD*%
X56250000Y-31885000D03*
%TO.P,U4,17*%
%TO.N,NDAC*%
X56250000Y-33155000D03*
%TO.P,U4,18*%
%TO.N,IFC*%
X56250000Y-34425000D03*
%TO.P,U4,19*%
%TO.N,REN*%
X56250000Y-35695000D03*
%TO.P,U4,20*%
%TO.N,+5V*%
X56250000Y-36965000D03*
%TD*%
D18*
%TO.P,J5,2*%
%TO.N,GND*%
X5000000Y-47000000D03*
D19*
%TO.P,J5,1*%
%TO.N,+12V*%
X5000000Y-43500000D03*
%TD*%
D20*
%TO.P,L1,2*%
%TO.N,+5VP*%
X19950000Y-24000000D03*
%TO.P,L1,1*%
%TO.N,Net-(D3-Pad1)*%
X10050000Y-24000000D03*
%TD*%
D21*
%TO.P,D3,2*%
%TO.N,GND*%
X2000000Y-38750000D03*
%TO.P,D3,1*%
%TO.N,Net-(D3-Pad1)*%
X2000000Y-33750000D03*
%TD*%
D22*
%TO.P,U5,3*%
%TO.N,GND*%
X16375000Y-36500000D03*
D23*
%TO.P,U5,5*%
X7225000Y-39900000D03*
%TO.P,U5,4*%
%TO.N,+5VP*%
X7225000Y-38200000D03*
%TO.P,U5,3*%
%TO.N,GND*%
X7225000Y-36500000D03*
%TO.P,U5,2*%
%TO.N,Net-(D3-Pad1)*%
X7225000Y-34800000D03*
%TO.P,U5,1*%
%TO.N,+12V*%
X7225000Y-33100000D03*
%TD*%
D24*
%TO.P,JP6,2*%
%TO.N,Net-(J4-Pad1)*%
X7750000Y-15000000D03*
%TA.AperFunction,SMDPad,CuDef*%
D25*
%TO.P,JP6,3*%
%TO.N,+5V*%
G36*
X7000602Y-13700000D02*
G01*
X7000602Y-13675466D01*
X7005412Y-13626635D01*
X7014984Y-13578510D01*
X7029228Y-13531555D01*
X7048005Y-13486222D01*
X7071136Y-13442949D01*
X7098396Y-13402150D01*
X7129524Y-13364221D01*
X7164221Y-13329524D01*
X7202150Y-13298396D01*
X7242949Y-13271136D01*
X7286222Y-13248005D01*
X7331555Y-13229228D01*
X7378510Y-13214984D01*
X7426635Y-13205412D01*
X7475466Y-13200602D01*
X7500000Y-13200602D01*
X7500000Y-13200000D01*
X8000000Y-13200000D01*
X8000000Y-13200602D01*
X8024534Y-13200602D01*
X8073365Y-13205412D01*
X8121490Y-13214984D01*
X8168445Y-13229228D01*
X8213778Y-13248005D01*
X8257051Y-13271136D01*
X8297850Y-13298396D01*
X8335779Y-13329524D01*
X8370476Y-13364221D01*
X8401604Y-13402150D01*
X8428864Y-13442949D01*
X8451995Y-13486222D01*
X8470772Y-13531555D01*
X8485016Y-13578510D01*
X8494588Y-13626635D01*
X8499398Y-13675466D01*
X8499398Y-13700000D01*
X8500000Y-13700000D01*
X8500000Y-14250000D01*
X7000000Y-14250000D01*
X7000000Y-13700000D01*
X7000602Y-13700000D01*
G37*
%TD.AperFunction*%
%TA.AperFunction,SMDPad,CuDef*%
%TO.P,JP6,1*%
%TO.N,+3V3*%
G36*
X8500000Y-15750000D02*
G01*
X8500000Y-16300000D01*
X8499398Y-16300000D01*
X8499398Y-16324534D01*
X8494588Y-16373365D01*
X8485016Y-16421490D01*
X8470772Y-16468445D01*
X8451995Y-16513778D01*
X8428864Y-16557051D01*
X8401604Y-16597850D01*
X8370476Y-16635779D01*
X8335779Y-16670476D01*
X8297850Y-16701604D01*
X8257051Y-16728864D01*
X8213778Y-16751995D01*
X8168445Y-16770772D01*
X8121490Y-16785016D01*
X8073365Y-16794588D01*
X8024534Y-16799398D01*
X8000000Y-16799398D01*
X8000000Y-16800000D01*
X7500000Y-16800000D01*
X7500000Y-16799398D01*
X7475466Y-16799398D01*
X7426635Y-16794588D01*
X7378510Y-16785016D01*
X7331555Y-16770772D01*
X7286222Y-16751995D01*
X7242949Y-16728864D01*
X7202150Y-16701604D01*
X7164221Y-16670476D01*
X7129524Y-16635779D01*
X7098396Y-16597850D01*
X7071136Y-16557051D01*
X7048005Y-16513778D01*
X7029228Y-16468445D01*
X7014984Y-16421490D01*
X7005412Y-16373365D01*
X7000602Y-16324534D01*
X7000602Y-16300000D01*
X7000000Y-16300000D01*
X7000000Y-15750000D01*
X8500000Y-15750000D01*
G37*
%TD.AperFunction*%
%TD*%
D26*
%TO.P,J3,2*%
%TO.N,GND*%
X5000000Y-27000000D03*
%TO.P,J3,1*%
%TO.N,+5V*%
%TA.AperFunction,ComponentPad*%
G36*
G01*
X2400000Y-27625001D02*
X2400000Y-26374999D01*
G75*
G02*
X2649999Y-26125000I249999J0D01*
G01*
X3350001Y-26125000D01*
G75*
G02*
X3600000Y-26374999I0J-249999D01*
G01*
X3600000Y-27625001D01*
G75*
G02*
X3350001Y-27875000I-249999J0D01*
G01*
X2649999Y-27875000D01*
G75*
G02*
X2400000Y-27625001I0J249999D01*
G01*
G37*
%TD.AperFunction*%
%TD*%
%TO.P,C9,2*%
%TO.N,GND*%
%TA.AperFunction,SMDPad,CuDef*%
G36*
G01*
X18250000Y-12750000D02*
X18250000Y-10750000D01*
G75*
G02*
X18500000Y-10500000I250000J0D01*
G01*
X22000000Y-10500000D01*
G75*
G02*
X22250000Y-10750000I0J-250000D01*
G01*
X22250000Y-12750000D01*
G75*
G02*
X22000000Y-13000000I-250000J0D01*
G01*
X18500000Y-13000000D01*
G75*
G02*
X18250000Y-12750000I0J250000D01*
G01*
G37*
%TD.AperFunction*%
%TO.P,C9,1*%
%TO.N,+5VP*%
%TA.AperFunction,SMDPad,CuDef*%
G36*
G01*
X10250000Y-12750000D02*
X10250000Y-10750000D01*
G75*
G02*
X10500000Y-10500000I250000J0D01*
G01*
X14000000Y-10500000D01*
G75*
G02*
X14250000Y-10750000I0J-250000D01*
G01*
X14250000Y-12750000D01*
G75*
G02*
X14000000Y-13000000I-250000J0D01*
G01*
X10500000Y-13000000D01*
G75*
G02*
X10250000Y-12750000I0J250000D01*
G01*
G37*
%TD.AperFunction*%
%TD*%
%TO.P,C8,2*%
%TO.N,GND*%
%TA.AperFunction,SMDPad,CuDef*%
G36*
G01*
X17500000Y-49000000D02*
X17500000Y-47000000D01*
G75*
G02*
X17750000Y-46750000I250000J0D01*
G01*
X21250000Y-46750000D01*
G75*
G02*
X21500000Y-47000000I0J-250000D01*
G01*
X21500000Y-49000000D01*
G75*
G02*
X21250000Y-49250000I-250000J0D01*
G01*
X17750000Y-49250000D01*
G75*
G02*
X17500000Y-49000000I0J250000D01*
G01*
G37*
%TD.AperFunction*%
%TO.P,C8,1*%
%TO.N,+12V*%
%TA.AperFunction,SMDPad,CuDef*%
G36*
G01*
X9500000Y-49000000D02*
X9500000Y-47000000D01*
G75*
G02*
X9750000Y-46750000I250000J0D01*
G01*
X13250000Y-46750000D01*
G75*
G02*
X13500000Y-47000000I0J-250000D01*
G01*
X13500000Y-49000000D01*
G75*
G02*
X13250000Y-49250000I-250000J0D01*
G01*
X9750000Y-49250000D01*
G75*
G02*
X9500000Y-49000000I0J250000D01*
G01*
G37*
%TD.AperFunction*%
%TD*%
D27*
%TO.P,J2,1*%
%TO.N,/GPIB_DIO1*%
X71355000Y-16120000D03*
%TO.P,J2,2*%
%TO.N,/GPIB_DIO2*%
X71355000Y-18280000D03*
%TO.P,J2,3*%
%TO.N,/GPIB_DIO3*%
X71355000Y-20440000D03*
%TO.P,J2,4*%
%TO.N,/GPIB_DIO4*%
X71355000Y-22600000D03*
%TO.P,J2,5*%
%TO.N,/GPIB_EOI*%
X71355000Y-24760000D03*
%TO.P,J2,6*%
%TO.N,/GPIB_DAV*%
X71355000Y-26920000D03*
%TO.P,J2,7*%
%TO.N,/GPIB_NRFD*%
X71355000Y-29080000D03*
%TO.P,J2,8*%
%TO.N,/GPIB_NDAC*%
X71355000Y-31240000D03*
%TO.P,J2,9*%
%TO.N,/GPIB_IFC*%
X71355000Y-33400000D03*
%TO.P,J2,10*%
%TO.N,/GPIB_SRQ*%
X71355000Y-35560000D03*
%TO.P,J2,11*%
%TO.N,/GPIB_ATN*%
X71355000Y-37720000D03*
%TO.P,J2,12*%
%TO.N,GND*%
X71355000Y-39880000D03*
%TO.P,J2,13*%
%TO.N,/GPIB_DIO5*%
X75645000Y-16120000D03*
%TO.P,J2,14*%
%TO.N,/GPIB_DIO6*%
X75645000Y-18280000D03*
%TO.P,J2,15*%
%TO.N,/GPIB_DIO7*%
X75645000Y-20440000D03*
%TO.P,J2,16*%
%TO.N,/GPIB_DIO8*%
X75645000Y-22600000D03*
%TO.P,J2,17*%
%TO.N,/GPIB_REN*%
X75645000Y-24760000D03*
%TO.P,J2,18*%
%TO.N,GND*%
X75645000Y-26920000D03*
%TO.P,J2,19*%
X75645000Y-29080000D03*
%TO.P,J2,20*%
X75645000Y-31240000D03*
%TO.P,J2,21*%
X75645000Y-33400000D03*
%TO.P,J2,22*%
X75645000Y-35560000D03*
%TO.P,J2,23*%
X75645000Y-37720000D03*
%TO.P,J2,24*%
X75645000Y-39880000D03*
D28*
%TO.P,J2,25*%
X73500000Y-51400000D03*
X73500000Y-4600000D03*
%TD*%
%TO.P,C1,1*%
%TO.N,Net-(C1-Pad1)*%
%TA.AperFunction,SMDPad,CuDef*%
G36*
G01*
X65762500Y-45850000D02*
X66237500Y-45850000D01*
G75*
G02*
X66475000Y-46087500I0J-237500D01*
G01*
X66475000Y-46687500D01*
G75*
G02*
X66237500Y-46925000I-237500J0D01*
G01*
X65762500Y-46925000D01*
G75*
G02*
X65525000Y-46687500I0J237500D01*
G01*
X65525000Y-46087500D01*
G75*
G02*
X65762500Y-45850000I237500J0D01*
G01*
G37*
%TD.AperFunction*%
%TO.P,C1,2*%
%TO.N,Net-(C1-Pad2)*%
%TA.AperFunction,SMDPad,CuDef*%
G36*
G01*
X65762500Y-47575000D02*
X66237500Y-47575000D01*
G75*
G02*
X66475000Y-47812500I0J-237500D01*
G01*
X66475000Y-48412500D01*
G75*
G02*
X66237500Y-48650000I-237500J0D01*
G01*
X65762500Y-48650000D01*
G75*
G02*
X65525000Y-48412500I0J237500D01*
G01*
X65525000Y-47812500D01*
G75*
G02*
X65762500Y-47575000I237500J0D01*
G01*
G37*
%TD.AperFunction*%
%TD*%
%TO.P,C2,2*%
%TO.N,+3V3*%
%TA.AperFunction,SMDPad,CuDef*%
G36*
G01*
X55512500Y-48075000D02*
X55987500Y-48075000D01*
G75*
G02*
X56225000Y-48312500I0J-237500D01*
G01*
X56225000Y-48912500D01*
G75*
G02*
X55987500Y-49150000I-237500J0D01*
G01*
X55512500Y-49150000D01*
G75*
G02*
X55275000Y-48912500I0J237500D01*
G01*
X55275000Y-48312500D01*
G75*
G02*
X55512500Y-48075000I237500J0D01*
G01*
G37*
%TD.AperFunction*%
%TO.P,C2,1*%
%TO.N,GND*%
%TA.AperFunction,SMDPad,CuDef*%
G36*
G01*
X55512500Y-46350000D02*
X55987500Y-46350000D01*
G75*
G02*
X56225000Y-46587500I0J-237500D01*
G01*
X56225000Y-47187500D01*
G75*
G02*
X55987500Y-47425000I-237500J0D01*
G01*
X55512500Y-47425000D01*
G75*
G02*
X55275000Y-47187500I0J237500D01*
G01*
X55275000Y-46587500D01*
G75*
G02*
X55512500Y-46350000I237500J0D01*
G01*
G37*
%TD.AperFunction*%
%TD*%
%TO.P,C3,1*%
%TO.N,Net-(C3-Pad1)*%
%TA.AperFunction,SMDPad,CuDef*%
G36*
G01*
X66237500Y-45012500D02*
X65762500Y-45012500D01*
G75*
G02*
X65525000Y-44775000I0J237500D01*
G01*
X65525000Y-44175000D01*
G75*
G02*
X65762500Y-43937500I237500J0D01*
G01*
X66237500Y-43937500D01*
G75*
G02*
X66475000Y-44175000I0J-237500D01*
G01*
X66475000Y-44775000D01*
G75*
G02*
X66237500Y-45012500I-237500J0D01*
G01*
G37*
%TD.AperFunction*%
%TO.P,C3,2*%
%TO.N,Net-(C3-Pad2)*%
%TA.AperFunction,SMDPad,CuDef*%
G36*
G01*
X66237500Y-43287500D02*
X65762500Y-43287500D01*
G75*
G02*
X65525000Y-43050000I0J237500D01*
G01*
X65525000Y-42450000D01*
G75*
G02*
X65762500Y-42212500I237500J0D01*
G01*
X66237500Y-42212500D01*
G75*
G02*
X66475000Y-42450000I0J-237500D01*
G01*
X66475000Y-43050000D01*
G75*
G02*
X66237500Y-43287500I-237500J0D01*
G01*
G37*
%TD.AperFunction*%
%TD*%
%TO.P,C4,2*%
%TO.N,Net-(C4-Pad2)*%
%TA.AperFunction,SMDPad,CuDef*%
G36*
G01*
X65762500Y-40325000D02*
X66237500Y-40325000D01*
G75*
G02*
X66475000Y-40562500I0J-237500D01*
G01*
X66475000Y-41162500D01*
G75*
G02*
X66237500Y-41400000I-237500J0D01*
G01*
X65762500Y-41400000D01*
G75*
G02*
X65525000Y-41162500I0J237500D01*
G01*
X65525000Y-40562500D01*
G75*
G02*
X65762500Y-40325000I237500J0D01*
G01*
G37*
%TD.AperFunction*%
%TO.P,C4,1*%
%TO.N,GND*%
%TA.AperFunction,SMDPad,CuDef*%
G36*
G01*
X65762500Y-38600000D02*
X66237500Y-38600000D01*
G75*
G02*
X66475000Y-38837500I0J-237500D01*
G01*
X66475000Y-39437500D01*
G75*
G02*
X66237500Y-39675000I-237500J0D01*
G01*
X65762500Y-39675000D01*
G75*
G02*
X65525000Y-39437500I0J237500D01*
G01*
X65525000Y-38837500D01*
G75*
G02*
X65762500Y-38600000I237500J0D01*
G01*
G37*
%TD.AperFunction*%
%TD*%
%TO.P,C5,1*%
%TO.N,GND*%
%TA.AperFunction,SMDPad,CuDef*%
G36*
G01*
X66237500Y-52400000D02*
X65762500Y-52400000D01*
G75*
G02*
X65525000Y-52162500I0J237500D01*
G01*
X65525000Y-51562500D01*
G75*
G02*
X65762500Y-51325000I237500J0D01*
G01*
X66237500Y-51325000D01*
G75*
G02*
X66475000Y-51562500I0J-237500D01*
G01*
X66475000Y-52162500D01*
G75*
G02*
X66237500Y-52400000I-237500J0D01*
G01*
G37*
%TD.AperFunction*%
%TO.P,C5,2*%
%TO.N,Net-(C5-Pad2)*%
%TA.AperFunction,SMDPad,CuDef*%
G36*
G01*
X66237500Y-50675000D02*
X65762500Y-50675000D01*
G75*
G02*
X65525000Y-50437500I0J237500D01*
G01*
X65525000Y-49837500D01*
G75*
G02*
X65762500Y-49600000I237500J0D01*
G01*
X66237500Y-49600000D01*
G75*
G02*
X66475000Y-49837500I0J-237500D01*
G01*
X66475000Y-50437500D01*
G75*
G02*
X66237500Y-50675000I-237500J0D01*
G01*
G37*
%TD.AperFunction*%
%TD*%
%TO.P,C6,2*%
%TO.N,+5V*%
%TA.AperFunction,SMDPad,CuDef*%
G36*
G01*
X57925000Y-23262500D02*
X57925000Y-23737500D01*
G75*
G02*
X57687500Y-23975000I-237500J0D01*
G01*
X57087500Y-23975000D01*
G75*
G02*
X56850000Y-23737500I0J237500D01*
G01*
X56850000Y-23262500D01*
G75*
G02*
X57087500Y-23025000I237500J0D01*
G01*
X57687500Y-23025000D01*
G75*
G02*
X57925000Y-23262500I0J-237500D01*
G01*
G37*
%TD.AperFunction*%
%TO.P,C6,1*%
%TO.N,GND*%
%TA.AperFunction,SMDPad,CuDef*%
G36*
G01*
X59650000Y-23262500D02*
X59650000Y-23737500D01*
G75*
G02*
X59412500Y-23975000I-237500J0D01*
G01*
X58812500Y-23975000D01*
G75*
G02*
X58575000Y-23737500I0J237500D01*
G01*
X58575000Y-23262500D01*
G75*
G02*
X58812500Y-23025000I237500J0D01*
G01*
X59412500Y-23025000D01*
G75*
G02*
X59650000Y-23262500I0J-237500D01*
G01*
G37*
%TD.AperFunction*%
%TD*%
%TO.P,C7,1*%
%TO.N,GND*%
%TA.AperFunction,SMDPad,CuDef*%
G36*
G01*
X51850000Y-37237500D02*
X51850000Y-36762500D01*
G75*
G02*
X52087500Y-36525000I237500J0D01*
G01*
X52687500Y-36525000D01*
G75*
G02*
X52925000Y-36762500I0J-237500D01*
G01*
X52925000Y-37237500D01*
G75*
G02*
X52687500Y-37475000I-237500J0D01*
G01*
X52087500Y-37475000D01*
G75*
G02*
X51850000Y-37237500I0J237500D01*
G01*
G37*
%TD.AperFunction*%
%TO.P,C7,2*%
%TO.N,+5V*%
%TA.AperFunction,SMDPad,CuDef*%
G36*
G01*
X53575000Y-37237500D02*
X53575000Y-36762500D01*
G75*
G02*
X53812500Y-36525000I237500J0D01*
G01*
X54412500Y-36525000D01*
G75*
G02*
X54650000Y-36762500I0J-237500D01*
G01*
X54650000Y-37237500D01*
G75*
G02*
X54412500Y-37475000I-237500J0D01*
G01*
X53812500Y-37475000D01*
G75*
G02*
X53575000Y-37237500I0J237500D01*
G01*
G37*
%TD.AperFunction*%
%TD*%
%TO.P,D1,1*%
%TO.N,GND*%
%TA.AperFunction,SMDPad,CuDef*%
G36*
G01*
X14850000Y-55237500D02*
X14850000Y-54762500D01*
G75*
G02*
X15087500Y-54525000I237500J0D01*
G01*
X15662500Y-54525000D01*
G75*
G02*
X15900000Y-54762500I0J-237500D01*
G01*
X15900000Y-55237500D01*
G75*
G02*
X15662500Y-55475000I-237500J0D01*
G01*
X15087500Y-55475000D01*
G75*
G02*
X14850000Y-55237500I0J237500D01*
G01*
G37*
%TD.AperFunction*%
%TO.P,D1,2*%
%TO.N,Net-(D1-Pad2)*%
%TA.AperFunction,SMDPad,CuDef*%
G36*
G01*
X16600000Y-55237500D02*
X16600000Y-54762500D01*
G75*
G02*
X16837500Y-54525000I237500J0D01*
G01*
X17412500Y-54525000D01*
G75*
G02*
X17650000Y-54762500I0J-237500D01*
G01*
X17650000Y-55237500D01*
G75*
G02*
X17412500Y-55475000I-237500J0D01*
G01*
X16837500Y-55475000D01*
G75*
G02*
X16600000Y-55237500I0J237500D01*
G01*
G37*
%TD.AperFunction*%
%TD*%
%TO.P,D2,2*%
%TO.N,Net-(D2-Pad2)*%
%TA.AperFunction,SMDPad,CuDef*%
G36*
G01*
X11900000Y-54762500D02*
X11900000Y-55237500D01*
G75*
G02*
X11662500Y-55475000I-237500J0D01*
G01*
X11087500Y-55475000D01*
G75*
G02*
X10850000Y-55237500I0J237500D01*
G01*
X10850000Y-54762500D01*
G75*
G02*
X11087500Y-54525000I237500J0D01*
G01*
X11662500Y-54525000D01*
G75*
G02*
X11900000Y-54762500I0J-237500D01*
G01*
G37*
%TD.AperFunction*%
%TO.P,D2,1*%
%TO.N,GND*%
%TA.AperFunction,SMDPad,CuDef*%
G36*
G01*
X13650000Y-54762500D02*
X13650000Y-55237500D01*
G75*
G02*
X13412500Y-55475000I-237500J0D01*
G01*
X12837500Y-55475000D01*
G75*
G02*
X12600000Y-55237500I0J237500D01*
G01*
X12600000Y-54762500D01*
G75*
G02*
X12837500Y-54525000I237500J0D01*
G01*
X13412500Y-54525000D01*
G75*
G02*
X13650000Y-54762500I0J-237500D01*
G01*
G37*
%TD.AperFunction*%
%TD*%
D29*
%TO.P,J1,1*%
%TO.N,Net-(J1-Pad1)*%
X32750000Y-40750000D03*
D12*
%TO.P,J1,2*%
%TO.N,/RS232_RX*%
X35520000Y-40750000D03*
%TO.P,J1,3*%
%TO.N,/RS232_TX*%
X38290000Y-40750000D03*
%TO.P,J1,4*%
%TO.N,Net-(J1-Pad4)*%
X41060000Y-40750000D03*
%TO.P,J1,5*%
%TO.N,GND*%
X43830000Y-40750000D03*
%TO.P,J1,6*%
%TO.N,Net-(J1-Pad6)*%
X34135000Y-43590000D03*
%TO.P,J1,7*%
%TO.N,/RS232_RTS*%
X36905000Y-43590000D03*
%TO.P,J1,8*%
%TO.N,/RS232_CTS*%
X39675000Y-43590000D03*
%TO.P,J1,9*%
%TO.N,Net-(J1-Pad9)*%
X42445000Y-43590000D03*
D30*
%TO.P,J1,0*%
%TO.N,GND*%
X25790000Y-42170000D03*
X50790000Y-42170000D03*
%TD*%
%TA.AperFunction,SMDPad,CuDef*%
D25*
%TO.P,JP1,1*%
%TO.N,UART_RTS*%
G36*
X25650000Y-7000000D02*
G01*
X26150000Y-7000000D01*
X26150000Y-7000602D01*
X26174534Y-7000602D01*
X26223365Y-7005412D01*
X26271490Y-7014984D01*
X26318445Y-7029228D01*
X26363778Y-7048005D01*
X26407051Y-7071136D01*
X26447850Y-7098396D01*
X26485779Y-7129524D01*
X26520476Y-7164221D01*
X26551604Y-7202150D01*
X26578864Y-7242949D01*
X26601995Y-7286222D01*
X26620772Y-7331555D01*
X26635016Y-7378510D01*
X26644588Y-7426635D01*
X26649398Y-7475466D01*
X26649398Y-7500000D01*
X26650000Y-7500000D01*
X26650000Y-8000000D01*
X26649398Y-8000000D01*
X26649398Y-8024534D01*
X26644588Y-8073365D01*
X26635016Y-8121490D01*
X26620772Y-8168445D01*
X26601995Y-8213778D01*
X26578864Y-8257051D01*
X26551604Y-8297850D01*
X26520476Y-8335779D01*
X26485779Y-8370476D01*
X26447850Y-8401604D01*
X26407051Y-8428864D01*
X26363778Y-8451995D01*
X26318445Y-8470772D01*
X26271490Y-8485016D01*
X26223365Y-8494588D01*
X26174534Y-8499398D01*
X26150000Y-8499398D01*
X26150000Y-8500000D01*
X25650000Y-8500000D01*
X25650000Y-7000000D01*
G37*
%TD.AperFunction*%
%TA.AperFunction,SMDPad,CuDef*%
%TO.P,JP1,2*%
%TO.N,GPIO17*%
G36*
X24850000Y-8499398D02*
G01*
X24825466Y-8499398D01*
X24776635Y-8494588D01*
X24728510Y-8485016D01*
X24681555Y-8470772D01*
X24636222Y-8451995D01*
X24592949Y-8428864D01*
X24552150Y-8401604D01*
X24514221Y-8370476D01*
X24479524Y-8335779D01*
X24448396Y-8297850D01*
X24421136Y-8257051D01*
X24398005Y-8213778D01*
X24379228Y-8168445D01*
X24364984Y-8121490D01*
X24355412Y-8073365D01*
X24350602Y-8024534D01*
X24350602Y-8000000D01*
X24350000Y-8000000D01*
X24350000Y-7500000D01*
X24350602Y-7500000D01*
X24350602Y-7475466D01*
X24355412Y-7426635D01*
X24364984Y-7378510D01*
X24379228Y-7331555D01*
X24398005Y-7286222D01*
X24421136Y-7242949D01*
X24448396Y-7202150D01*
X24479524Y-7164221D01*
X24514221Y-7129524D01*
X24552150Y-7098396D01*
X24592949Y-7071136D01*
X24636222Y-7048005D01*
X24681555Y-7029228D01*
X24728510Y-7014984D01*
X24776635Y-7005412D01*
X24825466Y-7000602D01*
X24850000Y-7000602D01*
X24850000Y-7000000D01*
X25350000Y-7000000D01*
X25350000Y-8500000D01*
X24850000Y-8500000D01*
X24850000Y-8499398D01*
G37*
%TD.AperFunction*%
%TD*%
%TA.AperFunction,SMDPad,CuDef*%
%TO.P,JP2,2*%
%TO.N,UART_CTS*%
G36*
X52850000Y-8249398D02*
G01*
X52825466Y-8249398D01*
X52776635Y-8244588D01*
X52728510Y-8235016D01*
X52681555Y-8220772D01*
X52636222Y-8201995D01*
X52592949Y-8178864D01*
X52552150Y-8151604D01*
X52514221Y-8120476D01*
X52479524Y-8085779D01*
X52448396Y-8047850D01*
X52421136Y-8007051D01*
X52398005Y-7963778D01*
X52379228Y-7918445D01*
X52364984Y-7871490D01*
X52355412Y-7823365D01*
X52350602Y-7774534D01*
X52350602Y-7750000D01*
X52350000Y-7750000D01*
X52350000Y-7250000D01*
X52350602Y-7250000D01*
X52350602Y-7225466D01*
X52355412Y-7176635D01*
X52364984Y-7128510D01*
X52379228Y-7081555D01*
X52398005Y-7036222D01*
X52421136Y-6992949D01*
X52448396Y-6952150D01*
X52479524Y-6914221D01*
X52514221Y-6879524D01*
X52552150Y-6848396D01*
X52592949Y-6821136D01*
X52636222Y-6798005D01*
X52681555Y-6779228D01*
X52728510Y-6764984D01*
X52776635Y-6755412D01*
X52825466Y-6750602D01*
X52850000Y-6750602D01*
X52850000Y-6750000D01*
X53350000Y-6750000D01*
X53350000Y-8250000D01*
X52850000Y-8250000D01*
X52850000Y-8249398D01*
G37*
%TD.AperFunction*%
%TA.AperFunction,SMDPad,CuDef*%
%TO.P,JP2,1*%
%TO.N,Net-(JP2-Pad1)*%
G36*
X53650000Y-6750000D02*
G01*
X54150000Y-6750000D01*
X54150000Y-6750602D01*
X54174534Y-6750602D01*
X54223365Y-6755412D01*
X54271490Y-6764984D01*
X54318445Y-6779228D01*
X54363778Y-6798005D01*
X54407051Y-6821136D01*
X54447850Y-6848396D01*
X54485779Y-6879524D01*
X54520476Y-6914221D01*
X54551604Y-6952150D01*
X54578864Y-6992949D01*
X54601995Y-7036222D01*
X54620772Y-7081555D01*
X54635016Y-7128510D01*
X54644588Y-7176635D01*
X54649398Y-7225466D01*
X54649398Y-7250000D01*
X54650000Y-7250000D01*
X54650000Y-7750000D01*
X54649398Y-7750000D01*
X54649398Y-7774534D01*
X54644588Y-7823365D01*
X54635016Y-7871490D01*
X54620772Y-7918445D01*
X54601995Y-7963778D01*
X54578864Y-8007051D01*
X54551604Y-8047850D01*
X54520476Y-8085779D01*
X54485779Y-8120476D01*
X54447850Y-8151604D01*
X54407051Y-8178864D01*
X54363778Y-8201995D01*
X54318445Y-8220772D01*
X54271490Y-8235016D01*
X54223365Y-8244588D01*
X54174534Y-8249398D01*
X54150000Y-8249398D01*
X54150000Y-8250000D01*
X53650000Y-8250000D01*
X53650000Y-6750000D01*
G37*
%TD.AperFunction*%
%TD*%
%TA.AperFunction,SMDPad,CuDef*%
%TO.P,JP3,3*%
%TO.N,Net-(JP3-Pad3)*%
G36*
X58800000Y-6750602D02*
G01*
X58824534Y-6750602D01*
X58873365Y-6755412D01*
X58921490Y-6764984D01*
X58968445Y-6779228D01*
X59013778Y-6798005D01*
X59057051Y-6821136D01*
X59097850Y-6848396D01*
X59135779Y-6879524D01*
X59170476Y-6914221D01*
X59201604Y-6952150D01*
X59228864Y-6992949D01*
X59251995Y-7036222D01*
X59270772Y-7081555D01*
X59285016Y-7128510D01*
X59294588Y-7176635D01*
X59299398Y-7225466D01*
X59299398Y-7250000D01*
X59300000Y-7250000D01*
X59300000Y-7750000D01*
X59299398Y-7750000D01*
X59299398Y-7774534D01*
X59294588Y-7823365D01*
X59285016Y-7871490D01*
X59270772Y-7918445D01*
X59251995Y-7963778D01*
X59228864Y-8007051D01*
X59201604Y-8047850D01*
X59170476Y-8085779D01*
X59135779Y-8120476D01*
X59097850Y-8151604D01*
X59057051Y-8178864D01*
X59013778Y-8201995D01*
X58968445Y-8220772D01*
X58921490Y-8235016D01*
X58873365Y-8244588D01*
X58824534Y-8249398D01*
X58800000Y-8249398D01*
X58800000Y-8250000D01*
X58250000Y-8250000D01*
X58250000Y-6750000D01*
X58800000Y-6750000D01*
X58800000Y-6750602D01*
G37*
%TD.AperFunction*%
D31*
%TO.P,JP3,2*%
%TO.N,DIO3*%
X57500000Y-7500000D03*
%TA.AperFunction,SMDPad,CuDef*%
D25*
%TO.P,JP3,1*%
%TO.N,Net-(JP2-Pad1)*%
G36*
X56750000Y-8250000D02*
G01*
X56200000Y-8250000D01*
X56200000Y-8249398D01*
X56175466Y-8249398D01*
X56126635Y-8244588D01*
X56078510Y-8235016D01*
X56031555Y-8220772D01*
X55986222Y-8201995D01*
X55942949Y-8178864D01*
X55902150Y-8151604D01*
X55864221Y-8120476D01*
X55829524Y-8085779D01*
X55798396Y-8047850D01*
X55771136Y-8007051D01*
X55748005Y-7963778D01*
X55729228Y-7918445D01*
X55714984Y-7871490D01*
X55705412Y-7823365D01*
X55700602Y-7774534D01*
X55700602Y-7750000D01*
X55700000Y-7750000D01*
X55700000Y-7250000D01*
X55700602Y-7250000D01*
X55700602Y-7225466D01*
X55705412Y-7176635D01*
X55714984Y-7128510D01*
X55729228Y-7081555D01*
X55748005Y-7036222D01*
X55771136Y-6992949D01*
X55798396Y-6952150D01*
X55829524Y-6914221D01*
X55864221Y-6879524D01*
X55902150Y-6848396D01*
X55942949Y-6821136D01*
X55986222Y-6798005D01*
X56031555Y-6779228D01*
X56078510Y-6764984D01*
X56126635Y-6755412D01*
X56175466Y-6750602D01*
X56200000Y-6750602D01*
X56200000Y-6750000D01*
X56750000Y-6750000D01*
X56750000Y-8250000D01*
G37*
%TD.AperFunction*%
%TD*%
%TA.AperFunction,SMDPad,CuDef*%
%TO.P,JP4,2*%
%TO.N,/RS232_CTS*%
G36*
X55600000Y-52249398D02*
G01*
X55575466Y-52249398D01*
X55526635Y-52244588D01*
X55478510Y-52235016D01*
X55431555Y-52220772D01*
X55386222Y-52201995D01*
X55342949Y-52178864D01*
X55302150Y-52151604D01*
X55264221Y-52120476D01*
X55229524Y-52085779D01*
X55198396Y-52047850D01*
X55171136Y-52007051D01*
X55148005Y-51963778D01*
X55129228Y-51918445D01*
X55114984Y-51871490D01*
X55105412Y-51823365D01*
X55100602Y-51774534D01*
X55100602Y-51750000D01*
X55100000Y-51750000D01*
X55100000Y-51250000D01*
X55100602Y-51250000D01*
X55100602Y-51225466D01*
X55105412Y-51176635D01*
X55114984Y-51128510D01*
X55129228Y-51081555D01*
X55148005Y-51036222D01*
X55171136Y-50992949D01*
X55198396Y-50952150D01*
X55229524Y-50914221D01*
X55264221Y-50879524D01*
X55302150Y-50848396D01*
X55342949Y-50821136D01*
X55386222Y-50798005D01*
X55431555Y-50779228D01*
X55478510Y-50764984D01*
X55526635Y-50755412D01*
X55575466Y-50750602D01*
X55600000Y-50750602D01*
X55600000Y-50750000D01*
X56100000Y-50750000D01*
X56100000Y-52250000D01*
X55600000Y-52250000D01*
X55600000Y-52249398D01*
G37*
%TD.AperFunction*%
%TA.AperFunction,SMDPad,CuDef*%
%TO.P,JP4,1*%
%TO.N,Net-(JP4-Pad1)*%
G36*
X56400000Y-50750000D02*
G01*
X56900000Y-50750000D01*
X56900000Y-50750602D01*
X56924534Y-50750602D01*
X56973365Y-50755412D01*
X57021490Y-50764984D01*
X57068445Y-50779228D01*
X57113778Y-50798005D01*
X57157051Y-50821136D01*
X57197850Y-50848396D01*
X57235779Y-50879524D01*
X57270476Y-50914221D01*
X57301604Y-50952150D01*
X57328864Y-50992949D01*
X57351995Y-51036222D01*
X57370772Y-51081555D01*
X57385016Y-51128510D01*
X57394588Y-51176635D01*
X57399398Y-51225466D01*
X57399398Y-51250000D01*
X57400000Y-51250000D01*
X57400000Y-51750000D01*
X57399398Y-51750000D01*
X57399398Y-51774534D01*
X57394588Y-51823365D01*
X57385016Y-51871490D01*
X57370772Y-51918445D01*
X57351995Y-51963778D01*
X57328864Y-52007051D01*
X57301604Y-52047850D01*
X57270476Y-52085779D01*
X57235779Y-52120476D01*
X57197850Y-52151604D01*
X57157051Y-52178864D01*
X57113778Y-52201995D01*
X57068445Y-52220772D01*
X57021490Y-52235016D01*
X56973365Y-52244588D01*
X56924534Y-52249398D01*
X56900000Y-52249398D01*
X56900000Y-52250000D01*
X56400000Y-52250000D01*
X56400000Y-50750000D01*
G37*
%TD.AperFunction*%
%TD*%
%TA.AperFunction,SMDPad,CuDef*%
%TO.P,JP5,1*%
%TO.N,Net-(JP5-Pad1)*%
G36*
X56400000Y-53250000D02*
G01*
X56900000Y-53250000D01*
X56900000Y-53250602D01*
X56924534Y-53250602D01*
X56973365Y-53255412D01*
X57021490Y-53264984D01*
X57068445Y-53279228D01*
X57113778Y-53298005D01*
X57157051Y-53321136D01*
X57197850Y-53348396D01*
X57235779Y-53379524D01*
X57270476Y-53414221D01*
X57301604Y-53452150D01*
X57328864Y-53492949D01*
X57351995Y-53536222D01*
X57370772Y-53581555D01*
X57385016Y-53628510D01*
X57394588Y-53676635D01*
X57399398Y-53725466D01*
X57399398Y-53750000D01*
X57400000Y-53750000D01*
X57400000Y-54250000D01*
X57399398Y-54250000D01*
X57399398Y-54274534D01*
X57394588Y-54323365D01*
X57385016Y-54371490D01*
X57370772Y-54418445D01*
X57351995Y-54463778D01*
X57328864Y-54507051D01*
X57301604Y-54547850D01*
X57270476Y-54585779D01*
X57235779Y-54620476D01*
X57197850Y-54651604D01*
X57157051Y-54678864D01*
X57113778Y-54701995D01*
X57068445Y-54720772D01*
X57021490Y-54735016D01*
X56973365Y-54744588D01*
X56924534Y-54749398D01*
X56900000Y-54749398D01*
X56900000Y-54750000D01*
X56400000Y-54750000D01*
X56400000Y-53250000D01*
G37*
%TD.AperFunction*%
%TA.AperFunction,SMDPad,CuDef*%
%TO.P,JP5,2*%
%TO.N,/RS232_RTS*%
G36*
X55600000Y-54749398D02*
G01*
X55575466Y-54749398D01*
X55526635Y-54744588D01*
X55478510Y-54735016D01*
X55431555Y-54720772D01*
X55386222Y-54701995D01*
X55342949Y-54678864D01*
X55302150Y-54651604D01*
X55264221Y-54620476D01*
X55229524Y-54585779D01*
X55198396Y-54547850D01*
X55171136Y-54507051D01*
X55148005Y-54463778D01*
X55129228Y-54418445D01*
X55114984Y-54371490D01*
X55105412Y-54323365D01*
X55100602Y-54274534D01*
X55100602Y-54250000D01*
X55100000Y-54250000D01*
X55100000Y-53750000D01*
X55100602Y-53750000D01*
X55100602Y-53725466D01*
X55105412Y-53676635D01*
X55114984Y-53628510D01*
X55129228Y-53581555D01*
X55148005Y-53536222D01*
X55171136Y-53492949D01*
X55198396Y-53452150D01*
X55229524Y-53414221D01*
X55264221Y-53379524D01*
X55302150Y-53348396D01*
X55342949Y-53321136D01*
X55386222Y-53298005D01*
X55431555Y-53279228D01*
X55478510Y-53264984D01*
X55526635Y-53255412D01*
X55575466Y-53250602D01*
X55600000Y-53250602D01*
X55600000Y-53250000D01*
X56100000Y-53250000D01*
X56100000Y-54750000D01*
X55600000Y-54750000D01*
X55600000Y-54749398D01*
G37*
%TD.AperFunction*%
%TD*%
%TO.P,R1,1*%
%TO.N,/A_LED*%
%TA.AperFunction,SMDPad,CuDef*%
G36*
G01*
X21400000Y-54762500D02*
X21400000Y-55237500D01*
G75*
G02*
X21162500Y-55475000I-237500J0D01*
G01*
X20662500Y-55475000D01*
G75*
G02*
X20425000Y-55237500I0J237500D01*
G01*
X20425000Y-54762500D01*
G75*
G02*
X20662500Y-54525000I237500J0D01*
G01*
X21162500Y-54525000D01*
G75*
G02*
X21400000Y-54762500I0J-237500D01*
G01*
G37*
%TD.AperFunction*%
%TO.P,R1,2*%
%TO.N,Net-(D1-Pad2)*%
%TA.AperFunction,SMDPad,CuDef*%
G36*
G01*
X19575000Y-54762500D02*
X19575000Y-55237500D01*
G75*
G02*
X19337500Y-55475000I-237500J0D01*
G01*
X18837500Y-55475000D01*
G75*
G02*
X18600000Y-55237500I0J237500D01*
G01*
X18600000Y-54762500D01*
G75*
G02*
X18837500Y-54525000I237500J0D01*
G01*
X19337500Y-54525000D01*
G75*
G02*
X19575000Y-54762500I0J-237500D01*
G01*
G37*
%TD.AperFunction*%
%TD*%
%TO.P,R2,2*%
%TO.N,+5V*%
%TA.AperFunction,SMDPad,CuDef*%
G36*
G01*
X8075000Y-54762500D02*
X8075000Y-55237500D01*
G75*
G02*
X7837500Y-55475000I-237500J0D01*
G01*
X7337500Y-55475000D01*
G75*
G02*
X7100000Y-55237500I0J237500D01*
G01*
X7100000Y-54762500D01*
G75*
G02*
X7337500Y-54525000I237500J0D01*
G01*
X7837500Y-54525000D01*
G75*
G02*
X8075000Y-54762500I0J-237500D01*
G01*
G37*
%TD.AperFunction*%
%TO.P,R2,1*%
%TO.N,Net-(D2-Pad2)*%
%TA.AperFunction,SMDPad,CuDef*%
G36*
G01*
X9900000Y-54762500D02*
X9900000Y-55237500D01*
G75*
G02*
X9662500Y-55475000I-237500J0D01*
G01*
X9162500Y-55475000D01*
G75*
G02*
X8925000Y-55237500I0J237500D01*
G01*
X8925000Y-54762500D01*
G75*
G02*
X9162500Y-54525000I237500J0D01*
G01*
X9662500Y-54525000D01*
G75*
G02*
X9900000Y-54762500I0J-237500D01*
G01*
G37*
%TD.AperFunction*%
%TD*%
D32*
%TO.P,RN1,6*%
%TO.N,DIO2*%
X59500000Y-18340000D03*
%TO.P,RN1,5*%
%TO.N,DIO1*%
X59500000Y-17000000D03*
%TO.P,RN1,8*%
%TO.N,DIO4*%
X59500000Y-21000000D03*
%TO.P,RN1,7*%
%TO.N,DIO3*%
X59500000Y-19660000D03*
%TO.P,RN1,3*%
%TO.N,/GPIB_DIO2*%
X62500000Y-18340000D03*
%TO.P,RN1,2*%
%TO.N,/GPIB_DIO3*%
X62500000Y-19660000D03*
%TO.P,RN1,4*%
%TO.N,/GPIB_DIO1*%
X62500000Y-17000000D03*
%TO.P,RN1,1*%
%TO.N,/GPIB_DIO4*%
X62500000Y-21000000D03*
%TD*%
%TO.P,RN2,1*%
%TO.N,/GPIB_REN*%
X62500000Y-36500000D03*
%TO.P,RN2,4*%
%TO.N,/GPIB_NRFD*%
X62500000Y-32500000D03*
%TO.P,RN2,2*%
%TO.N,/GPIB_IFC*%
X62500000Y-35160000D03*
%TO.P,RN2,3*%
%TO.N,/GPIB_NDAC*%
X62500000Y-33840000D03*
%TO.P,RN2,7*%
%TO.N,IFC*%
X59500000Y-35160000D03*
%TO.P,RN2,8*%
%TO.N,REN*%
X59500000Y-36500000D03*
%TO.P,RN2,5*%
%TO.N,NRFD*%
X59500000Y-32500000D03*
%TO.P,RN2,6*%
%TO.N,NDAC*%
X59500000Y-33840000D03*
%TD*%
%TO.P,RN3,1*%
%TO.N,/GPIB_DIO8*%
X62500000Y-14500000D03*
%TO.P,RN3,4*%
%TO.N,/GPIB_DIO5*%
X62500000Y-10500000D03*
%TO.P,RN3,2*%
%TO.N,/GPIB_DIO7*%
X62500000Y-13160000D03*
%TO.P,RN3,3*%
%TO.N,/GPIB_DIO6*%
X62500000Y-11840000D03*
%TO.P,RN3,7*%
%TO.N,DIO7*%
X59500000Y-13160000D03*
%TO.P,RN3,8*%
%TO.N,DIO8*%
X59500000Y-14500000D03*
%TO.P,RN3,5*%
%TO.N,DIO5*%
X59500000Y-10500000D03*
%TO.P,RN3,6*%
%TO.N,DIO6*%
X59500000Y-11840000D03*
%TD*%
%TO.P,RN4,6*%
%TO.N,ATN*%
X59500000Y-27340000D03*
%TO.P,RN4,5*%
%TO.N,SRQ*%
X59500000Y-26000000D03*
%TO.P,RN4,8*%
%TO.N,DAV*%
X59500000Y-30000000D03*
%TO.P,RN4,7*%
%TO.N,EOI*%
X59500000Y-28660000D03*
%TO.P,RN4,3*%
%TO.N,/GPIB_ATN*%
X62500000Y-27340000D03*
%TO.P,RN4,2*%
%TO.N,/GPIB_EOI*%
X62500000Y-28660000D03*
%TO.P,RN4,4*%
%TO.N,/GPIB_SRQ*%
X62500000Y-26000000D03*
%TO.P,RN4,1*%
%TO.N,/GPIB_DAV*%
X62500000Y-30000000D03*
%TD*%
D17*
%TO.P,U3,20*%
%TO.N,+5V*%
X56250000Y-21465000D03*
%TO.P,U3,19*%
%TO.N,DIO4*%
X56250000Y-20195000D03*
%TO.P,U3,18*%
%TO.N,DIO3*%
X56250000Y-18925000D03*
%TO.P,U3,17*%
%TO.N,DIO2*%
X56250000Y-17655000D03*
%TO.P,U3,16*%
%TO.N,DIO1*%
X56250000Y-16385000D03*
%TO.P,U3,15*%
%TO.N,DIO8*%
X56250000Y-15115000D03*
%TO.P,U3,14*%
%TO.N,DIO7*%
X56250000Y-13845000D03*
%TO.P,U3,13*%
%TO.N,DIO6*%
X56250000Y-12575000D03*
%TO.P,U3,12*%
%TO.N,DIO5*%
X56250000Y-11305000D03*
%TO.P,U3,11*%
%TO.N,PE*%
X56250000Y-10035000D03*
%TO.P,U3,10*%
%TO.N,GND*%
X65750000Y-10035000D03*
%TO.P,U3,9*%
%TO.N,/GPIB_DIO5*%
X65750000Y-11305000D03*
%TO.P,U3,8*%
%TO.N,/GPIB_DIO6*%
X65750000Y-12575000D03*
%TO.P,U3,7*%
%TO.N,/GPIB_DIO7*%
X65750000Y-13845000D03*
%TO.P,U3,1*%
%TO.N,TE*%
X65750000Y-21465000D03*
%TO.P,U3,2*%
%TO.N,/GPIB_DIO4*%
X65750000Y-20195000D03*
%TO.P,U3,3*%
%TO.N,/GPIB_DIO3*%
X65750000Y-18925000D03*
%TO.P,U3,4*%
%TO.N,/GPIB_DIO2*%
X65750000Y-17655000D03*
%TO.P,U3,5*%
%TO.N,/GPIB_DIO1*%
X65750000Y-16385000D03*
%TO.P,U3,6*%
%TO.N,/GPIB_DIO8*%
X65750000Y-15115000D03*
%TD*%
D33*
%TO.N,+3V3*%
X31750000Y-11000000D03*
X54750000Y-48750000D03*
X52250000Y-33250000D03*
X52250000Y-29250000D03*
%TO.N,GND*%
X64250000Y-10000000D03*
X21000000Y-30250000D03*
X19500000Y-30250000D03*
X20250000Y-29500000D03*
X18000000Y-30250000D03*
X18750000Y-29500000D03*
X16500000Y-30250000D03*
X17250000Y-29500000D03*
X15000000Y-30250000D03*
X15750000Y-29500000D03*
X14250000Y-29500000D03*
X13500000Y-30250000D03*
X12750000Y-29500000D03*
X12000000Y-30250000D03*
X21000000Y-42750000D03*
X19500000Y-42750000D03*
X18000000Y-42750000D03*
X16500000Y-42750000D03*
X15000000Y-42750000D03*
X13500000Y-42750000D03*
X12000000Y-42750000D03*
X20250000Y-43500000D03*
X18750000Y-43500000D03*
X17250000Y-43500000D03*
X15750000Y-43500000D03*
X14250000Y-43500000D03*
X12750000Y-43500000D03*
X18000000Y-46000000D03*
X19500000Y-46000000D03*
X21000000Y-46000000D03*
X21000000Y-50000000D03*
X19500000Y-50000000D03*
X18000000Y-50000000D03*
X3750000Y-36500000D03*
X18000000Y-28750000D03*
X19500000Y-28750000D03*
X21000000Y-28750000D03*
X21000000Y-44250000D03*
X19500000Y-44250000D03*
X18000000Y-44250000D03*
X20250000Y-9750000D03*
X19000000Y-9750000D03*
X21500000Y-9750000D03*
X21500000Y-13750000D03*
X20250000Y-13750000D03*
X19000000Y-13750000D03*
X14250000Y-55000000D03*
X10250000Y-40000000D03*
X10250000Y-36500000D03*
X61500000Y-23500000D03*
X63750000Y-25000000D03*
X14750000Y-6000000D03*
X66000000Y-53250000D03*
X67500000Y-39250000D03*
X54750000Y-46750000D03*
X51000000Y-37000000D03*
X13750000Y-8000000D03*
X16500000Y-8000000D03*
%TO.N,+5V*%
X58000000Y-1250000D03*
%TO.N,/A_LED*%
X8500000Y-54000000D03*
%TO.N,UART_CTS*%
X53250000Y-9000000D03*
X42500000Y-11250000D03*
%TO.N,DIO3*%
X57750000Y-10000000D03*
X57675000Y-18925000D03*
%TO.N,DIO2*%
X58590000Y-18340000D03*
%TO.N,DIO4*%
X57695000Y-20195000D03*
%TO.N,DIO1*%
X59500000Y-15750000D03*
%TO.N,TE*%
X63750000Y-22000000D03*
X50250000Y-18250000D03*
D34*
%TO.N,+12V*%
X4350000Y-33100000D03*
%TD*%
D35*
%TO.N,Net-(C1-Pad1)*%
X65267500Y-45655000D02*
X66000000Y-46387500D01*
X62825000Y-45655000D02*
X65267500Y-45655000D01*
%TO.N,Net-(C1-Pad2)*%
X65917500Y-48195000D02*
X66000000Y-48112500D01*
X62825000Y-48195000D02*
X65917500Y-48195000D01*
D36*
%TO.N,+3V3*%
X8250000Y-4890000D02*
X8370000Y-4770000D01*
X8250000Y-6500000D02*
X8250000Y-4890000D01*
X9250000Y-16000000D02*
X8950000Y-16300000D01*
X7000000Y-12500000D02*
X8500000Y-12500000D01*
X8500000Y-12500000D02*
X9250000Y-13250000D01*
X6000000Y-11500000D02*
X7000000Y-12500000D01*
X9250000Y-13250000D02*
X9250000Y-16000000D01*
X6000000Y-8250000D02*
X6000000Y-11500000D01*
X7750000Y-6500000D02*
X6000000Y-8250000D01*
X8250000Y-6500000D02*
X7750000Y-6500000D01*
D35*
X29250000Y-11000000D02*
X31750000Y-11000000D01*
X28250000Y-10000000D02*
X29250000Y-11000000D01*
X24000000Y-10000000D02*
X28250000Y-10000000D01*
X21000000Y-7000000D02*
X24000000Y-10000000D01*
X8750000Y-6979167D02*
X21000000Y-7000000D01*
X8250000Y-6500000D02*
X8750000Y-6979167D01*
X58175000Y-48195000D02*
X57055000Y-48195000D01*
X56637500Y-48612500D02*
X55750000Y-48612500D01*
X57055000Y-48195000D02*
X56637500Y-48612500D01*
X55612500Y-48750000D02*
X55750000Y-48612500D01*
X54750000Y-48750000D02*
X55612500Y-48750000D01*
X52337500Y-33162500D02*
X52250000Y-33250000D01*
X52337500Y-32250000D02*
X52337500Y-33162500D01*
X52337500Y-33337500D02*
X52250000Y-33250000D01*
X52337500Y-34250000D02*
X52337500Y-33337500D01*
X52337500Y-29337500D02*
X52250000Y-29250000D01*
X52337500Y-30250000D02*
X52337500Y-29337500D01*
D36*
X8950000Y-16300000D02*
X7750000Y-16300000D01*
D35*
%TO.N,GND*%
X64285000Y-10035000D02*
X64250000Y-10000000D01*
X65750000Y-10035000D02*
X64285000Y-10035000D01*
X13125000Y-55000000D02*
X14250000Y-55000000D01*
X15375000Y-55000000D02*
X14250000Y-55000000D01*
D37*
X6725000Y-36500000D02*
X7225000Y-36500000D01*
D35*
X59112500Y-23500000D02*
X61500000Y-23500000D01*
X64285000Y-25535000D02*
X65750000Y-25535000D01*
X63750000Y-25000000D02*
X64285000Y-25535000D01*
X55787500Y-46925000D02*
X55750000Y-46887500D01*
X58175000Y-46925000D02*
X55787500Y-46925000D01*
X66000000Y-51862500D02*
X66000000Y-53250000D01*
X66000000Y-39137500D02*
X66637500Y-39137500D01*
X66750000Y-39250000D02*
X67500000Y-39250000D01*
X66637500Y-39137500D02*
X66750000Y-39250000D01*
X52387500Y-37000000D02*
X51000000Y-37000000D01*
%TO.N,Net-(C3-Pad1)*%
X65910000Y-44385000D02*
X66000000Y-44475000D01*
X62825000Y-44385000D02*
X65910000Y-44385000D01*
%TO.N,Net-(C3-Pad2)*%
X65635000Y-43115000D02*
X66000000Y-42750000D01*
X62825000Y-43115000D02*
X65635000Y-43115000D01*
%TO.N,Net-(C4-Pad2)*%
X65017500Y-41845000D02*
X66000000Y-40862500D01*
X62825000Y-41845000D02*
X65017500Y-41845000D01*
%TO.N,Net-(C5-Pad2)*%
X63325000Y-46925000D02*
X62325000Y-46925000D01*
X62325000Y-46925000D02*
X62000000Y-47250000D01*
X62000000Y-47250000D02*
X62000000Y-48750000D01*
X62000000Y-48750000D02*
X62250000Y-49000000D01*
X66000000Y-50000000D02*
X66000000Y-50137500D01*
X65000000Y-49000000D02*
X66000000Y-50000000D01*
X62250000Y-49000000D02*
X65000000Y-49000000D01*
%TO.N,+5V*%
X57215000Y-21465000D02*
X56250000Y-21465000D01*
X57387500Y-21637500D02*
X57215000Y-21465000D01*
X57387500Y-24387500D02*
X58000000Y-25000000D01*
X57387500Y-23500000D02*
X57387500Y-24387500D01*
X60500000Y-25500000D02*
X60000000Y-25000000D01*
X60500000Y-37250000D02*
X60500000Y-25500000D01*
X60250000Y-37500000D02*
X60500000Y-37250000D01*
X58500000Y-37500000D02*
X60250000Y-37500000D01*
X57965000Y-36965000D02*
X58500000Y-37500000D01*
X56250000Y-36965000D02*
X57965000Y-36965000D01*
X60000000Y-25000000D02*
X58000000Y-25000000D01*
D38*
X8370000Y-2230000D02*
X10910000Y-2230000D01*
D35*
X57387500Y-22362500D02*
X57387500Y-21637500D01*
X57387500Y-23500000D02*
X57387500Y-22362500D01*
X59887500Y-22362500D02*
X57387500Y-22362500D01*
X60500000Y-21750000D02*
X59887500Y-22362500D01*
X60500000Y-7500000D02*
X60500000Y-21750000D01*
X58000000Y-5000000D02*
X60500000Y-7500000D01*
X58000000Y-1250000D02*
X58000000Y-5000000D01*
D38*
X7000000Y-3600000D02*
X8370000Y-2230000D01*
X7000000Y-6000000D02*
X7000000Y-3600000D01*
X4750000Y-8250000D02*
X7000000Y-6000000D01*
X4750000Y-8250000D02*
X4750000Y-9500000D01*
D36*
X7750000Y-13700000D02*
X7200000Y-13700000D01*
X4750000Y-11250000D02*
X4750000Y-9500000D01*
X7200000Y-13700000D02*
X4750000Y-11250000D01*
D35*
X54147500Y-36965000D02*
X54112500Y-37000000D01*
X56250000Y-36965000D02*
X54147500Y-36965000D01*
X5000000Y-49000000D02*
X7000000Y-51000000D01*
X7000000Y-51000000D02*
X7000000Y-54412500D01*
X1250000Y-49000000D02*
X5000000Y-49000000D01*
X500000Y-48250000D02*
X1250000Y-49000000D01*
X500000Y-31250000D02*
X500000Y-48250000D01*
X1750000Y-30000000D02*
X500000Y-31250000D01*
X7000000Y-54412500D02*
X7587500Y-55000000D01*
X1750000Y-27000000D02*
X1750000Y-30000000D01*
D36*
X1750000Y-14250000D02*
X1750000Y-27000000D01*
X1750000Y-13250000D02*
X1750000Y-14250000D01*
X2250000Y-12750000D02*
X1750000Y-13250000D01*
X3250000Y-12750000D02*
X2250000Y-12750000D01*
X4750000Y-11250000D02*
X3250000Y-12750000D01*
X1750000Y-27000000D02*
X3000000Y-27000000D01*
D35*
%TO.N,/A_LED*%
X8500000Y-54000000D02*
X20500000Y-54000000D01*
X20912500Y-54412500D02*
X20912500Y-55000000D01*
X20500000Y-54000000D02*
X20912500Y-54412500D01*
%TO.N,/RS232_RX*%
X33250000Y-48460000D02*
X33250000Y-48250000D01*
X35520000Y-40750000D02*
X35500000Y-40750000D01*
X35500000Y-40750000D02*
X34000000Y-42250000D01*
X34000000Y-42250000D02*
X33500000Y-42250000D01*
X33500000Y-42250000D02*
X32750000Y-43000000D01*
X32750000Y-43000000D02*
X32750000Y-46500000D01*
X33250000Y-47000000D02*
X33250000Y-48460000D01*
X32750000Y-46500000D02*
X33250000Y-47000000D01*
X35520000Y-40730000D02*
X35520000Y-40750000D01*
X37500000Y-38750000D02*
X35520000Y-40730000D01*
X47250000Y-40250000D02*
X45750000Y-38750000D01*
X47250000Y-42500000D02*
X47250000Y-40250000D01*
X49500000Y-44750000D02*
X47250000Y-42500000D01*
X54250000Y-44750000D02*
X49500000Y-44750000D01*
X45750000Y-38750000D02*
X37500000Y-38750000D01*
X54615000Y-44385000D02*
X54250000Y-44750000D01*
X57675000Y-44385000D02*
X54615000Y-44385000D01*
%TO.N,/RS232_TX*%
X38290000Y-40750000D02*
X38250000Y-40750000D01*
X38250000Y-40750000D02*
X37000000Y-42000000D01*
X37000000Y-42000000D02*
X36250000Y-42000000D01*
X36250000Y-42000000D02*
X35750000Y-42500000D01*
X35750000Y-42500000D02*
X35750000Y-46500000D01*
X35750000Y-46500000D02*
X34500000Y-47750000D01*
X34500000Y-47750000D02*
X34500000Y-49750000D01*
X35750000Y-51000000D02*
X35790000Y-51000000D01*
X34500000Y-49750000D02*
X35750000Y-51000000D01*
X39750000Y-39250000D02*
X38290000Y-40710000D01*
X45500000Y-39250000D02*
X39750000Y-39250000D01*
X46750000Y-40500000D02*
X45500000Y-39250000D01*
X46750000Y-42750000D02*
X46750000Y-40500000D01*
X49250000Y-45250000D02*
X46750000Y-42750000D01*
X38290000Y-40710000D02*
X38290000Y-40750000D01*
X54250000Y-45250000D02*
X49250000Y-45250000D01*
X54655000Y-45655000D02*
X54250000Y-45250000D01*
X57675000Y-45655000D02*
X54655000Y-45655000D01*
%TO.N,/RS232_RTS*%
X40870000Y-51000000D02*
X40870000Y-50870000D01*
X40870000Y-50870000D02*
X39694999Y-49694999D01*
X39694999Y-49694999D02*
X39694999Y-46444999D01*
X36905000Y-43655000D02*
X36905000Y-43590000D01*
X39694999Y-46444999D02*
X36905000Y-43655000D01*
X55600000Y-54000000D02*
X54750000Y-54000000D01*
X54750000Y-54000000D02*
X52750000Y-52000000D01*
X52750000Y-52000000D02*
X46750000Y-52000000D01*
X46750000Y-52000000D02*
X46250000Y-52500000D01*
X42370000Y-52500000D02*
X40870000Y-51000000D01*
X46250000Y-52500000D02*
X42370000Y-52500000D01*
%TO.N,/RS232_CTS*%
X55600000Y-51500000D02*
X46750000Y-51500000D01*
X46750000Y-51500000D02*
X45000000Y-49750000D01*
X42160000Y-49750000D02*
X40870000Y-48460000D01*
X45000000Y-49750000D02*
X42160000Y-49750000D01*
X40870000Y-44785000D02*
X39675000Y-43590000D01*
X40870000Y-48460000D02*
X40870000Y-44785000D01*
%TO.N,/GPIB_DIO1*%
X65750000Y-16385000D02*
X64365000Y-16385000D01*
X63750000Y-17000000D02*
X62500000Y-17000000D01*
X64365000Y-16385000D02*
X63750000Y-17000000D01*
X69880000Y-16120000D02*
X71355000Y-16120000D01*
X69615000Y-16385000D02*
X69880000Y-16120000D01*
X69615000Y-16385000D02*
X65750000Y-16385000D01*
%TO.N,/GPIB_DIO2*%
X65750000Y-17655000D02*
X64345000Y-17655000D01*
X63660000Y-18340000D02*
X62500000Y-18340000D01*
X64345000Y-17655000D02*
X63660000Y-18340000D01*
X69500000Y-18250000D02*
X71325000Y-18250000D01*
X68905000Y-17655000D02*
X69500000Y-18250000D01*
X71325000Y-18250000D02*
X71355000Y-18280000D01*
X65750000Y-17655000D02*
X68905000Y-17655000D01*
%TO.N,/GPIB_DIO3*%
X65750000Y-18925000D02*
X64325000Y-18925000D01*
X63590000Y-19660000D02*
X62500000Y-19660000D01*
X64325000Y-18925000D02*
X63590000Y-19660000D01*
X71190000Y-20440000D02*
X71355000Y-20440000D01*
X69675000Y-18925000D02*
X71190000Y-20440000D01*
X69675000Y-18925000D02*
X65750000Y-18925000D01*
%TO.N,/GPIB_DIO4*%
X65750000Y-20195000D02*
X64305000Y-20195000D01*
X63500000Y-21000000D02*
X62500000Y-21000000D01*
X64305000Y-20195000D02*
X63500000Y-21000000D01*
X71100000Y-22600000D02*
X71355000Y-22600000D01*
X70000000Y-21500000D02*
X71100000Y-22600000D01*
X70000000Y-20500000D02*
X70000000Y-21500000D01*
X69695000Y-20195000D02*
X70000000Y-20500000D01*
X69695000Y-20195000D02*
X65750000Y-20195000D01*
%TO.N,/GPIB_EOI*%
X65750000Y-29345000D02*
X64345000Y-29345000D01*
X63660000Y-28660000D02*
X62500000Y-28660000D01*
X64345000Y-29345000D02*
X63660000Y-28660000D01*
X70990000Y-24760000D02*
X71355000Y-24760000D01*
X69500000Y-26250000D02*
X70990000Y-24760000D01*
X69500000Y-28750000D02*
X69500000Y-26250000D01*
X68905000Y-29345000D02*
X69500000Y-28750000D01*
X65750000Y-29345000D02*
X68905000Y-29345000D01*
%TO.N,/GPIB_DAV*%
X65750000Y-30615000D02*
X64365000Y-30615000D01*
X63750000Y-30000000D02*
X62500000Y-30000000D01*
X64365000Y-30615000D02*
X63750000Y-30000000D01*
X70000000Y-28000000D02*
X71080000Y-26920000D01*
X70000000Y-29250000D02*
X70000000Y-28000000D01*
X71080000Y-26920000D02*
X71355000Y-26920000D01*
X68635000Y-30615000D02*
X70000000Y-29250000D01*
X68635000Y-30615000D02*
X65750000Y-30615000D01*
%TO.N,/GPIB_NRFD*%
X65750000Y-31885000D02*
X64365000Y-31885000D01*
X63750000Y-32500000D02*
X62500000Y-32500000D01*
X64365000Y-31885000D02*
X63750000Y-32500000D01*
X71170000Y-29080000D02*
X71355000Y-29080000D01*
X68365000Y-31885000D02*
X71170000Y-29080000D01*
X68365000Y-31885000D02*
X65750000Y-31885000D01*
%TO.N,/GPIB_NDAC*%
X65750000Y-33155000D02*
X64345000Y-33155000D01*
X63660000Y-33840000D02*
X62500000Y-33840000D01*
X64345000Y-33155000D02*
X63660000Y-33840000D01*
X71345000Y-31250000D02*
X71355000Y-31240000D01*
X70000000Y-31250000D02*
X71345000Y-31250000D01*
X68095000Y-33155000D02*
X70000000Y-31250000D01*
X65750000Y-33155000D02*
X68095000Y-33155000D01*
%TO.N,/GPIB_IFC*%
X65750000Y-34425000D02*
X64325000Y-34425000D01*
X63590000Y-35160000D02*
X62500000Y-35160000D01*
X64325000Y-34425000D02*
X63590000Y-35160000D01*
X71255000Y-33500000D02*
X71355000Y-33400000D01*
X69000000Y-33500000D02*
X71255000Y-33500000D01*
X68075000Y-34425000D02*
X69000000Y-33500000D01*
X68075000Y-34425000D02*
X65750000Y-34425000D01*
%TO.N,/GPIB_SRQ*%
X65750000Y-26805000D02*
X64305000Y-26805000D01*
X63500000Y-26000000D02*
X62500000Y-26000000D01*
X64305000Y-26805000D02*
X63500000Y-26000000D01*
X72750000Y-34500000D02*
X71690000Y-35560000D01*
X72750000Y-24184990D02*
X72750000Y-34500000D01*
X72250000Y-23684990D02*
X72750000Y-24184990D01*
X70315010Y-23684990D02*
X72250000Y-23684990D01*
X69750000Y-24250000D02*
X70315010Y-23684990D01*
X69750000Y-25250000D02*
X69750000Y-24250000D01*
X68195000Y-26805000D02*
X69750000Y-25250000D01*
X71690000Y-35560000D02*
X71355000Y-35560000D01*
X68195000Y-26805000D02*
X65750000Y-26805000D01*
%TO.N,/GPIB_ATN*%
X65750000Y-28075000D02*
X64325000Y-28075000D01*
X63590000Y-27340000D02*
X62500000Y-27340000D01*
X64325000Y-28075000D02*
X63590000Y-27340000D01*
X71355000Y-37720000D02*
X70220000Y-37720000D01*
X70220000Y-37720000D02*
X68820001Y-36320001D01*
X61910000Y-27340000D02*
X62500000Y-27340000D01*
X61500000Y-27750000D02*
X61910000Y-27340000D01*
X61500000Y-37000000D02*
X61500000Y-27750000D01*
X62000000Y-37500000D02*
X61500000Y-37000000D01*
X63500000Y-37500000D02*
X62000000Y-37500000D01*
X64679999Y-36320001D02*
X63500000Y-37500000D01*
X68820001Y-36320001D02*
X64679999Y-36320001D01*
%TO.N,/GPIB_DIO5*%
X65750000Y-11305000D02*
X64305000Y-11305000D01*
X63500000Y-10500000D02*
X62500000Y-10500000D01*
X64305000Y-11305000D02*
X63500000Y-10500000D01*
X75370000Y-16120000D02*
X75645000Y-16120000D01*
X74500000Y-15250000D02*
X75370000Y-16120000D01*
X74500000Y-14500000D02*
X74500000Y-15250000D01*
X73250000Y-13250000D02*
X74500000Y-14500000D01*
X70750000Y-13250000D02*
X73250000Y-13250000D01*
X68805000Y-11305000D02*
X70750000Y-13250000D01*
X68805000Y-11305000D02*
X65750000Y-11305000D01*
%TO.N,/GPIB_DIO6*%
X65750000Y-12575000D02*
X64325000Y-12575000D01*
X63590000Y-11840000D02*
X62500000Y-11840000D01*
X64325000Y-12575000D02*
X63590000Y-11840000D01*
X74280000Y-18280000D02*
X75645000Y-18280000D01*
X73000000Y-13750000D02*
X74000000Y-14750000D01*
X74000000Y-18000000D02*
X74280000Y-18280000D01*
X74000000Y-14750000D02*
X74000000Y-18000000D01*
X70500000Y-13750000D02*
X73000000Y-13750000D01*
X69325000Y-12575000D02*
X70500000Y-13750000D01*
X69325000Y-12575000D02*
X65750000Y-12575000D01*
%TO.N,/GPIB_DIO7*%
X65750000Y-13845000D02*
X64345000Y-13845000D01*
X63660000Y-13160000D02*
X62500000Y-13160000D01*
X64345000Y-13845000D02*
X63660000Y-13160000D01*
X73500000Y-20000000D02*
X73940000Y-20440000D01*
X73500000Y-15000000D02*
X73500000Y-20000000D01*
X72750000Y-14250000D02*
X73500000Y-15000000D01*
X70250000Y-14250000D02*
X72750000Y-14250000D01*
X69845000Y-13845000D02*
X70250000Y-14250000D01*
X73940000Y-20440000D02*
X75645000Y-20440000D01*
X69845000Y-13845000D02*
X65750000Y-13845000D01*
%TO.N,/GPIB_DIO8*%
X65750000Y-15115000D02*
X64365000Y-15115000D01*
X63750000Y-14500000D02*
X62500000Y-14500000D01*
X64365000Y-15115000D02*
X63750000Y-14500000D01*
X73000000Y-22000000D02*
X73500000Y-22500000D01*
X75545000Y-22500000D02*
X75645000Y-22600000D01*
X73500000Y-22500000D02*
X75545000Y-22500000D01*
X73000000Y-15250000D02*
X73000000Y-22000000D01*
X72500000Y-14750000D02*
X73000000Y-15250000D01*
X70250000Y-14750000D02*
X72500000Y-14750000D01*
X69885000Y-15115000D02*
X70250000Y-14750000D01*
X65750000Y-15115000D02*
X69885000Y-15115000D01*
%TO.N,/GPIB_REN*%
X65750000Y-35695000D02*
X64305000Y-35695000D01*
X63500000Y-36500000D02*
X62500000Y-36500000D01*
X64305000Y-35695000D02*
X63500000Y-36500000D01*
X73990000Y-24760000D02*
X75645000Y-24760000D01*
X73250000Y-36000000D02*
X73250000Y-25500000D01*
X73250000Y-25500000D02*
X73990000Y-24760000D01*
X72614990Y-36635010D02*
X73250000Y-36000000D01*
X70385010Y-36635010D02*
X72614990Y-36635010D01*
X69445000Y-35695000D02*
X70385010Y-36635010D01*
X65750000Y-35695000D02*
X69445000Y-35695000D01*
%TO.N,UART_RTS*%
X56500000Y-39500000D02*
X56500000Y-40250000D01*
X55500000Y-38500000D02*
X56500000Y-39500000D01*
X50250000Y-38500000D02*
X55500000Y-38500000D01*
X49500000Y-37750000D02*
X50250000Y-38500000D01*
X26150000Y-7750000D02*
X27000000Y-7750000D01*
X56500000Y-40250000D02*
X56825000Y-40575000D01*
X27000000Y-7750000D02*
X27250000Y-8000000D01*
X49500000Y-19500000D02*
X49500000Y-37750000D01*
X27250000Y-8000000D02*
X28500000Y-8000000D01*
X28500000Y-8000000D02*
X29750000Y-9250000D01*
X32750000Y-9250000D02*
X34000000Y-10500000D01*
X42000000Y-12000000D02*
X43000000Y-12000000D01*
X49000000Y-18000000D02*
X49000000Y-19000000D01*
X40500000Y-10500000D02*
X42000000Y-12000000D01*
X56825000Y-40575000D02*
X58175000Y-40575000D01*
X29750000Y-9250000D02*
X32750000Y-9250000D01*
X43000000Y-12000000D02*
X49000000Y-18000000D01*
X34000000Y-10500000D02*
X40500000Y-10500000D01*
X49000000Y-19000000D02*
X49500000Y-19500000D01*
%TO.N,UART_CTS*%
X52850000Y-8600000D02*
X53250000Y-9000000D01*
X52850000Y-7500000D02*
X52850000Y-8600000D01*
X43000000Y-11250000D02*
X42500000Y-11250000D01*
X49500000Y-17750000D02*
X43000000Y-11250000D01*
X49500000Y-18750000D02*
X49500000Y-17750000D01*
X50000000Y-19250000D02*
X49500000Y-18750000D01*
X50000000Y-37500000D02*
X50000000Y-19250000D01*
X50500000Y-38000000D02*
X50000000Y-37500000D01*
X57055000Y-39305000D02*
X55750000Y-38000000D01*
X55750000Y-38000000D02*
X50500000Y-38000000D01*
X58175000Y-39305000D02*
X57055000Y-39305000D01*
%TO.N,Net-(JP2-Pad1)*%
X54150000Y-7500000D02*
X56200000Y-7500000D01*
X51550000Y-2230000D02*
X51550000Y-2300000D01*
X51550000Y-2300000D02*
X52750000Y-3500000D01*
X52750000Y-3500000D02*
X52750000Y-5500000D01*
X52750000Y-5500000D02*
X53500000Y-6250000D01*
X53500000Y-6250000D02*
X53750000Y-6250000D01*
X54150000Y-6650000D02*
X54150000Y-7500000D01*
X53750000Y-6250000D02*
X54150000Y-6650000D01*
%TO.N,Net-(JP3-Pad3)*%
X58800000Y-6550000D02*
X58800000Y-7500000D01*
X58500000Y-6250000D02*
X58800000Y-6550000D01*
X56000000Y-6250000D02*
X58500000Y-6250000D01*
X55250000Y-5500000D02*
X56000000Y-6250000D01*
X55250000Y-3610000D02*
X55250000Y-5500000D01*
X56630000Y-2230000D02*
X55250000Y-3610000D01*
%TO.N,DIO3*%
X56250000Y-18925000D02*
X57675000Y-18925000D01*
X58410000Y-19660000D02*
X59500000Y-19660000D01*
X57675000Y-18925000D02*
X58410000Y-19660000D01*
X57750000Y-10000000D02*
X57750000Y-9250000D01*
X57500000Y-9000000D02*
X57500000Y-7500000D01*
X57750000Y-9250000D02*
X57500000Y-9000000D01*
%TO.N,Net-(JP5-Pad1)*%
X56900000Y-54000000D02*
X56900000Y-53850000D01*
X56900000Y-53850000D02*
X57750000Y-53000000D01*
X57750000Y-53000000D02*
X57750000Y-51250000D01*
X57750000Y-51250000D02*
X61250000Y-47750000D01*
X61250000Y-47750000D02*
X61250000Y-41000000D01*
X61675000Y-40575000D02*
X63325000Y-40575000D01*
X61250000Y-41000000D02*
X61675000Y-40575000D01*
%TO.N,Net-(JP4-Pad1)*%
X61695000Y-39305000D02*
X63325000Y-39305000D01*
X60750000Y-47500000D02*
X60750000Y-40250000D01*
X60750000Y-40250000D02*
X61695000Y-39305000D01*
X56900000Y-51350000D02*
X60750000Y-47500000D01*
X56900000Y-51500000D02*
X56900000Y-51350000D01*
%TO.N,DIO2*%
X56250000Y-17655000D02*
X57655000Y-17655000D01*
X57655000Y-17655000D02*
X58340000Y-18340000D01*
X58590000Y-18340000D02*
X59500000Y-18340000D01*
X58340000Y-18340000D02*
X58590000Y-18340000D01*
%TO.N,DIO4*%
X56250000Y-20195000D02*
X57695000Y-20195000D01*
X58500000Y-21000000D02*
X59500000Y-21000000D01*
X57695000Y-20195000D02*
X58500000Y-21000000D01*
%TO.N,DIO1*%
X56250000Y-16385000D02*
X57635000Y-16385000D01*
X58250000Y-17000000D02*
X59500000Y-17000000D01*
X57635000Y-16385000D02*
X58250000Y-17000000D01*
X59500000Y-15750000D02*
X59500000Y-17000000D01*
%TO.N,REN*%
X56250000Y-35695000D02*
X57695000Y-35695000D01*
X58500000Y-36500000D02*
X59500000Y-36500000D01*
X57695000Y-35695000D02*
X58500000Y-36500000D01*
X56250000Y-35695000D02*
X55695000Y-35695000D01*
X23610000Y-4860000D02*
X23610000Y-4770000D01*
X26750000Y-6000000D02*
X24750000Y-6000000D01*
X27750000Y-7000000D02*
X26750000Y-6000000D01*
X29000000Y-7000000D02*
X27750000Y-7000000D01*
X56250000Y-35695000D02*
X55305000Y-35695000D01*
X55305000Y-35695000D02*
X55250000Y-35750000D01*
X55250000Y-35750000D02*
X51250000Y-35750000D01*
X24750000Y-6000000D02*
X23610000Y-4860000D01*
X30250000Y-8250000D02*
X29000000Y-7000000D01*
X50500000Y-35000000D02*
X50500000Y-19250000D01*
X50500000Y-19250000D02*
X51000000Y-18750000D01*
X51000000Y-18750000D02*
X51000000Y-17750000D01*
X51000000Y-17750000D02*
X43250000Y-10000000D01*
X43250000Y-10000000D02*
X41500000Y-10000000D01*
X41500000Y-10000000D02*
X41000000Y-9500000D01*
X41000000Y-9500000D02*
X34500000Y-9500000D01*
X51250000Y-35750000D02*
X50500000Y-35000000D01*
X34500000Y-9500000D02*
X33250000Y-8250000D01*
X33250000Y-8250000D02*
X30250000Y-8250000D01*
%TO.N,NRFD*%
X56250000Y-31885000D02*
X57635000Y-31885000D01*
X58250000Y-32500000D02*
X59500000Y-32500000D01*
X57635000Y-31885000D02*
X58250000Y-32500000D01*
X56250000Y-31885000D02*
X55635000Y-31885000D01*
X56250000Y-31885000D02*
X55885000Y-31885000D01*
X56250000Y-31885000D02*
X55365000Y-31885000D01*
X55000000Y-32250000D02*
X54162500Y-32250000D01*
X55365000Y-31885000D02*
X55000000Y-32250000D01*
X44000000Y-8500000D02*
X42250000Y-8500000D01*
X30000000Y-5750000D02*
X30000000Y-3500000D01*
X31000000Y-6750000D02*
X30000000Y-5750000D01*
X34000000Y-6750000D02*
X31000000Y-6750000D01*
X52500000Y-17000000D02*
X44000000Y-8500000D01*
X53250000Y-29000000D02*
X52500000Y-28250000D01*
X28730000Y-2230000D02*
X28690000Y-2230000D01*
X54162500Y-32250000D02*
X54162500Y-31662500D01*
X52500000Y-28250000D02*
X52500000Y-17000000D01*
X35250000Y-8000000D02*
X34000000Y-6750000D01*
X42250000Y-8500000D02*
X41750000Y-8000000D01*
X54162500Y-31662500D02*
X53250000Y-30750000D01*
X30000000Y-3500000D02*
X28730000Y-2230000D01*
X41750000Y-8000000D02*
X35250000Y-8000000D01*
X53250000Y-30750000D02*
X53250000Y-29000000D01*
%TO.N,IFC*%
X56250000Y-34425000D02*
X57675000Y-34425000D01*
X58410000Y-35160000D02*
X59500000Y-35160000D01*
X57675000Y-34425000D02*
X58410000Y-35160000D01*
X56250000Y-34425000D02*
X55675000Y-34425000D01*
X56250000Y-34425000D02*
X55925000Y-34425000D01*
X26270000Y-4770000D02*
X26150000Y-4770000D01*
X28000000Y-6500000D02*
X26270000Y-4770000D01*
X56250000Y-34425000D02*
X55825000Y-34425000D01*
X29250000Y-6500000D02*
X28000000Y-6500000D01*
X55825000Y-34425000D02*
X55000000Y-35250000D01*
X55000000Y-35250000D02*
X51500000Y-35250000D01*
X51500000Y-35250000D02*
X51000000Y-34750000D01*
X51000000Y-34750000D02*
X51000000Y-19500000D01*
X43500000Y-9500000D02*
X41750000Y-9500000D01*
X41750000Y-9500000D02*
X41250000Y-9000000D01*
X51000000Y-19500000D02*
X51500000Y-19000000D01*
X51500000Y-17500000D02*
X43500000Y-9500000D01*
X30500000Y-7750000D02*
X29250000Y-6500000D01*
X33500000Y-7750000D02*
X30500000Y-7750000D01*
X51500000Y-19000000D02*
X51500000Y-17500000D01*
X41250000Y-9000000D02*
X34750000Y-9000000D01*
X34750000Y-9000000D02*
X33500000Y-7750000D01*
%TO.N,NDAC*%
X56250000Y-33155000D02*
X57655000Y-33155000D01*
X58340000Y-33840000D02*
X59500000Y-33840000D01*
X57655000Y-33155000D02*
X58340000Y-33840000D01*
X56250000Y-33155000D02*
X55655000Y-33155000D01*
X56250000Y-33155000D02*
X55905000Y-33155000D01*
X27500000Y-3580000D02*
X26150000Y-2230000D01*
X27500000Y-5250000D02*
X27500000Y-3580000D01*
X28250000Y-6000000D02*
X27500000Y-5250000D01*
X30750000Y-7250000D02*
X29500000Y-6000000D01*
X54162500Y-34250000D02*
X54162500Y-34162500D01*
X52750000Y-31250000D02*
X51750000Y-31250000D01*
X33750000Y-7250000D02*
X30750000Y-7250000D01*
X43750000Y-9000000D02*
X42000000Y-9000000D01*
X29500000Y-6000000D02*
X28250000Y-6000000D01*
X53250000Y-31750000D02*
X52750000Y-31250000D01*
X51500000Y-19750000D02*
X52000000Y-19250000D01*
X51750000Y-31250000D02*
X51500000Y-31000000D01*
X52000000Y-19250000D02*
X52000000Y-17250000D01*
X52000000Y-17250000D02*
X43750000Y-9000000D01*
X35000000Y-8500000D02*
X33750000Y-7250000D01*
X51500000Y-31000000D02*
X51500000Y-19750000D01*
X42000000Y-9000000D02*
X41500000Y-8500000D01*
X41500000Y-8500000D02*
X35000000Y-8500000D01*
X53250000Y-32750000D02*
X53250000Y-31750000D01*
X53655000Y-33155000D02*
X53250000Y-32750000D01*
X54162500Y-33162500D02*
X54155000Y-33155000D01*
X54162500Y-34250000D02*
X54162500Y-33162500D01*
X54155000Y-33155000D02*
X53655000Y-33155000D01*
X56250000Y-33155000D02*
X54155000Y-33155000D01*
%TO.N,DIO5*%
X56250000Y-11305000D02*
X57695000Y-11305000D01*
X58500000Y-10500000D02*
X59500000Y-10500000D01*
X57695000Y-11305000D02*
X58500000Y-10500000D01*
X49000000Y-4780000D02*
X49010000Y-4770000D01*
X49000000Y-6750000D02*
X49000000Y-4780000D01*
X53555000Y-11305000D02*
X49000000Y-6750000D01*
X56250000Y-11305000D02*
X53555000Y-11305000D01*
%TO.N,DIO8*%
X56250000Y-15115000D02*
X57635000Y-15115000D01*
X58250000Y-14500000D02*
X59500000Y-14500000D01*
X57635000Y-15115000D02*
X58250000Y-14500000D01*
X56250000Y-15115000D02*
X55865000Y-15115000D01*
X56250000Y-15115000D02*
X55115000Y-15115000D01*
X44770000Y-4770000D02*
X43930000Y-4770000D01*
X55115000Y-15115000D02*
X44770000Y-4770000D01*
%TO.N,DIO6*%
X56250000Y-12575000D02*
X57675000Y-12575000D01*
X58410000Y-11840000D02*
X59500000Y-11840000D01*
X57675000Y-12575000D02*
X58410000Y-11840000D01*
X46480000Y-2230000D02*
X46470000Y-2230000D01*
X47750000Y-3500000D02*
X46480000Y-2230000D01*
X47750000Y-6250000D02*
X47750000Y-3500000D01*
X54075000Y-12575000D02*
X47750000Y-6250000D01*
X56250000Y-12575000D02*
X54075000Y-12575000D01*
%TO.N,DIO7*%
X56250000Y-13845000D02*
X57655000Y-13845000D01*
X58340000Y-13160000D02*
X59500000Y-13160000D01*
X57655000Y-13845000D02*
X58340000Y-13160000D01*
X46470000Y-5720000D02*
X46470000Y-4770000D01*
X54595000Y-13845000D02*
X46470000Y-5720000D01*
X56250000Y-13845000D02*
X54595000Y-13845000D01*
%TO.N,ATN*%
X56250000Y-28075000D02*
X57675000Y-28075000D01*
X58410000Y-27340000D02*
X59500000Y-27340000D01*
X57675000Y-28075000D02*
X58410000Y-27340000D01*
X33770000Y-2270000D02*
X33770000Y-2230000D01*
X35000000Y-3500000D02*
X33770000Y-2270000D01*
X36000000Y-6500000D02*
X35000000Y-5500000D01*
X42500000Y-6500000D02*
X36000000Y-6500000D01*
X43000000Y-7000000D02*
X42500000Y-6500000D01*
X54000000Y-16250000D02*
X44750000Y-7000000D01*
X54000000Y-26250000D02*
X54000000Y-16250000D01*
X55825000Y-28075000D02*
X54000000Y-26250000D01*
X35000000Y-5500000D02*
X35000000Y-3500000D01*
X44750000Y-7000000D02*
X43000000Y-7000000D01*
X56250000Y-28075000D02*
X55825000Y-28075000D01*
%TO.N,EOI*%
X56250000Y-29345000D02*
X57655000Y-29345000D01*
X58340000Y-28660000D02*
X59500000Y-28660000D01*
X57655000Y-29345000D02*
X58340000Y-28660000D01*
X33770000Y-5020000D02*
X33770000Y-4770000D01*
X35750000Y-7000000D02*
X33770000Y-5020000D01*
X42250000Y-7000000D02*
X35750000Y-7000000D01*
X42750000Y-7500000D02*
X42250000Y-7000000D01*
X44500000Y-7500000D02*
X42750000Y-7500000D01*
X53500000Y-16500000D02*
X44500000Y-7500000D01*
X53500000Y-27000000D02*
X53500000Y-16500000D01*
X55845000Y-29345000D02*
X53500000Y-27000000D01*
X56250000Y-29345000D02*
X55845000Y-29345000D01*
%TO.N,SRQ*%
X56250000Y-26805000D02*
X57695000Y-26805000D01*
X58500000Y-26000000D02*
X59500000Y-26000000D01*
X57695000Y-26805000D02*
X58500000Y-26000000D01*
X36310000Y-4810000D02*
X36310000Y-4770000D01*
X37500000Y-6000000D02*
X36310000Y-4810000D01*
X42750000Y-6000000D02*
X37500000Y-6000000D01*
X43250000Y-6500000D02*
X42750000Y-6000000D01*
X45000000Y-6500000D02*
X43250000Y-6500000D01*
X54500000Y-16000000D02*
X45000000Y-6500000D01*
X54500000Y-25500000D02*
X54500000Y-16000000D01*
X55805000Y-26805000D02*
X54500000Y-25500000D01*
X56250000Y-26805000D02*
X55805000Y-26805000D01*
%TO.N,DAV*%
X56250000Y-30615000D02*
X57635000Y-30615000D01*
X58250000Y-30000000D02*
X59500000Y-30000000D01*
X57635000Y-30615000D02*
X58250000Y-30000000D01*
X56250000Y-30615000D02*
X55865000Y-30615000D01*
X56250000Y-30615000D02*
X55365000Y-30615000D01*
X55000000Y-30250000D02*
X54162500Y-30250000D01*
X55365000Y-30615000D02*
X55000000Y-30250000D01*
X54162500Y-29162500D02*
X54162500Y-30250000D01*
X53000000Y-28000000D02*
X54162500Y-29162500D01*
X44250000Y-8000000D02*
X53000000Y-16750000D01*
X35500000Y-7500000D02*
X42000000Y-7500000D01*
X53000000Y-16750000D02*
X53000000Y-28000000D01*
X42500000Y-8000000D02*
X44250000Y-8000000D01*
X34250000Y-6250000D02*
X35500000Y-7500000D01*
X42000000Y-7500000D02*
X42500000Y-8000000D01*
X32500000Y-6250000D02*
X34250000Y-6250000D01*
X31230000Y-4980000D02*
X32500000Y-6250000D01*
X31230000Y-4770000D02*
X31230000Y-4980000D01*
%TO.N,PE*%
X38850000Y-2150000D02*
X38850000Y-2230000D01*
X40000000Y-1000000D02*
X38850000Y-2150000D01*
X49500000Y-1000000D02*
X40000000Y-1000000D01*
X50250000Y-7250000D02*
X50250000Y-1750000D01*
X53000000Y-10035000D02*
X50250000Y-7250000D01*
X50250000Y-1750000D02*
X49500000Y-1000000D01*
X56250000Y-10035000D02*
X53000000Y-10035000D01*
%TO.N,DC*%
X42750000Y-4250000D02*
X42000000Y-3500000D01*
X42750000Y-5250000D02*
X42750000Y-4250000D01*
X36310000Y-2310000D02*
X36310000Y-2230000D01*
X43500000Y-6000000D02*
X42750000Y-5250000D01*
X45250000Y-6000000D02*
X43500000Y-6000000D01*
X55000000Y-15750000D02*
X45250000Y-6000000D01*
X37500000Y-3500000D02*
X36310000Y-2310000D01*
X55000000Y-24750000D02*
X55000000Y-15750000D01*
X55785000Y-25535000D02*
X55000000Y-24750000D01*
X42000000Y-3500000D02*
X37500000Y-3500000D01*
X56250000Y-25535000D02*
X55785000Y-25535000D01*
%TO.N,TE*%
X64285000Y-21465000D02*
X65750000Y-21465000D01*
X63750000Y-22000000D02*
X64285000Y-21465000D01*
X21230000Y-2230000D02*
X21070000Y-2230000D01*
X22250000Y-3250000D02*
X21230000Y-2230000D01*
X22250000Y-5250000D02*
X22250000Y-3250000D01*
X28750000Y-7500000D02*
X27500000Y-7500000D01*
X43000000Y-10500000D02*
X41250000Y-10500000D01*
X33000000Y-8750000D02*
X30000000Y-8750000D01*
X23500000Y-6500000D02*
X22250000Y-5250000D01*
X50250000Y-17750000D02*
X43000000Y-10500000D01*
X41250000Y-10500000D02*
X40750000Y-10000000D01*
X50250000Y-18250000D02*
X50250000Y-17750000D01*
X40750000Y-10000000D02*
X34250000Y-10000000D01*
X34250000Y-10000000D02*
X33000000Y-8750000D01*
X30000000Y-8750000D02*
X28750000Y-7500000D01*
X27500000Y-7500000D02*
X26500000Y-6500000D01*
X26500000Y-6500000D02*
X23500000Y-6500000D01*
X63750000Y-22750000D02*
X63750000Y-22000000D01*
X61000000Y-25500000D02*
X63750000Y-22750000D01*
X61000000Y-37250000D02*
X61000000Y-25500000D01*
X61750000Y-38000000D02*
X61000000Y-37250000D01*
X63750000Y-38000000D02*
X61750000Y-38000000D01*
X64785000Y-36965000D02*
X63750000Y-38000000D01*
X65750000Y-36965000D02*
X64785000Y-36965000D01*
%TO.N,UART_RX*%
X19750000Y-3500000D02*
X18530000Y-2280000D01*
X24500000Y-9000000D02*
X21500000Y-6000000D01*
X18530000Y-2280000D02*
X18530000Y-2230000D01*
X28750000Y-9000000D02*
X24500000Y-9000000D01*
X29500000Y-9750000D02*
X28750000Y-9000000D01*
X32500000Y-9750000D02*
X29500000Y-9750000D01*
X19750000Y-5500000D02*
X19750000Y-3500000D01*
X40250000Y-11000000D02*
X33750000Y-11000000D01*
X20250000Y-6000000D02*
X19750000Y-5500000D01*
X21500000Y-6000000D02*
X20250000Y-6000000D01*
X41750000Y-12500000D02*
X40250000Y-11000000D01*
X56000000Y-39750000D02*
X55250000Y-39000000D01*
X48500000Y-18250000D02*
X42750000Y-12500000D01*
X59135000Y-43115000D02*
X59500000Y-42750000D01*
X59219990Y-41219990D02*
X56469990Y-41219990D01*
X59500000Y-41500000D02*
X59219990Y-41219990D01*
X56469990Y-41219990D02*
X56000000Y-40750000D01*
X59500000Y-42750000D02*
X59500000Y-41500000D01*
X55250000Y-39000000D02*
X50000000Y-39000000D01*
X33750000Y-11000000D02*
X32500000Y-9750000D01*
X58175000Y-43115000D02*
X59135000Y-43115000D01*
X56000000Y-40750000D02*
X56000000Y-39750000D01*
X42750000Y-12500000D02*
X41750000Y-12500000D01*
X50000000Y-39000000D02*
X49000000Y-38000000D01*
X49000000Y-38000000D02*
X49000000Y-19750000D01*
X49000000Y-19750000D02*
X48500000Y-19250000D01*
X48500000Y-19250000D02*
X48500000Y-18250000D01*
%TO.N,UART_TX*%
X55500000Y-40000000D02*
X55500000Y-41000000D01*
X49750000Y-39500000D02*
X55000000Y-39500000D01*
X48500000Y-38250000D02*
X49750000Y-39500000D01*
X48500000Y-20000000D02*
X48500000Y-38250000D01*
X48000000Y-18500000D02*
X48000000Y-19500000D01*
X41500000Y-13000000D02*
X42500000Y-13000000D01*
X40000000Y-11500000D02*
X41500000Y-13000000D01*
X15990000Y-2230000D02*
X15990000Y-2240000D01*
X42500000Y-13000000D02*
X48000000Y-18500000D01*
X17250000Y-3500000D02*
X17250000Y-5500000D01*
X55000000Y-39500000D02*
X55500000Y-40000000D01*
X48000000Y-19500000D02*
X48500000Y-20000000D01*
X21250000Y-6500000D02*
X24250000Y-9500000D01*
X17750000Y-6000000D02*
X19500000Y-6000000D01*
X17250000Y-5500000D02*
X17750000Y-6000000D01*
X19500000Y-6000000D02*
X20000000Y-6500000D01*
X20000000Y-6500000D02*
X21250000Y-6500000D01*
X28500000Y-9500000D02*
X29250000Y-10250000D01*
X32250000Y-10250000D02*
X33500000Y-11500000D01*
X15990000Y-2240000D02*
X17250000Y-3500000D01*
X29250000Y-10250000D02*
X32250000Y-10250000D01*
X24250000Y-9500000D02*
X28500000Y-9500000D01*
X33500000Y-11500000D02*
X40000000Y-11500000D01*
X56345000Y-41845000D02*
X55500000Y-41000000D01*
X58175000Y-41845000D02*
X56345000Y-41845000D01*
D37*
%TO.N,+12V*%
X5000000Y-43500000D02*
X9250000Y-43500000D01*
X11500000Y-45750000D02*
X11500000Y-48000000D01*
X9250000Y-43500000D02*
X11500000Y-45750000D01*
X4350000Y-33100000D02*
X7225000Y-33100000D01*
%TO.N,Net-(D3-Pad1)*%
X10050000Y-24000000D02*
X9050000Y-24000000D01*
X2550000Y-34800000D02*
X7225000Y-34800000D01*
X2000000Y-34250000D02*
X2550000Y-34800000D01*
X2000000Y-33750000D02*
X2000000Y-34250000D01*
X10000000Y-28750000D02*
X10050000Y-24000000D01*
X7500000Y-31250000D02*
X10000000Y-28750000D01*
X3750000Y-31250000D02*
X7500000Y-31250000D01*
X2000000Y-33000000D02*
X3750000Y-31250000D01*
X2000000Y-33750000D02*
X2000000Y-33000000D01*
D36*
%TO.N,Net-(J4-Pad1)*%
X7750000Y-15000000D02*
X6750000Y-15000000D01*
X5750000Y-14000000D02*
X3500000Y-14000000D01*
X6750000Y-15000000D02*
X5750000Y-14000000D01*
D35*
%TO.N,Net-(D1-Pad2)*%
X17125000Y-55000000D02*
X19087500Y-55000000D01*
%TO.N,Net-(D2-Pad2)*%
X11375000Y-55000000D02*
X9412500Y-55000000D01*
%TO.N,+5VP*%
X12250000Y-27250000D02*
X12250000Y-11750000D01*
X11000000Y-28500000D02*
X12250000Y-27250000D01*
X11000000Y-37500000D02*
X11000000Y-28500000D01*
X10300000Y-38200000D02*
X11000000Y-37500000D01*
X6725000Y-38200000D02*
X10300000Y-38200000D01*
D37*
X7290000Y-9500000D02*
X11750000Y-9500000D01*
X12250000Y-10000000D02*
X12250000Y-11750000D01*
X11750000Y-9500000D02*
X12250000Y-10000000D01*
X15000000Y-11750000D02*
X12250000Y-11750000D01*
X16250000Y-13000000D02*
X15000000Y-11750000D01*
X16250000Y-16500000D02*
X16250000Y-13000000D01*
X20000000Y-20250000D02*
X16250000Y-16500000D01*
X20000000Y-23950000D02*
X19950000Y-24000000D01*
X20000000Y-20250000D02*
X20000000Y-23950000D01*
D35*
%TO.N,GPIO17*%
X21070000Y-4820000D02*
X21070000Y-4770000D01*
X24000000Y-7750000D02*
X21070000Y-4820000D01*
X24850000Y-7750000D02*
X24000000Y-7750000D01*
%TD*%
M02*
