%TF.GenerationSoftware,KiCad,Pcbnew,(6.0.2)*%
%TF.CreationDate,2022-03-12T22:20:01+01:00*%
%TF.ProjectId,GrasPiB_v1,47726173-5069-4425-9f76-312e6b696361,3*%
%TF.SameCoordinates,PX6779420PY3305860*%
%TF.FileFunction,Legend,Top*%
%TF.FilePolarity,Positive*%
%FSLAX46Y46*%
G04 Gerber Fmt 4.6, Leading zero omitted, Abs format (unit mm)*
G04 Created by KiCad (PCBNEW (6.0.2)) date 2022-03-12 22:20:01*
%MOMM*%
%LPD*%
G01*
G04 APERTURE LIST*
G04 Aperture macros list*
%AMRoundRect*
0 Rectangle with rounded corners*
0 $1 Rounding radius*
0 $2 $3 $4 $5 $6 $7 $8 $9 X,Y pos of 4 corners*
0 Add a 4 corners polygon primitive as box body*
4,1,4,$2,$3,$4,$5,$6,$7,$8,$9,$2,$3,0*
0 Add four circle primitives for the rounded corners*
1,1,$1+$1,$2,$3*
1,1,$1+$1,$4,$5*
1,1,$1+$1,$6,$7*
1,1,$1+$1,$8,$9*
0 Add four rect primitives between the rounded corners*
20,1,$1+$1,$2,$3,$4,$5,0*
20,1,$1+$1,$4,$5,$6,$7,0*
20,1,$1+$1,$6,$7,$8,$9,0*
20,1,$1+$1,$8,$9,$2,$3,0*%
%AMFreePoly0*
4,1,22,0.500000,-0.750000,0.000000,-0.750000,0.000000,-0.745033,-0.079941,-0.743568,-0.215256,-0.701293,-0.333266,-0.622738,-0.424486,-0.514219,-0.481581,-0.384460,-0.499164,-0.250000,-0.500000,-0.250000,-0.500000,0.250000,-0.499164,0.250000,-0.499963,0.256109,-0.478152,0.396186,-0.417904,0.524511,-0.324060,0.630769,-0.204165,0.706417,-0.067858,0.745374,0.000000,0.744959,0.000000,0.750000,
0.500000,0.750000,0.500000,-0.750000,0.500000,-0.750000,$1*%
%AMFreePoly1*
4,1,20,0.000000,0.744959,0.073905,0.744508,0.209726,0.703889,0.328688,0.626782,0.421226,0.519385,0.479903,0.390333,0.500000,0.250000,0.500000,-0.250000,0.499851,-0.262216,0.476331,-0.402017,0.414519,-0.529596,0.319384,-0.634700,0.198574,-0.708877,0.061801,-0.746166,0.000000,-0.745033,0.000000,-0.750000,-0.500000,-0.750000,-0.500000,0.750000,0.000000,0.750000,0.000000,0.744959,
0.000000,0.744959,$1*%
%AMFreePoly2*
4,1,22,0.550000,-0.750000,0.000000,-0.750000,0.000000,-0.745033,-0.079941,-0.743568,-0.215256,-0.701293,-0.333266,-0.622738,-0.424486,-0.514219,-0.481581,-0.384460,-0.499164,-0.250000,-0.500000,-0.250000,-0.500000,0.250000,-0.499164,0.250000,-0.499963,0.256109,-0.478152,0.396186,-0.417904,0.524511,-0.324060,0.630769,-0.204165,0.706417,-0.067858,0.745374,0.000000,0.744959,0.000000,0.750000,
0.550000,0.750000,0.550000,-0.750000,0.550000,-0.750000,$1*%
%AMFreePoly3*
4,1,20,0.000000,0.744959,0.073905,0.744508,0.209726,0.703889,0.328688,0.626782,0.421226,0.519385,0.479903,0.390333,0.500000,0.250000,0.500000,-0.250000,0.499851,-0.262216,0.476331,-0.402017,0.414519,-0.529596,0.319384,-0.634700,0.198574,-0.708877,0.061801,-0.746166,0.000000,-0.745033,0.000000,-0.750000,-0.550000,-0.750000,-0.550000,0.750000,0.000000,0.750000,0.000000,0.744959,
0.000000,0.744959,$1*%
G04 Aperture macros list end*
%ADD10C,0.120000*%
%ADD11C,0.150000*%
%ADD12C,0.500000*%
%ADD13C,4.000000*%
%ADD14R,1.600000X1.600000*%
%ADD15C,1.600000*%
%ADD16FreePoly0,180.000000*%
%ADD17FreePoly1,180.000000*%
%ADD18FreePoly2,0.000000*%
%ADD19R,1.000000X1.500000*%
%ADD20FreePoly3,0.000000*%
%ADD21RoundRect,0.237500X-0.300000X-0.237500X0.300000X-0.237500X0.300000X0.237500X-0.300000X0.237500X0*%
%ADD22R,0.900000X0.900000*%
%ADD23R,1.500000X0.600000*%
%ADD24RoundRect,0.237500X0.300000X0.237500X-0.300000X0.237500X-0.300000X-0.237500X0.300000X-0.237500X0*%
%ADD25R,1.800000X3.500000*%
%ADD26C,2.700000*%
%ADD27R,2.900000X5.400000*%
%ADD28R,4.600000X1.100000*%
%ADD29R,9.400000X10.800000*%
%ADD30FreePoly2,90.000000*%
%ADD31R,1.500000X1.000000*%
%ADD32FreePoly3,90.000000*%
%ADD33RoundRect,0.237500X0.250000X0.237500X-0.250000X0.237500X-0.250000X-0.237500X0.250000X-0.237500X0*%
%ADD34RoundRect,0.237500X0.287500X0.237500X-0.287500X0.237500X-0.287500X-0.237500X0.287500X-0.237500X0*%
%ADD35RoundRect,0.250000X-1.750000X-1.000000X1.750000X-1.000000X1.750000X1.000000X-1.750000X1.000000X0*%
%ADD36R,2.400000X2.400000*%
%ADD37C,2.400000*%
%ADD38R,1.700000X1.700000*%
%ADD39O,1.700000X1.700000*%
%ADD40RoundRect,0.237500X-0.287500X-0.237500X0.287500X-0.237500X0.287500X0.237500X-0.287500X0.237500X0*%
%ADD41RoundRect,0.237500X-0.237500X0.300000X-0.237500X-0.300000X0.237500X-0.300000X0.237500X0.300000X0*%
%ADD42RoundRect,0.250000X0.600000X-0.600000X0.600000X0.600000X-0.600000X0.600000X-0.600000X-0.600000X0*%
%ADD43C,1.700000*%
%ADD44O,2.000000X1.500000*%
%ADD45C,6.000000*%
%ADD46RoundRect,0.150000X0.725000X0.150000X-0.725000X0.150000X-0.725000X-0.150000X0.725000X-0.150000X0*%
%ADD47RoundRect,0.237500X0.237500X-0.300000X0.237500X0.300000X-0.237500X0.300000X-0.237500X-0.300000X0*%
%ADD48RoundRect,0.237500X-0.250000X-0.237500X0.250000X-0.237500X0.250000X0.237500X-0.250000X0.237500X0*%
%ADD49RoundRect,0.400000X-0.400000X-0.400000X0.400000X-0.400000X0.400000X0.400000X-0.400000X0.400000X0*%
%ADD50RoundRect,0.249999X-0.625001X0.350001X-0.625001X-0.350001X0.625001X-0.350001X0.625001X0.350001X0*%
%ADD51O,1.750000X1.200000*%
%ADD52RoundRect,0.249999X-0.350001X-0.625001X0.350001X-0.625001X0.350001X0.625001X-0.350001X0.625001X0*%
%ADD53O,1.200000X1.750000*%
G04 APERTURE END LIST*
D10*
X45500000Y-36500000D02*
G75*
G03*
X48000000Y-34000000I0J2500000D01*
G01*
X25500000Y-11500000D02*
G75*
G03*
X23000000Y-14000000I0J-2500000D01*
G01*
X23000000Y-34000000D02*
X23000000Y-14000000D01*
X48000000Y-14000000D02*
G75*
G03*
X45500000Y-11500000I-2500000J0D01*
G01*
X48000000Y-34000000D02*
X48000000Y-14000000D01*
X25500000Y-11500000D02*
X45500000Y-11500000D01*
X23000000Y-34000000D02*
G75*
G03*
X25500000Y-36500000I2500000J0D01*
G01*
X45500000Y-36500000D02*
X25500000Y-36500000D01*
X47750000Y-24000000D02*
G75*
G03*
X47750000Y-24000000I-12250000J0D01*
G01*
D11*
X23678571Y-10678571D02*
X23345238Y-10678571D01*
X23345238Y-11202380D02*
X23345238Y-10202380D01*
X23821428Y-10202380D01*
X24154761Y-10916666D02*
X24630952Y-10916666D01*
X24059523Y-11202380D02*
X24392857Y-10202380D01*
X24726190Y-11202380D01*
X25059523Y-11202380D02*
X25059523Y-10202380D01*
X25630952Y-11202380D01*
X25630952Y-10202380D01*
X26821428Y-10297619D02*
X26869047Y-10250000D01*
X26964285Y-10202380D01*
X27202380Y-10202380D01*
X27297619Y-10250000D01*
X27345238Y-10297619D01*
X27392857Y-10392857D01*
X27392857Y-10488095D01*
X27345238Y-10630952D01*
X26773809Y-11202380D01*
X27392857Y-11202380D01*
X28297619Y-10202380D02*
X27821428Y-10202380D01*
X27773809Y-10678571D01*
X27821428Y-10630952D01*
X27916666Y-10583333D01*
X28154761Y-10583333D01*
X28250000Y-10630952D01*
X28297619Y-10678571D01*
X28345238Y-10773809D01*
X28345238Y-11011904D01*
X28297619Y-11107142D01*
X28250000Y-11154761D01*
X28154761Y-11202380D01*
X27916666Y-11202380D01*
X27821428Y-11154761D01*
X27773809Y-11107142D01*
X28678571Y-10202380D02*
X29345238Y-11202380D01*
X29345238Y-10202380D02*
X28678571Y-11202380D01*
X29678571Y-10297619D02*
X29726190Y-10250000D01*
X29821428Y-10202380D01*
X30059523Y-10202380D01*
X30154761Y-10250000D01*
X30202380Y-10297619D01*
X30250000Y-10392857D01*
X30250000Y-10488095D01*
X30202380Y-10630952D01*
X29630952Y-11202380D01*
X30250000Y-11202380D01*
X31154761Y-10202380D02*
X30678571Y-10202380D01*
X30630952Y-10678571D01*
X30678571Y-10630952D01*
X30773809Y-10583333D01*
X31011904Y-10583333D01*
X31107142Y-10630952D01*
X31154761Y-10678571D01*
X31202380Y-10773809D01*
X31202380Y-11011904D01*
X31154761Y-11107142D01*
X31107142Y-11154761D01*
X31011904Y-11202380D01*
X30773809Y-11202380D01*
X30678571Y-11154761D01*
X30630952Y-11107142D01*
D10*
X7311904Y-19423238D02*
X7311904Y-18928000D01*
X7616666Y-19194666D01*
X7616666Y-19080380D01*
X7654761Y-19004190D01*
X7692857Y-18966095D01*
X7769047Y-18928000D01*
X7959523Y-18928000D01*
X8035714Y-18966095D01*
X8073809Y-19004190D01*
X8111904Y-19080380D01*
X8111904Y-19308952D01*
X8073809Y-19385142D01*
X8035714Y-19423238D01*
X7311904Y-18699428D02*
X8111904Y-18432761D01*
X7311904Y-18166095D01*
X7311904Y-17975619D02*
X7311904Y-17480380D01*
X7616666Y-17747047D01*
X7616666Y-17632761D01*
X7654761Y-17556571D01*
X7692857Y-17518476D01*
X7769047Y-17480380D01*
X7959523Y-17480380D01*
X8035714Y-17518476D01*
X8073809Y-17556571D01*
X8111904Y-17632761D01*
X8111904Y-17861333D01*
X8073809Y-17937523D01*
X8035714Y-17975619D01*
D12*
X34144553Y-7250000D02*
X33876696Y-7107142D01*
X33448125Y-7107142D01*
X33001696Y-7250000D01*
X32680267Y-7535714D01*
X32501696Y-7821428D01*
X32287410Y-8392857D01*
X32233839Y-8821428D01*
X32305267Y-9392857D01*
X32412410Y-9678571D01*
X32662410Y-9964285D01*
X33073125Y-10107142D01*
X33358839Y-10107142D01*
X33805267Y-9964285D01*
X33965982Y-9821428D01*
X34090982Y-8821428D01*
X33519553Y-8821428D01*
X35215982Y-10107142D02*
X35465982Y-8107142D01*
X35394553Y-8678571D02*
X35573125Y-8392857D01*
X35733839Y-8250000D01*
X36037410Y-8107142D01*
X36323125Y-8107142D01*
X38358839Y-10107142D02*
X38555267Y-8535714D01*
X38448125Y-8250000D01*
X38180267Y-8107142D01*
X37608839Y-8107142D01*
X37305267Y-8250000D01*
X38376696Y-9964285D02*
X38073125Y-10107142D01*
X37358839Y-10107142D01*
X37090982Y-9964285D01*
X36983839Y-9678571D01*
X37019553Y-9392857D01*
X37198125Y-9107142D01*
X37501696Y-8964285D01*
X38215982Y-8964285D01*
X38519553Y-8821428D01*
X39662410Y-9964285D02*
X39930267Y-10107142D01*
X40501696Y-10107142D01*
X40805267Y-9964285D01*
X40983839Y-9678571D01*
X41001696Y-9535714D01*
X40894553Y-9250000D01*
X40626696Y-9107142D01*
X40198125Y-9107142D01*
X39930267Y-8964285D01*
X39823125Y-8678571D01*
X39840982Y-8535714D01*
X40019553Y-8250000D01*
X40323125Y-8107142D01*
X40751696Y-8107142D01*
X41019553Y-8250000D01*
X42215982Y-10107142D02*
X42590982Y-7107142D01*
X43733839Y-7107142D01*
X44001696Y-7250000D01*
X44126696Y-7392857D01*
X44233839Y-7678571D01*
X44180267Y-8107142D01*
X44001696Y-8392857D01*
X43840982Y-8535714D01*
X43537410Y-8678571D01*
X42394553Y-8678571D01*
X45215982Y-10107142D02*
X45465982Y-8107142D01*
X45590982Y-7107142D02*
X45430267Y-7250000D01*
X45555267Y-7392857D01*
X45715982Y-7250000D01*
X45590982Y-7107142D01*
X45555267Y-7392857D01*
X47840982Y-8535714D02*
X48251696Y-8678571D01*
X48376696Y-8821428D01*
X48483839Y-9107142D01*
X48430267Y-9535714D01*
X48251696Y-9821428D01*
X48090982Y-9964285D01*
X47787410Y-10107142D01*
X46644553Y-10107142D01*
X47019553Y-7107142D01*
X48019553Y-7107142D01*
X48287410Y-7250000D01*
X48412410Y-7392857D01*
X48519553Y-7678571D01*
X48483839Y-7964285D01*
X48305267Y-8250000D01*
X48144553Y-8392857D01*
X47840982Y-8535714D01*
X46840982Y-8535714D01*
D11*
X8619047Y-47071428D02*
X9380952Y-47071428D01*
X36035714Y-38452380D02*
X35702380Y-37976190D01*
X35464285Y-38452380D02*
X35464285Y-37452380D01*
X35845238Y-37452380D01*
X35940476Y-37500000D01*
X35988095Y-37547619D01*
X36035714Y-37642857D01*
X36035714Y-37785714D01*
X35988095Y-37880952D01*
X35940476Y-37928571D01*
X35845238Y-37976190D01*
X35464285Y-37976190D01*
X36416666Y-38404761D02*
X36559523Y-38452380D01*
X36797619Y-38452380D01*
X36892857Y-38404761D01*
X36940476Y-38357142D01*
X36988095Y-38261904D01*
X36988095Y-38166666D01*
X36940476Y-38071428D01*
X36892857Y-38023809D01*
X36797619Y-37976190D01*
X36607142Y-37928571D01*
X36511904Y-37880952D01*
X36464285Y-37833333D01*
X36416666Y-37738095D01*
X36416666Y-37642857D01*
X36464285Y-37547619D01*
X36511904Y-37500000D01*
X36607142Y-37452380D01*
X36845238Y-37452380D01*
X36988095Y-37500000D01*
X37416666Y-38071428D02*
X38178571Y-38071428D01*
X38607142Y-37547619D02*
X38654761Y-37500000D01*
X38750000Y-37452380D01*
X38988095Y-37452380D01*
X39083333Y-37500000D01*
X39130952Y-37547619D01*
X39178571Y-37642857D01*
X39178571Y-37738095D01*
X39130952Y-37880952D01*
X38559523Y-38452380D01*
X39178571Y-38452380D01*
X39511904Y-37452380D02*
X40130952Y-37452380D01*
X39797619Y-37833333D01*
X39940476Y-37833333D01*
X40035714Y-37880952D01*
X40083333Y-37928571D01*
X40130952Y-38023809D01*
X40130952Y-38261904D01*
X40083333Y-38357142D01*
X40035714Y-38404761D01*
X39940476Y-38452380D01*
X39654761Y-38452380D01*
X39559523Y-38404761D01*
X39511904Y-38357142D01*
X40511904Y-37547619D02*
X40559523Y-37500000D01*
X40654761Y-37452380D01*
X40892857Y-37452380D01*
X40988095Y-37500000D01*
X41035714Y-37547619D01*
X41083333Y-37642857D01*
X41083333Y-37738095D01*
X41035714Y-37880952D01*
X40464285Y-38452380D01*
X41083333Y-38452380D01*
X452380Y-7702380D02*
X452380Y-6702380D01*
X833333Y-6702380D01*
X928571Y-6750000D01*
X976190Y-6797619D01*
X1023809Y-6892857D01*
X1023809Y-7035714D01*
X976190Y-7130952D01*
X928571Y-7178571D01*
X833333Y-7226190D01*
X452380Y-7226190D01*
X1357142Y-6702380D02*
X1595238Y-7702380D01*
X1785714Y-6988095D01*
X1976190Y-7702380D01*
X2214285Y-6702380D01*
X3166666Y-7702380D02*
X2833333Y-7226190D01*
X2595238Y-7702380D02*
X2595238Y-6702380D01*
X2976190Y-6702380D01*
X3071428Y-6750000D01*
X3119047Y-6797619D01*
X3166666Y-6892857D01*
X3166666Y-7035714D01*
X3119047Y-7130952D01*
X3071428Y-7178571D01*
X2976190Y-7226190D01*
X2595238Y-7226190D01*
X4309523Y-7654761D02*
X4452380Y-7702380D01*
X4690476Y-7702380D01*
X4785714Y-7654761D01*
X4833333Y-7607142D01*
X4880952Y-7511904D01*
X4880952Y-7416666D01*
X4833333Y-7321428D01*
X4785714Y-7273809D01*
X4690476Y-7226190D01*
X4500000Y-7178571D01*
X4404761Y-7130952D01*
X4357142Y-7083333D01*
X4309523Y-6988095D01*
X4309523Y-6892857D01*
X4357142Y-6797619D01*
X4404761Y-6750000D01*
X4500000Y-6702380D01*
X4738095Y-6702380D01*
X4880952Y-6750000D01*
X5309523Y-7178571D02*
X5642857Y-7178571D01*
X5785714Y-7702380D02*
X5309523Y-7702380D01*
X5309523Y-6702380D01*
X5785714Y-6702380D01*
X6690476Y-7702380D02*
X6214285Y-7702380D01*
X6214285Y-6702380D01*
X49863660Y-9452380D02*
X50071994Y-10452380D01*
X50530327Y-9452380D01*
X51125565Y-10404761D02*
X51024375Y-10452380D01*
X50833898Y-10452380D01*
X50744613Y-10404761D01*
X50708898Y-10309523D01*
X50756517Y-9928571D01*
X50816041Y-9833333D01*
X50917232Y-9785714D01*
X51107708Y-9785714D01*
X51196994Y-9833333D01*
X51232708Y-9928571D01*
X51220803Y-10023809D01*
X50732708Y-10119047D01*
X51595803Y-10452380D02*
X51679136Y-9785714D01*
X51655327Y-9976190D02*
X51714851Y-9880952D01*
X51768422Y-9833333D01*
X51869613Y-9785714D01*
X51964851Y-9785714D01*
X52226755Y-10357142D02*
X52268422Y-10404761D01*
X52214851Y-10452380D01*
X52173184Y-10404761D01*
X52226755Y-10357142D01*
X52214851Y-10452380D01*
X53976755Y-10452380D02*
X53405327Y-10452380D01*
X53691041Y-10452380D02*
X53816041Y-9452380D01*
X53702946Y-9595238D01*
X53595803Y-9690476D01*
X53494613Y-9738095D01*
X7202380Y-11938214D02*
X7202380Y-12414404D01*
X7678571Y-12462023D01*
X7630952Y-12414404D01*
X7583333Y-12319166D01*
X7583333Y-12081071D01*
X7630952Y-11985833D01*
X7678571Y-11938214D01*
X7773809Y-11890595D01*
X8011904Y-11890595D01*
X8107142Y-11938214D01*
X8154761Y-11985833D01*
X8202380Y-12081071D01*
X8202380Y-12319166D01*
X8154761Y-12414404D01*
X8107142Y-12462023D01*
X7202380Y-11604880D02*
X8202380Y-11271547D01*
X7202380Y-10938214D01*
X8619047Y-43571428D02*
X9380952Y-43571428D01*
X9000000Y-43952380D02*
X9000000Y-43190476D01*
X67750000Y-14226190D02*
X67702380Y-14321428D01*
X67702380Y-14464285D01*
X67750000Y-14607142D01*
X67845238Y-14702380D01*
X67940476Y-14750000D01*
X68130952Y-14797619D01*
X68273809Y-14797619D01*
X68464285Y-14750000D01*
X68559523Y-14702380D01*
X68654761Y-14607142D01*
X68702380Y-14464285D01*
X68702380Y-14369047D01*
X68654761Y-14226190D01*
X68607142Y-14178571D01*
X68273809Y-14178571D01*
X68273809Y-14369047D01*
X68702380Y-13750000D02*
X67702380Y-13750000D01*
X67702380Y-13369047D01*
X67750000Y-13273809D01*
X67797619Y-13226190D01*
X67892857Y-13178571D01*
X68035714Y-13178571D01*
X68130952Y-13226190D01*
X68178571Y-13273809D01*
X68226190Y-13369047D01*
X68226190Y-13750000D01*
X68702380Y-12750000D02*
X67702380Y-12750000D01*
X68178571Y-11940476D02*
X68226190Y-11797619D01*
X68273809Y-11750000D01*
X68369047Y-11702380D01*
X68511904Y-11702380D01*
X68607142Y-11750000D01*
X68654761Y-11797619D01*
X68702380Y-11892857D01*
X68702380Y-12273809D01*
X67702380Y-12273809D01*
X67702380Y-11940476D01*
X67750000Y-11845238D01*
X67797619Y-11797619D01*
X67892857Y-11750000D01*
X67988095Y-11750000D01*
X68083333Y-11797619D01*
X68130952Y-11845238D01*
X68178571Y-11940476D01*
X68178571Y-12273809D01*
X6702380Y-21476190D02*
X5702380Y-21476190D01*
X5797619Y-21047619D02*
X5750000Y-21000000D01*
X5702380Y-20904761D01*
X5702380Y-20666666D01*
X5750000Y-20571428D01*
X5797619Y-20523809D01*
X5892857Y-20476190D01*
X5988095Y-20476190D01*
X6130952Y-20523809D01*
X6702380Y-21095238D01*
X6702380Y-20476190D01*
X6607142Y-19476190D02*
X6654761Y-19523809D01*
X6702380Y-19666666D01*
X6702380Y-19761904D01*
X6654761Y-19904761D01*
X6559523Y-20000000D01*
X6464285Y-20047619D01*
X6273809Y-20095238D01*
X6130952Y-20095238D01*
X5940476Y-20047619D01*
X5845238Y-20000000D01*
X5750000Y-19904761D01*
X5702380Y-19761904D01*
X5702380Y-19666666D01*
X5750000Y-19523809D01*
X5797619Y-19476190D01*
D10*
X3102380Y-30942857D02*
X2835714Y-30942857D01*
X2835714Y-31361904D02*
X2835714Y-30561904D01*
X3216666Y-30561904D01*
X3483333Y-31133333D02*
X3864285Y-31133333D01*
X3407142Y-31361904D02*
X3673809Y-30561904D01*
X3940476Y-31361904D01*
X4207142Y-31361904D02*
X4207142Y-30561904D01*
X4664285Y-31361904D01*
X4664285Y-30561904D01*
%TO.C,J1*%
X30983333Y-37561904D02*
X30983333Y-38133333D01*
X30945238Y-38247619D01*
X30869047Y-38323809D01*
X30754761Y-38361904D01*
X30678571Y-38361904D01*
X31783333Y-38361904D02*
X31326190Y-38361904D01*
X31554761Y-38361904D02*
X31554761Y-37561904D01*
X31478571Y-37676190D01*
X31402380Y-37752380D01*
X31326190Y-37790476D01*
%TO.C,JP1*%
X27833333Y-7311904D02*
X27833333Y-7883333D01*
X27795238Y-7997619D01*
X27719047Y-8073809D01*
X27604761Y-8111904D01*
X27528571Y-8111904D01*
X28214285Y-8111904D02*
X28214285Y-7311904D01*
X28519047Y-7311904D01*
X28595238Y-7350000D01*
X28633333Y-7388095D01*
X28671428Y-7464285D01*
X28671428Y-7578571D01*
X28633333Y-7654761D01*
X28595238Y-7692857D01*
X28519047Y-7730952D01*
X28214285Y-7730952D01*
X29433333Y-8111904D02*
X28976190Y-8111904D01*
X29204761Y-8111904D02*
X29204761Y-7311904D01*
X29128571Y-7426190D01*
X29052380Y-7502380D01*
X28976190Y-7540476D01*
%TO.C,JP2*%
X50083333Y-7061904D02*
X50083333Y-7633333D01*
X50045238Y-7747619D01*
X49969047Y-7823809D01*
X49854761Y-7861904D01*
X49778571Y-7861904D01*
X50464285Y-7861904D02*
X50464285Y-7061904D01*
X50769047Y-7061904D01*
X50845238Y-7100000D01*
X50883333Y-7138095D01*
X50921428Y-7214285D01*
X50921428Y-7328571D01*
X50883333Y-7404761D01*
X50845238Y-7442857D01*
X50769047Y-7480952D01*
X50464285Y-7480952D01*
X51226190Y-7138095D02*
X51264285Y-7100000D01*
X51340476Y-7061904D01*
X51530952Y-7061904D01*
X51607142Y-7100000D01*
X51645238Y-7138095D01*
X51683333Y-7214285D01*
X51683333Y-7290476D01*
X51645238Y-7404761D01*
X51188095Y-7861904D01*
X51683333Y-7861904D01*
%TO.C,JP3*%
X60333333Y-7061904D02*
X60333333Y-7633333D01*
X60295238Y-7747619D01*
X60219047Y-7823809D01*
X60104761Y-7861904D01*
X60028571Y-7861904D01*
X60714285Y-7861904D02*
X60714285Y-7061904D01*
X61019047Y-7061904D01*
X61095238Y-7100000D01*
X61133333Y-7138095D01*
X61171428Y-7214285D01*
X61171428Y-7328571D01*
X61133333Y-7404761D01*
X61095238Y-7442857D01*
X61019047Y-7480952D01*
X60714285Y-7480952D01*
X61438095Y-7061904D02*
X61933333Y-7061904D01*
X61666666Y-7366666D01*
X61780952Y-7366666D01*
X61857142Y-7404761D01*
X61895238Y-7442857D01*
X61933333Y-7519047D01*
X61933333Y-7709523D01*
X61895238Y-7785714D01*
X61857142Y-7823809D01*
X61780952Y-7861904D01*
X61552380Y-7861904D01*
X61476190Y-7823809D01*
X61438095Y-7785714D01*
%TO.C,C7*%
X53116666Y-38535714D02*
X53078571Y-38573809D01*
X52964285Y-38611904D01*
X52888095Y-38611904D01*
X52773809Y-38573809D01*
X52697619Y-38497619D01*
X52659523Y-38421428D01*
X52621428Y-38269047D01*
X52621428Y-38154761D01*
X52659523Y-38002380D01*
X52697619Y-37926190D01*
X52773809Y-37850000D01*
X52888095Y-37811904D01*
X52964285Y-37811904D01*
X53078571Y-37850000D01*
X53116666Y-37888095D01*
X53383333Y-37811904D02*
X53916666Y-37811904D01*
X53573809Y-38611904D01*
%TO.C,RN1*%
X61361904Y-19552380D02*
X60980952Y-19819047D01*
X61361904Y-20009523D02*
X60561904Y-20009523D01*
X60561904Y-19704761D01*
X60600000Y-19628571D01*
X60638095Y-19590476D01*
X60714285Y-19552380D01*
X60828571Y-19552380D01*
X60904761Y-19590476D01*
X60942857Y-19628571D01*
X60980952Y-19704761D01*
X60980952Y-20009523D01*
X61361904Y-19209523D02*
X60561904Y-19209523D01*
X61361904Y-18752380D01*
X60561904Y-18752380D01*
X61361904Y-17952380D02*
X61361904Y-18409523D01*
X61361904Y-18180952D02*
X60561904Y-18180952D01*
X60676190Y-18257142D01*
X60752380Y-18333333D01*
X60790476Y-18409523D01*
%TO.C,RN3*%
X61361904Y-13052380D02*
X60980952Y-13319047D01*
X61361904Y-13509523D02*
X60561904Y-13509523D01*
X60561904Y-13204761D01*
X60600000Y-13128571D01*
X60638095Y-13090476D01*
X60714285Y-13052380D01*
X60828571Y-13052380D01*
X60904761Y-13090476D01*
X60942857Y-13128571D01*
X60980952Y-13204761D01*
X60980952Y-13509523D01*
X61361904Y-12709523D02*
X60561904Y-12709523D01*
X61361904Y-12252380D01*
X60561904Y-12252380D01*
X60561904Y-11947619D02*
X60561904Y-11452380D01*
X60866666Y-11719047D01*
X60866666Y-11604761D01*
X60904761Y-11528571D01*
X60942857Y-11490476D01*
X61019047Y-11452380D01*
X61209523Y-11452380D01*
X61285714Y-11490476D01*
X61323809Y-11528571D01*
X61361904Y-11604761D01*
X61361904Y-11833333D01*
X61323809Y-11909523D01*
X61285714Y-11947619D01*
%TO.C,U3*%
X64640476Y-22561904D02*
X64640476Y-23209523D01*
X64678571Y-23285714D01*
X64716666Y-23323809D01*
X64792857Y-23361904D01*
X64945238Y-23361904D01*
X65021428Y-23323809D01*
X65059523Y-23285714D01*
X65097619Y-23209523D01*
X65097619Y-22561904D01*
X65402380Y-22561904D02*
X65897619Y-22561904D01*
X65630952Y-22866666D01*
X65745238Y-22866666D01*
X65821428Y-22904761D01*
X65859523Y-22942857D01*
X65897619Y-23019047D01*
X65897619Y-23209523D01*
X65859523Y-23285714D01*
X65821428Y-23323809D01*
X65745238Y-23361904D01*
X65516666Y-23361904D01*
X65440476Y-23323809D01*
X65402380Y-23285714D01*
%TO.C,RN2*%
X61361904Y-35052380D02*
X60980952Y-35319047D01*
X61361904Y-35509523D02*
X60561904Y-35509523D01*
X60561904Y-35204761D01*
X60600000Y-35128571D01*
X60638095Y-35090476D01*
X60714285Y-35052380D01*
X60828571Y-35052380D01*
X60904761Y-35090476D01*
X60942857Y-35128571D01*
X60980952Y-35204761D01*
X60980952Y-35509523D01*
X61361904Y-34709523D02*
X60561904Y-34709523D01*
X61361904Y-34252380D01*
X60561904Y-34252380D01*
X60638095Y-33909523D02*
X60600000Y-33871428D01*
X60561904Y-33795238D01*
X60561904Y-33604761D01*
X60600000Y-33528571D01*
X60638095Y-33490476D01*
X60714285Y-33452380D01*
X60790476Y-33452380D01*
X60904761Y-33490476D01*
X61361904Y-33947619D01*
X61361904Y-33452380D01*
%TO.C,U4*%
X64640476Y-23811904D02*
X64640476Y-24459523D01*
X64678571Y-24535714D01*
X64716666Y-24573809D01*
X64792857Y-24611904D01*
X64945238Y-24611904D01*
X65021428Y-24573809D01*
X65059523Y-24535714D01*
X65097619Y-24459523D01*
X65097619Y-23811904D01*
X65821428Y-24078571D02*
X65821428Y-24611904D01*
X65630952Y-23773809D02*
X65440476Y-24345238D01*
X65935714Y-24345238D01*
%TO.C,RN4*%
X61361904Y-28552380D02*
X60980952Y-28819047D01*
X61361904Y-29009523D02*
X60561904Y-29009523D01*
X60561904Y-28704761D01*
X60600000Y-28628571D01*
X60638095Y-28590476D01*
X60714285Y-28552380D01*
X60828571Y-28552380D01*
X60904761Y-28590476D01*
X60942857Y-28628571D01*
X60980952Y-28704761D01*
X60980952Y-29009523D01*
X61361904Y-28209523D02*
X60561904Y-28209523D01*
X61361904Y-27752380D01*
X60561904Y-27752380D01*
X60828571Y-27028571D02*
X61361904Y-27028571D01*
X60523809Y-27219047D02*
X61095238Y-27409523D01*
X61095238Y-26914285D01*
%TO.C,C6*%
X60535714Y-23633333D02*
X60573809Y-23671428D01*
X60611904Y-23785714D01*
X60611904Y-23861904D01*
X60573809Y-23976190D01*
X60497619Y-24052380D01*
X60421428Y-24090476D01*
X60269047Y-24128571D01*
X60154761Y-24128571D01*
X60002380Y-24090476D01*
X59926190Y-24052380D01*
X59850000Y-23976190D01*
X59811904Y-23861904D01*
X59811904Y-23785714D01*
X59850000Y-23671428D01*
X59888095Y-23633333D01*
X59811904Y-22947619D02*
X59811904Y-23100000D01*
X59850000Y-23176190D01*
X59888095Y-23214285D01*
X60002380Y-23290476D01*
X60154761Y-23328571D01*
X60459523Y-23328571D01*
X60535714Y-23290476D01*
X60573809Y-23252380D01*
X60611904Y-23176190D01*
X60611904Y-23023809D01*
X60573809Y-22947619D01*
X60535714Y-22909523D01*
X60459523Y-22871428D01*
X60269047Y-22871428D01*
X60192857Y-22909523D01*
X60154761Y-22947619D01*
X60116666Y-23023809D01*
X60116666Y-23176190D01*
X60154761Y-23252380D01*
X60192857Y-23290476D01*
X60269047Y-23328571D01*
%TO.C,D3*%
X4111904Y-40590476D02*
X3311904Y-40590476D01*
X3311904Y-40400000D01*
X3350000Y-40285714D01*
X3426190Y-40209523D01*
X3502380Y-40171428D01*
X3654761Y-40133333D01*
X3769047Y-40133333D01*
X3921428Y-40171428D01*
X3997619Y-40209523D01*
X4073809Y-40285714D01*
X4111904Y-40400000D01*
X4111904Y-40590476D01*
X3311904Y-39866666D02*
X3311904Y-39371428D01*
X3616666Y-39638095D01*
X3616666Y-39523809D01*
X3654761Y-39447619D01*
X3692857Y-39409523D01*
X3769047Y-39371428D01*
X3959523Y-39371428D01*
X4035714Y-39409523D01*
X4073809Y-39447619D01*
X4111904Y-39523809D01*
X4111904Y-39752380D01*
X4073809Y-39828571D01*
X4035714Y-39866666D01*
%TO.C,L1*%
X22611904Y-18383333D02*
X22611904Y-18764285D01*
X21811904Y-18764285D01*
X22611904Y-17697619D02*
X22611904Y-18154761D01*
X22611904Y-17926190D02*
X21811904Y-17926190D01*
X21926190Y-18002380D01*
X22002380Y-18078571D01*
X22040476Y-18154761D01*
%TO.C,U5*%
X6390476Y-31061904D02*
X6390476Y-31709523D01*
X6428571Y-31785714D01*
X6466666Y-31823809D01*
X6542857Y-31861904D01*
X6695238Y-31861904D01*
X6771428Y-31823809D01*
X6809523Y-31785714D01*
X6847619Y-31709523D01*
X6847619Y-31061904D01*
X7609523Y-31061904D02*
X7228571Y-31061904D01*
X7190476Y-31442857D01*
X7228571Y-31404761D01*
X7304761Y-31366666D01*
X7495238Y-31366666D01*
X7571428Y-31404761D01*
X7609523Y-31442857D01*
X7647619Y-31519047D01*
X7647619Y-31709523D01*
X7609523Y-31785714D01*
X7571428Y-31823809D01*
X7495238Y-31861904D01*
X7304761Y-31861904D01*
X7228571Y-31823809D01*
X7190476Y-31785714D01*
%TO.C,JP5*%
X52833333Y-53061904D02*
X52833333Y-53633333D01*
X52795238Y-53747619D01*
X52719047Y-53823809D01*
X52604761Y-53861904D01*
X52528571Y-53861904D01*
X53214285Y-53861904D02*
X53214285Y-53061904D01*
X53519047Y-53061904D01*
X53595238Y-53100000D01*
X53633333Y-53138095D01*
X53671428Y-53214285D01*
X53671428Y-53328571D01*
X53633333Y-53404761D01*
X53595238Y-53442857D01*
X53519047Y-53480952D01*
X53214285Y-53480952D01*
X54395238Y-53061904D02*
X54014285Y-53061904D01*
X53976190Y-53442857D01*
X54014285Y-53404761D01*
X54090476Y-53366666D01*
X54280952Y-53366666D01*
X54357142Y-53404761D01*
X54395238Y-53442857D01*
X54433333Y-53519047D01*
X54433333Y-53709523D01*
X54395238Y-53785714D01*
X54357142Y-53823809D01*
X54280952Y-53861904D01*
X54090476Y-53861904D01*
X54014285Y-53823809D01*
X53976190Y-53785714D01*
%TO.C,JP6*%
X9061904Y-15416666D02*
X9633333Y-15416666D01*
X9747619Y-15454761D01*
X9823809Y-15530952D01*
X9861904Y-15645238D01*
X9861904Y-15721428D01*
X9861904Y-15035714D02*
X9061904Y-15035714D01*
X9061904Y-14730952D01*
X9100000Y-14654761D01*
X9138095Y-14616666D01*
X9214285Y-14578571D01*
X9328571Y-14578571D01*
X9404761Y-14616666D01*
X9442857Y-14654761D01*
X9480952Y-14730952D01*
X9480952Y-15035714D01*
X9061904Y-13892857D02*
X9061904Y-14045238D01*
X9100000Y-14121428D01*
X9138095Y-14159523D01*
X9252380Y-14235714D01*
X9404761Y-14273809D01*
X9709523Y-14273809D01*
X9785714Y-14235714D01*
X9823809Y-14197619D01*
X9861904Y-14121428D01*
X9861904Y-13969047D01*
X9823809Y-13892857D01*
X9785714Y-13854761D01*
X9709523Y-13816666D01*
X9519047Y-13816666D01*
X9442857Y-13854761D01*
X9404761Y-13892857D01*
X9366666Y-13969047D01*
X9366666Y-14121428D01*
X9404761Y-14197619D01*
X9442857Y-14235714D01*
X9519047Y-14273809D01*
%TO.C,R2*%
X7366666Y-54361904D02*
X7100000Y-53980952D01*
X6909523Y-54361904D02*
X6909523Y-53561904D01*
X7214285Y-53561904D01*
X7290476Y-53600000D01*
X7328571Y-53638095D01*
X7366666Y-53714285D01*
X7366666Y-53828571D01*
X7328571Y-53904761D01*
X7290476Y-53942857D01*
X7214285Y-53980952D01*
X6909523Y-53980952D01*
X7671428Y-53638095D02*
X7709523Y-53600000D01*
X7785714Y-53561904D01*
X7976190Y-53561904D01*
X8052380Y-53600000D01*
X8090476Y-53638095D01*
X8128571Y-53714285D01*
X8128571Y-53790476D01*
X8090476Y-53904761D01*
X7633333Y-54361904D01*
X8128571Y-54361904D01*
%TO.C,R1*%
X20866666Y-54361904D02*
X20600000Y-53980952D01*
X20409523Y-54361904D02*
X20409523Y-53561904D01*
X20714285Y-53561904D01*
X20790476Y-53600000D01*
X20828571Y-53638095D01*
X20866666Y-53714285D01*
X20866666Y-53828571D01*
X20828571Y-53904761D01*
X20790476Y-53942857D01*
X20714285Y-53980952D01*
X20409523Y-53980952D01*
X21628571Y-54361904D02*
X21171428Y-54361904D01*
X21400000Y-54361904D02*
X21400000Y-53561904D01*
X21323809Y-53676190D01*
X21247619Y-53752380D01*
X21171428Y-53790476D01*
%TO.C,D2*%
X9909523Y-54361904D02*
X9909523Y-53561904D01*
X10100000Y-53561904D01*
X10214285Y-53600000D01*
X10290476Y-53676190D01*
X10328571Y-53752380D01*
X10366666Y-53904761D01*
X10366666Y-54019047D01*
X10328571Y-54171428D01*
X10290476Y-54247619D01*
X10214285Y-54323809D01*
X10100000Y-54361904D01*
X9909523Y-54361904D01*
X10671428Y-53638095D02*
X10709523Y-53600000D01*
X10785714Y-53561904D01*
X10976190Y-53561904D01*
X11052380Y-53600000D01*
X11090476Y-53638095D01*
X11128571Y-53714285D01*
X11128571Y-53790476D01*
X11090476Y-53904761D01*
X10633333Y-54361904D01*
X11128571Y-54361904D01*
%TO.C,C9*%
X22785714Y-8633333D02*
X22823809Y-8671428D01*
X22861904Y-8785714D01*
X22861904Y-8861904D01*
X22823809Y-8976190D01*
X22747619Y-9052380D01*
X22671428Y-9090476D01*
X22519047Y-9128571D01*
X22404761Y-9128571D01*
X22252380Y-9090476D01*
X22176190Y-9052380D01*
X22100000Y-8976190D01*
X22061904Y-8861904D01*
X22061904Y-8785714D01*
X22100000Y-8671428D01*
X22138095Y-8633333D01*
X22861904Y-8252380D02*
X22861904Y-8100000D01*
X22823809Y-8023809D01*
X22785714Y-7985714D01*
X22671428Y-7909523D01*
X22519047Y-7871428D01*
X22214285Y-7871428D01*
X22138095Y-7909523D01*
X22100000Y-7947619D01*
X22061904Y-8023809D01*
X22061904Y-8176190D01*
X22100000Y-8252380D01*
X22138095Y-8290476D01*
X22214285Y-8328571D01*
X22404761Y-8328571D01*
X22480952Y-8290476D01*
X22519047Y-8252380D01*
X22557142Y-8176190D01*
X22557142Y-8023809D01*
X22519047Y-7947619D01*
X22480952Y-7909523D01*
X22404761Y-7871428D01*
%TO.C,J5*%
X6983333Y-49311904D02*
X6983333Y-49883333D01*
X6945238Y-49997619D01*
X6869047Y-50073809D01*
X6754761Y-50111904D01*
X6678571Y-50111904D01*
X7745238Y-49311904D02*
X7364285Y-49311904D01*
X7326190Y-49692857D01*
X7364285Y-49654761D01*
X7440476Y-49616666D01*
X7630952Y-49616666D01*
X7707142Y-49654761D01*
X7745238Y-49692857D01*
X7783333Y-49769047D01*
X7783333Y-49959523D01*
X7745238Y-50035714D01*
X7707142Y-50073809D01*
X7630952Y-50111904D01*
X7440476Y-50111904D01*
X7364285Y-50073809D01*
X7326190Y-50035714D01*
%TO.C,C8*%
X9116666Y-51785714D02*
X9078571Y-51823809D01*
X8964285Y-51861904D01*
X8888095Y-51861904D01*
X8773809Y-51823809D01*
X8697619Y-51747619D01*
X8659523Y-51671428D01*
X8621428Y-51519047D01*
X8621428Y-51404761D01*
X8659523Y-51252380D01*
X8697619Y-51176190D01*
X8773809Y-51100000D01*
X8888095Y-51061904D01*
X8964285Y-51061904D01*
X9078571Y-51100000D01*
X9116666Y-51138095D01*
X9573809Y-51404761D02*
X9497619Y-51366666D01*
X9459523Y-51328571D01*
X9421428Y-51252380D01*
X9421428Y-51214285D01*
X9459523Y-51138095D01*
X9497619Y-51100000D01*
X9573809Y-51061904D01*
X9726190Y-51061904D01*
X9802380Y-51100000D01*
X9840476Y-51138095D01*
X9878571Y-51214285D01*
X9878571Y-51252380D01*
X9840476Y-51328571D01*
X9802380Y-51366666D01*
X9726190Y-51404761D01*
X9573809Y-51404761D01*
X9497619Y-51442857D01*
X9459523Y-51480952D01*
X9421428Y-51557142D01*
X9421428Y-51709523D01*
X9459523Y-51785714D01*
X9497619Y-51823809D01*
X9573809Y-51861904D01*
X9726190Y-51861904D01*
X9802380Y-51823809D01*
X9840476Y-51785714D01*
X9878571Y-51709523D01*
X9878571Y-51557142D01*
X9840476Y-51480952D01*
X9802380Y-51442857D01*
X9726190Y-51404761D01*
D11*
%TO.C,JP7*%
X7916666Y-6702380D02*
X7916666Y-7416666D01*
X7869047Y-7559523D01*
X7773809Y-7654761D01*
X7630952Y-7702380D01*
X7535714Y-7702380D01*
X8392857Y-7702380D02*
X8392857Y-6702380D01*
X8773809Y-6702380D01*
X8869047Y-6750000D01*
X8916666Y-6797619D01*
X8964285Y-6892857D01*
X8964285Y-7035714D01*
X8916666Y-7130952D01*
X8869047Y-7178571D01*
X8773809Y-7226190D01*
X8392857Y-7226190D01*
X9297619Y-6702380D02*
X9964285Y-6702380D01*
X9535714Y-7702380D01*
D10*
%TO.C,D1*%
X17409523Y-54361904D02*
X17409523Y-53561904D01*
X17600000Y-53561904D01*
X17714285Y-53600000D01*
X17790476Y-53676190D01*
X17828571Y-53752380D01*
X17866666Y-53904761D01*
X17866666Y-54019047D01*
X17828571Y-54171428D01*
X17790476Y-54247619D01*
X17714285Y-54323809D01*
X17600000Y-54361904D01*
X17409523Y-54361904D01*
X18628571Y-54361904D02*
X18171428Y-54361904D01*
X18400000Y-54361904D02*
X18400000Y-53561904D01*
X18323809Y-53676190D01*
X18247619Y-53752380D01*
X18171428Y-53790476D01*
%TO.C,C2*%
X56035714Y-45383333D02*
X56073809Y-45421428D01*
X56111904Y-45535714D01*
X56111904Y-45611904D01*
X56073809Y-45726190D01*
X55997619Y-45802380D01*
X55921428Y-45840476D01*
X55769047Y-45878571D01*
X55654761Y-45878571D01*
X55502380Y-45840476D01*
X55426190Y-45802380D01*
X55350000Y-45726190D01*
X55311904Y-45611904D01*
X55311904Y-45535714D01*
X55350000Y-45421428D01*
X55388095Y-45383333D01*
X55388095Y-45078571D02*
X55350000Y-45040476D01*
X55311904Y-44964285D01*
X55311904Y-44773809D01*
X55350000Y-44697619D01*
X55388095Y-44659523D01*
X55464285Y-44621428D01*
X55540476Y-44621428D01*
X55654761Y-44659523D01*
X56111904Y-45116666D01*
X56111904Y-44621428D01*
D11*
%TO.C,J6*%
X30916666Y-43452380D02*
X30916666Y-44166666D01*
X30869047Y-44309523D01*
X30773809Y-44404761D01*
X30630952Y-44452380D01*
X30535714Y-44452380D01*
X31821428Y-43452380D02*
X31630952Y-43452380D01*
X31535714Y-43500000D01*
X31488095Y-43547619D01*
X31392857Y-43690476D01*
X31345238Y-43880952D01*
X31345238Y-44261904D01*
X31392857Y-44357142D01*
X31440476Y-44404761D01*
X31535714Y-44452380D01*
X31726190Y-44452380D01*
X31821428Y-44404761D01*
X31869047Y-44357142D01*
X31916666Y-44261904D01*
X31916666Y-44023809D01*
X31869047Y-43928571D01*
X31821428Y-43880952D01*
X31726190Y-43833333D01*
X31535714Y-43833333D01*
X31440476Y-43880952D01*
X31392857Y-43928571D01*
X31345238Y-44023809D01*
D10*
%TO.C,J2*%
X68061904Y-24016666D02*
X68633333Y-24016666D01*
X68747619Y-24054761D01*
X68823809Y-24130952D01*
X68861904Y-24245238D01*
X68861904Y-24321428D01*
X68138095Y-23673809D02*
X68100000Y-23635714D01*
X68061904Y-23559523D01*
X68061904Y-23369047D01*
X68100000Y-23292857D01*
X68138095Y-23254761D01*
X68214285Y-23216666D01*
X68290476Y-23216666D01*
X68404761Y-23254761D01*
X68861904Y-23711904D01*
X68861904Y-23216666D01*
%TO.C,U2*%
X56061904Y-39859523D02*
X56709523Y-39859523D01*
X56785714Y-39821428D01*
X56823809Y-39783333D01*
X56861904Y-39707142D01*
X56861904Y-39554761D01*
X56823809Y-39478571D01*
X56785714Y-39440476D01*
X56709523Y-39402380D01*
X56061904Y-39402380D01*
X56138095Y-39059523D02*
X56100000Y-39021428D01*
X56061904Y-38945238D01*
X56061904Y-38754761D01*
X56100000Y-38678571D01*
X56138095Y-38640476D01*
X56214285Y-38602380D01*
X56290476Y-38602380D01*
X56404761Y-38640476D01*
X56861904Y-39097619D01*
X56861904Y-38602380D01*
%TO.C,C1*%
X67785714Y-47383333D02*
X67823809Y-47421428D01*
X67861904Y-47535714D01*
X67861904Y-47611904D01*
X67823809Y-47726190D01*
X67747619Y-47802380D01*
X67671428Y-47840476D01*
X67519047Y-47878571D01*
X67404761Y-47878571D01*
X67252380Y-47840476D01*
X67176190Y-47802380D01*
X67100000Y-47726190D01*
X67061904Y-47611904D01*
X67061904Y-47535714D01*
X67100000Y-47421428D01*
X67138095Y-47383333D01*
X67861904Y-46621428D02*
X67861904Y-47078571D01*
X67861904Y-46850000D02*
X67061904Y-46850000D01*
X67176190Y-46926190D01*
X67252380Y-47002380D01*
X67290476Y-47078571D01*
%TO.C,C4*%
X67785714Y-40633333D02*
X67823809Y-40671428D01*
X67861904Y-40785714D01*
X67861904Y-40861904D01*
X67823809Y-40976190D01*
X67747619Y-41052380D01*
X67671428Y-41090476D01*
X67519047Y-41128571D01*
X67404761Y-41128571D01*
X67252380Y-41090476D01*
X67176190Y-41052380D01*
X67100000Y-40976190D01*
X67061904Y-40861904D01*
X67061904Y-40785714D01*
X67100000Y-40671428D01*
X67138095Y-40633333D01*
X67328571Y-39947619D02*
X67861904Y-39947619D01*
X67023809Y-40138095D02*
X67595238Y-40328571D01*
X67595238Y-39833333D01*
%TO.C,C3*%
X67785714Y-43883333D02*
X67823809Y-43921428D01*
X67861904Y-44035714D01*
X67861904Y-44111904D01*
X67823809Y-44226190D01*
X67747619Y-44302380D01*
X67671428Y-44340476D01*
X67519047Y-44378571D01*
X67404761Y-44378571D01*
X67252380Y-44340476D01*
X67176190Y-44302380D01*
X67100000Y-44226190D01*
X67061904Y-44111904D01*
X67061904Y-44035714D01*
X67100000Y-43921428D01*
X67138095Y-43883333D01*
X67061904Y-43616666D02*
X67061904Y-43121428D01*
X67366666Y-43388095D01*
X67366666Y-43273809D01*
X67404761Y-43197619D01*
X67442857Y-43159523D01*
X67519047Y-43121428D01*
X67709523Y-43121428D01*
X67785714Y-43159523D01*
X67823809Y-43197619D01*
X67861904Y-43273809D01*
X67861904Y-43502380D01*
X67823809Y-43578571D01*
X67785714Y-43616666D01*
%TO.C,JP4*%
X52833333Y-51811904D02*
X52833333Y-52383333D01*
X52795238Y-52497619D01*
X52719047Y-52573809D01*
X52604761Y-52611904D01*
X52528571Y-52611904D01*
X53214285Y-52611904D02*
X53214285Y-51811904D01*
X53519047Y-51811904D01*
X53595238Y-51850000D01*
X53633333Y-51888095D01*
X53671428Y-51964285D01*
X53671428Y-52078571D01*
X53633333Y-52154761D01*
X53595238Y-52192857D01*
X53519047Y-52230952D01*
X53214285Y-52230952D01*
X54357142Y-52078571D02*
X54357142Y-52611904D01*
X54166666Y-51773809D02*
X53976190Y-52345238D01*
X54471428Y-52345238D01*
%TO.C,R3*%
X50616666Y-30611904D02*
X50350000Y-30230952D01*
X50159523Y-30611904D02*
X50159523Y-29811904D01*
X50464285Y-29811904D01*
X50540476Y-29850000D01*
X50578571Y-29888095D01*
X50616666Y-29964285D01*
X50616666Y-30078571D01*
X50578571Y-30154761D01*
X50540476Y-30192857D01*
X50464285Y-30230952D01*
X50159523Y-30230952D01*
X50883333Y-29811904D02*
X51378571Y-29811904D01*
X51111904Y-30116666D01*
X51226190Y-30116666D01*
X51302380Y-30154761D01*
X51340476Y-30192857D01*
X51378571Y-30269047D01*
X51378571Y-30459523D01*
X51340476Y-30535714D01*
X51302380Y-30573809D01*
X51226190Y-30611904D01*
X50997619Y-30611904D01*
X50921428Y-30573809D01*
X50883333Y-30535714D01*
%TO.C,R4*%
X50616666Y-34611904D02*
X50350000Y-34230952D01*
X50159523Y-34611904D02*
X50159523Y-33811904D01*
X50464285Y-33811904D01*
X50540476Y-33850000D01*
X50578571Y-33888095D01*
X50616666Y-33964285D01*
X50616666Y-34078571D01*
X50578571Y-34154761D01*
X50540476Y-34192857D01*
X50464285Y-34230952D01*
X50159523Y-34230952D01*
X51302380Y-34078571D02*
X51302380Y-34611904D01*
X51111904Y-33773809D02*
X50921428Y-34345238D01*
X51416666Y-34345238D01*
%TO.C,R5*%
X50616666Y-32611904D02*
X50350000Y-32230952D01*
X50159523Y-32611904D02*
X50159523Y-31811904D01*
X50464285Y-31811904D01*
X50540476Y-31850000D01*
X50578571Y-31888095D01*
X50616666Y-31964285D01*
X50616666Y-32078571D01*
X50578571Y-32154761D01*
X50540476Y-32192857D01*
X50464285Y-32230952D01*
X50159523Y-32230952D01*
X51340476Y-31811904D02*
X50959523Y-31811904D01*
X50921428Y-32192857D01*
X50959523Y-32154761D01*
X51035714Y-32116666D01*
X51226190Y-32116666D01*
X51302380Y-32154761D01*
X51340476Y-32192857D01*
X51378571Y-32269047D01*
X51378571Y-32459523D01*
X51340476Y-32535714D01*
X51302380Y-32573809D01*
X51226190Y-32611904D01*
X51035714Y-32611904D01*
X50959523Y-32573809D01*
X50921428Y-32535714D01*
D11*
%TO.C,J4*%
X5702380Y-23583333D02*
X6416666Y-23583333D01*
X6559523Y-23630952D01*
X6654761Y-23726190D01*
X6702380Y-23869047D01*
X6702380Y-23964285D01*
X6035714Y-22678571D02*
X6702380Y-22678571D01*
X5654761Y-22916666D02*
X6369047Y-23154761D01*
X6369047Y-22535714D01*
D10*
%TO.C,J3*%
X983333Y-30561904D02*
X983333Y-31133333D01*
X945238Y-31247619D01*
X869047Y-31323809D01*
X754761Y-31361904D01*
X678571Y-31361904D01*
X1288095Y-30561904D02*
X1783333Y-30561904D01*
X1516666Y-30866666D01*
X1630952Y-30866666D01*
X1707142Y-30904761D01*
X1745238Y-30942857D01*
X1783333Y-31019047D01*
X1783333Y-31209523D01*
X1745238Y-31285714D01*
X1707142Y-31323809D01*
X1630952Y-31361904D01*
X1402380Y-31361904D01*
X1326190Y-31323809D01*
X1288095Y-31285714D01*
%TO.C,C5*%
X67785714Y-51133333D02*
X67823809Y-51171428D01*
X67861904Y-51285714D01*
X67861904Y-51361904D01*
X67823809Y-51476190D01*
X67747619Y-51552380D01*
X67671428Y-51590476D01*
X67519047Y-51628571D01*
X67404761Y-51628571D01*
X67252380Y-51590476D01*
X67176190Y-51552380D01*
X67100000Y-51476190D01*
X67061904Y-51361904D01*
X67061904Y-51285714D01*
X67100000Y-51171428D01*
X67138095Y-51133333D01*
X67061904Y-50409523D02*
X67061904Y-50790476D01*
X67442857Y-50828571D01*
X67404761Y-50790476D01*
X67366666Y-50714285D01*
X67366666Y-50523809D01*
X67404761Y-50447619D01*
X67442857Y-50409523D01*
X67519047Y-50371428D01*
X67709523Y-50371428D01*
X67785714Y-50409523D01*
X67823809Y-50447619D01*
X67861904Y-50523809D01*
X67861904Y-50714285D01*
X67823809Y-50790476D01*
X67785714Y-50828571D01*
%TO.C,J1*%
X53775000Y-38890000D02*
X53775000Y-51230000D01*
X33000000Y-37995662D02*
X32750000Y-38428675D01*
X32750000Y-38428675D02*
X32500000Y-37995662D01*
X32500000Y-37995662D02*
X33000000Y-37995662D01*
X22805000Y-51230000D02*
X22805000Y-38890000D01*
X22805000Y-38890000D02*
X53775000Y-38890000D01*
%TO.C,JP1*%
X24100000Y-8050000D02*
X24100000Y-7450000D01*
X24800000Y-6750000D02*
X26200000Y-6750000D01*
X26900000Y-7450000D02*
X26900000Y-8050000D01*
X26200000Y-8750000D02*
X24800000Y-8750000D01*
X24800000Y-6750000D02*
G75*
G03*
X24100000Y-7450000I-1J-699999D01*
G01*
X24100000Y-8050000D02*
G75*
G03*
X24800000Y-8750000I699999J-1D01*
G01*
X26900000Y-7450000D02*
G75*
G03*
X26200000Y-6750000I-699999J1D01*
G01*
X26200000Y-8750000D02*
G75*
G03*
X26900000Y-8050000I1J699999D01*
G01*
%TO.C,JP2*%
X54900000Y-7200000D02*
X54900000Y-7800000D01*
X52100000Y-7800000D02*
X52100000Y-7200000D01*
X52800000Y-6500000D02*
X54200000Y-6500000D01*
X54200000Y-8500000D02*
X52800000Y-8500000D01*
X52800000Y-6500000D02*
G75*
G03*
X52100000Y-7200000I-1J-699999D01*
G01*
X52100000Y-7800000D02*
G75*
G03*
X52800000Y-8500000I699999J-1D01*
G01*
X54200000Y-8500000D02*
G75*
G03*
X54900000Y-7800000I1J699999D01*
G01*
X54900000Y-7200000D02*
G75*
G03*
X54200000Y-6500000I-699999J1D01*
G01*
%TO.C,JP3*%
X59550000Y-7200000D02*
X59550000Y-7800000D01*
X55450000Y-7800000D02*
X55450000Y-7200000D01*
X58900000Y-8500000D02*
X56100000Y-8500000D01*
X56000000Y-9000000D02*
X56600000Y-9000000D01*
X56300000Y-8700000D02*
X56600000Y-9000000D01*
X56100000Y-6500000D02*
X58900000Y-6500000D01*
X56300000Y-8700000D02*
X56000000Y-9000000D01*
X55450000Y-7800000D02*
G75*
G03*
X56150000Y-8500000I699999J-1D01*
G01*
X56150000Y-6500000D02*
G75*
G03*
X55450000Y-7200000I-1J-699999D01*
G01*
X59550000Y-7200000D02*
G75*
G03*
X58850000Y-6500000I-699999J1D01*
G01*
X58850000Y-8500000D02*
G75*
G03*
X59550000Y-7800000I1J699999D01*
G01*
%TO.C,C7*%
X53103733Y-37510000D02*
X53396267Y-37510000D01*
X53103733Y-36490000D02*
X53396267Y-36490000D01*
%TO.C,RN1*%
X59950000Y-21670000D02*
X62050000Y-21670000D01*
X59950000Y-16330000D02*
X62050000Y-16330000D01*
%TO.C,RN3*%
X59950000Y-9830000D02*
X62050000Y-9830000D01*
X59950000Y-15170000D02*
X62050000Y-15170000D01*
%TO.C,U3*%
X66000000Y-22280000D02*
X61000000Y-22280000D01*
X64000000Y-9220000D02*
X58000000Y-9220000D01*
%TO.C,RN2*%
X59950000Y-31830000D02*
X62050000Y-31830000D01*
X59950000Y-37170000D02*
X62050000Y-37170000D01*
%TO.C,U4*%
X64000000Y-24720000D02*
X58000000Y-24720000D01*
X66000000Y-37780000D02*
X61000000Y-37780000D01*
%TO.C,RN4*%
X59950000Y-25330000D02*
X62050000Y-25330000D01*
X59950000Y-30670000D02*
X62050000Y-30670000D01*
%TO.C,C6*%
X58396267Y-22990000D02*
X58103733Y-22990000D01*
X58396267Y-24010000D02*
X58103733Y-24010000D01*
%TO.C,D3*%
X350000Y-31850000D02*
X350000Y-38750000D01*
X3650000Y-31850000D02*
X350000Y-31850000D01*
X3650000Y-31850000D02*
X3650000Y-38750000D01*
%TO.C,L1*%
X21300000Y-27300000D02*
X21300000Y-30300000D01*
X21300000Y-17700000D02*
X21300000Y-20700000D01*
X8700000Y-30300000D02*
X8700000Y-27300000D01*
X8700000Y-20700000D02*
X8700000Y-17700000D01*
X8700000Y-17700000D02*
X21300000Y-17700000D01*
X21300000Y-30300000D02*
X8700000Y-30300000D01*
%TO.C,U5*%
X10050000Y-40750000D02*
X8950000Y-40750000D01*
X10050000Y-41700000D02*
X10050000Y-40750000D01*
X11550000Y-31300000D02*
X10050000Y-31300000D01*
X10050000Y-32250000D02*
X4925000Y-32250000D01*
X11550000Y-41700000D02*
X10050000Y-41700000D01*
X10050000Y-31300000D02*
X10050000Y-32250000D01*
%TO.C,JP5*%
X54850000Y-54300000D02*
X54850000Y-53700000D01*
X57650000Y-53700000D02*
X57650000Y-54300000D01*
X55550000Y-53000000D02*
X56950000Y-53000000D01*
X56950000Y-55000000D02*
X55550000Y-55000000D01*
X57650000Y-53700000D02*
G75*
G03*
X56950000Y-53000000I-699999J1D01*
G01*
X56950000Y-55000000D02*
G75*
G03*
X57650000Y-54300000I1J699999D01*
G01*
X54850000Y-54300000D02*
G75*
G03*
X55550000Y-55000000I699999J-1D01*
G01*
X55550000Y-53000000D02*
G75*
G03*
X54850000Y-53700000I-1J-699999D01*
G01*
%TO.C,JP6*%
X8950000Y-16200000D02*
X9250000Y-16500000D01*
X8750000Y-13600000D02*
X8750000Y-16400000D01*
X6750000Y-16400000D02*
X6750000Y-13600000D01*
X8950000Y-16200000D02*
X9250000Y-15900000D01*
X7450000Y-12950000D02*
X8050000Y-12950000D01*
X9250000Y-16500000D02*
X9250000Y-15900000D01*
X8050000Y-17050000D02*
X7450000Y-17050000D01*
X6750000Y-16350000D02*
G75*
G03*
X7450000Y-17050000I699999J-1D01*
G01*
X8750000Y-13650000D02*
G75*
G03*
X8050000Y-12950000I-699999J1D01*
G01*
X7450000Y-12950000D02*
G75*
G03*
X6750000Y-13650000I-1J-699999D01*
G01*
X8050000Y-17050000D02*
G75*
G03*
X8750000Y-16350000I1J699999D01*
G01*
%TO.C,R2*%
X8754724Y-54477500D02*
X8245276Y-54477500D01*
X8754724Y-55522500D02*
X8245276Y-55522500D01*
%TO.C,R1*%
X20254724Y-55522500D02*
X19745276Y-55522500D01*
X20254724Y-54477500D02*
X19745276Y-54477500D01*
%TO.C,D2*%
X13910000Y-55735000D02*
X13910000Y-54265000D01*
X11450000Y-55735000D02*
X13910000Y-55735000D01*
X13910000Y-54265000D02*
X11450000Y-54265000D01*
%TO.C,C9*%
X9500000Y-8990000D02*
X10750000Y-8990000D01*
X10125000Y-8365000D02*
X10125000Y-9615000D01*
X10990000Y-15945563D02*
X10990000Y-13260000D01*
X12054437Y-6490000D02*
X21510000Y-6490000D01*
X10990000Y-7554437D02*
X10990000Y-10240000D01*
X21510000Y-17010000D02*
X21510000Y-13260000D01*
X21510000Y-6490000D02*
X21510000Y-10240000D01*
X10990000Y-15945563D02*
X12054437Y-17010000D01*
X10990000Y-7554437D02*
X12054437Y-6490000D01*
X12054437Y-17010000D02*
X21510000Y-17010000D01*
%TO.C,J5*%
X200000Y-41450000D02*
X200000Y-41850000D01*
X8160000Y-41690000D02*
X440000Y-41690000D01*
X3819000Y-46025000D02*
X3726000Y-45931000D01*
X840000Y-41450000D02*
X200000Y-41450000D01*
X440000Y-41690000D02*
X440000Y-48810000D01*
X900000Y-41690000D02*
X900000Y-48810000D01*
X8160000Y-41690000D02*
X8160000Y-48810000D01*
X8160000Y-48810000D02*
X440000Y-48810000D01*
X4059000Y-45855000D02*
X3931000Y-45726000D01*
X6069000Y-48275000D02*
X5941000Y-48146000D01*
X2000000Y-41690000D02*
X2000000Y-48810000D01*
X6275000Y-48070000D02*
X6181000Y-47976000D01*
X4109000Y-44925000D02*
G75*
G03*
X5890193Y-44925504I891000J1425003D01*
G01*
X5866000Y-42059999D02*
G75*
G03*
X4110106Y-42074642I-866000J-1439999D01*
G01*
X3320000Y-43500000D02*
G75*
G03*
X3575279Y-44390264I1679990J-3D01*
G01*
X6440001Y-44366000D02*
G75*
G03*
X6425358Y-42610106I-1439999J866000D01*
G01*
X3560000Y-42634000D02*
G75*
G03*
X3319901Y-43528674I1440014J-866003D01*
G01*
X6680000Y-47000000D02*
G75*
G03*
X6680000Y-47000000I-1680000J0D01*
G01*
%TO.C,C8*%
X10240000Y-52195563D02*
X10240000Y-49510000D01*
X11304437Y-53260000D02*
X20760000Y-53260000D01*
X20760000Y-53260000D02*
X20760000Y-49510000D01*
X10240000Y-52195563D02*
X11304437Y-53260000D01*
X8750000Y-45240000D02*
X10000000Y-45240000D01*
X10240000Y-43804437D02*
X10240000Y-46490000D01*
X20760000Y-42740000D02*
X20760000Y-46490000D01*
X9375000Y-44615000D02*
X9375000Y-45865000D01*
X11304437Y-42740000D02*
X20760000Y-42740000D01*
X10240000Y-43804437D02*
X11304437Y-42740000D01*
%TO.C,JP7*%
X7290000Y-8170000D02*
X8620000Y-8170000D01*
X8620000Y-8170000D02*
X8620000Y-9500000D01*
X6020000Y-8170000D02*
X6020000Y-10830000D01*
X6020000Y-10830000D02*
X880000Y-10830000D01*
X6020000Y-8170000D02*
X880000Y-8170000D01*
X880000Y-8170000D02*
X880000Y-10830000D01*
%TO.C,D1*%
X14590000Y-54265000D02*
X14590000Y-55735000D01*
X14590000Y-55735000D02*
X17050000Y-55735000D01*
X17050000Y-54265000D02*
X14590000Y-54265000D01*
%TO.C,C2*%
X55240000Y-47603733D02*
X55240000Y-47896267D01*
X56260000Y-47603733D02*
X56260000Y-47896267D01*
%TO.C,J6*%
X32750000Y-55680000D02*
X33750000Y-55680000D01*
X33250000Y-54680000D02*
X32750000Y-55680000D01*
X29340000Y-52980000D02*
X29340000Y-46480000D01*
X40380000Y-52980000D02*
X40380000Y-54290000D01*
X47320000Y-46480000D02*
X47320000Y-52980000D01*
X28040000Y-45170000D02*
X48620000Y-45170000D01*
X48620000Y-54290000D02*
X28040000Y-54290000D01*
X29340000Y-46480000D02*
X47320000Y-46480000D01*
X28040000Y-54290000D02*
X28040000Y-45170000D01*
X40380000Y-52980000D02*
X40380000Y-52980000D01*
X47320000Y-52980000D02*
X40380000Y-52980000D01*
X36280000Y-54290000D02*
X36280000Y-52980000D01*
X33750000Y-55680000D02*
X33250000Y-54680000D01*
X48620000Y-45170000D02*
X48620000Y-54290000D01*
X36280000Y-52980000D02*
X29340000Y-52980000D01*
%TO.C,J2*%
X69100000Y-16100000D02*
X68500000Y-16700000D01*
X76700000Y-32900000D02*
X81100000Y-32900000D01*
X81100000Y-16600000D02*
X76700000Y-16600000D01*
X72400000Y-31700000D02*
X74600000Y-31700000D01*
X76700000Y-24300000D02*
X81100000Y-24300000D01*
X76700000Y-35100000D02*
X81100000Y-35100000D01*
X72400000Y-23000000D02*
X74600000Y-23000000D01*
X74600000Y-28600000D02*
X72400000Y-28600000D01*
X81100000Y-10400000D02*
X69100000Y-10400000D01*
X81100000Y-55400000D02*
X81100000Y-600000D01*
X81100000Y-33900000D02*
X76700000Y-33900000D01*
X76700000Y-28600000D02*
X81100000Y-28600000D01*
X76700000Y-22100000D02*
X81100000Y-22100000D01*
X83900000Y-55400000D02*
X83900000Y-600000D01*
X81100000Y-38200000D02*
X76700000Y-38200000D01*
X74600000Y-24300000D02*
X72400000Y-24300000D01*
X72400000Y-16600000D02*
X74600000Y-16600000D01*
X84200000Y-55400000D02*
X69100000Y-55400000D01*
X76700000Y-17800000D02*
X81100000Y-17800000D01*
X72400000Y-29500000D02*
X74600000Y-29500000D01*
X81100000Y-20900000D02*
X76700000Y-20900000D01*
X81100000Y-46000000D02*
X69100000Y-46000000D01*
X68500000Y-16700000D02*
X68500000Y-15500000D01*
X72400000Y-20900000D02*
X74600000Y-20900000D01*
X72400000Y-36000000D02*
X74600000Y-36000000D01*
X69100000Y-600000D02*
X84200000Y-600000D01*
X74600000Y-26500000D02*
X72400000Y-26500000D01*
X81100000Y-36000000D02*
X76700000Y-36000000D01*
X74600000Y-30800000D02*
X72400000Y-30800000D01*
X76700000Y-30800000D02*
X81100000Y-30800000D01*
X74600000Y-35100000D02*
X72400000Y-35100000D01*
X74600000Y-32900000D02*
X72400000Y-32900000D01*
X72400000Y-18700000D02*
X74600000Y-18700000D01*
X74600000Y-15700000D02*
X72400000Y-15700000D01*
X81100000Y-29500000D02*
X76700000Y-29500000D01*
X74600000Y-37300000D02*
X72400000Y-37300000D01*
X72400000Y-33900000D02*
X74600000Y-33900000D01*
X76700000Y-39400000D02*
X81100000Y-39400000D01*
X68500000Y-15500000D02*
X69100000Y-16100000D01*
X76700000Y-15700000D02*
X81100000Y-15700000D01*
X81100000Y-37300000D02*
X81100000Y-36000000D01*
X72400000Y-25200000D02*
X74600000Y-25200000D01*
X72400000Y-38200000D02*
X74600000Y-38200000D01*
X74600000Y-39400000D02*
X72400000Y-39400000D01*
X74600000Y-17800000D02*
X72400000Y-17800000D01*
X81100000Y-25200000D02*
X76700000Y-25200000D01*
X76700000Y-26500000D02*
X81100000Y-26500000D01*
X76700000Y-37300000D02*
X81100000Y-37300000D01*
X81100000Y-23000000D02*
X76700000Y-23000000D01*
X69100000Y-55400000D02*
X69100000Y-600000D01*
X81100000Y-40300000D02*
X76700000Y-40300000D01*
X81100000Y-31700000D02*
X76700000Y-31700000D01*
X74600000Y-20000000D02*
X72400000Y-20000000D01*
X81100000Y-18700000D02*
X76700000Y-18700000D01*
X72400000Y-27400000D02*
X74600000Y-27400000D01*
X72400000Y-40300000D02*
X74600000Y-40300000D01*
X81100000Y-27400000D02*
X76700000Y-27400000D01*
X76700000Y-20000000D02*
X81100000Y-20000000D01*
X74600000Y-22100000D02*
X72400000Y-22100000D01*
%TO.C,U2*%
X60750000Y-38690000D02*
X62700000Y-38690000D01*
X60750000Y-48810000D02*
X64200000Y-48810000D01*
X60750000Y-38690000D02*
X58800000Y-38690000D01*
X60750000Y-48810000D02*
X58800000Y-48810000D01*
%TO.C,C1*%
X65490000Y-47103733D02*
X65490000Y-47396267D01*
X66510000Y-47103733D02*
X66510000Y-47396267D01*
%TO.C,C4*%
X65490000Y-39853733D02*
X65490000Y-40146267D01*
X66510000Y-39853733D02*
X66510000Y-40146267D01*
%TO.C,C3*%
X65490000Y-43758767D02*
X65490000Y-43466233D01*
X66510000Y-43758767D02*
X66510000Y-43466233D01*
%TO.C,JP4*%
X55550000Y-50500000D02*
X56950000Y-50500000D01*
X57650000Y-51200000D02*
X57650000Y-51800000D01*
X56950000Y-52500000D02*
X55550000Y-52500000D01*
X54850000Y-51800000D02*
X54850000Y-51200000D01*
X57650000Y-51200000D02*
G75*
G03*
X56950000Y-50500000I-699999J1D01*
G01*
X56950000Y-52500000D02*
G75*
G03*
X57650000Y-51800000I1J699999D01*
G01*
X54850000Y-51800000D02*
G75*
G03*
X55550000Y-52500000I699999J-1D01*
G01*
X55550000Y-50500000D02*
G75*
G03*
X54850000Y-51200000I-1J-699999D01*
G01*
%TO.C,R3*%
X52995276Y-29727500D02*
X53504724Y-29727500D01*
X52995276Y-30772500D02*
X53504724Y-30772500D01*
%TO.C,R4*%
X52995276Y-33727500D02*
X53504724Y-33727500D01*
X52995276Y-34772500D02*
X53504724Y-34772500D01*
%TO.C,R5*%
X52995276Y-32772500D02*
X53504724Y-32772500D01*
X52995276Y-31727500D02*
X53504724Y-31727500D01*
%TO.C,U1*%
X7000000Y-1000000D02*
X58000000Y-1000000D01*
X58000000Y-6000000D02*
X7000000Y-6000000D01*
X7000000Y-6000000D02*
X7000000Y-1000000D01*
X58000000Y-1000000D02*
X58000000Y-6000000D01*
%TO.C,J4*%
X1200000Y-21000000D02*
X1700000Y-21000000D01*
X1200000Y-20900000D02*
X1700000Y-20900000D01*
X1200000Y-16900000D02*
X1700000Y-16900000D01*
X1700000Y-19100000D02*
X1200000Y-19100000D01*
X4000000Y-24060000D02*
X4000000Y-23450000D01*
X1700000Y-16900000D02*
X1700000Y-17100000D01*
X1700000Y-18900000D02*
X1700000Y-19100000D01*
X5310000Y-11940000D02*
X590000Y-11940000D01*
X5610000Y-11640000D02*
X4360000Y-11640000D01*
X5310000Y-13700000D02*
X5510000Y-13700000D01*
X590000Y-24060000D02*
X5310000Y-24060000D01*
X1700000Y-20900000D02*
X1700000Y-21100000D01*
X2700000Y-24060000D02*
X2700000Y-23450000D01*
X5510000Y-13700000D02*
X5510000Y-13400000D01*
X5410000Y-13700000D02*
X5410000Y-13400000D01*
X1200000Y-23450000D02*
X4700000Y-23450000D01*
X4700000Y-21500000D02*
X5310000Y-21500000D01*
X4700000Y-23450000D02*
X4700000Y-21500000D01*
X1200000Y-15000000D02*
X1700000Y-15000000D01*
X2700000Y-11940000D02*
X2700000Y-12550000D01*
X1700000Y-15100000D02*
X1200000Y-15100000D01*
X5310000Y-24060000D02*
X5310000Y-11940000D01*
X1200000Y-18900000D02*
X1700000Y-18900000D01*
X5610000Y-12890000D02*
X5610000Y-11640000D01*
X5310000Y-14500000D02*
X4700000Y-14500000D01*
X4700000Y-14500000D02*
X4700000Y-12550000D01*
X5510000Y-13400000D02*
X5310000Y-13400000D01*
X4000000Y-11940000D02*
X4000000Y-12550000D01*
X4700000Y-12550000D02*
X1200000Y-12550000D01*
X1200000Y-17000000D02*
X1700000Y-17000000D01*
X1700000Y-17100000D02*
X1200000Y-17100000D01*
X1700000Y-21100000D02*
X1200000Y-21100000D01*
X590000Y-11940000D02*
X590000Y-24060000D01*
X1200000Y-12550000D02*
X1200000Y-23450000D01*
X1200000Y-14900000D02*
X1700000Y-14900000D01*
X1700000Y-14900000D02*
X1700000Y-15100000D01*
X1200000Y-19000000D02*
X1700000Y-19000000D01*
%TO.C,J3*%
X940000Y-26500000D02*
X1550000Y-26500000D01*
X940000Y-29910000D02*
X7060000Y-29910000D01*
X2700000Y-25090000D02*
X2400000Y-25090000D01*
X7060000Y-25190000D02*
X940000Y-25190000D01*
X7060000Y-29910000D02*
X7060000Y-25190000D01*
X1550000Y-25800000D02*
X1550000Y-29300000D01*
X940000Y-27800000D02*
X1550000Y-27800000D01*
X2700000Y-25190000D02*
X2700000Y-24990000D01*
X940000Y-25190000D02*
X940000Y-29910000D01*
X3900000Y-28800000D02*
X4100000Y-28800000D01*
X1550000Y-29300000D02*
X6450000Y-29300000D01*
X3500000Y-25800000D02*
X1550000Y-25800000D01*
X4000000Y-29300000D02*
X4000000Y-28800000D01*
X2400000Y-24990000D02*
X2400000Y-25190000D01*
X640000Y-24890000D02*
X640000Y-26140000D01*
X6450000Y-25800000D02*
X4500000Y-25800000D01*
X4100000Y-28800000D02*
X4100000Y-29300000D01*
X3500000Y-25190000D02*
X3500000Y-25800000D01*
X7060000Y-27800000D02*
X6450000Y-27800000D01*
X7060000Y-26500000D02*
X6450000Y-26500000D01*
X1890000Y-24890000D02*
X640000Y-24890000D01*
X3900000Y-29300000D02*
X3900000Y-28800000D01*
X2700000Y-24990000D02*
X2400000Y-24990000D01*
X4500000Y-25800000D02*
X4500000Y-25190000D01*
X6450000Y-29300000D02*
X6450000Y-25800000D01*
%TO.C,C5*%
X66510000Y-51146267D02*
X66510000Y-50853733D01*
X65490000Y-51146267D02*
X65490000Y-50853733D01*
%TD*%
%LPC*%
D13*
%TO.C,J1*%
X25790000Y-42170000D03*
X50790000Y-42170000D03*
D14*
X32750000Y-40750000D03*
D15*
X35520000Y-40750000D03*
X38290000Y-40750000D03*
X41060000Y-40750000D03*
X43830000Y-40750000D03*
X34135000Y-43590000D03*
X36905000Y-43590000D03*
X39675000Y-43590000D03*
X42445000Y-43590000D03*
%TD*%
D16*
%TO.C,JP1*%
X26150000Y-7750000D03*
D17*
X24850000Y-7750000D03*
%TD*%
D16*
%TO.C,JP2*%
X54150000Y-7500000D03*
D17*
X52850000Y-7500000D03*
%TD*%
D18*
%TO.C,JP3*%
X56200000Y-7500000D03*
D19*
X57500000Y-7500000D03*
D20*
X58800000Y-7500000D03*
%TD*%
D21*
%TO.C,C7*%
X52387500Y-37000000D03*
X54112500Y-37000000D03*
%TD*%
D22*
%TO.C,RN1*%
X62500000Y-21000000D03*
X62500000Y-19660000D03*
X62500000Y-18340000D03*
X62500000Y-17000000D03*
X59500000Y-17000000D03*
X59500000Y-18340000D03*
X59500000Y-19660000D03*
X59500000Y-21000000D03*
%TD*%
%TO.C,RN3*%
X62500000Y-14500000D03*
X62500000Y-13160000D03*
X62500000Y-11840000D03*
X62500000Y-10500000D03*
X59500000Y-10500000D03*
X59500000Y-11840000D03*
X59500000Y-13160000D03*
X59500000Y-14500000D03*
%TD*%
D23*
%TO.C,U3*%
X65750000Y-21465000D03*
X65750000Y-20195000D03*
X65750000Y-18925000D03*
X65750000Y-17655000D03*
X65750000Y-16385000D03*
X65750000Y-15115000D03*
X65750000Y-13845000D03*
X65750000Y-12575000D03*
X65750000Y-11305000D03*
X65750000Y-10035000D03*
X56250000Y-10035000D03*
X56250000Y-11305000D03*
X56250000Y-12575000D03*
X56250000Y-13845000D03*
X56250000Y-15115000D03*
X56250000Y-16385000D03*
X56250000Y-17655000D03*
X56250000Y-18925000D03*
X56250000Y-20195000D03*
X56250000Y-21465000D03*
%TD*%
D22*
%TO.C,RN2*%
X62500000Y-36500000D03*
X62500000Y-35160000D03*
X62500000Y-33840000D03*
X62500000Y-32500000D03*
X59500000Y-32500000D03*
X59500000Y-33840000D03*
X59500000Y-35160000D03*
X59500000Y-36500000D03*
%TD*%
D23*
%TO.C,U4*%
X65750000Y-36965000D03*
X65750000Y-35695000D03*
X65750000Y-34425000D03*
X65750000Y-33155000D03*
X65750000Y-31885000D03*
X65750000Y-30615000D03*
X65750000Y-29345000D03*
X65750000Y-28075000D03*
X65750000Y-26805000D03*
X65750000Y-25535000D03*
X56250000Y-25535000D03*
X56250000Y-26805000D03*
X56250000Y-28075000D03*
X56250000Y-29345000D03*
X56250000Y-30615000D03*
X56250000Y-31885000D03*
X56250000Y-33155000D03*
X56250000Y-34425000D03*
X56250000Y-35695000D03*
X56250000Y-36965000D03*
%TD*%
D22*
%TO.C,RN4*%
X62500000Y-30000000D03*
X62500000Y-28660000D03*
X62500000Y-27340000D03*
X62500000Y-26000000D03*
X59500000Y-26000000D03*
X59500000Y-27340000D03*
X59500000Y-28660000D03*
X59500000Y-30000000D03*
%TD*%
D24*
%TO.C,C6*%
X59112500Y-23500000D03*
X57387500Y-23500000D03*
%TD*%
D25*
%TO.C,D3*%
X2000000Y-33750000D03*
X2000000Y-38750000D03*
%TD*%
D26*
%TO.C,H1*%
X45500000Y-34000000D03*
%TD*%
%TO.C,H2*%
X25500000Y-14000000D03*
%TD*%
%TO.C,H3*%
X25500000Y-34000000D03*
%TD*%
D27*
%TO.C,L1*%
X10050000Y-24000000D03*
X19950000Y-24000000D03*
%TD*%
D28*
%TO.C,U5*%
X7225000Y-33100000D03*
X7225000Y-34800000D03*
X7225000Y-36500000D03*
D29*
X16375000Y-36500000D03*
D28*
X7225000Y-38200000D03*
X7225000Y-39900000D03*
%TD*%
D16*
%TO.C,JP5*%
X56900000Y-54000000D03*
D17*
X55600000Y-54000000D03*
%TD*%
D30*
%TO.C,JP6*%
X7750000Y-16300000D03*
D31*
X7750000Y-15000000D03*
D32*
X7750000Y-13700000D03*
%TD*%
D33*
%TO.C,R2*%
X9412500Y-55000000D03*
X7587500Y-55000000D03*
%TD*%
%TO.C,R1*%
X20912500Y-55000000D03*
X19087500Y-55000000D03*
%TD*%
D34*
%TO.C,D2*%
X13125000Y-55000000D03*
X11375000Y-55000000D03*
%TD*%
D35*
%TO.C,C9*%
X12250000Y-11750000D03*
X20250000Y-11750000D03*
%TD*%
D36*
%TO.C,J5*%
X5000000Y-43500000D03*
D37*
X5000000Y-47000000D03*
%TD*%
D35*
%TO.C,C8*%
X11500000Y-48000000D03*
X19500000Y-48000000D03*
%TD*%
D38*
%TO.C,JP7*%
X7290000Y-9500000D03*
D39*
X4750000Y-9500000D03*
X2210000Y-9500000D03*
%TD*%
D40*
%TO.C,D1*%
X15375000Y-55000000D03*
X17125000Y-55000000D03*
%TD*%
D41*
%TO.C,C2*%
X55750000Y-46887500D03*
X55750000Y-48612500D03*
%TD*%
D42*
%TO.C,J6*%
X33250000Y-51000000D03*
D43*
X33250000Y-48460000D03*
X35790000Y-51000000D03*
X35790000Y-48460000D03*
X38330000Y-51000000D03*
X38330000Y-48460000D03*
X40870000Y-51000000D03*
X40870000Y-48460000D03*
X43410000Y-51000000D03*
X43410000Y-48460000D03*
%TD*%
D44*
%TO.C,J2*%
X71355000Y-16120000D03*
X71355000Y-18280000D03*
X71355000Y-20440000D03*
X71355000Y-22600000D03*
X71355000Y-24760000D03*
X71355000Y-26920000D03*
X71355000Y-29080000D03*
X71355000Y-31240000D03*
X71355000Y-33400000D03*
X71355000Y-35560000D03*
X71355000Y-37720000D03*
X71355000Y-39880000D03*
X75645000Y-16120000D03*
X75645000Y-18280000D03*
X75645000Y-20440000D03*
X75645000Y-22600000D03*
X75645000Y-24760000D03*
X75645000Y-26920000D03*
X75645000Y-29080000D03*
X75645000Y-31240000D03*
X75645000Y-33400000D03*
X75645000Y-35560000D03*
X75645000Y-37720000D03*
X75645000Y-39880000D03*
D45*
X73500000Y-51400000D03*
X73500000Y-4600000D03*
%TD*%
D46*
%TO.C,U2*%
X63325000Y-48195000D03*
X63325000Y-46925000D03*
X63325000Y-45655000D03*
X63325000Y-44385000D03*
X63325000Y-43115000D03*
X63325000Y-41845000D03*
X63325000Y-40575000D03*
X63325000Y-39305000D03*
X58175000Y-39305000D03*
X58175000Y-40575000D03*
X58175000Y-41845000D03*
X58175000Y-43115000D03*
X58175000Y-44385000D03*
X58175000Y-45655000D03*
X58175000Y-46925000D03*
X58175000Y-48195000D03*
%TD*%
D41*
%TO.C,C1*%
X66000000Y-46387500D03*
X66000000Y-48112500D03*
%TD*%
%TO.C,C4*%
X66000000Y-39137500D03*
X66000000Y-40862500D03*
%TD*%
D47*
%TO.C,C3*%
X66000000Y-44475000D03*
X66000000Y-42750000D03*
%TD*%
D16*
%TO.C,JP4*%
X56900000Y-51500000D03*
D17*
X55600000Y-51500000D03*
%TD*%
D48*
%TO.C,R3*%
X52337500Y-30250000D03*
X54162500Y-30250000D03*
%TD*%
%TO.C,R4*%
X52337500Y-34250000D03*
X54162500Y-34250000D03*
%TD*%
%TO.C,R5*%
X52337500Y-32250000D03*
X54162500Y-32250000D03*
%TD*%
D45*
%TO.C,U1*%
X3500000Y-52500000D03*
X61500000Y-52500000D03*
X3500000Y-3500000D03*
X61500000Y-3500000D03*
D49*
X8370000Y-4770000D03*
D15*
X8370000Y-2230000D03*
X10910000Y-4770000D03*
X10910000Y-2230000D03*
X13450000Y-4770000D03*
X13450000Y-2230000D03*
X15990000Y-4770000D03*
X15990000Y-2230000D03*
X18530000Y-4770000D03*
X18530000Y-2230000D03*
X21070000Y-4770000D03*
X21070000Y-2230000D03*
X23610000Y-4770000D03*
X23610000Y-2230000D03*
X26150000Y-4770000D03*
X26150000Y-2230000D03*
X28690000Y-4770000D03*
X28690000Y-2230000D03*
X31230000Y-4770000D03*
X31230000Y-2230000D03*
X33770000Y-4770000D03*
X33770000Y-2230000D03*
X36310000Y-4770000D03*
X36310000Y-2230000D03*
X38850000Y-4770000D03*
X38850000Y-2230000D03*
X41390000Y-4770000D03*
X41390000Y-2230000D03*
X43930000Y-4770000D03*
X43930000Y-2230000D03*
X46470000Y-4770000D03*
X46470000Y-2230000D03*
X49010000Y-4770000D03*
X49010000Y-2230000D03*
X51550000Y-4770000D03*
X51550000Y-2230000D03*
X54090000Y-4770000D03*
X54090000Y-2230000D03*
X56630000Y-4770000D03*
X56630000Y-2230000D03*
%TD*%
D50*
%TO.C,J4*%
X3500000Y-14000000D03*
D51*
X3500000Y-16000000D03*
X3500000Y-18000000D03*
X3500000Y-20000000D03*
X3500000Y-22000000D03*
%TD*%
D52*
%TO.C,J3*%
X3000000Y-27000000D03*
D53*
X5000000Y-27000000D03*
%TD*%
D47*
%TO.C,C5*%
X66000000Y-51862500D03*
X66000000Y-50137500D03*
%TD*%
M02*
