M48
; DRILL file {KiCad 5.1.10} date Sat Nov 27 10:47:32 2021
; FORMAT={-:-/ absolute / inch / decimal}
; #@! TF.CreationDate,2021-11-27T10:47:32+01:00
; #@! TF.GenerationSoftware,Kicad,Pcbnew,5.1.10
FMAT,2
INCH
T1C0.0157
T2C0.0295
T3C0.0315
T4C0.0394
T5C0.0433
T6C0.0472
T7C0.1220
T8C0.1260
T9C0.1063
%
G90
G05
T1
X0.1476Y-1.437
X0.3346Y-2.126
X0.4035Y-1.437
X0.4035Y-1.5748
X0.4724Y-1.1909
X0.4724Y-1.6831
X0.502Y-1.1614
X0.502Y-1.7126
X0.5315Y-1.1909
X0.5315Y-1.6831
X0.5413Y-0.315
X0.561Y-1.1614
X0.561Y-1.7126
X0.561Y-2.1654
X0.5807Y-0.2362
X0.5906Y-1.1909
X0.5906Y-1.6831
X0.6201Y-1.1614
X0.6201Y-1.7126
X0.6496Y-0.315
X0.6496Y-1.1909
X0.6496Y-1.6831
X0.6791Y-1.1614
X0.6791Y-1.7126
X0.7087Y-1.1319
X0.7087Y-1.1909
X0.7087Y-1.6831
X0.7087Y-1.7421
X0.7087Y-1.811
X0.7087Y-1.9685
X0.7382Y-1.1614
X0.7382Y-1.7126
X0.748Y-0.3839
X0.748Y-0.5413
X0.7677Y-1.1319
X0.7677Y-1.1909
X0.7677Y-1.6831
X0.7677Y-1.7421
X0.7677Y-1.811
X0.7677Y-1.9685
X0.7972Y-0.3839
X0.7972Y-0.5413
X0.7972Y-1.1614
X0.7972Y-1.7126
X0.8268Y-1.1319
X0.8268Y-1.1909
X0.8268Y-1.6831
X0.8268Y-1.7421
X0.8268Y-1.811
X0.8268Y-1.9685
X0.8465Y-0.3839
X0.8465Y-0.5413
X1.25Y-0.4331
X1.6732Y-0.4429
X1.9783Y-0.7185
X2.0079Y-1.4567
X2.0571Y-1.1516
X2.0571Y-1.3091
X2.0965Y-0.3543
X2.1555Y-1.8406
X2.1555Y-1.9193
X2.2707Y-0.7451
X2.2715Y-0.7951
X2.2736Y-0.3937
X2.2835Y-0.0492
X2.3067Y-0.722
X2.3425Y-0.6201
X2.4213Y-0.9252
X2.5098Y-0.8661
X2.5098Y-0.9843
X2.5295Y-0.3937
X2.5984Y-2.0965
X2.6575Y-1.5453
T2
X0.1181Y-1.063
X0.1378Y-0.5512
X0.1378Y-0.6299
X0.1378Y-0.7087
X0.1378Y-0.7874
X0.1378Y-0.8661
X0.1969Y-1.063
T3
X0.1713Y-1.3031
T4
X0.087Y-0.374
X0.187Y-0.374
X0.287Y-0.374
X1.2894Y-1.6043
X1.3091Y-1.9079
X1.3091Y-2.0079
X1.3439Y-1.7161
X1.3984Y-1.6043
X1.4091Y-1.9079
X1.4091Y-2.0079
X1.453Y-1.7161
X1.5075Y-1.6043
X1.5091Y-1.9079
X1.5091Y-2.0079
X1.562Y-1.7161
X1.6091Y-1.9079
X1.6091Y-2.0079
X1.6165Y-1.6043
X1.6711Y-1.7161
X1.7091Y-1.9079
X1.7091Y-2.0079
X1.7256Y-1.6043
X2.8093Y-0.6346
X2.8093Y-0.7197
X2.8093Y-0.8047
X2.8093Y-0.8898
X2.8093Y-0.9748
X2.8093Y-1.0598
X2.8093Y-1.1449
X2.8093Y-1.2299
X2.8093Y-1.315
X2.8093Y-1.4
X2.8093Y-1.485
X2.8093Y-1.5701
X2.9781Y-0.6346
X2.9781Y-0.7197
X2.9781Y-0.8047
X2.9781Y-0.8898
X2.9781Y-0.9748
X2.9781Y-1.0598
X2.9781Y-1.1449
X2.9781Y-1.2299
X2.9781Y-1.315
X2.9781Y-1.4
X2.9781Y-1.485
X2.9781Y-1.5701
T5
X0.3295Y-0.0878
X0.3295Y-0.1878
X0.4295Y-0.0878
X0.4295Y-0.1878
X0.5295Y-0.0878
X0.5295Y-0.1878
X0.6295Y-0.0878
X0.6295Y-0.1878
X0.7295Y-0.0878
X0.7295Y-0.1878
X0.8295Y-0.0878
X0.8295Y-0.1878
X0.9295Y-0.0878
X0.9295Y-0.1878
X1.0295Y-0.0878
X1.0295Y-0.1878
X1.1295Y-0.0878
X1.1295Y-0.1878
X1.2295Y-0.0878
X1.2295Y-0.1878
X1.3295Y-0.0878
X1.3295Y-0.1878
X1.4295Y-0.0878
X1.4295Y-0.1878
X1.5295Y-0.0878
X1.5295Y-0.1878
X1.6295Y-0.0878
X1.6295Y-0.1878
X1.7295Y-0.0878
X1.7295Y-0.1878
X1.8295Y-0.0878
X1.8295Y-0.1878
X1.9295Y-0.0878
X1.9295Y-0.1878
X2.0295Y-0.0878
X2.0295Y-0.1878
X2.1295Y-0.0878
X2.1295Y-0.1878
X2.2295Y-0.0878
X2.2295Y-0.1878
T6
X0.1969Y-1.7126
X0.1969Y-1.8504
T7
X2.8937Y-0.1811
X2.8937Y-2.0236
T8
X1.0154Y-1.6602
X1.9996Y-1.6602
T9
X0.1378Y-0.1378
X0.1378Y-2.0669
X1.0039Y-0.5512
X1.0039Y-1.3386
X1.7913Y-1.3386
X2.4213Y-0.1378
X2.4213Y-2.0669
T0
M30
