%TF.GenerationSoftware,KiCad,Pcbnew,(6.0.2)*%
%TF.CreationDate,2022-03-12T22:20:01+01:00*%
%TF.ProjectId,GrasPiB_v1,47726173-5069-4425-9f76-312e6b696361,3*%
%TF.SameCoordinates,PX6779420PY3305860*%
%TF.FileFunction,Soldermask,Top*%
%TF.FilePolarity,Negative*%
%FSLAX46Y46*%
G04 Gerber Fmt 4.6, Leading zero omitted, Abs format (unit mm)*
G04 Created by KiCad (PCBNEW (6.0.2)) date 2022-03-12 22:20:01*
%MOMM*%
%LPD*%
G01*
G04 APERTURE LIST*
G04 Aperture macros list*
%AMRoundRect*
0 Rectangle with rounded corners*
0 $1 Rounding radius*
0 $2 $3 $4 $5 $6 $7 $8 $9 X,Y pos of 4 corners*
0 Add a 4 corners polygon primitive as box body*
4,1,4,$2,$3,$4,$5,$6,$7,$8,$9,$2,$3,0*
0 Add four circle primitives for the rounded corners*
1,1,$1+$1,$2,$3*
1,1,$1+$1,$4,$5*
1,1,$1+$1,$6,$7*
1,1,$1+$1,$8,$9*
0 Add four rect primitives between the rounded corners*
20,1,$1+$1,$2,$3,$4,$5,0*
20,1,$1+$1,$4,$5,$6,$7,0*
20,1,$1+$1,$6,$7,$8,$9,0*
20,1,$1+$1,$8,$9,$2,$3,0*%
%AMFreePoly0*
4,1,22,0.500000,-0.750000,0.000000,-0.750000,0.000000,-0.745033,-0.079941,-0.743568,-0.215256,-0.701293,-0.333266,-0.622738,-0.424486,-0.514219,-0.481581,-0.384460,-0.499164,-0.250000,-0.500000,-0.250000,-0.500000,0.250000,-0.499164,0.250000,-0.499963,0.256109,-0.478152,0.396186,-0.417904,0.524511,-0.324060,0.630769,-0.204165,0.706417,-0.067858,0.745374,0.000000,0.744959,0.000000,0.750000,
0.500000,0.750000,0.500000,-0.750000,0.500000,-0.750000,$1*%
%AMFreePoly1*
4,1,20,0.000000,0.744959,0.073905,0.744508,0.209726,0.703889,0.328688,0.626782,0.421226,0.519385,0.479903,0.390333,0.500000,0.250000,0.500000,-0.250000,0.499851,-0.262216,0.476331,-0.402017,0.414519,-0.529596,0.319384,-0.634700,0.198574,-0.708877,0.061801,-0.746166,0.000000,-0.745033,0.000000,-0.750000,-0.500000,-0.750000,-0.500000,0.750000,0.000000,0.750000,0.000000,0.744959,
0.000000,0.744959,$1*%
%AMFreePoly2*
4,1,22,0.550000,-0.750000,0.000000,-0.750000,0.000000,-0.745033,-0.079941,-0.743568,-0.215256,-0.701293,-0.333266,-0.622738,-0.424486,-0.514219,-0.481581,-0.384460,-0.499164,-0.250000,-0.500000,-0.250000,-0.500000,0.250000,-0.499164,0.250000,-0.499963,0.256109,-0.478152,0.396186,-0.417904,0.524511,-0.324060,0.630769,-0.204165,0.706417,-0.067858,0.745374,0.000000,0.744959,0.000000,0.750000,
0.550000,0.750000,0.550000,-0.750000,0.550000,-0.750000,$1*%
%AMFreePoly3*
4,1,20,0.000000,0.744959,0.073905,0.744508,0.209726,0.703889,0.328688,0.626782,0.421226,0.519385,0.479903,0.390333,0.500000,0.250000,0.500000,-0.250000,0.499851,-0.262216,0.476331,-0.402017,0.414519,-0.529596,0.319384,-0.634700,0.198574,-0.708877,0.061801,-0.746166,0.000000,-0.745033,0.000000,-0.750000,-0.550000,-0.750000,-0.550000,0.750000,0.000000,0.750000,0.000000,0.744959,
0.000000,0.744959,$1*%
G04 Aperture macros list end*
%ADD10C,4.000000*%
%ADD11R,1.600000X1.600000*%
%ADD12C,1.600000*%
%ADD13FreePoly0,180.000000*%
%ADD14FreePoly1,180.000000*%
%ADD15FreePoly2,0.000000*%
%ADD16R,1.000000X1.500000*%
%ADD17FreePoly3,0.000000*%
%ADD18RoundRect,0.237500X-0.300000X-0.237500X0.300000X-0.237500X0.300000X0.237500X-0.300000X0.237500X0*%
%ADD19R,0.900000X0.900000*%
%ADD20R,1.500000X0.600000*%
%ADD21RoundRect,0.237500X0.300000X0.237500X-0.300000X0.237500X-0.300000X-0.237500X0.300000X-0.237500X0*%
%ADD22R,1.800000X3.500000*%
%ADD23C,2.700000*%
%ADD24R,2.900000X5.400000*%
%ADD25R,4.600000X1.100000*%
%ADD26R,9.400000X10.800000*%
%ADD27FreePoly2,90.000000*%
%ADD28R,1.500000X1.000000*%
%ADD29FreePoly3,90.000000*%
%ADD30RoundRect,0.237500X0.250000X0.237500X-0.250000X0.237500X-0.250000X-0.237500X0.250000X-0.237500X0*%
%ADD31RoundRect,0.237500X0.287500X0.237500X-0.287500X0.237500X-0.287500X-0.237500X0.287500X-0.237500X0*%
%ADD32RoundRect,0.250000X-1.750000X-1.000000X1.750000X-1.000000X1.750000X1.000000X-1.750000X1.000000X0*%
%ADD33R,2.400000X2.400000*%
%ADD34C,2.400000*%
%ADD35R,1.700000X1.700000*%
%ADD36O,1.700000X1.700000*%
%ADD37RoundRect,0.237500X-0.287500X-0.237500X0.287500X-0.237500X0.287500X0.237500X-0.287500X0.237500X0*%
%ADD38RoundRect,0.237500X-0.237500X0.300000X-0.237500X-0.300000X0.237500X-0.300000X0.237500X0.300000X0*%
%ADD39RoundRect,0.250000X0.600000X-0.600000X0.600000X0.600000X-0.600000X0.600000X-0.600000X-0.600000X0*%
%ADD40C,1.700000*%
%ADD41O,2.000000X1.500000*%
%ADD42C,6.000000*%
%ADD43RoundRect,0.150000X0.725000X0.150000X-0.725000X0.150000X-0.725000X-0.150000X0.725000X-0.150000X0*%
%ADD44RoundRect,0.237500X0.237500X-0.300000X0.237500X0.300000X-0.237500X0.300000X-0.237500X-0.300000X0*%
%ADD45RoundRect,0.237500X-0.250000X-0.237500X0.250000X-0.237500X0.250000X0.237500X-0.250000X0.237500X0*%
%ADD46RoundRect,0.400000X-0.400000X-0.400000X0.400000X-0.400000X0.400000X0.400000X-0.400000X0.400000X0*%
%ADD47RoundRect,0.249999X-0.625001X0.350001X-0.625001X-0.350001X0.625001X-0.350001X0.625001X0.350001X0*%
%ADD48O,1.750000X1.200000*%
%ADD49RoundRect,0.249999X-0.350001X-0.625001X0.350001X-0.625001X0.350001X0.625001X-0.350001X0.625001X0*%
%ADD50O,1.200000X1.750000*%
G04 APERTURE END LIST*
D10*
%TO.C,J1*%
X25790000Y-42170000D03*
X50790000Y-42170000D03*
D11*
X32750000Y-40750000D03*
D12*
X35520000Y-40750000D03*
X38290000Y-40750000D03*
X41060000Y-40750000D03*
X43830000Y-40750000D03*
X34135000Y-43590000D03*
X36905000Y-43590000D03*
X39675000Y-43590000D03*
X42445000Y-43590000D03*
%TD*%
D13*
%TO.C,JP1*%
X26150000Y-7750000D03*
D14*
X24850000Y-7750000D03*
%TD*%
D13*
%TO.C,JP2*%
X54150000Y-7500000D03*
D14*
X52850000Y-7500000D03*
%TD*%
D15*
%TO.C,JP3*%
X56200000Y-7500000D03*
D16*
X57500000Y-7500000D03*
D17*
X58800000Y-7500000D03*
%TD*%
D18*
%TO.C,C7*%
X52387500Y-37000000D03*
X54112500Y-37000000D03*
%TD*%
D19*
%TO.C,RN1*%
X62500000Y-21000000D03*
X62500000Y-19660000D03*
X62500000Y-18340000D03*
X62500000Y-17000000D03*
X59500000Y-17000000D03*
X59500000Y-18340000D03*
X59500000Y-19660000D03*
X59500000Y-21000000D03*
%TD*%
%TO.C,RN3*%
X62500000Y-14500000D03*
X62500000Y-13160000D03*
X62500000Y-11840000D03*
X62500000Y-10500000D03*
X59500000Y-10500000D03*
X59500000Y-11840000D03*
X59500000Y-13160000D03*
X59500000Y-14500000D03*
%TD*%
D20*
%TO.C,U3*%
X65750000Y-21465000D03*
X65750000Y-20195000D03*
X65750000Y-18925000D03*
X65750000Y-17655000D03*
X65750000Y-16385000D03*
X65750000Y-15115000D03*
X65750000Y-13845000D03*
X65750000Y-12575000D03*
X65750000Y-11305000D03*
X65750000Y-10035000D03*
X56250000Y-10035000D03*
X56250000Y-11305000D03*
X56250000Y-12575000D03*
X56250000Y-13845000D03*
X56250000Y-15115000D03*
X56250000Y-16385000D03*
X56250000Y-17655000D03*
X56250000Y-18925000D03*
X56250000Y-20195000D03*
X56250000Y-21465000D03*
%TD*%
D19*
%TO.C,RN2*%
X62500000Y-36500000D03*
X62500000Y-35160000D03*
X62500000Y-33840000D03*
X62500000Y-32500000D03*
X59500000Y-32500000D03*
X59500000Y-33840000D03*
X59500000Y-35160000D03*
X59500000Y-36500000D03*
%TD*%
D20*
%TO.C,U4*%
X65750000Y-36965000D03*
X65750000Y-35695000D03*
X65750000Y-34425000D03*
X65750000Y-33155000D03*
X65750000Y-31885000D03*
X65750000Y-30615000D03*
X65750000Y-29345000D03*
X65750000Y-28075000D03*
X65750000Y-26805000D03*
X65750000Y-25535000D03*
X56250000Y-25535000D03*
X56250000Y-26805000D03*
X56250000Y-28075000D03*
X56250000Y-29345000D03*
X56250000Y-30615000D03*
X56250000Y-31885000D03*
X56250000Y-33155000D03*
X56250000Y-34425000D03*
X56250000Y-35695000D03*
X56250000Y-36965000D03*
%TD*%
D19*
%TO.C,RN4*%
X62500000Y-30000000D03*
X62500000Y-28660000D03*
X62500000Y-27340000D03*
X62500000Y-26000000D03*
X59500000Y-26000000D03*
X59500000Y-27340000D03*
X59500000Y-28660000D03*
X59500000Y-30000000D03*
%TD*%
D21*
%TO.C,C6*%
X59112500Y-23500000D03*
X57387500Y-23500000D03*
%TD*%
D22*
%TO.C,D3*%
X2000000Y-33750000D03*
X2000000Y-38750000D03*
%TD*%
D23*
%TO.C,H1*%
X45500000Y-34000000D03*
%TD*%
%TO.C,H2*%
X25500000Y-14000000D03*
%TD*%
%TO.C,H3*%
X25500000Y-34000000D03*
%TD*%
D24*
%TO.C,L1*%
X10050000Y-24000000D03*
X19950000Y-24000000D03*
%TD*%
D25*
%TO.C,U5*%
X7225000Y-33100000D03*
X7225000Y-34800000D03*
X7225000Y-36500000D03*
D26*
X16375000Y-36500000D03*
D25*
X7225000Y-38200000D03*
X7225000Y-39900000D03*
%TD*%
D13*
%TO.C,JP5*%
X56900000Y-54000000D03*
D14*
X55600000Y-54000000D03*
%TD*%
D27*
%TO.C,JP6*%
X7750000Y-16300000D03*
D28*
X7750000Y-15000000D03*
D29*
X7750000Y-13700000D03*
%TD*%
D30*
%TO.C,R2*%
X9412500Y-55000000D03*
X7587500Y-55000000D03*
%TD*%
%TO.C,R1*%
X20912500Y-55000000D03*
X19087500Y-55000000D03*
%TD*%
D31*
%TO.C,D2*%
X13125000Y-55000000D03*
X11375000Y-55000000D03*
%TD*%
D32*
%TO.C,C9*%
X12250000Y-11750000D03*
X20250000Y-11750000D03*
%TD*%
D33*
%TO.C,J5*%
X5000000Y-43500000D03*
D34*
X5000000Y-47000000D03*
%TD*%
D32*
%TO.C,C8*%
X11500000Y-48000000D03*
X19500000Y-48000000D03*
%TD*%
D35*
%TO.C,JP7*%
X7290000Y-9500000D03*
D36*
X4750000Y-9500000D03*
X2210000Y-9500000D03*
%TD*%
D37*
%TO.C,D1*%
X15375000Y-55000000D03*
X17125000Y-55000000D03*
%TD*%
D38*
%TO.C,C2*%
X55750000Y-46887500D03*
X55750000Y-48612500D03*
%TD*%
D39*
%TO.C,J6*%
X33250000Y-51000000D03*
D40*
X33250000Y-48460000D03*
X35790000Y-51000000D03*
X35790000Y-48460000D03*
X38330000Y-51000000D03*
X38330000Y-48460000D03*
X40870000Y-51000000D03*
X40870000Y-48460000D03*
X43410000Y-51000000D03*
X43410000Y-48460000D03*
%TD*%
D41*
%TO.C,J2*%
X71355000Y-16120000D03*
X71355000Y-18280000D03*
X71355000Y-20440000D03*
X71355000Y-22600000D03*
X71355000Y-24760000D03*
X71355000Y-26920000D03*
X71355000Y-29080000D03*
X71355000Y-31240000D03*
X71355000Y-33400000D03*
X71355000Y-35560000D03*
X71355000Y-37720000D03*
X71355000Y-39880000D03*
X75645000Y-16120000D03*
X75645000Y-18280000D03*
X75645000Y-20440000D03*
X75645000Y-22600000D03*
X75645000Y-24760000D03*
X75645000Y-26920000D03*
X75645000Y-29080000D03*
X75645000Y-31240000D03*
X75645000Y-33400000D03*
X75645000Y-35560000D03*
X75645000Y-37720000D03*
X75645000Y-39880000D03*
D42*
X73500000Y-51400000D03*
X73500000Y-4600000D03*
%TD*%
D43*
%TO.C,U2*%
X63325000Y-48195000D03*
X63325000Y-46925000D03*
X63325000Y-45655000D03*
X63325000Y-44385000D03*
X63325000Y-43115000D03*
X63325000Y-41845000D03*
X63325000Y-40575000D03*
X63325000Y-39305000D03*
X58175000Y-39305000D03*
X58175000Y-40575000D03*
X58175000Y-41845000D03*
X58175000Y-43115000D03*
X58175000Y-44385000D03*
X58175000Y-45655000D03*
X58175000Y-46925000D03*
X58175000Y-48195000D03*
%TD*%
D38*
%TO.C,C1*%
X66000000Y-46387500D03*
X66000000Y-48112500D03*
%TD*%
%TO.C,C4*%
X66000000Y-39137500D03*
X66000000Y-40862500D03*
%TD*%
D44*
%TO.C,C3*%
X66000000Y-44475000D03*
X66000000Y-42750000D03*
%TD*%
D13*
%TO.C,JP4*%
X56900000Y-51500000D03*
D14*
X55600000Y-51500000D03*
%TD*%
D45*
%TO.C,R3*%
X52337500Y-30250000D03*
X54162500Y-30250000D03*
%TD*%
%TO.C,R4*%
X52337500Y-34250000D03*
X54162500Y-34250000D03*
%TD*%
%TO.C,R5*%
X52337500Y-32250000D03*
X54162500Y-32250000D03*
%TD*%
D42*
%TO.C,U1*%
X3500000Y-52500000D03*
X61500000Y-52500000D03*
X3500000Y-3500000D03*
X61500000Y-3500000D03*
D46*
X8370000Y-4770000D03*
D12*
X8370000Y-2230000D03*
X10910000Y-4770000D03*
X10910000Y-2230000D03*
X13450000Y-4770000D03*
X13450000Y-2230000D03*
X15990000Y-4770000D03*
X15990000Y-2230000D03*
X18530000Y-4770000D03*
X18530000Y-2230000D03*
X21070000Y-4770000D03*
X21070000Y-2230000D03*
X23610000Y-4770000D03*
X23610000Y-2230000D03*
X26150000Y-4770000D03*
X26150000Y-2230000D03*
X28690000Y-4770000D03*
X28690000Y-2230000D03*
X31230000Y-4770000D03*
X31230000Y-2230000D03*
X33770000Y-4770000D03*
X33770000Y-2230000D03*
X36310000Y-4770000D03*
X36310000Y-2230000D03*
X38850000Y-4770000D03*
X38850000Y-2230000D03*
X41390000Y-4770000D03*
X41390000Y-2230000D03*
X43930000Y-4770000D03*
X43930000Y-2230000D03*
X46470000Y-4770000D03*
X46470000Y-2230000D03*
X49010000Y-4770000D03*
X49010000Y-2230000D03*
X51550000Y-4770000D03*
X51550000Y-2230000D03*
X54090000Y-4770000D03*
X54090000Y-2230000D03*
X56630000Y-4770000D03*
X56630000Y-2230000D03*
%TD*%
D47*
%TO.C,J4*%
X3500000Y-14000000D03*
D48*
X3500000Y-16000000D03*
X3500000Y-18000000D03*
X3500000Y-20000000D03*
X3500000Y-22000000D03*
%TD*%
D49*
%TO.C,J3*%
X3000000Y-27000000D03*
D50*
X5000000Y-27000000D03*
%TD*%
D44*
%TO.C,C5*%
X66000000Y-51862500D03*
X66000000Y-50137500D03*
%TD*%
M02*
