%TF.GenerationSoftware,KiCad,Pcbnew,(6.0.2)*%
%TF.CreationDate,2022-03-12T22:20:01+01:00*%
%TF.ProjectId,GrasPiB_v1,47726173-5069-4425-9f76-312e6b696361,3*%
%TF.SameCoordinates,PX6779420PY3305860*%
%TF.FileFunction,Soldermask,Bot*%
%TF.FilePolarity,Negative*%
%FSLAX46Y46*%
G04 Gerber Fmt 4.6, Leading zero omitted, Abs format (unit mm)*
G04 Created by KiCad (PCBNEW (6.0.2)) date 2022-03-12 22:20:01*
%MOMM*%
%LPD*%
G01*
G04 APERTURE LIST*
G04 Aperture macros list*
%AMRoundRect*
0 Rectangle with rounded corners*
0 $1 Rounding radius*
0 $2 $3 $4 $5 $6 $7 $8 $9 X,Y pos of 4 corners*
0 Add a 4 corners polygon primitive as box body*
4,1,4,$2,$3,$4,$5,$6,$7,$8,$9,$2,$3,0*
0 Add four circle primitives for the rounded corners*
1,1,$1+$1,$2,$3*
1,1,$1+$1,$4,$5*
1,1,$1+$1,$6,$7*
1,1,$1+$1,$8,$9*
0 Add four rect primitives between the rounded corners*
20,1,$1+$1,$2,$3,$4,$5,0*
20,1,$1+$1,$4,$5,$6,$7,0*
20,1,$1+$1,$6,$7,$8,$9,0*
20,1,$1+$1,$8,$9,$2,$3,0*%
G04 Aperture macros list end*
%ADD10C,4.000000*%
%ADD11R,1.600000X1.600000*%
%ADD12C,1.600000*%
%ADD13C,2.700000*%
%ADD14R,2.400000X2.400000*%
%ADD15C,2.400000*%
%ADD16R,1.700000X1.700000*%
%ADD17O,1.700000X1.700000*%
%ADD18RoundRect,0.250000X0.600000X-0.600000X0.600000X0.600000X-0.600000X0.600000X-0.600000X-0.600000X0*%
%ADD19C,1.700000*%
%ADD20O,2.000000X1.500000*%
%ADD21C,6.000000*%
%ADD22RoundRect,0.400000X-0.400000X-0.400000X0.400000X-0.400000X0.400000X0.400000X-0.400000X0.400000X0*%
%ADD23RoundRect,0.249999X-0.625001X0.350001X-0.625001X-0.350001X0.625001X-0.350001X0.625001X0.350001X0*%
%ADD24O,1.750000X1.200000*%
%ADD25RoundRect,0.249999X-0.350001X-0.625001X0.350001X-0.625001X0.350001X0.625001X-0.350001X0.625001X0*%
%ADD26O,1.200000X1.750000*%
G04 APERTURE END LIST*
D10*
%TO.C,J1*%
X25790000Y-42170000D03*
X50790000Y-42170000D03*
D11*
X32750000Y-40750000D03*
D12*
X35520000Y-40750000D03*
X38290000Y-40750000D03*
X41060000Y-40750000D03*
X43830000Y-40750000D03*
X34135000Y-43590000D03*
X36905000Y-43590000D03*
X39675000Y-43590000D03*
X42445000Y-43590000D03*
%TD*%
D13*
%TO.C,H1*%
X45500000Y-34000000D03*
%TD*%
%TO.C,H2*%
X25500000Y-14000000D03*
%TD*%
%TO.C,H3*%
X25500000Y-34000000D03*
%TD*%
D14*
%TO.C,J5*%
X5000000Y-43500000D03*
D15*
X5000000Y-47000000D03*
%TD*%
D16*
%TO.C,JP7*%
X7290000Y-9500000D03*
D17*
X4750000Y-9500000D03*
X2210000Y-9500000D03*
%TD*%
D18*
%TO.C,J6*%
X33250000Y-51000000D03*
D19*
X33250000Y-48460000D03*
X35790000Y-51000000D03*
X35790000Y-48460000D03*
X38330000Y-51000000D03*
X38330000Y-48460000D03*
X40870000Y-51000000D03*
X40870000Y-48460000D03*
X43410000Y-51000000D03*
X43410000Y-48460000D03*
%TD*%
D20*
%TO.C,J2*%
X71355000Y-16120000D03*
X71355000Y-18280000D03*
X71355000Y-20440000D03*
X71355000Y-22600000D03*
X71355000Y-24760000D03*
X71355000Y-26920000D03*
X71355000Y-29080000D03*
X71355000Y-31240000D03*
X71355000Y-33400000D03*
X71355000Y-35560000D03*
X71355000Y-37720000D03*
X71355000Y-39880000D03*
X75645000Y-16120000D03*
X75645000Y-18280000D03*
X75645000Y-20440000D03*
X75645000Y-22600000D03*
X75645000Y-24760000D03*
X75645000Y-26920000D03*
X75645000Y-29080000D03*
X75645000Y-31240000D03*
X75645000Y-33400000D03*
X75645000Y-35560000D03*
X75645000Y-37720000D03*
X75645000Y-39880000D03*
D21*
X73500000Y-51400000D03*
X73500000Y-4600000D03*
%TD*%
%TO.C,U1*%
X3500000Y-52500000D03*
X61500000Y-52500000D03*
X3500000Y-3500000D03*
X61500000Y-3500000D03*
D22*
X8370000Y-4770000D03*
D12*
X8370000Y-2230000D03*
X10910000Y-4770000D03*
X10910000Y-2230000D03*
X13450000Y-4770000D03*
X13450000Y-2230000D03*
X15990000Y-4770000D03*
X15990000Y-2230000D03*
X18530000Y-4770000D03*
X18530000Y-2230000D03*
X21070000Y-4770000D03*
X21070000Y-2230000D03*
X23610000Y-4770000D03*
X23610000Y-2230000D03*
X26150000Y-4770000D03*
X26150000Y-2230000D03*
X28690000Y-4770000D03*
X28690000Y-2230000D03*
X31230000Y-4770000D03*
X31230000Y-2230000D03*
X33770000Y-4770000D03*
X33770000Y-2230000D03*
X36310000Y-4770000D03*
X36310000Y-2230000D03*
X38850000Y-4770000D03*
X38850000Y-2230000D03*
X41390000Y-4770000D03*
X41390000Y-2230000D03*
X43930000Y-4770000D03*
X43930000Y-2230000D03*
X46470000Y-4770000D03*
X46470000Y-2230000D03*
X49010000Y-4770000D03*
X49010000Y-2230000D03*
X51550000Y-4770000D03*
X51550000Y-2230000D03*
X54090000Y-4770000D03*
X54090000Y-2230000D03*
X56630000Y-4770000D03*
X56630000Y-2230000D03*
%TD*%
D23*
%TO.C,J4*%
X3500000Y-14000000D03*
D24*
X3500000Y-16000000D03*
X3500000Y-18000000D03*
X3500000Y-20000000D03*
X3500000Y-22000000D03*
%TD*%
D25*
%TO.C,J3*%
X3000000Y-27000000D03*
D26*
X5000000Y-27000000D03*
%TD*%
M02*
